<?xml version="1.0" encoding="utf-8" standalone="no"?>
<!DOCTYPE svg PUBLIC "-//W3C//DTD SVG 1.1//EN"
  "http://www.w3.org/Graphics/SVG/1.1/DTD/svg11.dtd">
<svg xmlns:xlink="http://www.w3.org/1999/xlink" width="503.693188pt" height="323.024869pt" viewBox="0 0 503.693188 323.024869" xmlns="http://www.w3.org/2000/svg" version="1.1">
 <metadata>
  <rdf:RDF xmlns:dc="http://purl.org/dc/elements/1.1/" xmlns:cc="http://creativecommons.org/ns#" xmlns:rdf="http://www.w3.org/1999/02/22-rdf-syntax-ns#">
   <cc:Work>
    <dc:type rdf:resource="http://purl.org/dc/dcmitype/StillImage"/>
    <dc:date>2023-10-14T15:57:23.384238</dc:date>
    <dc:format>image/svg+xml</dc:format>
    <dc:creator>
     <cc:Agent>
      <dc:title>Matplotlib v3.8.0, https://matplotlib.org/</dc:title>
     </cc:Agent>
    </dc:creator>
   </cc:Work>
  </rdf:RDF>
 </metadata>
 <defs>
  <style type="text/css">*{stroke-linejoin: round; stroke-linecap: butt}</style>
 </defs>
 <g id="figure_1">
  <g id="patch_1">
   <path d="M 0 323.024869 
L 503.693188 323.024869 
L 503.693188 0 
L 0 0 
z
" style="fill: #ffffff"/>
  </g>
  <g id="axes_1">
   <g id="patch_2">
    <path d="M 66.053125 288.430125 
L 423.173125 288.430125 
L 423.173125 22.318125 
L 66.053125 22.318125 
z
" style="fill: #ffffff"/>
   </g>
   <g id="matplotlib.axis_1">
    <g id="xtick_1">
     <g id="line2d_1">
      <defs>
       <path id="m2e5419043c" d="M 0 0 
L 0 3.5 
" style="stroke: #000000; stroke-width: 0.8"/>
      </defs>
      <g>
       <use xlink:href="#m2e5419043c" x="82.285852" y="288.430125" style="stroke: #000000; stroke-width: 0.8"/>
      </g>
     </g>
     <g id="text_1">
      <!-- 2005 -->
      <g transform="translate(73.454702 300.703441) scale(0.0694 -0.0694)">
       <defs>
        <path id="DejaVuSans-32" d="M 1228 531 
L 3431 531 
L 3431 0 
L 469 0 
L 469 531 
Q 828 903 1448 1529 
Q 2069 2156 2228 2338 
Q 2531 2678 2651 2914 
Q 2772 3150 2772 3378 
Q 2772 3750 2511 3984 
Q 2250 4219 1831 4219 
Q 1534 4219 1204 4116 
Q 875 4013 500 3803 
L 500 4441 
Q 881 4594 1212 4672 
Q 1544 4750 1819 4750 
Q 2544 4750 2975 4387 
Q 3406 4025 3406 3419 
Q 3406 3131 3298 2873 
Q 3191 2616 2906 2266 
Q 2828 2175 2409 1742 
Q 1991 1309 1228 531 
z
" transform="scale(0.015625)"/>
        <path id="DejaVuSans-30" d="M 2034 4250 
Q 1547 4250 1301 3770 
Q 1056 3291 1056 2328 
Q 1056 1369 1301 889 
Q 1547 409 2034 409 
Q 2525 409 2770 889 
Q 3016 1369 3016 2328 
Q 3016 3291 2770 3770 
Q 2525 4250 2034 4250 
z
M 2034 4750 
Q 2819 4750 3233 4129 
Q 3647 3509 3647 2328 
Q 3647 1150 3233 529 
Q 2819 -91 2034 -91 
Q 1250 -91 836 529 
Q 422 1150 422 2328 
Q 422 3509 836 4129 
Q 1250 4750 2034 4750 
z
" transform="scale(0.015625)"/>
        <path id="DejaVuSans-35" d="M 691 4666 
L 3169 4666 
L 3169 4134 
L 1269 4134 
L 1269 2991 
Q 1406 3038 1543 3061 
Q 1681 3084 1819 3084 
Q 2600 3084 3056 2656 
Q 3513 2228 3513 1497 
Q 3513 744 3044 326 
Q 2575 -91 1722 -91 
Q 1428 -91 1123 -41 
Q 819 9 494 109 
L 494 744 
Q 775 591 1075 516 
Q 1375 441 1709 441 
Q 2250 441 2565 725 
Q 2881 1009 2881 1497 
Q 2881 1984 2565 2268 
Q 2250 2553 1709 2553 
Q 1456 2553 1204 2497 
Q 953 2441 691 2322 
L 691 4666 
z
" transform="scale(0.015625)"/>
       </defs>
       <use xlink:href="#DejaVuSans-32"/>
       <use xlink:href="#DejaVuSans-30" x="63.623047"/>
       <use xlink:href="#DejaVuSans-30" x="127.246094"/>
       <use xlink:href="#DejaVuSans-35" x="190.869141"/>
      </g>
     </g>
    </g>
    <g id="xtick_2">
     <g id="line2d_2">
      <g>
       <use xlink:href="#m2e5419043c" x="101.383178" y="288.430125" style="stroke: #000000; stroke-width: 0.8"/>
      </g>
     </g>
     <g id="text_2">
      <!-- 2006 -->
      <g transform="translate(92.552028 300.703441) scale(0.0694 -0.0694)">
       <defs>
        <path id="DejaVuSans-36" d="M 2113 2584 
Q 1688 2584 1439 2293 
Q 1191 2003 1191 1497 
Q 1191 994 1439 701 
Q 1688 409 2113 409 
Q 2538 409 2786 701 
Q 3034 994 3034 1497 
Q 3034 2003 2786 2293 
Q 2538 2584 2113 2584 
z
M 3366 4563 
L 3366 3988 
Q 3128 4100 2886 4159 
Q 2644 4219 2406 4219 
Q 1781 4219 1451 3797 
Q 1122 3375 1075 2522 
Q 1259 2794 1537 2939 
Q 1816 3084 2150 3084 
Q 2853 3084 3261 2657 
Q 3669 2231 3669 1497 
Q 3669 778 3244 343 
Q 2819 -91 2113 -91 
Q 1303 -91 875 529 
Q 447 1150 447 2328 
Q 447 3434 972 4092 
Q 1497 4750 2381 4750 
Q 2619 4750 2861 4703 
Q 3103 4656 3366 4563 
z
" transform="scale(0.015625)"/>
       </defs>
       <use xlink:href="#DejaVuSans-32"/>
       <use xlink:href="#DejaVuSans-30" x="63.623047"/>
       <use xlink:href="#DejaVuSans-30" x="127.246094"/>
       <use xlink:href="#DejaVuSans-36" x="190.869141"/>
      </g>
     </g>
    </g>
    <g id="xtick_3">
     <g id="line2d_3">
      <g>
       <use xlink:href="#m2e5419043c" x="120.480505" y="288.430125" style="stroke: #000000; stroke-width: 0.8"/>
      </g>
     </g>
     <g id="text_3">
      <!-- 2007 -->
      <g transform="translate(111.649355 300.703441) scale(0.0694 -0.0694)">
       <defs>
        <path id="DejaVuSans-37" d="M 525 4666 
L 3525 4666 
L 3525 4397 
L 1831 0 
L 1172 0 
L 2766 4134 
L 525 4134 
L 525 4666 
z
" transform="scale(0.015625)"/>
       </defs>
       <use xlink:href="#DejaVuSans-32"/>
       <use xlink:href="#DejaVuSans-30" x="63.623047"/>
       <use xlink:href="#DejaVuSans-30" x="127.246094"/>
       <use xlink:href="#DejaVuSans-37" x="190.869141"/>
      </g>
     </g>
    </g>
    <g id="xtick_4">
     <g id="line2d_4">
      <g>
       <use xlink:href="#m2e5419043c" x="139.577831" y="288.430125" style="stroke: #000000; stroke-width: 0.8"/>
      </g>
     </g>
     <g id="text_4">
      <!-- 2008 -->
      <g transform="translate(130.746681 300.703441) scale(0.0694 -0.0694)">
       <defs>
        <path id="DejaVuSans-38" d="M 2034 2216 
Q 1584 2216 1326 1975 
Q 1069 1734 1069 1313 
Q 1069 891 1326 650 
Q 1584 409 2034 409 
Q 2484 409 2743 651 
Q 3003 894 3003 1313 
Q 3003 1734 2745 1975 
Q 2488 2216 2034 2216 
z
M 1403 2484 
Q 997 2584 770 2862 
Q 544 3141 544 3541 
Q 544 4100 942 4425 
Q 1341 4750 2034 4750 
Q 2731 4750 3128 4425 
Q 3525 4100 3525 3541 
Q 3525 3141 3298 2862 
Q 3072 2584 2669 2484 
Q 3125 2378 3379 2068 
Q 3634 1759 3634 1313 
Q 3634 634 3220 271 
Q 2806 -91 2034 -91 
Q 1263 -91 848 271 
Q 434 634 434 1313 
Q 434 1759 690 2068 
Q 947 2378 1403 2484 
z
M 1172 3481 
Q 1172 3119 1398 2916 
Q 1625 2713 2034 2713 
Q 2441 2713 2670 2916 
Q 2900 3119 2900 3481 
Q 2900 3844 2670 4047 
Q 2441 4250 2034 4250 
Q 1625 4250 1398 4047 
Q 1172 3844 1172 3481 
z
" transform="scale(0.015625)"/>
       </defs>
       <use xlink:href="#DejaVuSans-32"/>
       <use xlink:href="#DejaVuSans-30" x="63.623047"/>
       <use xlink:href="#DejaVuSans-30" x="127.246094"/>
       <use xlink:href="#DejaVuSans-38" x="190.869141"/>
      </g>
     </g>
    </g>
    <g id="xtick_5">
     <g id="line2d_5">
      <g>
       <use xlink:href="#m2e5419043c" x="158.675157" y="288.430125" style="stroke: #000000; stroke-width: 0.8"/>
      </g>
     </g>
     <g id="text_5">
      <!-- 2009 -->
      <g transform="translate(149.844007 300.703441) scale(0.0694 -0.0694)">
       <defs>
        <path id="DejaVuSans-39" d="M 703 97 
L 703 672 
Q 941 559 1184 500 
Q 1428 441 1663 441 
Q 2288 441 2617 861 
Q 2947 1281 2994 2138 
Q 2813 1869 2534 1725 
Q 2256 1581 1919 1581 
Q 1219 1581 811 2004 
Q 403 2428 403 3163 
Q 403 3881 828 4315 
Q 1253 4750 1959 4750 
Q 2769 4750 3195 4129 
Q 3622 3509 3622 2328 
Q 3622 1225 3098 567 
Q 2575 -91 1691 -91 
Q 1453 -91 1209 -44 
Q 966 3 703 97 
z
M 1959 2075 
Q 2384 2075 2632 2365 
Q 2881 2656 2881 3163 
Q 2881 3666 2632 3958 
Q 2384 4250 1959 4250 
Q 1534 4250 1286 3958 
Q 1038 3666 1038 3163 
Q 1038 2656 1286 2365 
Q 1534 2075 1959 2075 
z
" transform="scale(0.015625)"/>
       </defs>
       <use xlink:href="#DejaVuSans-32"/>
       <use xlink:href="#DejaVuSans-30" x="63.623047"/>
       <use xlink:href="#DejaVuSans-30" x="127.246094"/>
       <use xlink:href="#DejaVuSans-39" x="190.869141"/>
      </g>
     </g>
    </g>
    <g id="xtick_6">
     <g id="line2d_6">
      <g>
       <use xlink:href="#m2e5419043c" x="177.772483" y="288.430125" style="stroke: #000000; stroke-width: 0.8"/>
      </g>
     </g>
     <g id="text_6">
      <!-- 2010 -->
      <g transform="translate(168.941333 300.703441) scale(0.0694 -0.0694)">
       <defs>
        <path id="DejaVuSans-31" d="M 794 531 
L 1825 531 
L 1825 4091 
L 703 3866 
L 703 4441 
L 1819 4666 
L 2450 4666 
L 2450 531 
L 3481 531 
L 3481 0 
L 794 0 
L 794 531 
z
" transform="scale(0.015625)"/>
       </defs>
       <use xlink:href="#DejaVuSans-32"/>
       <use xlink:href="#DejaVuSans-30" x="63.623047"/>
       <use xlink:href="#DejaVuSans-31" x="127.246094"/>
       <use xlink:href="#DejaVuSans-30" x="190.869141"/>
      </g>
     </g>
    </g>
    <g id="xtick_7">
     <g id="line2d_7">
      <g>
       <use xlink:href="#m2e5419043c" x="196.869809" y="288.430125" style="stroke: #000000; stroke-width: 0.8"/>
      </g>
     </g>
     <g id="text_7">
      <!-- 2011 -->
      <g transform="translate(188.038659 300.703441) scale(0.0694 -0.0694)">
       <use xlink:href="#DejaVuSans-32"/>
       <use xlink:href="#DejaVuSans-30" x="63.623047"/>
       <use xlink:href="#DejaVuSans-31" x="127.246094"/>
       <use xlink:href="#DejaVuSans-31" x="190.869141"/>
      </g>
     </g>
    </g>
    <g id="xtick_8">
     <g id="line2d_8">
      <g>
       <use xlink:href="#m2e5419043c" x="215.967136" y="288.430125" style="stroke: #000000; stroke-width: 0.8"/>
      </g>
     </g>
     <g id="text_8">
      <!-- 2012 -->
      <g transform="translate(207.135986 300.703441) scale(0.0694 -0.0694)">
       <use xlink:href="#DejaVuSans-32"/>
       <use xlink:href="#DejaVuSans-30" x="63.623047"/>
       <use xlink:href="#DejaVuSans-31" x="127.246094"/>
       <use xlink:href="#DejaVuSans-32" x="190.869141"/>
      </g>
     </g>
    </g>
    <g id="xtick_9">
     <g id="line2d_9">
      <g>
       <use xlink:href="#m2e5419043c" x="235.064462" y="288.430125" style="stroke: #000000; stroke-width: 0.8"/>
      </g>
     </g>
     <g id="text_9">
      <!-- 2013 -->
      <g transform="translate(226.233312 300.703441) scale(0.0694 -0.0694)">
       <defs>
        <path id="DejaVuSans-33" d="M 2597 2516 
Q 3050 2419 3304 2112 
Q 3559 1806 3559 1356 
Q 3559 666 3084 287 
Q 2609 -91 1734 -91 
Q 1441 -91 1130 -33 
Q 819 25 488 141 
L 488 750 
Q 750 597 1062 519 
Q 1375 441 1716 441 
Q 2309 441 2620 675 
Q 2931 909 2931 1356 
Q 2931 1769 2642 2001 
Q 2353 2234 1838 2234 
L 1294 2234 
L 1294 2753 
L 1863 2753 
Q 2328 2753 2575 2939 
Q 2822 3125 2822 3475 
Q 2822 3834 2567 4026 
Q 2313 4219 1838 4219 
Q 1578 4219 1281 4162 
Q 984 4106 628 3988 
L 628 4550 
Q 988 4650 1302 4700 
Q 1616 4750 1894 4750 
Q 2613 4750 3031 4423 
Q 3450 4097 3450 3541 
Q 3450 3153 3228 2886 
Q 3006 2619 2597 2516 
z
" transform="scale(0.015625)"/>
       </defs>
       <use xlink:href="#DejaVuSans-32"/>
       <use xlink:href="#DejaVuSans-30" x="63.623047"/>
       <use xlink:href="#DejaVuSans-31" x="127.246094"/>
       <use xlink:href="#DejaVuSans-33" x="190.869141"/>
      </g>
     </g>
    </g>
    <g id="xtick_10">
     <g id="line2d_10">
      <g>
       <use xlink:href="#m2e5419043c" x="254.161788" y="288.430125" style="stroke: #000000; stroke-width: 0.8"/>
      </g>
     </g>
     <g id="text_10">
      <!-- 2014 -->
      <g transform="translate(245.330638 300.703441) scale(0.0694 -0.0694)">
       <defs>
        <path id="DejaVuSans-34" d="M 2419 4116 
L 825 1625 
L 2419 1625 
L 2419 4116 
z
M 2253 4666 
L 3047 4666 
L 3047 1625 
L 3713 1625 
L 3713 1100 
L 3047 1100 
L 3047 0 
L 2419 0 
L 2419 1100 
L 313 1100 
L 313 1709 
L 2253 4666 
z
" transform="scale(0.015625)"/>
       </defs>
       <use xlink:href="#DejaVuSans-32"/>
       <use xlink:href="#DejaVuSans-30" x="63.623047"/>
       <use xlink:href="#DejaVuSans-31" x="127.246094"/>
       <use xlink:href="#DejaVuSans-34" x="190.869141"/>
      </g>
     </g>
    </g>
    <g id="xtick_11">
     <g id="line2d_11">
      <g>
       <use xlink:href="#m2e5419043c" x="273.259114" y="288.430125" style="stroke: #000000; stroke-width: 0.8"/>
      </g>
     </g>
     <g id="text_11">
      <!-- 2015 -->
      <g transform="translate(264.427964 300.703441) scale(0.0694 -0.0694)">
       <use xlink:href="#DejaVuSans-32"/>
       <use xlink:href="#DejaVuSans-30" x="63.623047"/>
       <use xlink:href="#DejaVuSans-31" x="127.246094"/>
       <use xlink:href="#DejaVuSans-35" x="190.869141"/>
      </g>
     </g>
    </g>
    <g id="xtick_12">
     <g id="line2d_12">
      <g>
       <use xlink:href="#m2e5419043c" x="292.356441" y="288.430125" style="stroke: #000000; stroke-width: 0.8"/>
      </g>
     </g>
     <g id="text_12">
      <!-- 2016 -->
      <g transform="translate(283.525291 300.703441) scale(0.0694 -0.0694)">
       <use xlink:href="#DejaVuSans-32"/>
       <use xlink:href="#DejaVuSans-30" x="63.623047"/>
       <use xlink:href="#DejaVuSans-31" x="127.246094"/>
       <use xlink:href="#DejaVuSans-36" x="190.869141"/>
      </g>
     </g>
    </g>
    <g id="xtick_13">
     <g id="line2d_13">
      <g>
       <use xlink:href="#m2e5419043c" x="311.453767" y="288.430125" style="stroke: #000000; stroke-width: 0.8"/>
      </g>
     </g>
     <g id="text_13">
      <!-- 2017 -->
      <g transform="translate(302.622617 300.703441) scale(0.0694 -0.0694)">
       <use xlink:href="#DejaVuSans-32"/>
       <use xlink:href="#DejaVuSans-30" x="63.623047"/>
       <use xlink:href="#DejaVuSans-31" x="127.246094"/>
       <use xlink:href="#DejaVuSans-37" x="190.869141"/>
      </g>
     </g>
    </g>
    <g id="xtick_14">
     <g id="line2d_14">
      <g>
       <use xlink:href="#m2e5419043c" x="330.551093" y="288.430125" style="stroke: #000000; stroke-width: 0.8"/>
      </g>
     </g>
     <g id="text_14">
      <!-- 2018 -->
      <g transform="translate(321.719943 300.703441) scale(0.0694 -0.0694)">
       <use xlink:href="#DejaVuSans-32"/>
       <use xlink:href="#DejaVuSans-30" x="63.623047"/>
       <use xlink:href="#DejaVuSans-31" x="127.246094"/>
       <use xlink:href="#DejaVuSans-38" x="190.869141"/>
      </g>
     </g>
    </g>
    <g id="xtick_15">
     <g id="line2d_15">
      <g>
       <use xlink:href="#m2e5419043c" x="349.648419" y="288.430125" style="stroke: #000000; stroke-width: 0.8"/>
      </g>
     </g>
     <g id="text_15">
      <!-- 2019 -->
      <g transform="translate(340.817269 300.703441) scale(0.0694 -0.0694)">
       <use xlink:href="#DejaVuSans-32"/>
       <use xlink:href="#DejaVuSans-30" x="63.623047"/>
       <use xlink:href="#DejaVuSans-31" x="127.246094"/>
       <use xlink:href="#DejaVuSans-39" x="190.869141"/>
      </g>
     </g>
    </g>
    <g id="xtick_16">
     <g id="line2d_16">
      <g>
       <use xlink:href="#m2e5419043c" x="368.745745" y="288.430125" style="stroke: #000000; stroke-width: 0.8"/>
      </g>
     </g>
     <g id="text_16">
      <!-- 2020 -->
      <g transform="translate(359.914595 300.703441) scale(0.0694 -0.0694)">
       <use xlink:href="#DejaVuSans-32"/>
       <use xlink:href="#DejaVuSans-30" x="63.623047"/>
       <use xlink:href="#DejaVuSans-32" x="127.246094"/>
       <use xlink:href="#DejaVuSans-30" x="190.869141"/>
      </g>
     </g>
    </g>
    <g id="xtick_17">
     <g id="line2d_17">
      <g>
       <use xlink:href="#m2e5419043c" x="387.843072" y="288.430125" style="stroke: #000000; stroke-width: 0.8"/>
      </g>
     </g>
     <g id="text_17">
      <!-- 2021 -->
      <g transform="translate(379.011922 300.703441) scale(0.0694 -0.0694)">
       <use xlink:href="#DejaVuSans-32"/>
       <use xlink:href="#DejaVuSans-30" x="63.623047"/>
       <use xlink:href="#DejaVuSans-32" x="127.246094"/>
       <use xlink:href="#DejaVuSans-31" x="190.869141"/>
      </g>
     </g>
    </g>
    <g id="xtick_18">
     <g id="line2d_18">
      <g>
       <use xlink:href="#m2e5419043c" x="406.940398" y="288.430125" style="stroke: #000000; stroke-width: 0.8"/>
      </g>
     </g>
     <g id="text_18">
      <!-- 2022 -->
      <g transform="translate(398.109248 300.703441) scale(0.0694 -0.0694)">
       <use xlink:href="#DejaVuSans-32"/>
       <use xlink:href="#DejaVuSans-30" x="63.623047"/>
       <use xlink:href="#DejaVuSans-32" x="127.246094"/>
       <use xlink:href="#DejaVuSans-32" x="190.869141"/>
      </g>
     </g>
    </g>
    <g id="text_19">
     <!-- Year -->
     <g transform="translate(234.025625 313.745181) scale(0.1 -0.1)">
      <defs>
       <path id="DejaVuSans-59" d="M -13 4666 
L 666 4666 
L 1959 2747 
L 3244 4666 
L 3922 4666 
L 2272 2222 
L 2272 0 
L 1638 0 
L 1638 2222 
L -13 4666 
z
" transform="scale(0.015625)"/>
       <path id="DejaVuSans-65" d="M 3597 1894 
L 3597 1613 
L 953 1613 
Q 991 1019 1311 708 
Q 1631 397 2203 397 
Q 2534 397 2845 478 
Q 3156 559 3463 722 
L 3463 178 
Q 3153 47 2828 -22 
Q 2503 -91 2169 -91 
Q 1331 -91 842 396 
Q 353 884 353 1716 
Q 353 2575 817 3079 
Q 1281 3584 2069 3584 
Q 2775 3584 3186 3129 
Q 3597 2675 3597 1894 
z
M 3022 2063 
Q 3016 2534 2758 2815 
Q 2500 3097 2075 3097 
Q 1594 3097 1305 2825 
Q 1016 2553 972 2059 
L 3022 2063 
z
" transform="scale(0.015625)"/>
       <path id="DejaVuSans-61" d="M 2194 1759 
Q 1497 1759 1228 1600 
Q 959 1441 959 1056 
Q 959 750 1161 570 
Q 1363 391 1709 391 
Q 2188 391 2477 730 
Q 2766 1069 2766 1631 
L 2766 1759 
L 2194 1759 
z
M 3341 1997 
L 3341 0 
L 2766 0 
L 2766 531 
Q 2569 213 2275 61 
Q 1981 -91 1556 -91 
Q 1019 -91 701 211 
Q 384 513 384 1019 
Q 384 1609 779 1909 
Q 1175 2209 1959 2209 
L 2766 2209 
L 2766 2266 
Q 2766 2663 2505 2880 
Q 2244 3097 1772 3097 
Q 1472 3097 1187 3025 
Q 903 2953 641 2809 
L 641 3341 
Q 956 3463 1253 3523 
Q 1550 3584 1831 3584 
Q 2591 3584 2966 3190 
Q 3341 2797 3341 1997 
z
" transform="scale(0.015625)"/>
       <path id="DejaVuSans-72" d="M 2631 2963 
Q 2534 3019 2420 3045 
Q 2306 3072 2169 3072 
Q 1681 3072 1420 2755 
Q 1159 2438 1159 1844 
L 1159 0 
L 581 0 
L 581 3500 
L 1159 3500 
L 1159 2956 
Q 1341 3275 1631 3429 
Q 1922 3584 2338 3584 
Q 2397 3584 2469 3576 
Q 2541 3569 2628 3553 
L 2631 2963 
z
" transform="scale(0.015625)"/>
      </defs>
      <use xlink:href="#DejaVuSans-59"/>
      <use xlink:href="#DejaVuSans-65" x="47.833984"/>
      <use xlink:href="#DejaVuSans-61" x="109.357422"/>
      <use xlink:href="#DejaVuSans-72" x="170.636719"/>
     </g>
    </g>
   </g>
   <g id="matplotlib.axis_2">
    <g id="ytick_1">
     <g id="line2d_19">
      <defs>
       <path id="m66603a5bb7" d="M 0 0 
L -3.5 0 
" style="stroke: #000000; stroke-width: 0.8"/>
      </defs>
      <g>
       <use xlink:href="#m66603a5bb7" x="66.053125" y="277.366137" style="stroke: #000000; stroke-width: 0.8"/>
      </g>
     </g>
     <g id="text_20">
      <!-- 0 -->
      <g transform="translate(52.690625 281.165356) scale(0.1 -0.1)">
       <use xlink:href="#DejaVuSans-30"/>
      </g>
     </g>
    </g>
    <g id="ytick_2">
     <g id="line2d_20">
      <g>
       <use xlink:href="#m66603a5bb7" x="66.053125" y="245.997982" style="stroke: #000000; stroke-width: 0.8"/>
      </g>
     </g>
     <g id="text_21">
      <!-- 50000 -->
      <g transform="translate(27.240625 249.7972) scale(0.1 -0.1)">
       <use xlink:href="#DejaVuSans-35"/>
       <use xlink:href="#DejaVuSans-30" x="63.623047"/>
       <use xlink:href="#DejaVuSans-30" x="127.246094"/>
       <use xlink:href="#DejaVuSans-30" x="190.869141"/>
       <use xlink:href="#DejaVuSans-30" x="254.492188"/>
      </g>
     </g>
    </g>
    <g id="ytick_3">
     <g id="line2d_21">
      <g>
       <use xlink:href="#m66603a5bb7" x="66.053125" y="214.629826" style="stroke: #000000; stroke-width: 0.8"/>
      </g>
     </g>
     <g id="text_22">
      <!-- 100000 -->
      <g transform="translate(20.878125 218.429045) scale(0.1 -0.1)">
       <use xlink:href="#DejaVuSans-31"/>
       <use xlink:href="#DejaVuSans-30" x="63.623047"/>
       <use xlink:href="#DejaVuSans-30" x="127.246094"/>
       <use xlink:href="#DejaVuSans-30" x="190.869141"/>
       <use xlink:href="#DejaVuSans-30" x="254.492188"/>
       <use xlink:href="#DejaVuSans-30" x="318.115234"/>
      </g>
     </g>
    </g>
    <g id="ytick_4">
     <g id="line2d_22">
      <g>
       <use xlink:href="#m66603a5bb7" x="66.053125" y="183.26167" style="stroke: #000000; stroke-width: 0.8"/>
      </g>
     </g>
     <g id="text_23">
      <!-- 150000 -->
      <g transform="translate(20.878125 187.060889) scale(0.1 -0.1)">
       <use xlink:href="#DejaVuSans-31"/>
       <use xlink:href="#DejaVuSans-35" x="63.623047"/>
       <use xlink:href="#DejaVuSans-30" x="127.246094"/>
       <use xlink:href="#DejaVuSans-30" x="190.869141"/>
       <use xlink:href="#DejaVuSans-30" x="254.492188"/>
       <use xlink:href="#DejaVuSans-30" x="318.115234"/>
      </g>
     </g>
    </g>
    <g id="ytick_5">
     <g id="line2d_23">
      <g>
       <use xlink:href="#m66603a5bb7" x="66.053125" y="151.893514" style="stroke: #000000; stroke-width: 0.8"/>
      </g>
     </g>
     <g id="text_24">
      <!-- 200000 -->
      <g transform="translate(20.878125 155.692733) scale(0.1 -0.1)">
       <use xlink:href="#DejaVuSans-32"/>
       <use xlink:href="#DejaVuSans-30" x="63.623047"/>
       <use xlink:href="#DejaVuSans-30" x="127.246094"/>
       <use xlink:href="#DejaVuSans-30" x="190.869141"/>
       <use xlink:href="#DejaVuSans-30" x="254.492188"/>
       <use xlink:href="#DejaVuSans-30" x="318.115234"/>
      </g>
     </g>
    </g>
    <g id="ytick_6">
     <g id="line2d_24">
      <g>
       <use xlink:href="#m66603a5bb7" x="66.053125" y="120.525359" style="stroke: #000000; stroke-width: 0.8"/>
      </g>
     </g>
     <g id="text_25">
      <!-- 250000 -->
      <g transform="translate(20.878125 124.324577) scale(0.1 -0.1)">
       <use xlink:href="#DejaVuSans-32"/>
       <use xlink:href="#DejaVuSans-35" x="63.623047"/>
       <use xlink:href="#DejaVuSans-30" x="127.246094"/>
       <use xlink:href="#DejaVuSans-30" x="190.869141"/>
       <use xlink:href="#DejaVuSans-30" x="254.492188"/>
       <use xlink:href="#DejaVuSans-30" x="318.115234"/>
      </g>
     </g>
    </g>
    <g id="ytick_7">
     <g id="line2d_25">
      <g>
       <use xlink:href="#m66603a5bb7" x="66.053125" y="89.157203" style="stroke: #000000; stroke-width: 0.8"/>
      </g>
     </g>
     <g id="text_26">
      <!-- 300000 -->
      <g transform="translate(20.878125 92.956422) scale(0.1 -0.1)">
       <use xlink:href="#DejaVuSans-33"/>
       <use xlink:href="#DejaVuSans-30" x="63.623047"/>
       <use xlink:href="#DejaVuSans-30" x="127.246094"/>
       <use xlink:href="#DejaVuSans-30" x="190.869141"/>
       <use xlink:href="#DejaVuSans-30" x="254.492188"/>
       <use xlink:href="#DejaVuSans-30" x="318.115234"/>
      </g>
     </g>
    </g>
    <g id="ytick_8">
     <g id="line2d_26">
      <g>
       <use xlink:href="#m66603a5bb7" x="66.053125" y="57.789047" style="stroke: #000000; stroke-width: 0.8"/>
      </g>
     </g>
     <g id="text_27">
      <!-- 350000 -->
      <g transform="translate(20.878125 61.588266) scale(0.1 -0.1)">
       <use xlink:href="#DejaVuSans-33"/>
       <use xlink:href="#DejaVuSans-35" x="63.623047"/>
       <use xlink:href="#DejaVuSans-30" x="127.246094"/>
       <use xlink:href="#DejaVuSans-30" x="190.869141"/>
       <use xlink:href="#DejaVuSans-30" x="254.492188"/>
       <use xlink:href="#DejaVuSans-30" x="318.115234"/>
      </g>
     </g>
    </g>
    <g id="ytick_9">
     <g id="line2d_27">
      <g>
       <use xlink:href="#m66603a5bb7" x="66.053125" y="26.420892" style="stroke: #000000; stroke-width: 0.8"/>
      </g>
     </g>
     <g id="text_28">
      <!-- 400000 -->
      <g transform="translate(20.878125 30.22011) scale(0.1 -0.1)">
       <use xlink:href="#DejaVuSans-34"/>
       <use xlink:href="#DejaVuSans-30" x="63.623047"/>
       <use xlink:href="#DejaVuSans-30" x="127.246094"/>
       <use xlink:href="#DejaVuSans-30" x="190.869141"/>
       <use xlink:href="#DejaVuSans-30" x="254.492188"/>
       <use xlink:href="#DejaVuSans-30" x="318.115234"/>
      </g>
     </g>
    </g>
    <g id="text_29">
     <!-- Applicants -->
     <g transform="translate(14.798438 181.467875) rotate(-90) scale(0.1 -0.1)">
      <defs>
       <path id="DejaVuSans-41" d="M 2188 4044 
L 1331 1722 
L 3047 1722 
L 2188 4044 
z
M 1831 4666 
L 2547 4666 
L 4325 0 
L 3669 0 
L 3244 1197 
L 1141 1197 
L 716 0 
L 50 0 
L 1831 4666 
z
" transform="scale(0.015625)"/>
       <path id="DejaVuSans-70" d="M 1159 525 
L 1159 -1331 
L 581 -1331 
L 581 3500 
L 1159 3500 
L 1159 2969 
Q 1341 3281 1617 3432 
Q 1894 3584 2278 3584 
Q 2916 3584 3314 3078 
Q 3713 2572 3713 1747 
Q 3713 922 3314 415 
Q 2916 -91 2278 -91 
Q 1894 -91 1617 61 
Q 1341 213 1159 525 
z
M 3116 1747 
Q 3116 2381 2855 2742 
Q 2594 3103 2138 3103 
Q 1681 3103 1420 2742 
Q 1159 2381 1159 1747 
Q 1159 1113 1420 752 
Q 1681 391 2138 391 
Q 2594 391 2855 752 
Q 3116 1113 3116 1747 
z
" transform="scale(0.015625)"/>
       <path id="DejaVuSans-6c" d="M 603 4863 
L 1178 4863 
L 1178 0 
L 603 0 
L 603 4863 
z
" transform="scale(0.015625)"/>
       <path id="DejaVuSans-69" d="M 603 3500 
L 1178 3500 
L 1178 0 
L 603 0 
L 603 3500 
z
M 603 4863 
L 1178 4863 
L 1178 4134 
L 603 4134 
L 603 4863 
z
" transform="scale(0.015625)"/>
       <path id="DejaVuSans-63" d="M 3122 3366 
L 3122 2828 
Q 2878 2963 2633 3030 
Q 2388 3097 2138 3097 
Q 1578 3097 1268 2742 
Q 959 2388 959 1747 
Q 959 1106 1268 751 
Q 1578 397 2138 397 
Q 2388 397 2633 464 
Q 2878 531 3122 666 
L 3122 134 
Q 2881 22 2623 -34 
Q 2366 -91 2075 -91 
Q 1284 -91 818 406 
Q 353 903 353 1747 
Q 353 2603 823 3093 
Q 1294 3584 2113 3584 
Q 2378 3584 2631 3529 
Q 2884 3475 3122 3366 
z
" transform="scale(0.015625)"/>
       <path id="DejaVuSans-6e" d="M 3513 2113 
L 3513 0 
L 2938 0 
L 2938 2094 
Q 2938 2591 2744 2837 
Q 2550 3084 2163 3084 
Q 1697 3084 1428 2787 
Q 1159 2491 1159 1978 
L 1159 0 
L 581 0 
L 581 3500 
L 1159 3500 
L 1159 2956 
Q 1366 3272 1645 3428 
Q 1925 3584 2291 3584 
Q 2894 3584 3203 3211 
Q 3513 2838 3513 2113 
z
" transform="scale(0.015625)"/>
       <path id="DejaVuSans-74" d="M 1172 4494 
L 1172 3500 
L 2356 3500 
L 2356 3053 
L 1172 3053 
L 1172 1153 
Q 1172 725 1289 603 
Q 1406 481 1766 481 
L 2356 481 
L 2356 0 
L 1766 0 
Q 1100 0 847 248 
Q 594 497 594 1153 
L 594 3053 
L 172 3053 
L 172 3500 
L 594 3500 
L 594 4494 
L 1172 4494 
z
" transform="scale(0.015625)"/>
       <path id="DejaVuSans-73" d="M 2834 3397 
L 2834 2853 
Q 2591 2978 2328 3040 
Q 2066 3103 1784 3103 
Q 1356 3103 1142 2972 
Q 928 2841 928 2578 
Q 928 2378 1081 2264 
Q 1234 2150 1697 2047 
L 1894 2003 
Q 2506 1872 2764 1633 
Q 3022 1394 3022 966 
Q 3022 478 2636 193 
Q 2250 -91 1575 -91 
Q 1294 -91 989 -36 
Q 684 19 347 128 
L 347 722 
Q 666 556 975 473 
Q 1284 391 1588 391 
Q 1994 391 2212 530 
Q 2431 669 2431 922 
Q 2431 1156 2273 1281 
Q 2116 1406 1581 1522 
L 1381 1569 
Q 847 1681 609 1914 
Q 372 2147 372 2553 
Q 372 3047 722 3315 
Q 1072 3584 1716 3584 
Q 2034 3584 2315 3537 
Q 2597 3491 2834 3397 
z
" transform="scale(0.015625)"/>
      </defs>
      <use xlink:href="#DejaVuSans-41"/>
      <use xlink:href="#DejaVuSans-70" x="68.408203"/>
      <use xlink:href="#DejaVuSans-70" x="131.884766"/>
      <use xlink:href="#DejaVuSans-6c" x="195.361328"/>
      <use xlink:href="#DejaVuSans-69" x="223.144531"/>
      <use xlink:href="#DejaVuSans-63" x="250.927734"/>
      <use xlink:href="#DejaVuSans-61" x="305.908203"/>
      <use xlink:href="#DejaVuSans-6e" x="367.1875"/>
      <use xlink:href="#DejaVuSans-74" x="430.566406"/>
      <use xlink:href="#DejaVuSans-73" x="469.775391"/>
     </g>
    </g>
   </g>
   <g id="line2d_28">
    <path d="M 82.285852 276.334125 
L 101.383178 275.569997 
L 120.480505 275.231221 
L 139.577831 274.159057 
L 158.675157 273.283886 
L 177.772483 271.269423 
L 196.869809 270.612573 
L 215.967136 267.833982 
L 235.064462 265.20784 
L 254.161788 263.793764 
L 273.259114 265.20784 
L 292.356441 265.851515 
L 311.453767 265.490154 
L 330.551093 265.323902 
L 349.648419 261.656338 
L 368.745745 259.702101 
L 387.843072 257.697676 
L 406.940398 253.24779 
" clip-path="url(#p7f2382a7f8)" style="fill: none; stroke: #1f77b4; stroke-width: 1.5; stroke-linecap: square"/>
    <defs>
     <path id="me229ea7c7c" d="M 0 3 
C 0.795609 3 1.55874 2.683901 2.12132 2.12132 
C 2.683901 1.55874 3 0.795609 3 0 
C 3 -0.795609 2.683901 -1.55874 2.12132 -2.12132 
C 1.55874 -2.683901 0.795609 -3 0 -3 
C -0.795609 -3 -1.55874 -2.683901 -2.12132 -2.12132 
C -2.683901 -1.55874 -3 -0.795609 -3 0 
C -3 0.795609 -2.683901 1.55874 -2.12132 2.12132 
C -1.55874 2.683901 -0.795609 3 0 3 
z
" style="stroke: #1f77b4"/>
    </defs>
    <g clip-path="url(#p7f2382a7f8)">
     <use xlink:href="#me229ea7c7c" x="82.285852" y="276.334125" style="fill: #1f77b4; stroke: #1f77b4"/>
     <use xlink:href="#me229ea7c7c" x="101.383178" y="275.569997" style="fill: #1f77b4; stroke: #1f77b4"/>
     <use xlink:href="#me229ea7c7c" x="120.480505" y="275.231221" style="fill: #1f77b4; stroke: #1f77b4"/>
     <use xlink:href="#me229ea7c7c" x="139.577831" y="274.159057" style="fill: #1f77b4; stroke: #1f77b4"/>
     <use xlink:href="#me229ea7c7c" x="158.675157" y="273.283886" style="fill: #1f77b4; stroke: #1f77b4"/>
     <use xlink:href="#me229ea7c7c" x="177.772483" y="271.269423" style="fill: #1f77b4; stroke: #1f77b4"/>
     <use xlink:href="#me229ea7c7c" x="196.869809" y="270.612573" style="fill: #1f77b4; stroke: #1f77b4"/>
     <use xlink:href="#me229ea7c7c" x="215.967136" y="267.833982" style="fill: #1f77b4; stroke: #1f77b4"/>
     <use xlink:href="#me229ea7c7c" x="235.064462" y="265.20784" style="fill: #1f77b4; stroke: #1f77b4"/>
     <use xlink:href="#me229ea7c7c" x="254.161788" y="263.793764" style="fill: #1f77b4; stroke: #1f77b4"/>
     <use xlink:href="#me229ea7c7c" x="273.259114" y="265.20784" style="fill: #1f77b4; stroke: #1f77b4"/>
     <use xlink:href="#me229ea7c7c" x="292.356441" y="265.851515" style="fill: #1f77b4; stroke: #1f77b4"/>
     <use xlink:href="#me229ea7c7c" x="311.453767" y="265.490154" style="fill: #1f77b4; stroke: #1f77b4"/>
     <use xlink:href="#me229ea7c7c" x="330.551093" y="265.323902" style="fill: #1f77b4; stroke: #1f77b4"/>
     <use xlink:href="#me229ea7c7c" x="349.648419" y="261.656338" style="fill: #1f77b4; stroke: #1f77b4"/>
     <use xlink:href="#me229ea7c7c" x="368.745745" y="259.702101" style="fill: #1f77b4; stroke: #1f77b4"/>
     <use xlink:href="#me229ea7c7c" x="387.843072" y="257.697676" style="fill: #1f77b4; stroke: #1f77b4"/>
     <use xlink:href="#me229ea7c7c" x="406.940398" y="253.24779" style="fill: #1f77b4; stroke: #1f77b4"/>
    </g>
   </g>
   <g id="line2d_29">
    <path d="M 82.285852 261.659474 
L 101.383178 259.382774 
L 120.480505 261.125588 
L 139.577831 260.893464 
L 158.675157 260.379026 
L 177.772483 254.156839 
L 196.869809 255.29613 
L 215.967136 251.446003 
L 235.064462 248.325499 
L 254.161788 248.403919 
L 273.259114 252.409005 
L 292.356441 258.166317 
L 311.453767 261.340774 
L 330.551093 264.567302 
L 349.648419 263.916727 
L 368.745745 265.04598 
L 387.843072 266.522166 
L 406.940398 266.656422 
" clip-path="url(#p7f2382a7f8)" style="fill: none; stroke: #ff7f0e; stroke-width: 1.5; stroke-linecap: square"/>
    <defs>
     <path id="m43a7077b72" d="M 0 3 
C 0.795609 3 1.55874 2.683901 2.12132 2.12132 
C 2.683901 1.55874 3 0.795609 3 0 
C 3 -0.795609 2.683901 -1.55874 2.12132 -2.12132 
C 1.55874 -2.683901 0.795609 -3 0 -3 
C -0.795609 -3 -1.55874 -2.683901 -2.12132 -2.12132 
C -2.683901 -1.55874 -3 -0.795609 -3 0 
C -3 0.795609 -2.683901 1.55874 -2.12132 2.12132 
C -1.55874 2.683901 -0.795609 3 0 3 
z
" style="stroke: #ff7f0e"/>
    </defs>
    <g clip-path="url(#p7f2382a7f8)">
     <use xlink:href="#m43a7077b72" x="82.285852" y="261.659474" style="fill: #ff7f0e; stroke: #ff7f0e"/>
     <use xlink:href="#m43a7077b72" x="101.383178" y="259.382774" style="fill: #ff7f0e; stroke: #ff7f0e"/>
     <use xlink:href="#m43a7077b72" x="120.480505" y="261.125588" style="fill: #ff7f0e; stroke: #ff7f0e"/>
     <use xlink:href="#m43a7077b72" x="139.577831" y="260.893464" style="fill: #ff7f0e; stroke: #ff7f0e"/>
     <use xlink:href="#m43a7077b72" x="158.675157" y="260.379026" style="fill: #ff7f0e; stroke: #ff7f0e"/>
     <use xlink:href="#m43a7077b72" x="177.772483" y="254.156839" style="fill: #ff7f0e; stroke: #ff7f0e"/>
     <use xlink:href="#m43a7077b72" x="196.869809" y="255.29613" style="fill: #ff7f0e; stroke: #ff7f0e"/>
     <use xlink:href="#m43a7077b72" x="215.967136" y="251.446003" style="fill: #ff7f0e; stroke: #ff7f0e"/>
     <use xlink:href="#m43a7077b72" x="235.064462" y="248.325499" style="fill: #ff7f0e; stroke: #ff7f0e"/>
     <use xlink:href="#m43a7077b72" x="254.161788" y="248.403919" style="fill: #ff7f0e; stroke: #ff7f0e"/>
     <use xlink:href="#m43a7077b72" x="273.259114" y="252.409005" style="fill: #ff7f0e; stroke: #ff7f0e"/>
     <use xlink:href="#m43a7077b72" x="292.356441" y="258.166317" style="fill: #ff7f0e; stroke: #ff7f0e"/>
     <use xlink:href="#m43a7077b72" x="311.453767" y="261.340774" style="fill: #ff7f0e; stroke: #ff7f0e"/>
     <use xlink:href="#m43a7077b72" x="330.551093" y="264.567302" style="fill: #ff7f0e; stroke: #ff7f0e"/>
     <use xlink:href="#m43a7077b72" x="349.648419" y="263.916727" style="fill: #ff7f0e; stroke: #ff7f0e"/>
     <use xlink:href="#m43a7077b72" x="368.745745" y="265.04598" style="fill: #ff7f0e; stroke: #ff7f0e"/>
     <use xlink:href="#m43a7077b72" x="387.843072" y="266.522166" style="fill: #ff7f0e; stroke: #ff7f0e"/>
     <use xlink:href="#m43a7077b72" x="406.940398" y="266.656422" style="fill: #ff7f0e; stroke: #ff7f0e"/>
    </g>
   </g>
   <g id="line2d_30">
    <path d="M 82.285852 224.4192 
L 101.383178 212.267804 
L 120.480505 218.40467 
L 139.577831 217.971162 
L 158.675157 216.474273 
L 177.772483 200.586303 
L 196.869809 198.783888 
L 215.967136 191.908616 
L 235.064462 190.056013 
L 254.161788 195.840301 
L 273.259114 210.172411 
L 292.356441 226.099906 
L 311.453767 234.054243 
L 330.551093 239.94581 
L 349.648419 237.335979 
L 368.745745 239.384947 
L 387.843072 243.701205 
L 406.940398 244.742628 
" clip-path="url(#p7f2382a7f8)" style="fill: none; stroke: #2ca02c; stroke-width: 1.5; stroke-linecap: square"/>
    <defs>
     <path id="m0df8c56b16" d="M 0 3 
C 0.795609 3 1.55874 2.683901 2.12132 2.12132 
C 2.683901 1.55874 3 0.795609 3 0 
C 3 -0.795609 2.683901 -1.55874 2.12132 -2.12132 
C 1.55874 -2.683901 0.795609 -3 0 -3 
C -0.795609 -3 -1.55874 -2.683901 -2.12132 -2.12132 
C -2.683901 -1.55874 -3 -0.795609 -3 0 
C -3 0.795609 -2.683901 1.55874 -2.12132 2.12132 
C -1.55874 2.683901 -0.795609 3 0 3 
z
" style="stroke: #2ca02c"/>
    </defs>
    <g clip-path="url(#p7f2382a7f8)">
     <use xlink:href="#m0df8c56b16" x="82.285852" y="224.4192" style="fill: #2ca02c; stroke: #2ca02c"/>
     <use xlink:href="#m0df8c56b16" x="101.383178" y="212.267804" style="fill: #2ca02c; stroke: #2ca02c"/>
     <use xlink:href="#m0df8c56b16" x="120.480505" y="218.40467" style="fill: #2ca02c; stroke: #2ca02c"/>
     <use xlink:href="#m0df8c56b16" x="139.577831" y="217.971162" style="fill: #2ca02c; stroke: #2ca02c"/>
     <use xlink:href="#m0df8c56b16" x="158.675157" y="216.474273" style="fill: #2ca02c; stroke: #2ca02c"/>
     <use xlink:href="#m0df8c56b16" x="177.772483" y="200.586303" style="fill: #2ca02c; stroke: #2ca02c"/>
     <use xlink:href="#m0df8c56b16" x="196.869809" y="198.783888" style="fill: #2ca02c; stroke: #2ca02c"/>
     <use xlink:href="#m0df8c56b16" x="215.967136" y="191.908616" style="fill: #2ca02c; stroke: #2ca02c"/>
     <use xlink:href="#m0df8c56b16" x="235.064462" y="190.056013" style="fill: #2ca02c; stroke: #2ca02c"/>
     <use xlink:href="#m0df8c56b16" x="254.161788" y="195.840301" style="fill: #2ca02c; stroke: #2ca02c"/>
     <use xlink:href="#m0df8c56b16" x="273.259114" y="210.172411" style="fill: #2ca02c; stroke: #2ca02c"/>
     <use xlink:href="#m0df8c56b16" x="292.356441" y="226.099906" style="fill: #2ca02c; stroke: #2ca02c"/>
     <use xlink:href="#m0df8c56b16" x="311.453767" y="234.054243" style="fill: #2ca02c; stroke: #2ca02c"/>
     <use xlink:href="#m0df8c56b16" x="330.551093" y="239.94581" style="fill: #2ca02c; stroke: #2ca02c"/>
     <use xlink:href="#m0df8c56b16" x="349.648419" y="237.335979" style="fill: #2ca02c; stroke: #2ca02c"/>
     <use xlink:href="#m0df8c56b16" x="368.745745" y="239.384947" style="fill: #2ca02c; stroke: #2ca02c"/>
     <use xlink:href="#m0df8c56b16" x="387.843072" y="243.701205" style="fill: #2ca02c; stroke: #2ca02c"/>
     <use xlink:href="#m0df8c56b16" x="406.940398" y="244.742628" style="fill: #2ca02c; stroke: #2ca02c"/>
    </g>
   </g>
   <g id="line2d_31">
    <path d="M 82.285852 270.485846 
L 101.383178 267.463211 
L 120.480505 265.652641 
L 139.577831 263.013951 
L 158.675157 261.106767 
L 177.772483 255.146191 
L 196.869809 252.222051 
L 215.967136 249.800429 
L 235.064462 245.949675 
L 254.161788 245.291571 
L 273.259114 249.822387 
L 292.356441 255.267899 
L 311.453767 258.463687 
L 330.551093 260.831982 
L 349.648419 259.966849 
L 368.745745 260.062835 
L 387.843072 260.802496 
L 406.940398 259.964967 
" clip-path="url(#p7f2382a7f8)" style="fill: none; stroke: #d62728; stroke-width: 1.5; stroke-linecap: square"/>
    <defs>
     <path id="m9991d4285a" d="M 0 3 
C 0.795609 3 1.55874 2.683901 2.12132 2.12132 
C 2.683901 1.55874 3 0.795609 3 0 
C 3 -0.795609 2.683901 -1.55874 2.12132 -2.12132 
C 1.55874 -2.683901 0.795609 -3 0 -3 
C -0.795609 -3 -1.55874 -2.683901 -2.12132 -2.12132 
C -2.683901 -1.55874 -3 -0.795609 -3 0 
C -3 0.795609 -2.683901 1.55874 -2.12132 2.12132 
C -1.55874 2.683901 -0.795609 3 0 3 
z
" style="stroke: #d62728"/>
    </defs>
    <g clip-path="url(#p7f2382a7f8)">
     <use xlink:href="#m9991d4285a" x="82.285852" y="270.485846" style="fill: #d62728; stroke: #d62728"/>
     <use xlink:href="#m9991d4285a" x="101.383178" y="267.463211" style="fill: #d62728; stroke: #d62728"/>
     <use xlink:href="#m9991d4285a" x="120.480505" y="265.652641" style="fill: #d62728; stroke: #d62728"/>
     <use xlink:href="#m9991d4285a" x="139.577831" y="263.013951" style="fill: #d62728; stroke: #d62728"/>
     <use xlink:href="#m9991d4285a" x="158.675157" y="261.106767" style="fill: #d62728; stroke: #d62728"/>
     <use xlink:href="#m9991d4285a" x="177.772483" y="255.146191" style="fill: #d62728; stroke: #d62728"/>
     <use xlink:href="#m9991d4285a" x="196.869809" y="252.222051" style="fill: #d62728; stroke: #d62728"/>
     <use xlink:href="#m9991d4285a" x="215.967136" y="249.800429" style="fill: #d62728; stroke: #d62728"/>
     <use xlink:href="#m9991d4285a" x="235.064462" y="245.949675" style="fill: #d62728; stroke: #d62728"/>
     <use xlink:href="#m9991d4285a" x="254.161788" y="245.291571" style="fill: #d62728; stroke: #d62728"/>
     <use xlink:href="#m9991d4285a" x="273.259114" y="249.822387" style="fill: #d62728; stroke: #d62728"/>
     <use xlink:href="#m9991d4285a" x="292.356441" y="255.267899" style="fill: #d62728; stroke: #d62728"/>
     <use xlink:href="#m9991d4285a" x="311.453767" y="258.463687" style="fill: #d62728; stroke: #d62728"/>
     <use xlink:href="#m9991d4285a" x="330.551093" y="260.831982" style="fill: #d62728; stroke: #d62728"/>
     <use xlink:href="#m9991d4285a" x="349.648419" y="259.966849" style="fill: #d62728; stroke: #d62728"/>
     <use xlink:href="#m9991d4285a" x="368.745745" y="260.062835" style="fill: #d62728; stroke: #d62728"/>
     <use xlink:href="#m9991d4285a" x="387.843072" y="260.802496" style="fill: #d62728; stroke: #d62728"/>
     <use xlink:href="#m9991d4285a" x="406.940398" y="259.964967" style="fill: #d62728; stroke: #d62728"/>
    </g>
   </g>
   <g id="line2d_32">
    <path d="M 82.285852 155.108123 
L 101.383178 123.23494 
L 120.480505 134.289705 
L 139.577831 134.748308 
L 158.675157 126.017295 
L 177.772483 80.073612 
L 196.869809 78.050366 
L 215.967136 55.102051 
L 235.064462 34.414125 
L 254.161788 43.709137 
L 273.259114 90.753842 
L 292.356441 124.793937 
L 311.453767 134.676788 
L 330.551093 151.352727 
L 349.648419 138.190022 
L 368.745745 143.648708 
L 387.843072 157.347182 
L 406.940398 164.532999 
" clip-path="url(#p7f2382a7f8)" style="fill: none; stroke: #9467bd; stroke-width: 1.5; stroke-linecap: square"/>
    <defs>
     <path id="mca9950a68f" d="M 0 3 
C 0.795609 3 1.55874 2.683901 2.12132 2.12132 
C 2.683901 1.55874 3 0.795609 3 0 
C 3 -0.795609 2.683901 -1.55874 2.12132 -2.12132 
C 1.55874 -2.683901 0.795609 -3 0 -3 
C -0.795609 -3 -1.55874 -2.683901 -2.12132 -2.12132 
C -2.683901 -1.55874 -3 -0.795609 -3 0 
C -3 0.795609 -2.683901 1.55874 -2.12132 2.12132 
C -1.55874 2.683901 -0.795609 3 0 3 
z
" style="stroke: #9467bd"/>
    </defs>
    <g clip-path="url(#p7f2382a7f8)">
     <use xlink:href="#mca9950a68f" x="82.285852" y="155.108123" style="fill: #9467bd; stroke: #9467bd"/>
     <use xlink:href="#mca9950a68f" x="101.383178" y="123.23494" style="fill: #9467bd; stroke: #9467bd"/>
     <use xlink:href="#mca9950a68f" x="120.480505" y="134.289705" style="fill: #9467bd; stroke: #9467bd"/>
     <use xlink:href="#mca9950a68f" x="139.577831" y="134.748308" style="fill: #9467bd; stroke: #9467bd"/>
     <use xlink:href="#mca9950a68f" x="158.675157" y="126.017295" style="fill: #9467bd; stroke: #9467bd"/>
     <use xlink:href="#mca9950a68f" x="177.772483" y="80.073612" style="fill: #9467bd; stroke: #9467bd"/>
     <use xlink:href="#mca9950a68f" x="196.869809" y="78.050366" style="fill: #9467bd; stroke: #9467bd"/>
     <use xlink:href="#mca9950a68f" x="215.967136" y="55.102051" style="fill: #9467bd; stroke: #9467bd"/>
     <use xlink:href="#mca9950a68f" x="235.064462" y="34.414125" style="fill: #9467bd; stroke: #9467bd"/>
     <use xlink:href="#mca9950a68f" x="254.161788" y="43.709137" style="fill: #9467bd; stroke: #9467bd"/>
     <use xlink:href="#mca9950a68f" x="273.259114" y="90.753842" style="fill: #9467bd; stroke: #9467bd"/>
     <use xlink:href="#mca9950a68f" x="292.356441" y="124.793937" style="fill: #9467bd; stroke: #9467bd"/>
     <use xlink:href="#mca9950a68f" x="311.453767" y="134.676788" style="fill: #9467bd; stroke: #9467bd"/>
     <use xlink:href="#mca9950a68f" x="330.551093" y="151.352727" style="fill: #9467bd; stroke: #9467bd"/>
     <use xlink:href="#mca9950a68f" x="349.648419" y="138.190022" style="fill: #9467bd; stroke: #9467bd"/>
     <use xlink:href="#mca9950a68f" x="368.745745" y="143.648708" style="fill: #9467bd; stroke: #9467bd"/>
     <use xlink:href="#mca9950a68f" x="387.843072" y="157.347182" style="fill: #9467bd; stroke: #9467bd"/>
     <use xlink:href="#mca9950a68f" x="406.940398" y="164.532999" style="fill: #9467bd; stroke: #9467bd"/>
    </g>
   </g>
   <g id="patch_3">
    <path d="M 66.053125 288.430125 
L 66.053125 22.318125 
" style="fill: none; stroke: #000000; stroke-width: 0.8; stroke-linejoin: miter; stroke-linecap: square"/>
   </g>
   <g id="patch_4">
    <path d="M 423.173125 288.430125 
L 423.173125 22.318125 
" style="fill: none; stroke: #000000; stroke-width: 0.8; stroke-linejoin: miter; stroke-linecap: square"/>
   </g>
   <g id="patch_5">
    <path d="M 66.053125 288.430125 
L 423.173125 288.430125 
" style="fill: none; stroke: #000000; stroke-width: 0.8; stroke-linejoin: miter; stroke-linecap: square"/>
   </g>
   <g id="patch_6">
    <path d="M 66.053125 22.318125 
L 423.173125 22.318125 
" style="fill: none; stroke: #000000; stroke-width: 0.8; stroke-linejoin: miter; stroke-linecap: square"/>
   </g>
   <g id="text_30">
    <!-- Applicants by Year and Country -->
    <g transform="translate(150.483438 16.318125) scale(0.12 -0.12)">
     <defs>
      <path id="DejaVuSans-20" transform="scale(0.015625)"/>
      <path id="DejaVuSans-62" d="M 3116 1747 
Q 3116 2381 2855 2742 
Q 2594 3103 2138 3103 
Q 1681 3103 1420 2742 
Q 1159 2381 1159 1747 
Q 1159 1113 1420 752 
Q 1681 391 2138 391 
Q 2594 391 2855 752 
Q 3116 1113 3116 1747 
z
M 1159 2969 
Q 1341 3281 1617 3432 
Q 1894 3584 2278 3584 
Q 2916 3584 3314 3078 
Q 3713 2572 3713 1747 
Q 3713 922 3314 415 
Q 2916 -91 2278 -91 
Q 1894 -91 1617 61 
Q 1341 213 1159 525 
L 1159 0 
L 581 0 
L 581 4863 
L 1159 4863 
L 1159 2969 
z
" transform="scale(0.015625)"/>
      <path id="DejaVuSans-79" d="M 2059 -325 
Q 1816 -950 1584 -1140 
Q 1353 -1331 966 -1331 
L 506 -1331 
L 506 -850 
L 844 -850 
Q 1081 -850 1212 -737 
Q 1344 -625 1503 -206 
L 1606 56 
L 191 3500 
L 800 3500 
L 1894 763 
L 2988 3500 
L 3597 3500 
L 2059 -325 
z
" transform="scale(0.015625)"/>
      <path id="DejaVuSans-64" d="M 2906 2969 
L 2906 4863 
L 3481 4863 
L 3481 0 
L 2906 0 
L 2906 525 
Q 2725 213 2448 61 
Q 2172 -91 1784 -91 
Q 1150 -91 751 415 
Q 353 922 353 1747 
Q 353 2572 751 3078 
Q 1150 3584 1784 3584 
Q 2172 3584 2448 3432 
Q 2725 3281 2906 2969 
z
M 947 1747 
Q 947 1113 1208 752 
Q 1469 391 1925 391 
Q 2381 391 2643 752 
Q 2906 1113 2906 1747 
Q 2906 2381 2643 2742 
Q 2381 3103 1925 3103 
Q 1469 3103 1208 2742 
Q 947 2381 947 1747 
z
" transform="scale(0.015625)"/>
      <path id="DejaVuSans-43" d="M 4122 4306 
L 4122 3641 
Q 3803 3938 3442 4084 
Q 3081 4231 2675 4231 
Q 1875 4231 1450 3742 
Q 1025 3253 1025 2328 
Q 1025 1406 1450 917 
Q 1875 428 2675 428 
Q 3081 428 3442 575 
Q 3803 722 4122 1019 
L 4122 359 
Q 3791 134 3420 21 
Q 3050 -91 2638 -91 
Q 1578 -91 968 557 
Q 359 1206 359 2328 
Q 359 3453 968 4101 
Q 1578 4750 2638 4750 
Q 3056 4750 3426 4639 
Q 3797 4528 4122 4306 
z
" transform="scale(0.015625)"/>
      <path id="DejaVuSans-6f" d="M 1959 3097 
Q 1497 3097 1228 2736 
Q 959 2375 959 1747 
Q 959 1119 1226 758 
Q 1494 397 1959 397 
Q 2419 397 2687 759 
Q 2956 1122 2956 1747 
Q 2956 2369 2687 2733 
Q 2419 3097 1959 3097 
z
M 1959 3584 
Q 2709 3584 3137 3096 
Q 3566 2609 3566 1747 
Q 3566 888 3137 398 
Q 2709 -91 1959 -91 
Q 1206 -91 779 398 
Q 353 888 353 1747 
Q 353 2609 779 3096 
Q 1206 3584 1959 3584 
z
" transform="scale(0.015625)"/>
      <path id="DejaVuSans-75" d="M 544 1381 
L 544 3500 
L 1119 3500 
L 1119 1403 
Q 1119 906 1312 657 
Q 1506 409 1894 409 
Q 2359 409 2629 706 
Q 2900 1003 2900 1516 
L 2900 3500 
L 3475 3500 
L 3475 0 
L 2900 0 
L 2900 538 
Q 2691 219 2414 64 
Q 2138 -91 1772 -91 
Q 1169 -91 856 284 
Q 544 659 544 1381 
z
M 1991 3584 
L 1991 3584 
z
" transform="scale(0.015625)"/>
     </defs>
     <use xlink:href="#DejaVuSans-41"/>
     <use xlink:href="#DejaVuSans-70" x="68.408203"/>
     <use xlink:href="#DejaVuSans-70" x="131.884766"/>
     <use xlink:href="#DejaVuSans-6c" x="195.361328"/>
     <use xlink:href="#DejaVuSans-69" x="223.144531"/>
     <use xlink:href="#DejaVuSans-63" x="250.927734"/>
     <use xlink:href="#DejaVuSans-61" x="305.908203"/>
     <use xlink:href="#DejaVuSans-6e" x="367.1875"/>
     <use xlink:href="#DejaVuSans-74" x="430.566406"/>
     <use xlink:href="#DejaVuSans-73" x="469.775391"/>
     <use xlink:href="#DejaVuSans-20" x="521.875"/>
     <use xlink:href="#DejaVuSans-62" x="553.662109"/>
     <use xlink:href="#DejaVuSans-79" x="617.138672"/>
     <use xlink:href="#DejaVuSans-20" x="676.318359"/>
     <use xlink:href="#DejaVuSans-59" x="708.105469"/>
     <use xlink:href="#DejaVuSans-65" x="755.939453"/>
     <use xlink:href="#DejaVuSans-61" x="817.462891"/>
     <use xlink:href="#DejaVuSans-72" x="878.742188"/>
     <use xlink:href="#DejaVuSans-20" x="919.855469"/>
     <use xlink:href="#DejaVuSans-61" x="951.642578"/>
     <use xlink:href="#DejaVuSans-6e" x="1012.921875"/>
     <use xlink:href="#DejaVuSans-64" x="1076.300781"/>
     <use xlink:href="#DejaVuSans-20" x="1139.777344"/>
     <use xlink:href="#DejaVuSans-43" x="1171.564453"/>
     <use xlink:href="#DejaVuSans-6f" x="1241.388672"/>
     <use xlink:href="#DejaVuSans-75" x="1302.570312"/>
     <use xlink:href="#DejaVuSans-6e" x="1365.949219"/>
     <use xlink:href="#DejaVuSans-74" x="1429.328125"/>
     <use xlink:href="#DejaVuSans-72" x="1468.537109"/>
     <use xlink:href="#DejaVuSans-79" x="1509.650391"/>
    </g>
   </g>
   <g id="legend_1">
    <g id="patch_7">
     <path d="M 448.029125 118.386875 
L 494.493188 118.386875 
Q 496.493188 118.386875 496.493188 116.386875 
L 496.493188 29.318125 
Q 496.493188 27.318125 494.493188 27.318125 
L 448.029125 27.318125 
Q 446.029125 27.318125 446.029125 29.318125 
L 446.029125 116.386875 
Q 446.029125 118.386875 448.029125 118.386875 
z
" style="fill: #ffffff; opacity: 0.8; stroke: #cccccc; stroke-linejoin: miter"/>
    </g>
    <g id="text_31">
     <!-- Country -->
     <g transform="translate(451.397875 38.916562) scale(0.1 -0.1)">
      <use xlink:href="#DejaVuSans-43"/>
      <use xlink:href="#DejaVuSans-6f" x="69.824219"/>
      <use xlink:href="#DejaVuSans-75" x="131.005859"/>
      <use xlink:href="#DejaVuSans-6e" x="194.384766"/>
      <use xlink:href="#DejaVuSans-74" x="257.763672"/>
      <use xlink:href="#DejaVuSans-72" x="296.972656"/>
      <use xlink:href="#DejaVuSans-79" x="338.085938"/>
     </g>
    </g>
    <g id="line2d_33">
     <path d="M 450.029125 50.094687 
L 460.029125 50.094687 
L 470.029125 50.094687 
" style="fill: none; stroke: #1f77b4; stroke-width: 1.5; stroke-linecap: square"/>
     <g>
      <use xlink:href="#me229ea7c7c" x="460.029125" y="50.094687" style="fill: #1f77b4; stroke: #1f77b4"/>
     </g>
    </g>
    <g id="text_32">
     <!-- CN -->
     <g transform="translate(478.029125 53.594687) scale(0.1 -0.1)">
      <defs>
       <path id="DejaVuSans-4e" d="M 628 4666 
L 1478 4666 
L 3547 763 
L 3547 4666 
L 4159 4666 
L 4159 0 
L 3309 0 
L 1241 3903 
L 1241 0 
L 628 0 
L 628 4666 
z
" transform="scale(0.015625)"/>
      </defs>
      <use xlink:href="#DejaVuSans-43"/>
      <use xlink:href="#DejaVuSans-4e" x="69.824219"/>
     </g>
    </g>
    <g id="line2d_34">
     <path d="M 450.029125 64.772812 
L 460.029125 64.772812 
L 470.029125 64.772812 
" style="fill: none; stroke: #ff7f0e; stroke-width: 1.5; stroke-linecap: square"/>
     <g>
      <use xlink:href="#m43a7077b72" x="460.029125" y="64.772812" style="fill: #ff7f0e; stroke: #ff7f0e"/>
     </g>
    </g>
    <g id="text_33">
     <!-- DE -->
     <g transform="translate(478.029125 68.272812) scale(0.1 -0.1)">
      <defs>
       <path id="DejaVuSans-44" d="M 1259 4147 
L 1259 519 
L 2022 519 
Q 2988 519 3436 956 
Q 3884 1394 3884 2338 
Q 3884 3275 3436 3711 
Q 2988 4147 2022 4147 
L 1259 4147 
z
M 628 4666 
L 1925 4666 
Q 3281 4666 3915 4102 
Q 4550 3538 4550 2338 
Q 4550 1131 3912 565 
Q 3275 0 1925 0 
L 628 0 
L 628 4666 
z
" transform="scale(0.015625)"/>
       <path id="DejaVuSans-45" d="M 628 4666 
L 3578 4666 
L 3578 4134 
L 1259 4134 
L 1259 2753 
L 3481 2753 
L 3481 2222 
L 1259 2222 
L 1259 531 
L 3634 531 
L 3634 0 
L 628 0 
L 628 4666 
z
" transform="scale(0.015625)"/>
      </defs>
      <use xlink:href="#DejaVuSans-44"/>
      <use xlink:href="#DejaVuSans-45" x="77.001953"/>
     </g>
    </g>
    <g id="line2d_35">
     <path d="M 450.029125 79.450937 
L 460.029125 79.450937 
L 470.029125 79.450937 
" style="fill: none; stroke: #2ca02c; stroke-width: 1.5; stroke-linecap: square"/>
     <g>
      <use xlink:href="#m0df8c56b16" x="460.029125" y="79.450937" style="fill: #2ca02c; stroke: #2ca02c"/>
     </g>
    </g>
    <g id="text_34">
     <!-- JP -->
     <g transform="translate(478.029125 82.950937) scale(0.1 -0.1)">
      <defs>
       <path id="DejaVuSans-4a" d="M 628 4666 
L 1259 4666 
L 1259 325 
Q 1259 -519 939 -900 
Q 619 -1281 -91 -1281 
L -331 -1281 
L -331 -750 
L -134 -750 
Q 284 -750 456 -515 
Q 628 -281 628 325 
L 628 4666 
z
" transform="scale(0.015625)"/>
       <path id="DejaVuSans-50" d="M 1259 4147 
L 1259 2394 
L 2053 2394 
Q 2494 2394 2734 2622 
Q 2975 2850 2975 3272 
Q 2975 3691 2734 3919 
Q 2494 4147 2053 4147 
L 1259 4147 
z
M 628 4666 
L 2053 4666 
Q 2838 4666 3239 4311 
Q 3641 3956 3641 3272 
Q 3641 2581 3239 2228 
Q 2838 1875 2053 1875 
L 1259 1875 
L 1259 0 
L 628 0 
L 628 4666 
z
" transform="scale(0.015625)"/>
      </defs>
      <use xlink:href="#DejaVuSans-4a"/>
      <use xlink:href="#DejaVuSans-50" x="29.492188"/>
     </g>
    </g>
    <g id="line2d_36">
     <path d="M 450.029125 94.129062 
L 460.029125 94.129062 
L 470.029125 94.129062 
" style="fill: none; stroke: #d62728; stroke-width: 1.5; stroke-linecap: square"/>
     <g>
      <use xlink:href="#m9991d4285a" x="460.029125" y="94.129062" style="fill: #d62728; stroke: #d62728"/>
     </g>
    </g>
    <g id="text_35">
     <!-- KR -->
     <g transform="translate(478.029125 97.629062) scale(0.1 -0.1)">
      <defs>
       <path id="DejaVuSans-4b" d="M 628 4666 
L 1259 4666 
L 1259 2694 
L 3353 4666 
L 4166 4666 
L 1850 2491 
L 4331 0 
L 3500 0 
L 1259 2247 
L 1259 0 
L 628 0 
L 628 4666 
z
" transform="scale(0.015625)"/>
       <path id="DejaVuSans-52" d="M 2841 2188 
Q 3044 2119 3236 1894 
Q 3428 1669 3622 1275 
L 4263 0 
L 3584 0 
L 2988 1197 
Q 2756 1666 2539 1819 
Q 2322 1972 1947 1972 
L 1259 1972 
L 1259 0 
L 628 0 
L 628 4666 
L 2053 4666 
Q 2853 4666 3247 4331 
Q 3641 3997 3641 3322 
Q 3641 2881 3436 2590 
Q 3231 2300 2841 2188 
z
M 1259 4147 
L 1259 2491 
L 2053 2491 
Q 2509 2491 2742 2702 
Q 2975 2913 2975 3322 
Q 2975 3731 2742 3939 
Q 2509 4147 2053 4147 
L 1259 4147 
z
" transform="scale(0.015625)"/>
      </defs>
      <use xlink:href="#DejaVuSans-4b"/>
      <use xlink:href="#DejaVuSans-52" x="65.576172"/>
     </g>
    </g>
    <g id="line2d_37">
     <path d="M 450.029125 108.807187 
L 460.029125 108.807187 
L 470.029125 108.807187 
" style="fill: none; stroke: #9467bd; stroke-width: 1.5; stroke-linecap: square"/>
     <g>
      <use xlink:href="#mca9950a68f" x="460.029125" y="108.807187" style="fill: #9467bd; stroke: #9467bd"/>
     </g>
    </g>
    <g id="text_36">
     <!-- US -->
     <g transform="translate(478.029125 112.307187) scale(0.1 -0.1)">
      <defs>
       <path id="DejaVuSans-55" d="M 556 4666 
L 1191 4666 
L 1191 1831 
Q 1191 1081 1462 751 
Q 1734 422 2344 422 
Q 2950 422 3222 751 
Q 3494 1081 3494 1831 
L 3494 4666 
L 4128 4666 
L 4128 1753 
Q 4128 841 3676 375 
Q 3225 -91 2344 -91 
Q 1459 -91 1007 375 
Q 556 841 556 1753 
L 556 4666 
z
" transform="scale(0.015625)"/>
       <path id="DejaVuSans-53" d="M 3425 4513 
L 3425 3897 
Q 3066 4069 2747 4153 
Q 2428 4238 2131 4238 
Q 1616 4238 1336 4038 
Q 1056 3838 1056 3469 
Q 1056 3159 1242 3001 
Q 1428 2844 1947 2747 
L 2328 2669 
Q 3034 2534 3370 2195 
Q 3706 1856 3706 1288 
Q 3706 609 3251 259 
Q 2797 -91 1919 -91 
Q 1588 -91 1214 -16 
Q 841 59 441 206 
L 441 856 
Q 825 641 1194 531 
Q 1563 422 1919 422 
Q 2459 422 2753 634 
Q 3047 847 3047 1241 
Q 3047 1584 2836 1778 
Q 2625 1972 2144 2069 
L 1759 2144 
Q 1053 2284 737 2584 
Q 422 2884 422 3419 
Q 422 4038 858 4394 
Q 1294 4750 2059 4750 
Q 2388 4750 2728 4690 
Q 3069 4631 3425 4513 
z
" transform="scale(0.015625)"/>
      </defs>
      <use xlink:href="#DejaVuSans-55"/>
      <use xlink:href="#DejaVuSans-53" x="73.193359"/>
     </g>
    </g>
   </g>
  </g>
 </g>
 <defs>
  <clipPath id="p7f2382a7f8">
   <rect x="66.053125" y="22.318125" width="357.12" height="266.112"/>
  </clipPath>
 </defs>
</svg>
