<?xml version="1.0" encoding="UTF-8" standalone="no"?>
<!DOCTYPE svg PUBLIC "-//W3C//DTD SVG 1.1//EN"
 "http://www.w3.org/Graphics/SVG/1.1/DTD/svg11.dtd">
<!-- Generated by graphviz version 2.38.0 (20140413.2041)
 -->
<!-- Title: D Pages: 1 -->
<svg width="898pt" height="947pt"
 viewBox="0.00 0.00 898.00 947.00" xmlns="http://www.w3.org/2000/svg" xmlns:xlink="http://www.w3.org/1999/xlink">
<g id="graph0" class="graph" transform="scale(1 1) rotate(0) translate(4 943)">
<title>D</title>
<polygon fill="white" stroke="none" points="-4,4 -4,-943 894,-943 894,4 -4,4"/>
<!-- works -->
<g id="node1" class="node"><title>works</title>
<polygon fill="#ffc62c" stroke="none" points="562.5,-939 401.5,-939 401.5,-584 562.5,-584 562.5,-939"/>
<text text-anchor="start" x="461" y="-925.3" font-family="Arial" font-weight="bold" font-size="14.00">works</text>
<text text-anchor="start" x="405" y="-905.3" font-family="Arial" font-size="14.00">id</text>
<text text-anchor="start" x="405" y="-890.3" font-family="Arial" font-size="14.00">container_id</text>
<text text-anchor="start" x="405" y="-875.3" font-family="Arial" font-size="14.00">doi</text>
<text text-anchor="start" x="405" y="-860.3" font-family="Arial" font-size="14.00">title</text>
<text text-anchor="start" x="405" y="-845.3" font-family="Arial" font-size="14.00">published_year</text>
<text text-anchor="start" x="405" y="-830.3" font-family="Arial" font-size="14.00">published_month</text>
<text text-anchor="start" x="405" y="-815.3" font-family="Arial" font-size="14.00">published_day</text>
<text text-anchor="start" x="405" y="-800.3" font-family="Arial" font-size="14.00">short_container_title</text>
<text text-anchor="start" x="405" y="-785.3" font-family="Arial" font-size="14.00">container_title</text>
<text text-anchor="start" x="405" y="-770.3" font-family="Arial" font-size="14.00">publisher</text>
<text text-anchor="start" x="405" y="-755.3" font-family="Arial" font-size="14.00">abstract</text>
<text text-anchor="start" x="405" y="-740.3" font-family="Arial" font-size="14.00">type</text>
<text text-anchor="start" x="405" y="-725.3" font-family="Arial" font-size="14.00">subtype</text>
<text text-anchor="start" x="405" y="-710.3" font-family="Arial" font-size="14.00">page</text>
<text text-anchor="start" x="405" y="-695.3" font-family="Arial" font-size="14.00">volume</text>
<text text-anchor="start" x="405" y="-680.3" font-family="Arial" font-size="14.00">article_number</text>
<text text-anchor="start" x="405" y="-665.3" font-family="Arial" font-size="14.00">journal_issue</text>
<text text-anchor="start" x="405" y="-650.3" font-family="Arial" font-size="14.00">issn_print</text>
<text text-anchor="start" x="405" y="-635.3" font-family="Arial" font-size="14.00">issn_electronic</text>
<text text-anchor="start" x="405" y="-620.3" font-family="Arial" font-size="14.00">update_count</text>
<text text-anchor="start" x="405" y="-605.3" font-family="Arial" font-size="14.00">references_count</text>
<text text-anchor="start" x="405" y="-590.3" font-family="Arial" font-size="14.00">is_referenced_by_count</text>
<polygon fill="black" stroke="black" points="402,-918.5 402,-918.5 563,-918.5 563,-918.5 402,-918.5"/>
<polygon fill="none" stroke="black" points="401.5,-584 401.5,-939 562.5,-939 562.5,-584 401.5,-584"/>
</g>
<!-- work_authors -->
<g id="node2" class="node"><title>work_authors</title>
<polygon fill="#ffc62c" stroke="none" points="131,-422 1,-422 1,-232 131,-232 131,-422"/>
<text text-anchor="start" x="17.5" y="-408.8" font-family="Arial" font-weight="bold" font-size="14.00">work_authors</text>
<text text-anchor="start" x="4" y="-388.8" font-family="Arial" font-size="14.00">id</text>
<text text-anchor="start" x="4" y="-373.8" font-family="Arial" font-size="14.00">container_id</text>
<text text-anchor="start" x="4" y="-358.8" font-family="Arial" font-size="14.00">work_id</text>
<text text-anchor="start" x="4" y="-343.8" font-family="Arial" font-size="14.00">orcid</text>
<text text-anchor="start" x="4" y="-328.8" font-family="Arial" font-size="14.00">suffix</text>
<text text-anchor="start" x="4" y="-313.8" font-family="Arial" font-size="14.00">given</text>
<text text-anchor="start" x="4" y="-298.8" font-family="Arial" font-size="14.00">family</text>
<text text-anchor="start" x="4" y="-283.8" font-family="Arial" font-size="14.00">name</text>
<text text-anchor="start" x="4" y="-268.8" font-family="Arial" font-size="14.00">authenticated_orcid</text>
<text text-anchor="start" x="4" y="-253.8" font-family="Arial" font-size="14.00">prefix</text>
<text text-anchor="start" x="4" y="-238.8" font-family="Arial" font-size="14.00">sequence</text>
<polygon fill="black" stroke="black" points="1,-402 1,-402 131,-402 131,-402 1,-402"/>
<polygon fill="none" stroke="black" points="1,-232 1,-422 131,-422 131,-232 1,-232"/>
</g>
<!-- works&#45;&gt;work_authors -->
<g id="edge1" class="edge"><title>works&#45;&gt;work_authors</title>
<path fill="none" stroke="black" d="M401.371,-719.331C324.878,-676.666 211.319,-603.438 140,-512 119.46,-485.665 103.861,-452.87 92.4078,-422.292"/>
<text text-anchor="middle" x="75.9078" y="-426.092" font-family="Arial" font-size="14.00">1…N</text>
<text text-anchor="middle" x="396.871" y="-723.131" font-family="Arial" font-size="14.00">1</text>
</g>
<!-- work_references -->
<g id="node4" class="node"><title>work_references</title>
<polygon fill="#ffc62c" stroke="none" points="285,-512 149,-512 149,-142 285,-142 285,-512"/>
<text text-anchor="start" x="158" y="-498.8" font-family="Arial" font-weight="bold" font-size="14.00">work_references</text>
<text text-anchor="start" x="152" y="-478.8" font-family="Arial" font-size="14.00">work_id</text>
<text text-anchor="start" x="152" y="-463.8" font-family="Arial" font-size="14.00">container_id</text>
<text text-anchor="start" x="152" y="-448.8" font-family="Arial" font-size="14.00">issn</text>
<text text-anchor="start" x="152" y="-433.8" font-family="Arial" font-size="14.00">standards_body</text>
<text text-anchor="start" x="152" y="-418.8" font-family="Arial" font-size="14.00">issue</text>
<text text-anchor="start" x="152" y="-403.8" font-family="Arial" font-size="14.00">key</text>
<text text-anchor="start" x="152" y="-388.8" font-family="Arial" font-size="14.00">series_title</text>
<text text-anchor="start" x="152" y="-373.8" font-family="Arial" font-size="14.00">isbn_type</text>
<text text-anchor="start" x="152" y="-358.8" font-family="Arial" font-size="14.00">doi_asserted_by</text>
<text text-anchor="start" x="152" y="-343.8" font-family="Arial" font-size="14.00">first_page</text>
<text text-anchor="start" x="152" y="-328.8" font-family="Arial" font-size="14.00">isbn</text>
<text text-anchor="start" x="152" y="-313.8" font-family="Arial" font-size="14.00">doi</text>
<text text-anchor="start" x="152" y="-298.8" font-family="Arial" font-size="14.00">component</text>
<text text-anchor="start" x="152" y="-283.8" font-family="Arial" font-size="14.00">article_title</text>
<text text-anchor="start" x="152" y="-268.8" font-family="Arial" font-size="14.00">volume_title</text>
<text text-anchor="start" x="152" y="-253.8" font-family="Arial" font-size="14.00">volume</text>
<text text-anchor="start" x="152" y="-238.8" font-family="Arial" font-size="14.00">author</text>
<text text-anchor="start" x="152" y="-223.8" font-family="Arial" font-size="14.00">standard_designator</text>
<text text-anchor="start" x="152" y="-208.8" font-family="Arial" font-size="14.00">year</text>
<text text-anchor="start" x="152" y="-193.8" font-family="Arial" font-size="14.00">unstructured</text>
<text text-anchor="start" x="152" y="-178.8" font-family="Arial" font-size="14.00">edition</text>
<text text-anchor="start" x="152" y="-163.8" font-family="Arial" font-size="14.00">journal_title</text>
<text text-anchor="start" x="152" y="-148.8" font-family="Arial" font-size="14.00">issn_type</text>
<polygon fill="black" stroke="black" points="149,-492 149,-492 285,-492 285,-492 149,-492"/>
<polygon fill="none" stroke="black" points="149,-142 149,-512 285,-512 285,-142 149,-142"/>
</g>
<!-- works&#45;&gt;work_references -->
<g id="edge3" class="edge"><title>works&#45;&gt;work_references</title>
<path fill="none" stroke="black" d="M401.492,-665.878C365.751,-621.067 324.885,-565.693 294,-512 290.978,-506.747 288.01,-501.352 285.102,-495.86"/>
<text text-anchor="middle" x="301.602" y="-499.66" font-family="Arial" font-size="14.00">0…N</text>
<text text-anchor="middle" x="396.992" y="-669.678" font-family="Arial" font-size="14.00">1</text>
</g>
<!-- work_updates -->
<g id="node5" class="node"><title>work_updates</title>
<polygon fill="#ffc62c" stroke="none" points="409,-377 303,-377 303,-277 409,-277 409,-377"/>
<text text-anchor="start" x="306" y="-363.8" font-family="Arial" font-weight="bold" font-size="14.00">work_updates</text>
<text text-anchor="start" x="317" y="-343.8" font-family="Arial" font-size="14.00">work_id</text>
<text text-anchor="start" x="317" y="-328.8" font-family="Arial" font-size="14.00">container_id</text>
<text text-anchor="start" x="317" y="-313.8" font-family="Arial" font-size="14.00">label</text>
<text text-anchor="start" x="317" y="-298.8" font-family="Arial" font-size="14.00">doi</text>
<text text-anchor="start" x="317" y="-283.8" font-family="Arial" font-size="14.00">timestamp</text>
<polygon fill="black" stroke="black" points="303,-357 303,-357 409,-357 409,-357 303,-357"/>
<polygon fill="none" stroke="black" points="303,-277 303,-377 409,-377 409,-277 303,-277"/>
</g>
<!-- works&#45;&gt;work_updates -->
<g id="edge4" class="edge"><title>works&#45;&gt;work_updates</title>
<path fill="none" stroke="black" d="M430.569,-583.962C408.794,-509.218 385.109,-427.919 370.408,-377.455"/>
<text text-anchor="middle" x="353.908" y="-381.255" font-family="Arial" font-size="14.00">0…N</text>
<text text-anchor="middle" x="426.069" y="-572.762" font-family="Arial" font-size="14.00">1</text>
</g>
<!-- work_subjects -->
<g id="node6" class="node"><title>work_subjects</title>
<polygon fill="#ffc62c" stroke="none" points="536.5,-362 427.5,-362 427.5,-292 536.5,-292 536.5,-362"/>
<text text-anchor="start" x="431" y="-348.8" font-family="Arial" font-weight="bold" font-size="14.00">work_subjects</text>
<text text-anchor="start" x="443.5" y="-328.8" font-family="Arial" font-size="14.00">work_id</text>
<text text-anchor="start" x="443.5" y="-313.8" font-family="Arial" font-size="14.00">container_id</text>
<text text-anchor="start" x="443.5" y="-298.8" font-family="Arial" font-size="14.00">name</text>
<polygon fill="black" stroke="black" points="428,-342 428,-342 537,-342 537,-342 428,-342"/>
<polygon fill="none" stroke="black" points="427.5,-292 427.5,-362 536.5,-362 536.5,-292 427.5,-292"/>
</g>
<!-- works&#45;&gt;work_subjects -->
<g id="edge5" class="edge"><title>works&#45;&gt;work_subjects</title>
<path fill="none" stroke="black" d="M482,-583.962C482,-501.042 482,-410.056 482,-362.052"/>
<text text-anchor="middle" x="465.5" y="-365.852" font-family="Arial" font-size="14.00">0…N</text>
<text text-anchor="middle" x="477.5" y="-572.762" font-family="Arial" font-size="14.00">1</text>
</g>
<!-- work_funders -->
<g id="node7" class="node"><title>work_funders</title>
<polygon fill="#ffc62c" stroke="none" points="657.5,-377 554.5,-377 554.5,-277 657.5,-277 657.5,-377"/>
<text text-anchor="start" x="558" y="-363.8" font-family="Arial" font-weight="bold" font-size="14.00">work_funders</text>
<text text-anchor="start" x="567.5" y="-343.8" font-family="Arial" font-size="14.00">id</text>
<text text-anchor="start" x="567.5" y="-328.8" font-family="Arial" font-size="14.00">container_id</text>
<text text-anchor="start" x="567.5" y="-313.8" font-family="Arial" font-size="14.00">work_id</text>
<text text-anchor="start" x="567.5" y="-298.8" font-family="Arial" font-size="14.00">doi</text>
<text text-anchor="start" x="567.5" y="-283.8" font-family="Arial" font-size="14.00">name</text>
<polygon fill="black" stroke="black" points="555,-357 555,-357 658,-357 658,-357 555,-357"/>
<polygon fill="none" stroke="black" points="554.5,-277 554.5,-377 657.5,-377 657.5,-277 554.5,-277"/>
</g>
<!-- works&#45;&gt;work_funders -->
<g id="edge6" class="edge"><title>works&#45;&gt;work_funders</title>
<path fill="none" stroke="black" d="M532.614,-583.962C554.044,-509.218 577.353,-427.919 591.821,-377.455"/>
<text text-anchor="middle" x="575.321" y="-381.255" font-family="Arial" font-size="14.00">0…N</text>
<text text-anchor="middle" x="528.114" y="-572.762" font-family="Arial" font-size="14.00">1</text>
</g>
<!-- work_licenses -->
<g id="node8" class="node"><title>work_licenses</title>
<polygon fill="#ffc62c" stroke="none" points="784,-377 676,-377 676,-277 784,-277 784,-377"/>
<text text-anchor="start" x="679.5" y="-363.8" font-family="Arial" font-weight="bold" font-size="14.00">work_licenses</text>
<text text-anchor="start" x="679" y="-343.8" font-family="Arial" font-size="14.00">work_id</text>
<text text-anchor="start" x="679" y="-328.8" font-family="Arial" font-size="14.00">container_id</text>
<text text-anchor="start" x="679" y="-313.8" font-family="Arial" font-size="14.00">url</text>
<text text-anchor="start" x="679" y="-298.8" font-family="Arial" font-size="14.00">start_timestamp</text>
<text text-anchor="start" x="679" y="-283.8" font-family="Arial" font-size="14.00">delay_in_days</text>
<polygon fill="black" stroke="black" points="676,-357 676,-357 784,-357 784,-357 676,-357"/>
<polygon fill="none" stroke="black" points="676,-277 676,-377 784,-377 784,-277 676,-277"/>
</g>
<!-- works&#45;&gt;work_licenses -->
<g id="edge7" class="edge"><title>works&#45;&gt;work_licenses</title>
<path fill="none" stroke="black" d="M562.536,-666.896C598.083,-622.184 638.231,-566.603 667,-512 689.822,-468.685 707.002,-415.408 717.61,-377.35"/>
<text text-anchor="middle" x="701.11" y="-381.15" font-family="Arial" font-size="14.00">0…N</text>
<text text-anchor="middle" x="567.036" y="-670.696" font-family="Arial" font-size="14.00">1</text>
</g>
<!-- work_links -->
<g id="node9" class="node"><title>work_links</title>
<polygon fill="#ffc62c" stroke="none" points="890,-369.5 802,-369.5 802,-284.5 890,-284.5 890,-369.5"/>
<text text-anchor="start" x="808" y="-355.8" font-family="Arial" font-weight="bold" font-size="14.00">work_links</text>
<text text-anchor="start" x="805" y="-335.8" font-family="Arial" font-size="14.00">work_id</text>
<text text-anchor="start" x="805" y="-320.8" font-family="Arial" font-size="14.00">container_id</text>
<text text-anchor="start" x="805" y="-305.8" font-family="Arial" font-size="14.00">url</text>
<text text-anchor="start" x="805" y="-290.8" font-family="Arial" font-size="14.00">content_type</text>
<polygon fill="black" stroke="black" points="802,-349 802,-349 890,-349 890,-349 802,-349"/>
<polygon fill="none" stroke="black" points="802,-284.5 802,-369.5 890,-369.5 890,-284.5 802,-284.5"/>
</g>
<!-- works&#45;&gt;work_links -->
<g id="edge8" class="edge"><title>works&#45;&gt;work_links</title>
<path fill="none" stroke="black" d="M562.632,-715.748C633.371,-672.47 733.913,-600.525 793,-512 821.975,-468.59 835.344,-409.22 841.351,-369.793"/>
<text text-anchor="middle" x="824.851" y="-373.593" font-family="Arial" font-size="14.00">0…N</text>
<text text-anchor="middle" x="567.132" y="-719.548" font-family="Arial" font-size="14.00">1</text>
</g>
<!-- author_affiliations -->
<g id="node3" class="node"><title>author_affiliations</title>
<polygon fill="#ffc62c" stroke="none" points="132,-70 0,-70 0,-0 132,-0 132,-70"/>
<text text-anchor="start" x="3" y="-56.8" font-family="Arial" font-weight="bold" font-size="14.00">author_affiliations</text>
<text text-anchor="start" x="27" y="-36.8" font-family="Arial" font-size="14.00">author_id</text>
<text text-anchor="start" x="27" y="-21.8" font-family="Arial" font-size="14.00">container_id</text>
<text text-anchor="start" x="27" y="-6.8" font-family="Arial" font-size="14.00">name</text>
<polygon fill="black" stroke="black" points="0,-50 0,-50 132,-50 132,-50 0,-50"/>
<polygon fill="none" stroke="black" points="0,-0 0,-70 132,-70 132,-0 0,-0"/>
</g>
<!-- work_authors&#45;&gt;author_affiliations -->
<g id="edge2" class="edge"><title>work_authors&#45;&gt;author_affiliations</title>
<path fill="none" stroke="black" d="M66,-231.845C66,-176.441 66,-109.696 66,-70.1697"/>
<text text-anchor="middle" x="49.5" y="-73.9697" font-family="Arial" font-size="14.00">1…N</text>
<text text-anchor="middle" x="61.5" y="-220.645" font-family="Arial" font-size="14.00">1</text>
</g>
<!-- funder_awards -->
<g id="node10" class="node"><title>funder_awards</title>
<polygon fill="#ffc62c" stroke="none" points="662,-70 550,-70 550,-0 662,-0 662,-70"/>
<text text-anchor="start" x="553" y="-56.8" font-family="Arial" font-weight="bold" font-size="14.00">funder_awards</text>
<text text-anchor="start" x="567" y="-36.8" font-family="Arial" font-size="14.00">funder_id</text>
<text text-anchor="start" x="567" y="-21.8" font-family="Arial" font-size="14.00">container_id</text>
<text text-anchor="start" x="567" y="-6.8" font-family="Arial" font-size="14.00">name</text>
<polygon fill="black" stroke="black" points="550,-50 550,-50 662,-50 662,-50 550,-50"/>
<polygon fill="none" stroke="black" points="550,-0 550,-70 662,-70 662,-0 550,-0"/>
</g>
<!-- work_funders&#45;&gt;funder_awards -->
<g id="edge9" class="edge"><title>work_funders&#45;&gt;funder_awards</title>
<path fill="none" stroke="black" d="M606,-276.805C606,-218.145 606,-121.62 606,-70.4079"/>
<text text-anchor="middle" x="589.5" y="-74.2079" font-family="Arial" font-size="14.00">0…N</text>
<text text-anchor="middle" x="601.5" y="-265.605" font-family="Arial" font-size="14.00">1</text>
</g>
</g>
</svg>
