<?xml version="1.0" encoding="UTF-8" standalone="no"?>
<!DOCTYPE svg PUBLIC "-//W3C//DTD SVG 1.1//EN"
 "http://www.w3.org/Graphics/SVG/1.1/DTD/svg11.dtd">
<!-- Generated by graphviz version 2.38.0 (20140413.2041)
 -->
<!-- Title: D Pages: 1 -->
<svg width="2611pt" height="460pt"
 viewBox="0.00 0.00 2610.50 460.00" xmlns="http://www.w3.org/2000/svg" xmlns:xlink="http://www.w3.org/1999/xlink">
<g id="graph0" class="graph" transform="scale(1 1) rotate(0) translate(4 456)">
<title>D</title>
<polygon fill="white" stroke="none" points="-4,4 -4,-456 2606.5,-456 2606.5,4 -4,4"/>
<!-- persons -->
<g id="node1" class="node"><title>persons</title>
<polygon fill="#a6ce39" stroke="none" points="1350.5,-452 1259.5,-452 1259.5,-352 1350.5,-352 1350.5,-452"/>
<text text-anchor="start" x="1276.5" y="-438.8" font-family="Arial" font-weight="bold" font-size="14.00">persons</text>
<text text-anchor="start" x="1263" y="-418.8" font-family="Arial" font-size="14.00">id</text>
<text text-anchor="start" x="1263" y="-403.8" font-family="Arial" font-size="14.00">orcid</text>
<text text-anchor="start" x="1263" y="-388.8" font-family="Arial" font-size="14.00">given_names</text>
<text text-anchor="start" x="1263" y="-373.8" font-family="Arial" font-size="14.00">family_name</text>
<text text-anchor="start" x="1263" y="-358.8" font-family="Arial" font-size="14.00">biography</text>
<polygon fill="black" stroke="black" points="1260,-432 1260,-432 1351,-432 1351,-432 1260,-432"/>
<polygon fill="none" stroke="black" points="1259.5,-352 1259.5,-452 1350.5,-452 1350.5,-352 1259.5,-352"/>
</g>
<!-- person_researcher_urls -->
<g id="node2" class="node"><title>person_researcher_urls</title>
<polygon fill="#a6ce39" stroke="none" points="176,-175 0,-175 0,-105 176,-105 176,-175"/>
<text text-anchor="start" x="3" y="-161.8" font-family="Arial" font-weight="bold" font-size="14.00">person_researcher_urls</text>
<text text-anchor="start" x="56" y="-141.8" font-family="Arial" font-size="14.00">person_id</text>
<text text-anchor="start" x="56" y="-126.8" font-family="Arial" font-size="14.00">name</text>
<text text-anchor="start" x="56" y="-111.8" font-family="Arial" font-size="14.00">url</text>
<polygon fill="black" stroke="black" points="0,-155 0,-155 176,-155 176,-155 0,-155"/>
<polygon fill="none" stroke="black" points="0,-105 0,-175 176,-175 176,-105 0,-105"/>
</g>
<!-- persons&#45;&gt;person_researcher_urls -->
<g id="edge1" class="edge"><title>persons&#45;&gt;person_researcher_urls</title>
<path fill="none" stroke="black" d="M1259.3,-401.011C1072.91,-400.316 371.277,-390.289 185,-280 144.612,-256.087 116.897,-208.014 101.742,-175.169"/>
</g>
<!-- person_countries -->
<g id="node3" class="node"><title>person_countries</title>
<polygon fill="#a6ce39" stroke="none" points="324,-167.5 194,-167.5 194,-112.5 324,-112.5 324,-167.5"/>
<text text-anchor="start" x="197" y="-153.8" font-family="Arial" font-weight="bold" font-size="14.00">person_countries</text>
<text text-anchor="start" x="227" y="-133.8" font-family="Arial" font-size="14.00">person_id</text>
<text text-anchor="start" x="227" y="-118.8" font-family="Arial" font-size="14.00">country</text>
<polygon fill="black" stroke="black" points="194,-147 194,-147 324,-147 324,-147 194,-147"/>
<polygon fill="none" stroke="black" points="194,-112.5 194,-167.5 324,-167.5 324,-112.5 194,-112.5"/>
</g>
<!-- persons&#45;&gt;person_countries -->
<g id="edge2" class="edge"><title>persons&#45;&gt;person_countries</title>
<path fill="none" stroke="black" d="M1259.28,-400.76C1087.99,-399.048 486.31,-385.498 333,-280 294.376,-253.421 274.291,-200.071 265.24,-167.748"/>
</g>
<!-- person_keywords -->
<g id="node4" class="node"><title>person_keywords</title>
<polygon fill="#a6ce39" stroke="none" points="475.5,-167.5 342.5,-167.5 342.5,-112.5 475.5,-112.5 475.5,-167.5"/>
<text text-anchor="start" x="346" y="-153.8" font-family="Arial" font-weight="bold" font-size="14.00">person_keywords</text>
<text text-anchor="start" x="377.5" y="-133.8" font-family="Arial" font-size="14.00">person_id</text>
<text text-anchor="start" x="377.5" y="-118.8" font-family="Arial" font-size="14.00">keyword</text>
<polygon fill="black" stroke="black" points="343,-147 343,-147 476,-147 476,-147 343,-147"/>
<polygon fill="none" stroke="black" points="342.5,-112.5 342.5,-167.5 475.5,-167.5 475.5,-112.5 342.5,-112.5"/>
</g>
<!-- persons&#45;&gt;person_keywords -->
<g id="edge3" class="edge"><title>persons&#45;&gt;person_keywords</title>
<path fill="none" stroke="black" d="M1259.48,-399.528C1106.33,-393.787 612.226,-368.632 485,-280 446.297,-253.038 425.342,-199.818 415.724,-167.622"/>
</g>
<!-- person_external_identifiers -->
<g id="node5" class="node"><title>person_external_identifiers</title>
<polygon fill="#a6ce39" stroke="none" points="692,-182.5 494,-182.5 494,-97.5 692,-97.5 692,-182.5"/>
<text text-anchor="start" x="497" y="-168.8" font-family="Arial" font-weight="bold" font-size="14.00">person_external_identifiers</text>
<text text-anchor="start" x="561" y="-148.8" font-family="Arial" font-size="14.00">person_id</text>
<text text-anchor="start" x="561" y="-133.8" font-family="Arial" font-size="14.00">type</text>
<text text-anchor="start" x="561" y="-118.8" font-family="Arial" font-size="14.00">value</text>
<text text-anchor="start" x="561" y="-103.8" font-family="Arial" font-size="14.00">url</text>
<polygon fill="black" stroke="black" points="494,-162 494,-162 692,-162 692,-162 494,-162"/>
<polygon fill="none" stroke="black" points="494,-97.5 494,-182.5 692,-182.5 692,-97.5 494,-97.5"/>
</g>
<!-- persons&#45;&gt;person_external_identifiers -->
<g id="edge4" class="edge"><title>persons&#45;&gt;person_external_identifiers</title>
<path fill="none" stroke="black" d="M1259.24,-396.005C1135.2,-381.821 795.588,-338.512 701,-280 662.926,-256.447 633.06,-214.331 614.477,-182.61"/>
</g>
<!-- person_distinctions -->
<g id="node6" class="node"><title>person_distinctions</title>
<polygon fill="#a6ce39" stroke="none" points="855.5,-257.5 710.5,-257.5 710.5,-22.5 855.5,-22.5 855.5,-257.5"/>
<text text-anchor="start" x="714" y="-243.8" font-family="Arial" font-weight="bold" font-size="14.00">person_distinctions</text>
<text text-anchor="start" x="714" y="-223.8" font-family="Arial" font-size="14.00">person_id</text>
<text text-anchor="start" x="714" y="-208.8" font-family="Arial" font-size="14.00">organization_name</text>
<text text-anchor="start" x="714" y="-193.8" font-family="Arial" font-size="14.00">organization_city</text>
<text text-anchor="start" x="714" y="-178.8" font-family="Arial" font-size="14.00">organization_region</text>
<text text-anchor="start" x="714" y="-163.8" font-family="Arial" font-size="14.00">organization_country</text>
<text text-anchor="start" x="714" y="-148.8" font-family="Arial" font-size="14.00">organization_identifier</text>
<text text-anchor="start" x="714" y="-133.8" font-family="Arial" font-size="14.00">department_name</text>
<text text-anchor="start" x="714" y="-118.8" font-family="Arial" font-size="14.00">role_title</text>
<text text-anchor="start" x="714" y="-103.8" font-family="Arial" font-size="14.00">start_year</text>
<text text-anchor="start" x="714" y="-88.8" font-family="Arial" font-size="14.00">start_month</text>
<text text-anchor="start" x="714" y="-73.8" font-family="Arial" font-size="14.00">start_day</text>
<text text-anchor="start" x="714" y="-58.8" font-family="Arial" font-size="14.00">end_year</text>
<text text-anchor="start" x="714" y="-43.8" font-family="Arial" font-size="14.00">end_month</text>
<text text-anchor="start" x="714" y="-28.8" font-family="Arial" font-size="14.00">end_day</text>
<polygon fill="black" stroke="black" points="711,-237 711,-237 856,-237 856,-237 711,-237"/>
<polygon fill="none" stroke="black" points="710.5,-22.5 710.5,-257.5 855.5,-257.5 855.5,-22.5 710.5,-22.5"/>
</g>
<!-- persons&#45;&gt;person_distinctions -->
<g id="edge5" class="edge"><title>persons&#45;&gt;person_distinctions</title>
<path fill="none" stroke="black" d="M1259.42,-399.554C1173.46,-394.631 985.157,-373.156 864,-280 855.586,-273.531 847.885,-265.919 840.871,-257.647"/>
</g>
<!-- person_educations -->
<g id="node7" class="node"><title>person_educations</title>
<polygon fill="#a6ce39" stroke="none" points="1018.5,-257.5 873.5,-257.5 873.5,-22.5 1018.5,-22.5 1018.5,-257.5"/>
<text text-anchor="start" x="878.5" y="-243.8" font-family="Arial" font-weight="bold" font-size="14.00">person_educations</text>
<text text-anchor="start" x="877" y="-223.8" font-family="Arial" font-size="14.00">person_id</text>
<text text-anchor="start" x="877" y="-208.8" font-family="Arial" font-size="14.00">organization_name</text>
<text text-anchor="start" x="877" y="-193.8" font-family="Arial" font-size="14.00">organization_city</text>
<text text-anchor="start" x="877" y="-178.8" font-family="Arial" font-size="14.00">organization_region</text>
<text text-anchor="start" x="877" y="-163.8" font-family="Arial" font-size="14.00">organization_country</text>
<text text-anchor="start" x="877" y="-148.8" font-family="Arial" font-size="14.00">organization_identifier</text>
<text text-anchor="start" x="877" y="-133.8" font-family="Arial" font-size="14.00">department_name</text>
<text text-anchor="start" x="877" y="-118.8" font-family="Arial" font-size="14.00">role_title</text>
<text text-anchor="start" x="877" y="-103.8" font-family="Arial" font-size="14.00">start_year</text>
<text text-anchor="start" x="877" y="-88.8" font-family="Arial" font-size="14.00">start_month</text>
<text text-anchor="start" x="877" y="-73.8" font-family="Arial" font-size="14.00">start_day</text>
<text text-anchor="start" x="877" y="-58.8" font-family="Arial" font-size="14.00">end_year</text>
<text text-anchor="start" x="877" y="-43.8" font-family="Arial" font-size="14.00">end_month</text>
<text text-anchor="start" x="877" y="-28.8" font-family="Arial" font-size="14.00">end_day</text>
<polygon fill="black" stroke="black" points="874,-237 874,-237 1019,-237 1019,-237 874,-237"/>
<polygon fill="none" stroke="black" points="873.5,-22.5 873.5,-257.5 1018.5,-257.5 1018.5,-22.5 873.5,-22.5"/>
</g>
<!-- persons&#45;&gt;person_educations -->
<g id="edge6" class="edge"><title>persons&#45;&gt;person_educations</title>
<path fill="none" stroke="black" d="M1259.5,-390.478C1200.35,-374.879 1096.55,-340.715 1028,-280 1020.45,-273.313 1013.4,-265.757 1006.86,-257.71"/>
</g>
<!-- person_employments -->
<g id="node8" class="node"><title>person_employments</title>
<polygon fill="#a6ce39" stroke="none" points="1195,-257.5 1037,-257.5 1037,-22.5 1195,-22.5 1195,-257.5"/>
<text text-anchor="start" x="1040" y="-243.8" font-family="Arial" font-weight="bold" font-size="14.00">person_employments</text>
<text text-anchor="start" x="1046.5" y="-223.8" font-family="Arial" font-size="14.00">person_id</text>
<text text-anchor="start" x="1046.5" y="-208.8" font-family="Arial" font-size="14.00">organization_name</text>
<text text-anchor="start" x="1046.5" y="-193.8" font-family="Arial" font-size="14.00">organization_city</text>
<text text-anchor="start" x="1046.5" y="-178.8" font-family="Arial" font-size="14.00">organization_region</text>
<text text-anchor="start" x="1046.5" y="-163.8" font-family="Arial" font-size="14.00">organization_country</text>
<text text-anchor="start" x="1046.5" y="-148.8" font-family="Arial" font-size="14.00">organization_identifier</text>
<text text-anchor="start" x="1046.5" y="-133.8" font-family="Arial" font-size="14.00">department_name</text>
<text text-anchor="start" x="1046.5" y="-118.8" font-family="Arial" font-size="14.00">role_title</text>
<text text-anchor="start" x="1046.5" y="-103.8" font-family="Arial" font-size="14.00">start_year</text>
<text text-anchor="start" x="1046.5" y="-88.8" font-family="Arial" font-size="14.00">start_month</text>
<text text-anchor="start" x="1046.5" y="-73.8" font-family="Arial" font-size="14.00">start_day</text>
<text text-anchor="start" x="1046.5" y="-58.8" font-family="Arial" font-size="14.00">end_year</text>
<text text-anchor="start" x="1046.5" y="-43.8" font-family="Arial" font-size="14.00">end_month</text>
<text text-anchor="start" x="1046.5" y="-28.8" font-family="Arial" font-size="14.00">end_day</text>
<polygon fill="black" stroke="black" points="1037,-237 1037,-237 1195,-237 1195,-237 1037,-237"/>
<polygon fill="none" stroke="black" points="1037,-22.5 1037,-257.5 1195,-257.5 1195,-22.5 1037,-22.5"/>
</g>
<!-- persons&#45;&gt;person_employments -->
<g id="edge7" class="edge"><title>persons&#45;&gt;person_employments</title>
<path fill="none" stroke="black" d="M1261.47,-351.848C1243.07,-330.317 1221.81,-304.432 1204,-280 1198.78,-272.846 1193.54,-265.386 1188.35,-257.799"/>
</g>
<!-- person_invited_positions -->
<g id="node9" class="node"><title>person_invited_positions</title>
<polygon fill="#a6ce39" stroke="none" points="1397,-257.5 1213,-257.5 1213,-22.5 1397,-22.5 1397,-257.5"/>
<text text-anchor="start" x="1216" y="-243.8" font-family="Arial" font-weight="bold" font-size="14.00">person_invited_positions</text>
<text text-anchor="start" x="1235.5" y="-223.8" font-family="Arial" font-size="14.00">person_id</text>
<text text-anchor="start" x="1235.5" y="-208.8" font-family="Arial" font-size="14.00">organization_name</text>
<text text-anchor="start" x="1235.5" y="-193.8" font-family="Arial" font-size="14.00">organization_city</text>
<text text-anchor="start" x="1235.5" y="-178.8" font-family="Arial" font-size="14.00">organization_region</text>
<text text-anchor="start" x="1235.5" y="-163.8" font-family="Arial" font-size="14.00">organization_country</text>
<text text-anchor="start" x="1235.5" y="-148.8" font-family="Arial" font-size="14.00">organization_identifier</text>
<text text-anchor="start" x="1235.5" y="-133.8" font-family="Arial" font-size="14.00">department_name</text>
<text text-anchor="start" x="1235.5" y="-118.8" font-family="Arial" font-size="14.00">role_title</text>
<text text-anchor="start" x="1235.5" y="-103.8" font-family="Arial" font-size="14.00">start_year</text>
<text text-anchor="start" x="1235.5" y="-88.8" font-family="Arial" font-size="14.00">start_month</text>
<text text-anchor="start" x="1235.5" y="-73.8" font-family="Arial" font-size="14.00">start_day</text>
<text text-anchor="start" x="1235.5" y="-58.8" font-family="Arial" font-size="14.00">end_year</text>
<text text-anchor="start" x="1235.5" y="-43.8" font-family="Arial" font-size="14.00">end_month</text>
<text text-anchor="start" x="1235.5" y="-28.8" font-family="Arial" font-size="14.00">end_day</text>
<polygon fill="black" stroke="black" points="1213,-237 1213,-237 1397,-237 1397,-237 1213,-237"/>
<polygon fill="none" stroke="black" points="1213,-22.5 1213,-257.5 1397,-257.5 1397,-22.5 1213,-22.5"/>
</g>
<!-- persons&#45;&gt;person_invited_positions -->
<g id="edge8" class="edge"><title>persons&#45;&gt;person_invited_positions</title>
<path fill="none" stroke="black" d="M1305,-351.79C1305,-325.07 1305,-290.805 1305,-257.702"/>
</g>
<!-- person_memberships -->
<g id="node10" class="node"><title>person_memberships</title>
<polygon fill="#a6ce39" stroke="none" points="1575,-257.5 1415,-257.5 1415,-22.5 1575,-22.5 1575,-257.5"/>
<text text-anchor="start" x="1418" y="-243.8" font-family="Arial" font-weight="bold" font-size="14.00">person_memberships</text>
<text text-anchor="start" x="1425.5" y="-223.8" font-family="Arial" font-size="14.00">person_id</text>
<text text-anchor="start" x="1425.5" y="-208.8" font-family="Arial" font-size="14.00">organization_name</text>
<text text-anchor="start" x="1425.5" y="-193.8" font-family="Arial" font-size="14.00">organization_city</text>
<text text-anchor="start" x="1425.5" y="-178.8" font-family="Arial" font-size="14.00">organization_region</text>
<text text-anchor="start" x="1425.5" y="-163.8" font-family="Arial" font-size="14.00">organization_country</text>
<text text-anchor="start" x="1425.5" y="-148.8" font-family="Arial" font-size="14.00">organization_identifier</text>
<text text-anchor="start" x="1425.5" y="-133.8" font-family="Arial" font-size="14.00">department_name</text>
<text text-anchor="start" x="1425.5" y="-118.8" font-family="Arial" font-size="14.00">role_title</text>
<text text-anchor="start" x="1425.5" y="-103.8" font-family="Arial" font-size="14.00">start_year</text>
<text text-anchor="start" x="1425.5" y="-88.8" font-family="Arial" font-size="14.00">start_month</text>
<text text-anchor="start" x="1425.5" y="-73.8" font-family="Arial" font-size="14.00">start_day</text>
<text text-anchor="start" x="1425.5" y="-58.8" font-family="Arial" font-size="14.00">end_year</text>
<text text-anchor="start" x="1425.5" y="-43.8" font-family="Arial" font-size="14.00">end_month</text>
<text text-anchor="start" x="1425.5" y="-28.8" font-family="Arial" font-size="14.00">end_day</text>
<polygon fill="black" stroke="black" points="1415,-237 1415,-237 1575,-237 1575,-237 1415,-237"/>
<polygon fill="none" stroke="black" points="1415,-22.5 1415,-257.5 1575,-257.5 1575,-22.5 1415,-22.5"/>
</g>
<!-- persons&#45;&gt;person_memberships -->
<g id="edge9" class="edge"><title>persons&#45;&gt;person_memberships</title>
<path fill="none" stroke="black" d="M1348.47,-351.803C1366.86,-330.265 1388.12,-304.387 1406,-280 1411.25,-272.836 1416.54,-265.368 1421.77,-257.776"/>
</g>
<!-- person_qualifications -->
<g id="node11" class="node"><title>person_qualifications</title>
<polygon fill="#a6ce39" stroke="none" points="1750.5,-257.5 1593.5,-257.5 1593.5,-22.5 1750.5,-22.5 1750.5,-257.5"/>
<text text-anchor="start" x="1597" y="-243.8" font-family="Arial" font-weight="bold" font-size="14.00">person_qualifications</text>
<text text-anchor="start" x="1603" y="-223.8" font-family="Arial" font-size="14.00">person_id</text>
<text text-anchor="start" x="1603" y="-208.8" font-family="Arial" font-size="14.00">organization_name</text>
<text text-anchor="start" x="1603" y="-193.8" font-family="Arial" font-size="14.00">organization_city</text>
<text text-anchor="start" x="1603" y="-178.8" font-family="Arial" font-size="14.00">organization_region</text>
<text text-anchor="start" x="1603" y="-163.8" font-family="Arial" font-size="14.00">organization_country</text>
<text text-anchor="start" x="1603" y="-148.8" font-family="Arial" font-size="14.00">organization_identifier</text>
<text text-anchor="start" x="1603" y="-133.8" font-family="Arial" font-size="14.00">department_name</text>
<text text-anchor="start" x="1603" y="-118.8" font-family="Arial" font-size="14.00">role_title</text>
<text text-anchor="start" x="1603" y="-103.8" font-family="Arial" font-size="14.00">start_year</text>
<text text-anchor="start" x="1603" y="-88.8" font-family="Arial" font-size="14.00">start_month</text>
<text text-anchor="start" x="1603" y="-73.8" font-family="Arial" font-size="14.00">start_day</text>
<text text-anchor="start" x="1603" y="-58.8" font-family="Arial" font-size="14.00">end_year</text>
<text text-anchor="start" x="1603" y="-43.8" font-family="Arial" font-size="14.00">end_month</text>
<text text-anchor="start" x="1603" y="-28.8" font-family="Arial" font-size="14.00">end_day</text>
<polygon fill="black" stroke="black" points="1594,-237 1594,-237 1751,-237 1751,-237 1594,-237"/>
<polygon fill="none" stroke="black" points="1593.5,-22.5 1593.5,-257.5 1750.5,-257.5 1750.5,-22.5 1593.5,-22.5"/>
</g>
<!-- persons&#45;&gt;person_qualifications -->
<g id="edge10" class="edge"><title>persons&#45;&gt;person_qualifications</title>
<path fill="none" stroke="black" d="M1350.54,-390.231C1409.8,-374.36 1514,-339.9 1584,-280 1591.81,-273.315 1599.17,-265.761 1606.04,-257.715"/>
</g>
<!-- person_services -->
<g id="node12" class="node"><title>person_services</title>
<polygon fill="#a6ce39" stroke="none" points="1913.5,-257.5 1768.5,-257.5 1768.5,-22.5 1913.5,-22.5 1913.5,-257.5"/>
<text text-anchor="start" x="1782.5" y="-243.8" font-family="Arial" font-weight="bold" font-size="14.00">person_services</text>
<text text-anchor="start" x="1772" y="-223.8" font-family="Arial" font-size="14.00">person_id</text>
<text text-anchor="start" x="1772" y="-208.8" font-family="Arial" font-size="14.00">organization_name</text>
<text text-anchor="start" x="1772" y="-193.8" font-family="Arial" font-size="14.00">organization_city</text>
<text text-anchor="start" x="1772" y="-178.8" font-family="Arial" font-size="14.00">organization_region</text>
<text text-anchor="start" x="1772" y="-163.8" font-family="Arial" font-size="14.00">organization_country</text>
<text text-anchor="start" x="1772" y="-148.8" font-family="Arial" font-size="14.00">organization_identifier</text>
<text text-anchor="start" x="1772" y="-133.8" font-family="Arial" font-size="14.00">department_name</text>
<text text-anchor="start" x="1772" y="-118.8" font-family="Arial" font-size="14.00">role_title</text>
<text text-anchor="start" x="1772" y="-103.8" font-family="Arial" font-size="14.00">start_year</text>
<text text-anchor="start" x="1772" y="-88.8" font-family="Arial" font-size="14.00">start_month</text>
<text text-anchor="start" x="1772" y="-73.8" font-family="Arial" font-size="14.00">start_day</text>
<text text-anchor="start" x="1772" y="-58.8" font-family="Arial" font-size="14.00">end_year</text>
<text text-anchor="start" x="1772" y="-43.8" font-family="Arial" font-size="14.00">end_month</text>
<text text-anchor="start" x="1772" y="-28.8" font-family="Arial" font-size="14.00">end_day</text>
<polygon fill="black" stroke="black" points="1769,-237 1769,-237 1914,-237 1914,-237 1769,-237"/>
<polygon fill="none" stroke="black" points="1768.5,-22.5 1768.5,-257.5 1913.5,-257.5 1913.5,-22.5 1768.5,-22.5"/>
</g>
<!-- persons&#45;&gt;person_services -->
<g id="edge11" class="edge"><title>persons&#45;&gt;person_services</title>
<path fill="none" stroke="black" d="M1350.63,-400.036C1438.64,-395.963 1634.24,-375.913 1760,-280 1768.44,-273.564 1776.16,-265.976 1783.18,-257.719"/>
</g>
<!-- person_fundings -->
<g id="node13" class="node"><title>person_fundings</title>
<polygon fill="#a6ce39" stroke="none" points="2076.5,-280 1931.5,-280 1931.5,-0 2076.5,-0 2076.5,-280"/>
<text text-anchor="start" x="1944.5" y="-266.8" font-family="Arial" font-weight="bold" font-size="14.00">person_fundings</text>
<text text-anchor="start" x="1935" y="-246.8" font-family="Arial" font-size="14.00">person_id</text>
<text text-anchor="start" x="1935" y="-231.8" font-family="Arial" font-size="14.00">title</text>
<text text-anchor="start" x="1935" y="-216.8" font-family="Arial" font-size="14.00">type</text>
<text text-anchor="start" x="1935" y="-201.8" font-family="Arial" font-size="14.00">short_description</text>
<text text-anchor="start" x="1935" y="-186.8" font-family="Arial" font-size="14.00">amount</text>
<text text-anchor="start" x="1935" y="-171.8" font-family="Arial" font-size="14.00">url</text>
<text text-anchor="start" x="1935" y="-156.8" font-family="Arial" font-size="14.00">start_year</text>
<text text-anchor="start" x="1935" y="-141.8" font-family="Arial" font-size="14.00">start_month</text>
<text text-anchor="start" x="1935" y="-126.8" font-family="Arial" font-size="14.00">start_day</text>
<text text-anchor="start" x="1935" y="-111.8" font-family="Arial" font-size="14.00">end_year</text>
<text text-anchor="start" x="1935" y="-96.8" font-family="Arial" font-size="14.00">end_month</text>
<text text-anchor="start" x="1935" y="-81.8" font-family="Arial" font-size="14.00">end_day</text>
<text text-anchor="start" x="1935" y="-66.8" font-family="Arial" font-size="14.00">organization_name</text>
<text text-anchor="start" x="1935" y="-51.8" font-family="Arial" font-size="14.00">organization_city</text>
<text text-anchor="start" x="1935" y="-36.8" font-family="Arial" font-size="14.00">organization_region</text>
<text text-anchor="start" x="1935" y="-21.8" font-family="Arial" font-size="14.00">organization_country</text>
<text text-anchor="start" x="1935" y="-6.8" font-family="Arial" font-size="14.00">organization_identifier</text>
<polygon fill="black" stroke="black" points="1932,-260 1932,-260 2077,-260 2077,-260 1932,-260"/>
<polygon fill="none" stroke="black" points="1931.5,-0 1931.5,-280 2076.5,-280 2076.5,-0 1931.5,-0"/>
</g>
<!-- persons&#45;&gt;person_fundings -->
<g id="edge12" class="edge"><title>persons&#45;&gt;person_fundings</title>
<path fill="none" stroke="black" d="M1350.88,-396.915C1477.75,-384.871 1830.01,-346.141 1923,-280 1925.85,-277.976 1928.61,-275.819 1931.28,-273.546"/>
</g>
<!-- person_peer_reviews -->
<g id="node14" class="node"><title>person_peer_reviews</title>
<polygon fill="#a6ce39" stroke="none" points="2253,-257.5 2095,-257.5 2095,-22.5 2253,-22.5 2253,-257.5"/>
<text text-anchor="start" x="2098" y="-243.8" font-family="Arial" font-weight="bold" font-size="14.00">person_peer_reviews</text>
<text text-anchor="start" x="2109" y="-223.8" font-family="Arial" font-size="14.00">person_id</text>
<text text-anchor="start" x="2109" y="-208.8" font-family="Arial" font-size="14.00">reviewer_role</text>
<text text-anchor="start" x="2109" y="-193.8" font-family="Arial" font-size="14.00">review_type</text>
<text text-anchor="start" x="2109" y="-178.8" font-family="Arial" font-size="14.00">subject_type</text>
<text text-anchor="start" x="2109" y="-163.8" font-family="Arial" font-size="14.00">subject_name</text>
<text text-anchor="start" x="2109" y="-148.8" font-family="Arial" font-size="14.00">subject_url</text>
<text text-anchor="start" x="2109" y="-133.8" font-family="Arial" font-size="14.00">group_id</text>
<text text-anchor="start" x="2109" y="-118.8" font-family="Arial" font-size="14.00">completion_year</text>
<text text-anchor="start" x="2109" y="-103.8" font-family="Arial" font-size="14.00">completion_month</text>
<text text-anchor="start" x="2109" y="-88.8" font-family="Arial" font-size="14.00">completion_day</text>
<text text-anchor="start" x="2109" y="-73.8" font-family="Arial" font-size="14.00">organization_name</text>
<text text-anchor="start" x="2109" y="-58.8" font-family="Arial" font-size="14.00">organization_city</text>
<text text-anchor="start" x="2109" y="-43.8" font-family="Arial" font-size="14.00">organization_region</text>
<text text-anchor="start" x="2109" y="-28.8" font-family="Arial" font-size="14.00">organization_country</text>
<polygon fill="black" stroke="black" points="2095,-237 2095,-237 2253,-237 2253,-237 2095,-237"/>
<polygon fill="none" stroke="black" points="2095,-22.5 2095,-257.5 2253,-257.5 2253,-22.5 2095,-22.5"/>
</g>
<!-- persons&#45;&gt;person_peer_reviews -->
<g id="edge13" class="edge"><title>persons&#45;&gt;person_peer_reviews</title>
<path fill="none" stroke="black" d="M1350.73,-398.823C1498.87,-391.027 1963.06,-360.557 2086,-280 2095.56,-273.739 2104.27,-266.04 2112.18,-257.507"/>
</g>
<!-- person_research_resources -->
<g id="node15" class="node"><title>person_research_resources</title>
<polygon fill="#a6ce39" stroke="none" points="2477,-212.5 2271,-212.5 2271,-67.5 2477,-67.5 2477,-212.5"/>
<text text-anchor="start" x="2274" y="-198.8" font-family="Arial" font-weight="bold" font-size="14.00">person_research_resources</text>
<text text-anchor="start" x="2336.5" y="-178.8" font-family="Arial" font-size="14.00">person_id</text>
<text text-anchor="start" x="2336.5" y="-163.8" font-family="Arial" font-size="14.00">title</text>
<text text-anchor="start" x="2336.5" y="-148.8" font-family="Arial" font-size="14.00">start_year</text>
<text text-anchor="start" x="2336.5" y="-133.8" font-family="Arial" font-size="14.00">start_month</text>
<text text-anchor="start" x="2336.5" y="-118.8" font-family="Arial" font-size="14.00">start_day</text>
<text text-anchor="start" x="2336.5" y="-103.8" font-family="Arial" font-size="14.00">end_year</text>
<text text-anchor="start" x="2336.5" y="-88.8" font-family="Arial" font-size="14.00">end_month</text>
<text text-anchor="start" x="2336.5" y="-73.8" font-family="Arial" font-size="14.00">end_day</text>
<polygon fill="black" stroke="black" points="2271,-192 2271,-192 2477,-192 2477,-192 2271,-192"/>
<polygon fill="none" stroke="black" points="2271,-67.5 2271,-212.5 2477,-212.5 2477,-67.5 2271,-67.5"/>
</g>
<!-- persons&#45;&gt;person_research_resources -->
<g id="edge14" class="edge"><title>persons&#45;&gt;person_research_resources</title>
<path fill="none" stroke="black" d="M1350.59,-399.703C1518.7,-394.246 2102.34,-369.132 2262,-280 2290.28,-264.214 2314.13,-238.154 2332.46,-212.839"/>
</g>
<!-- person_works -->
<g id="node16" class="node"><title>person_works</title>
<polygon fill="#a6ce39" stroke="none" points="2602.5,-167.5 2495.5,-167.5 2495.5,-112.5 2602.5,-112.5 2602.5,-167.5"/>
<text text-anchor="start" x="2499" y="-153.8" font-family="Arial" font-weight="bold" font-size="14.00">person_works</text>
<text text-anchor="start" x="2517.5" y="-133.8" font-family="Arial" font-size="14.00">person_id</text>
<text text-anchor="start" x="2517.5" y="-118.8" font-family="Arial" font-size="14.00">doi</text>
<polygon fill="black" stroke="black" points="2496,-147 2496,-147 2603,-147 2603,-147 2496,-147"/>
<polygon fill="none" stroke="black" points="2495.5,-112.5 2495.5,-167.5 2602.5,-167.5 2602.5,-112.5 2495.5,-112.5"/>
</g>
<!-- persons&#45;&gt;person_works -->
<g id="edge15" class="edge"><title>persons&#45;&gt;person_works</title>
<path fill="none" stroke="black" d="M1350.66,-398.992C1556.51,-389.587 2392.2,-347.484 2486,-280 2522.88,-253.463 2538.62,-200.099 2545,-167.761"/>
</g>
</g>
</svg>
