<?xml version="1.0" encoding="UTF-8" standalone="no"?>
<!DOCTYPE svg PUBLIC "-//W3C//DTD SVG 1.1//EN"
 "http://www.w3.org/Graphics/SVG/1.1/DTD/svg11.dtd">
<!-- Generated by graphviz version 2.43.0 (0)
 -->
<!-- Title: D Pages: 1 -->
<svg width="2446pt" height="505pt"
 viewBox="0.00 0.00 2445.50 505.00" xmlns="http://www.w3.org/2000/svg" xmlns:xlink="http://www.w3.org/1999/xlink">
<g id="graph0" class="graph" transform="scale(1 1) rotate(0) translate(4 501)">
<title>D</title>
<polygon fill="white" stroke="transparent" points="-4,4 -4,-501 2441.5,-501 2441.5,4 -4,4"/>
<!-- persons -->
<g id="node1" class="node">
<title>persons</title>
<polygon fill="#a6ce39" stroke="transparent" points="1267,-497 1179,-497 1179,-382 1267,-382 1267,-497"/>
<text text-anchor="start" x="1196.5" y="-483.3" font-family="Arial" font-weight="bold" font-size="14.00" fill="#000000">persons</text>
<text text-anchor="start" x="1182" y="-463.3" font-family="Arial" font-size="14.00" fill="#000000">id</text>
<text text-anchor="start" x="1182" y="-448.3" font-family="Arial" font-size="14.00" fill="#000000">container_id</text>
<text text-anchor="start" x="1182" y="-433.3" font-family="Arial" font-size="14.00" fill="#000000">orcid</text>
<text text-anchor="start" x="1182" y="-418.3" font-family="Arial" font-size="14.00" fill="#000000">given_names</text>
<text text-anchor="start" x="1182" y="-403.3" font-family="Arial" font-size="14.00" fill="#000000">family_name</text>
<text text-anchor="start" x="1182" y="-388.3" font-family="Arial" font-size="14.00" fill="#000000">biography</text>
<polygon fill="black" stroke="black" points="1179,-476.5 1179,-476.5 1267,-476.5 1267,-476.5 1179,-476.5"/>
<polygon fill="none" stroke="black" points="1179,-382 1179,-497 1267,-497 1267,-382 1179,-382"/>
</g>
<!-- person_researcher_urls -->
<g id="node2" class="node">
<title>person_researcher_urls</title>
<polygon fill="#a6ce39" stroke="transparent" points="160,-205 0,-205 0,-105 160,-105 160,-205"/>
<text text-anchor="start" x="3" y="-191.8" font-family="Arial" font-weight="bold" font-size="14.00" fill="#000000">person_researcher_urls</text>
<text text-anchor="start" x="43" y="-171.8" font-family="Arial" font-size="14.00" fill="#000000">id</text>
<text text-anchor="start" x="43" y="-156.8" font-family="Arial" font-size="14.00" fill="#000000">container_id</text>
<text text-anchor="start" x="43" y="-141.8" font-family="Arial" font-size="14.00" fill="#000000">person_id</text>
<text text-anchor="start" x="43" y="-126.8" font-family="Arial" font-size="14.00" fill="#000000">name</text>
<text text-anchor="start" x="43" y="-111.8" font-family="Arial" font-size="14.00" fill="#000000">url</text>
<polygon fill="black" stroke="black" points="0,-185 0,-185 160,-185 160,-185 0,-185"/>
<polygon fill="none" stroke="black" points="0,-105 0,-205 160,-205 160,-105 0,-105"/>
</g>
<!-- persons&#45;&gt;person_researcher_urls -->
<g id="edge1" class="edge">
<title>persons&#45;&gt;person_researcher_urls</title>
<path fill="none" stroke="black" d="M1178.81,-438.25C1000.96,-436.48 338.93,-422.32 169,-310 132.16,-285.65 108.71,-240.45 95.18,-205.29"/>
<text text-anchor="middle" x="79.18" y="-209.09" font-family="Arial" font-size="14.00">0…N</text>
<text text-anchor="middle" x="1174.81" y="-442.05" font-family="Arial" font-size="14.00">1</text>
</g>
<!-- person_countries -->
<g id="node3" class="node">
<title>person_countries</title>
<polygon fill="#a6ce39" stroke="transparent" points="298,-197.5 178,-197.5 178,-112.5 298,-112.5 298,-197.5"/>
<text text-anchor="start" x="181" y="-183.8" font-family="Arial" font-weight="bold" font-size="14.00" fill="#000000">person_countries</text>
<text text-anchor="start" x="201" y="-163.8" font-family="Arial" font-size="14.00" fill="#000000">id</text>
<text text-anchor="start" x="201" y="-148.8" font-family="Arial" font-size="14.00" fill="#000000">container_id</text>
<text text-anchor="start" x="201" y="-133.8" font-family="Arial" font-size="14.00" fill="#000000">person_id</text>
<text text-anchor="start" x="201" y="-118.8" font-family="Arial" font-size="14.00" fill="#000000">country</text>
<polygon fill="black" stroke="black" points="178,-177 178,-177 298,-177 298,-177 178,-177"/>
<polygon fill="none" stroke="black" points="178,-112.5 178,-197.5 298,-197.5 298,-112.5 178,-112.5"/>
</g>
<!-- persons&#45;&gt;person_countries -->
<g id="edge2" class="edge">
<title>persons&#45;&gt;person_countries</title>
<path fill="none" stroke="black" d="M1178.82,-437.82C1015.38,-434.49 447.25,-415.4 307,-310 271.17,-283.07 253.52,-233.32 245.12,-197.65"/>
<text text-anchor="middle" x="229.12" y="-201.45" font-family="Arial" font-size="14.00">0…N</text>
<text text-anchor="middle" x="1174.82" y="-426.62" font-family="Arial" font-size="14.00">1</text>
</g>
<!-- person_keywords -->
<g id="node4" class="node">
<title>person_keywords</title>
<polygon fill="#a6ce39" stroke="transparent" points="438,-197.5 316,-197.5 316,-112.5 438,-112.5 438,-197.5"/>
<text text-anchor="start" x="319" y="-183.8" font-family="Arial" font-weight="bold" font-size="14.00" fill="#000000">person_keywords</text>
<text text-anchor="start" x="340" y="-163.8" font-family="Arial" font-size="14.00" fill="#000000">id</text>
<text text-anchor="start" x="340" y="-148.8" font-family="Arial" font-size="14.00" fill="#000000">container_id</text>
<text text-anchor="start" x="340" y="-133.8" font-family="Arial" font-size="14.00" fill="#000000">person_id</text>
<text text-anchor="start" x="340" y="-118.8" font-family="Arial" font-size="14.00" fill="#000000">keyword</text>
<polygon fill="black" stroke="black" points="316,-177 316,-177 438,-177 438,-177 316,-177"/>
<polygon fill="none" stroke="black" points="316,-112.5 316,-197.5 438,-197.5 438,-112.5 316,-112.5"/>
</g>
<!-- persons&#45;&gt;person_keywords -->
<g id="edge3" class="edge">
<title>persons&#45;&gt;person_keywords</title>
<path fill="none" stroke="black" d="M1178.88,-436.55C1032.2,-429.28 563.56,-399.38 447,-310 411.46,-282.75 393.42,-233.32 384.65,-197.8"/>
<text text-anchor="middle" x="368.65" y="-201.6" font-family="Arial" font-size="14.00">0…N</text>
<text text-anchor="middle" x="1182.88" y="-440.35" font-family="Arial" font-size="14.00">1</text>
</g>
<!-- person_external_identifiers -->
<g id="node5" class="node">
<title>person_external_identifiers</title>
<polygon fill="#a6ce39" stroke="transparent" points="639.5,-212.5 456.5,-212.5 456.5,-97.5 639.5,-97.5 639.5,-212.5"/>
<text text-anchor="start" x="460" y="-198.8" font-family="Arial" font-weight="bold" font-size="14.00" fill="#000000">person_external_identifiers</text>
<text text-anchor="start" x="511.5" y="-178.8" font-family="Arial" font-size="14.00" fill="#000000">id</text>
<text text-anchor="start" x="511.5" y="-163.8" font-family="Arial" font-size="14.00" fill="#000000">container_id</text>
<text text-anchor="start" x="511.5" y="-148.8" font-family="Arial" font-size="14.00" fill="#000000">person_id</text>
<text text-anchor="start" x="511.5" y="-133.8" font-family="Arial" font-size="14.00" fill="#000000">type</text>
<text text-anchor="start" x="511.5" y="-118.8" font-family="Arial" font-size="14.00" fill="#000000">value</text>
<text text-anchor="start" x="511.5" y="-103.8" font-family="Arial" font-size="14.00" fill="#000000">url</text>
<polygon fill="black" stroke="black" points="457,-192 457,-192 640,-192 640,-192 457,-192"/>
<polygon fill="none" stroke="black" points="456.5,-97.5 456.5,-212.5 639.5,-212.5 639.5,-97.5 456.5,-97.5"/>
</g>
<!-- persons&#45;&gt;person_external_identifiers -->
<g id="edge4" class="edge">
<title>persons&#45;&gt;person_external_identifiers</title>
<path fill="none" stroke="black" d="M1178.72,-432.99C1059.57,-417.48 735.25,-370.64 648,-310 613.58,-286.08 588.13,-246.1 571.53,-212.87"/>
<text text-anchor="middle" x="555.53" y="-216.67" font-family="Arial" font-size="14.00">0…N</text>
<text text-anchor="middle" x="1174.72" y="-421.79" font-family="Arial" font-size="14.00">1</text>
</g>
<!-- person_distinctions -->
<g id="node6" class="node">
<title>person_distinctions</title>
<polygon fill="#a6ce39" stroke="transparent" points="796.5,-287.5 657.5,-287.5 657.5,-22.5 796.5,-22.5 796.5,-287.5"/>
<text text-anchor="start" x="663" y="-273.8" font-family="Arial" font-weight="bold" font-size="14.00" fill="#000000">person_distinctions</text>
<text text-anchor="start" x="661" y="-253.8" font-family="Arial" font-size="14.00" fill="#000000">id</text>
<text text-anchor="start" x="661" y="-238.8" font-family="Arial" font-size="14.00" fill="#000000">container_id</text>
<text text-anchor="start" x="661" y="-223.8" font-family="Arial" font-size="14.00" fill="#000000">person_id</text>
<text text-anchor="start" x="661" y="-208.8" font-family="Arial" font-size="14.00" fill="#000000">organization_name</text>
<text text-anchor="start" x="661" y="-193.8" font-family="Arial" font-size="14.00" fill="#000000">organization_city</text>
<text text-anchor="start" x="661" y="-178.8" font-family="Arial" font-size="14.00" fill="#000000">organization_region</text>
<text text-anchor="start" x="661" y="-163.8" font-family="Arial" font-size="14.00" fill="#000000">organization_country</text>
<text text-anchor="start" x="661" y="-148.8" font-family="Arial" font-size="14.00" fill="#000000">organization_identifier</text>
<text text-anchor="start" x="661" y="-133.8" font-family="Arial" font-size="14.00" fill="#000000">department_name</text>
<text text-anchor="start" x="661" y="-118.8" font-family="Arial" font-size="14.00" fill="#000000">role_title</text>
<text text-anchor="start" x="661" y="-103.8" font-family="Arial" font-size="14.00" fill="#000000">start_year</text>
<text text-anchor="start" x="661" y="-88.8" font-family="Arial" font-size="14.00" fill="#000000">start_month</text>
<text text-anchor="start" x="661" y="-73.8" font-family="Arial" font-size="14.00" fill="#000000">start_day</text>
<text text-anchor="start" x="661" y="-58.8" font-family="Arial" font-size="14.00" fill="#000000">end_year</text>
<text text-anchor="start" x="661" y="-43.8" font-family="Arial" font-size="14.00" fill="#000000">end_month</text>
<text text-anchor="start" x="661" y="-28.8" font-family="Arial" font-size="14.00" fill="#000000">end_day</text>
<polygon fill="black" stroke="black" points="658,-267 658,-267 797,-267 797,-267 658,-267"/>
<polygon fill="none" stroke="black" points="657.5,-22.5 657.5,-287.5 796.5,-287.5 796.5,-22.5 657.5,-22.5"/>
</g>
<!-- persons&#45;&gt;person_distinctions -->
<g id="edge5" class="edge">
<title>persons&#45;&gt;person_distinctions</title>
<path fill="none" stroke="black" d="M1178.91,-436.06C1096.33,-429.31 916.63,-404.04 805,-310 797.21,-303.43 790.11,-295.9 783.66,-287.76"/>
<text text-anchor="middle" x="767.66" y="-291.56" font-family="Arial" font-size="14.00">0…N</text>
<text text-anchor="middle" x="1182.91" y="-424.86" font-family="Arial" font-size="14.00">1</text>
</g>
<!-- person_educations -->
<g id="node7" class="node">
<title>person_educations</title>
<polygon fill="#a6ce39" stroke="transparent" points="953.5,-287.5 814.5,-287.5 814.5,-22.5 953.5,-22.5 953.5,-287.5"/>
<text text-anchor="start" x="822.5" y="-273.8" font-family="Arial" font-weight="bold" font-size="14.00" fill="#000000">person_educations</text>
<text text-anchor="start" x="818" y="-253.8" font-family="Arial" font-size="14.00" fill="#000000">id</text>
<text text-anchor="start" x="818" y="-238.8" font-family="Arial" font-size="14.00" fill="#000000">container_id</text>
<text text-anchor="start" x="818" y="-223.8" font-family="Arial" font-size="14.00" fill="#000000">person_id</text>
<text text-anchor="start" x="818" y="-208.8" font-family="Arial" font-size="14.00" fill="#000000">organization_name</text>
<text text-anchor="start" x="818" y="-193.8" font-family="Arial" font-size="14.00" fill="#000000">organization_city</text>
<text text-anchor="start" x="818" y="-178.8" font-family="Arial" font-size="14.00" fill="#000000">organization_region</text>
<text text-anchor="start" x="818" y="-163.8" font-family="Arial" font-size="14.00" fill="#000000">organization_country</text>
<text text-anchor="start" x="818" y="-148.8" font-family="Arial" font-size="14.00" fill="#000000">organization_identifier</text>
<text text-anchor="start" x="818" y="-133.8" font-family="Arial" font-size="14.00" fill="#000000">department_name</text>
<text text-anchor="start" x="818" y="-118.8" font-family="Arial" font-size="14.00" fill="#000000">role_title</text>
<text text-anchor="start" x="818" y="-103.8" font-family="Arial" font-size="14.00" fill="#000000">start_year</text>
<text text-anchor="start" x="818" y="-88.8" font-family="Arial" font-size="14.00" fill="#000000">start_month</text>
<text text-anchor="start" x="818" y="-73.8" font-family="Arial" font-size="14.00" fill="#000000">start_day</text>
<text text-anchor="start" x="818" y="-58.8" font-family="Arial" font-size="14.00" fill="#000000">end_year</text>
<text text-anchor="start" x="818" y="-43.8" font-family="Arial" font-size="14.00" fill="#000000">end_month</text>
<text text-anchor="start" x="818" y="-28.8" font-family="Arial" font-size="14.00" fill="#000000">end_day</text>
<polygon fill="black" stroke="black" points="815,-267 815,-267 954,-267 954,-267 815,-267"/>
<polygon fill="none" stroke="black" points="814.5,-22.5 814.5,-287.5 953.5,-287.5 953.5,-22.5 814.5,-22.5"/>
</g>
<!-- persons&#45;&gt;person_educations -->
<g id="edge6" class="edge">
<title>persons&#45;&gt;person_educations</title>
<path fill="none" stroke="black" d="M1178.79,-426.17C1122.53,-408.54 1025.23,-371.31 963,-310 956.04,-303.15 949.58,-295.55 943.6,-287.51"/>
<text text-anchor="middle" x="927.6" y="-291.31" font-family="Arial" font-size="14.00">0…N</text>
<text text-anchor="middle" x="1174.79" y="-414.97" font-family="Arial" font-size="14.00">1</text>
</g>
<!-- person_employments -->
<g id="node8" class="node">
<title>person_employments</title>
<polygon fill="#a6ce39" stroke="transparent" points="1120,-287.5 972,-287.5 972,-22.5 1120,-22.5 1120,-287.5"/>
<text text-anchor="start" x="975" y="-273.8" font-family="Arial" font-weight="bold" font-size="14.00" fill="#000000">person_employments</text>
<text text-anchor="start" x="979.5" y="-253.8" font-family="Arial" font-size="14.00" fill="#000000">id</text>
<text text-anchor="start" x="979.5" y="-238.8" font-family="Arial" font-size="14.00" fill="#000000">container_id</text>
<text text-anchor="start" x="979.5" y="-223.8" font-family="Arial" font-size="14.00" fill="#000000">person_id</text>
<text text-anchor="start" x="979.5" y="-208.8" font-family="Arial" font-size="14.00" fill="#000000">organization_name</text>
<text text-anchor="start" x="979.5" y="-193.8" font-family="Arial" font-size="14.00" fill="#000000">organization_city</text>
<text text-anchor="start" x="979.5" y="-178.8" font-family="Arial" font-size="14.00" fill="#000000">organization_region</text>
<text text-anchor="start" x="979.5" y="-163.8" font-family="Arial" font-size="14.00" fill="#000000">organization_country</text>
<text text-anchor="start" x="979.5" y="-148.8" font-family="Arial" font-size="14.00" fill="#000000">organization_identifier</text>
<text text-anchor="start" x="979.5" y="-133.8" font-family="Arial" font-size="14.00" fill="#000000">department_name</text>
<text text-anchor="start" x="979.5" y="-118.8" font-family="Arial" font-size="14.00" fill="#000000">role_title</text>
<text text-anchor="start" x="979.5" y="-103.8" font-family="Arial" font-size="14.00" fill="#000000">start_year</text>
<text text-anchor="start" x="979.5" y="-88.8" font-family="Arial" font-size="14.00" fill="#000000">start_month</text>
<text text-anchor="start" x="979.5" y="-73.8" font-family="Arial" font-size="14.00" fill="#000000">start_day</text>
<text text-anchor="start" x="979.5" y="-58.8" font-family="Arial" font-size="14.00" fill="#000000">end_year</text>
<text text-anchor="start" x="979.5" y="-43.8" font-family="Arial" font-size="14.00" fill="#000000">end_month</text>
<text text-anchor="start" x="979.5" y="-28.8" font-family="Arial" font-size="14.00" fill="#000000">end_day</text>
<polygon fill="black" stroke="black" points="972,-267 972,-267 1120,-267 1120,-267 972,-267"/>
<polygon fill="none" stroke="black" points="972,-22.5 972,-287.5 1120,-287.5 1120,-22.5 972,-22.5"/>
</g>
<!-- persons&#45;&gt;person_employments -->
<g id="edge7" class="edge">
<title>persons&#45;&gt;person_employments</title>
<path fill="none" stroke="black" d="M1178.92,-381.78C1162.55,-359.83 1144.27,-334.19 1129,-310 1124.46,-302.81 1119.92,-295.35 1115.44,-287.76"/>
<text text-anchor="middle" x="1099.44" y="-291.56" font-family="Arial" font-size="14.00">0…N</text>
<text text-anchor="middle" x="1174.92" y="-385.58" font-family="Arial" font-size="14.00">1</text>
</g>
<!-- person_invited_positions -->
<g id="node9" class="node">
<title>person_invited_positions</title>
<polygon fill="#a6ce39" stroke="transparent" points="1308,-287.5 1138,-287.5 1138,-22.5 1308,-22.5 1308,-287.5"/>
<text text-anchor="start" x="1141" y="-273.8" font-family="Arial" font-weight="bold" font-size="14.00" fill="#000000">person_invited_positions</text>
<text text-anchor="start" x="1156.5" y="-253.8" font-family="Arial" font-size="14.00" fill="#000000">id</text>
<text text-anchor="start" x="1156.5" y="-238.8" font-family="Arial" font-size="14.00" fill="#000000">container_id</text>
<text text-anchor="start" x="1156.5" y="-223.8" font-family="Arial" font-size="14.00" fill="#000000">person_id</text>
<text text-anchor="start" x="1156.5" y="-208.8" font-family="Arial" font-size="14.00" fill="#000000">organization_name</text>
<text text-anchor="start" x="1156.5" y="-193.8" font-family="Arial" font-size="14.00" fill="#000000">organization_city</text>
<text text-anchor="start" x="1156.5" y="-178.8" font-family="Arial" font-size="14.00" fill="#000000">organization_region</text>
<text text-anchor="start" x="1156.5" y="-163.8" font-family="Arial" font-size="14.00" fill="#000000">organization_country</text>
<text text-anchor="start" x="1156.5" y="-148.8" font-family="Arial" font-size="14.00" fill="#000000">organization_identifier</text>
<text text-anchor="start" x="1156.5" y="-133.8" font-family="Arial" font-size="14.00" fill="#000000">department_name</text>
<text text-anchor="start" x="1156.5" y="-118.8" font-family="Arial" font-size="14.00" fill="#000000">role_title</text>
<text text-anchor="start" x="1156.5" y="-103.8" font-family="Arial" font-size="14.00" fill="#000000">start_year</text>
<text text-anchor="start" x="1156.5" y="-88.8" font-family="Arial" font-size="14.00" fill="#000000">start_month</text>
<text text-anchor="start" x="1156.5" y="-73.8" font-family="Arial" font-size="14.00" fill="#000000">start_day</text>
<text text-anchor="start" x="1156.5" y="-58.8" font-family="Arial" font-size="14.00" fill="#000000">end_year</text>
<text text-anchor="start" x="1156.5" y="-43.8" font-family="Arial" font-size="14.00" fill="#000000">end_month</text>
<text text-anchor="start" x="1156.5" y="-28.8" font-family="Arial" font-size="14.00" fill="#000000">end_day</text>
<polygon fill="black" stroke="black" points="1138,-267 1138,-267 1308,-267 1308,-267 1138,-267"/>
<polygon fill="none" stroke="black" points="1138,-22.5 1138,-287.5 1308,-287.5 1308,-22.5 1138,-22.5"/>
</g>
<!-- persons&#45;&gt;person_invited_positions -->
<g id="edge8" class="edge">
<title>persons&#45;&gt;person_invited_positions</title>
<path fill="none" stroke="black" d="M1223,-381.67C1223,-354.52 1223,-320.8 1223,-287.77"/>
<text text-anchor="middle" x="1207" y="-291.57" font-family="Arial" font-size="14.00">0…N</text>
<text text-anchor="middle" x="1219" y="-370.47" font-family="Arial" font-size="14.00">1</text>
</g>
<!-- person_memberships -->
<g id="node10" class="node">
<title>person_memberships</title>
<polygon fill="#a6ce39" stroke="transparent" points="1474,-287.5 1326,-287.5 1326,-22.5 1474,-22.5 1474,-287.5"/>
<text text-anchor="start" x="1329" y="-273.8" font-family="Arial" font-weight="bold" font-size="14.00" fill="#000000">person_memberships</text>
<text text-anchor="start" x="1333.5" y="-253.8" font-family="Arial" font-size="14.00" fill="#000000">id</text>
<text text-anchor="start" x="1333.5" y="-238.8" font-family="Arial" font-size="14.00" fill="#000000">container_id</text>
<text text-anchor="start" x="1333.5" y="-223.8" font-family="Arial" font-size="14.00" fill="#000000">person_id</text>
<text text-anchor="start" x="1333.5" y="-208.8" font-family="Arial" font-size="14.00" fill="#000000">organization_name</text>
<text text-anchor="start" x="1333.5" y="-193.8" font-family="Arial" font-size="14.00" fill="#000000">organization_city</text>
<text text-anchor="start" x="1333.5" y="-178.8" font-family="Arial" font-size="14.00" fill="#000000">organization_region</text>
<text text-anchor="start" x="1333.5" y="-163.8" font-family="Arial" font-size="14.00" fill="#000000">organization_country</text>
<text text-anchor="start" x="1333.5" y="-148.8" font-family="Arial" font-size="14.00" fill="#000000">organization_identifier</text>
<text text-anchor="start" x="1333.5" y="-133.8" font-family="Arial" font-size="14.00" fill="#000000">department_name</text>
<text text-anchor="start" x="1333.5" y="-118.8" font-family="Arial" font-size="14.00" fill="#000000">role_title</text>
<text text-anchor="start" x="1333.5" y="-103.8" font-family="Arial" font-size="14.00" fill="#000000">start_year</text>
<text text-anchor="start" x="1333.5" y="-88.8" font-family="Arial" font-size="14.00" fill="#000000">start_month</text>
<text text-anchor="start" x="1333.5" y="-73.8" font-family="Arial" font-size="14.00" fill="#000000">start_day</text>
<text text-anchor="start" x="1333.5" y="-58.8" font-family="Arial" font-size="14.00" fill="#000000">end_year</text>
<text text-anchor="start" x="1333.5" y="-43.8" font-family="Arial" font-size="14.00" fill="#000000">end_month</text>
<text text-anchor="start" x="1333.5" y="-28.8" font-family="Arial" font-size="14.00" fill="#000000">end_day</text>
<polygon fill="black" stroke="black" points="1326,-267 1326,-267 1474,-267 1474,-267 1326,-267"/>
<polygon fill="none" stroke="black" points="1326,-22.5 1326,-287.5 1474,-287.5 1474,-22.5 1326,-22.5"/>
</g>
<!-- persons&#45;&gt;person_memberships -->
<g id="edge9" class="edge">
<title>persons&#45;&gt;person_memberships</title>
<path fill="none" stroke="black" d="M1267.08,-381.78C1283.45,-359.83 1301.73,-334.19 1317,-310 1321.54,-302.81 1326.08,-295.35 1330.56,-287.76"/>
<text text-anchor="middle" x="1314.56" y="-291.56" font-family="Arial" font-size="14.00">0…N</text>
<text text-anchor="middle" x="1263.08" y="-370.58" font-family="Arial" font-size="14.00">1</text>
</g>
<!-- person_qualifications -->
<g id="node11" class="node">
<title>person_qualifications</title>
<polygon fill="#a6ce39" stroke="transparent" points="1638,-287.5 1492,-287.5 1492,-22.5 1638,-22.5 1638,-287.5"/>
<text text-anchor="start" x="1495" y="-273.8" font-family="Arial" font-weight="bold" font-size="14.00" fill="#000000">person_qualifications</text>
<text text-anchor="start" x="1498.5" y="-253.8" font-family="Arial" font-size="14.00" fill="#000000">id</text>
<text text-anchor="start" x="1498.5" y="-238.8" font-family="Arial" font-size="14.00" fill="#000000">container_id</text>
<text text-anchor="start" x="1498.5" y="-223.8" font-family="Arial" font-size="14.00" fill="#000000">person_id</text>
<text text-anchor="start" x="1498.5" y="-208.8" font-family="Arial" font-size="14.00" fill="#000000">organization_name</text>
<text text-anchor="start" x="1498.5" y="-193.8" font-family="Arial" font-size="14.00" fill="#000000">organization_city</text>
<text text-anchor="start" x="1498.5" y="-178.8" font-family="Arial" font-size="14.00" fill="#000000">organization_region</text>
<text text-anchor="start" x="1498.5" y="-163.8" font-family="Arial" font-size="14.00" fill="#000000">organization_country</text>
<text text-anchor="start" x="1498.5" y="-148.8" font-family="Arial" font-size="14.00" fill="#000000">organization_identifier</text>
<text text-anchor="start" x="1498.5" y="-133.8" font-family="Arial" font-size="14.00" fill="#000000">department_name</text>
<text text-anchor="start" x="1498.5" y="-118.8" font-family="Arial" font-size="14.00" fill="#000000">role_title</text>
<text text-anchor="start" x="1498.5" y="-103.8" font-family="Arial" font-size="14.00" fill="#000000">start_year</text>
<text text-anchor="start" x="1498.5" y="-88.8" font-family="Arial" font-size="14.00" fill="#000000">start_month</text>
<text text-anchor="start" x="1498.5" y="-73.8" font-family="Arial" font-size="14.00" fill="#000000">start_day</text>
<text text-anchor="start" x="1498.5" y="-58.8" font-family="Arial" font-size="14.00" fill="#000000">end_year</text>
<text text-anchor="start" x="1498.5" y="-43.8" font-family="Arial" font-size="14.00" fill="#000000">end_month</text>
<text text-anchor="start" x="1498.5" y="-28.8" font-family="Arial" font-size="14.00" fill="#000000">end_day</text>
<polygon fill="black" stroke="black" points="1492,-267 1492,-267 1638,-267 1638,-267 1492,-267"/>
<polygon fill="none" stroke="black" points="1492,-22.5 1492,-287.5 1638,-287.5 1638,-22.5 1492,-22.5"/>
</g>
<!-- persons&#45;&gt;person_qualifications -->
<g id="edge10" class="edge">
<title>persons&#45;&gt;person_qualifications</title>
<path fill="none" stroke="black" d="M1267.07,-426.02C1323.16,-408.23 1420.3,-370.83 1483,-310 1490.07,-303.15 1496.66,-295.55 1502.79,-287.51"/>
<text text-anchor="middle" x="1486.79" y="-291.31" font-family="Arial" font-size="14.00">0…N</text>
<text text-anchor="middle" x="1271.07" y="-414.82" font-family="Arial" font-size="14.00">1</text>
</g>
<!-- person_services -->
<g id="node12" class="node">
<title>person_services</title>
<polygon fill="#a6ce39" stroke="transparent" points="1795.5,-287.5 1656.5,-287.5 1656.5,-22.5 1795.5,-22.5 1795.5,-287.5"/>
<text text-anchor="start" x="1673" y="-273.8" font-family="Arial" font-weight="bold" font-size="14.00" fill="#000000">person_services</text>
<text text-anchor="start" x="1660" y="-253.8" font-family="Arial" font-size="14.00" fill="#000000">id</text>
<text text-anchor="start" x="1660" y="-238.8" font-family="Arial" font-size="14.00" fill="#000000">container_id</text>
<text text-anchor="start" x="1660" y="-223.8" font-family="Arial" font-size="14.00" fill="#000000">person_id</text>
<text text-anchor="start" x="1660" y="-208.8" font-family="Arial" font-size="14.00" fill="#000000">organization_name</text>
<text text-anchor="start" x="1660" y="-193.8" font-family="Arial" font-size="14.00" fill="#000000">organization_city</text>
<text text-anchor="start" x="1660" y="-178.8" font-family="Arial" font-size="14.00" fill="#000000">organization_region</text>
<text text-anchor="start" x="1660" y="-163.8" font-family="Arial" font-size="14.00" fill="#000000">organization_country</text>
<text text-anchor="start" x="1660" y="-148.8" font-family="Arial" font-size="14.00" fill="#000000">organization_identifier</text>
<text text-anchor="start" x="1660" y="-133.8" font-family="Arial" font-size="14.00" fill="#000000">department_name</text>
<text text-anchor="start" x="1660" y="-118.8" font-family="Arial" font-size="14.00" fill="#000000">role_title</text>
<text text-anchor="start" x="1660" y="-103.8" font-family="Arial" font-size="14.00" fill="#000000">start_year</text>
<text text-anchor="start" x="1660" y="-88.8" font-family="Arial" font-size="14.00" fill="#000000">start_month</text>
<text text-anchor="start" x="1660" y="-73.8" font-family="Arial" font-size="14.00" fill="#000000">start_day</text>
<text text-anchor="start" x="1660" y="-58.8" font-family="Arial" font-size="14.00" fill="#000000">end_year</text>
<text text-anchor="start" x="1660" y="-43.8" font-family="Arial" font-size="14.00" fill="#000000">end_month</text>
<text text-anchor="start" x="1660" y="-28.8" font-family="Arial" font-size="14.00" fill="#000000">end_day</text>
<polygon fill="black" stroke="black" points="1657,-267 1657,-267 1796,-267 1796,-267 1657,-267"/>
<polygon fill="none" stroke="black" points="1656.5,-22.5 1656.5,-287.5 1795.5,-287.5 1795.5,-22.5 1656.5,-22.5"/>
</g>
<!-- persons&#45;&gt;person_services -->
<g id="edge11" class="edge">
<title>persons&#45;&gt;person_services</title>
<path fill="none" stroke="black" d="M1267.01,-436.24C1350.39,-429.79 1533.18,-405 1647,-310 1654.84,-303.45 1662,-295.93 1668.51,-287.8"/>
<text text-anchor="middle" x="1652.51" y="-291.6" font-family="Arial" font-size="14.00">0…N</text>
<text text-anchor="middle" x="1271.01" y="-440.04" font-family="Arial" font-size="14.00">1</text>
</g>
<!-- person_fundings -->
<g id="node13" class="node">
<title>person_fundings</title>
<polygon fill="#a6ce39" stroke="transparent" points="1952.5,-310 1813.5,-310 1813.5,0 1952.5,0 1952.5,-310"/>
<text text-anchor="start" x="1828.5" y="-296.8" font-family="Arial" font-weight="bold" font-size="14.00" fill="#000000">person_fundings</text>
<text text-anchor="start" x="1817" y="-276.8" font-family="Arial" font-size="14.00" fill="#000000">id</text>
<text text-anchor="start" x="1817" y="-261.8" font-family="Arial" font-size="14.00" fill="#000000">container_id</text>
<text text-anchor="start" x="1817" y="-246.8" font-family="Arial" font-size="14.00" fill="#000000">person_id</text>
<text text-anchor="start" x="1817" y="-231.8" font-family="Arial" font-size="14.00" fill="#000000">title</text>
<text text-anchor="start" x="1817" y="-216.8" font-family="Arial" font-size="14.00" fill="#000000">type</text>
<text text-anchor="start" x="1817" y="-201.8" font-family="Arial" font-size="14.00" fill="#000000">short_description</text>
<text text-anchor="start" x="1817" y="-186.8" font-family="Arial" font-size="14.00" fill="#000000">amount</text>
<text text-anchor="start" x="1817" y="-171.8" font-family="Arial" font-size="14.00" fill="#000000">url</text>
<text text-anchor="start" x="1817" y="-156.8" font-family="Arial" font-size="14.00" fill="#000000">start_year</text>
<text text-anchor="start" x="1817" y="-141.8" font-family="Arial" font-size="14.00" fill="#000000">start_month</text>
<text text-anchor="start" x="1817" y="-126.8" font-family="Arial" font-size="14.00" fill="#000000">start_day</text>
<text text-anchor="start" x="1817" y="-111.8" font-family="Arial" font-size="14.00" fill="#000000">end_year</text>
<text text-anchor="start" x="1817" y="-96.8" font-family="Arial" font-size="14.00" fill="#000000">end_month</text>
<text text-anchor="start" x="1817" y="-81.8" font-family="Arial" font-size="14.00" fill="#000000">end_day</text>
<text text-anchor="start" x="1817" y="-66.8" font-family="Arial" font-size="14.00" fill="#000000">organization_name</text>
<text text-anchor="start" x="1817" y="-51.8" font-family="Arial" font-size="14.00" fill="#000000">organization_city</text>
<text text-anchor="start" x="1817" y="-36.8" font-family="Arial" font-size="14.00" fill="#000000">organization_region</text>
<text text-anchor="start" x="1817" y="-21.8" font-family="Arial" font-size="14.00" fill="#000000">organization_country</text>
<text text-anchor="start" x="1817" y="-6.8" font-family="Arial" font-size="14.00" fill="#000000">organization_identifier</text>
<polygon fill="black" stroke="black" points="1814,-290 1814,-290 1953,-290 1953,-290 1814,-290"/>
<polygon fill="none" stroke="black" points="1813.5,0 1813.5,-310 1952.5,-310 1952.5,0 1813.5,0"/>
</g>
<!-- persons&#45;&gt;person_fundings -->
<g id="edge12" class="edge">
<title>persons&#45;&gt;person_fundings</title>
<path fill="none" stroke="black" d="M1267.31,-433.65C1388.1,-419.67 1719.86,-376.03 1805,-310 1807.84,-307.8 1810.59,-305.46 1813.24,-303.01"/>
<text text-anchor="middle" x="1797.24" y="-306.81" font-family="Arial" font-size="14.00">0…N</text>
<text text-anchor="middle" x="1271.31" y="-422.45" font-family="Arial" font-size="14.00">1</text>
</g>
<!-- person_peer_reviews -->
<g id="node14" class="node">
<title>person_peer_reviews</title>
<polygon fill="#a6ce39" stroke="transparent" points="2115.5,-287.5 1970.5,-287.5 1970.5,-22.5 2115.5,-22.5 2115.5,-287.5"/>
<text text-anchor="start" x="1974" y="-273.8" font-family="Arial" font-weight="bold" font-size="14.00" fill="#000000">person_peer_reviews</text>
<text text-anchor="start" x="1980.5" y="-253.8" font-family="Arial" font-size="14.00" fill="#000000">id</text>
<text text-anchor="start" x="1980.5" y="-238.8" font-family="Arial" font-size="14.00" fill="#000000">container_id</text>
<text text-anchor="start" x="1980.5" y="-223.8" font-family="Arial" font-size="14.00" fill="#000000">person_id</text>
<text text-anchor="start" x="1980.5" y="-208.8" font-family="Arial" font-size="14.00" fill="#000000">reviewer_role</text>
<text text-anchor="start" x="1980.5" y="-193.8" font-family="Arial" font-size="14.00" fill="#000000">review_type</text>
<text text-anchor="start" x="1980.5" y="-178.8" font-family="Arial" font-size="14.00" fill="#000000">subject_type</text>
<text text-anchor="start" x="1980.5" y="-163.8" font-family="Arial" font-size="14.00" fill="#000000">subject_name</text>
<text text-anchor="start" x="1980.5" y="-148.8" font-family="Arial" font-size="14.00" fill="#000000">subject_url</text>
<text text-anchor="start" x="1980.5" y="-133.8" font-family="Arial" font-size="14.00" fill="#000000">group_id</text>
<text text-anchor="start" x="1980.5" y="-118.8" font-family="Arial" font-size="14.00" fill="#000000">completion_year</text>
<text text-anchor="start" x="1980.5" y="-103.8" font-family="Arial" font-size="14.00" fill="#000000">completion_month</text>
<text text-anchor="start" x="1980.5" y="-88.8" font-family="Arial" font-size="14.00" fill="#000000">completion_day</text>
<text text-anchor="start" x="1980.5" y="-73.8" font-family="Arial" font-size="14.00" fill="#000000">organization_name</text>
<text text-anchor="start" x="1980.5" y="-58.8" font-family="Arial" font-size="14.00" fill="#000000">organization_city</text>
<text text-anchor="start" x="1980.5" y="-43.8" font-family="Arial" font-size="14.00" fill="#000000">organization_region</text>
<text text-anchor="start" x="1980.5" y="-28.8" font-family="Arial" font-size="14.00" fill="#000000">organization_country</text>
<polygon fill="black" stroke="black" points="1971,-267 1971,-267 2116,-267 2116,-267 1971,-267"/>
<polygon fill="none" stroke="black" points="1970.5,-22.5 1970.5,-287.5 2115.5,-287.5 2115.5,-22.5 1970.5,-22.5"/>
</g>
<!-- persons&#45;&gt;person_peer_reviews -->
<g id="edge13" class="edge">
<title>persons&#45;&gt;person_peer_reviews</title>
<path fill="none" stroke="black" d="M1267.05,-435.88C1408.63,-426.71 1849.36,-392.02 1962,-310 1970.79,-303.6 1978.71,-295.95 1985.83,-287.54"/>
<text text-anchor="middle" x="1969.83" y="-291.34" font-family="Arial" font-size="14.00">0…N</text>
<text text-anchor="middle" x="1263.05" y="-439.68" font-family="Arial" font-size="14.00">1</text>
</g>
<!-- person_research_resources -->
<g id="node15" class="node">
<title>person_research_resources</title>
<polygon fill="#a6ce39" stroke="transparent" points="2320.5,-242.5 2133.5,-242.5 2133.5,-67.5 2320.5,-67.5 2320.5,-242.5"/>
<text text-anchor="start" x="2137" y="-228.8" font-family="Arial" font-weight="bold" font-size="14.00" fill="#000000">person_research_resources</text>
<text text-anchor="start" x="2190.5" y="-208.8" font-family="Arial" font-size="14.00" fill="#000000">id</text>
<text text-anchor="start" x="2190.5" y="-193.8" font-family="Arial" font-size="14.00" fill="#000000">container_id</text>
<text text-anchor="start" x="2190.5" y="-178.8" font-family="Arial" font-size="14.00" fill="#000000">person_id</text>
<text text-anchor="start" x="2190.5" y="-163.8" font-family="Arial" font-size="14.00" fill="#000000">title</text>
<text text-anchor="start" x="2190.5" y="-148.8" font-family="Arial" font-size="14.00" fill="#000000">start_year</text>
<text text-anchor="start" x="2190.5" y="-133.8" font-family="Arial" font-size="14.00" fill="#000000">start_month</text>
<text text-anchor="start" x="2190.5" y="-118.8" font-family="Arial" font-size="14.00" fill="#000000">start_day</text>
<text text-anchor="start" x="2190.5" y="-103.8" font-family="Arial" font-size="14.00" fill="#000000">end_year</text>
<text text-anchor="start" x="2190.5" y="-88.8" font-family="Arial" font-size="14.00" fill="#000000">end_month</text>
<text text-anchor="start" x="2190.5" y="-73.8" font-family="Arial" font-size="14.00" fill="#000000">end_day</text>
<polygon fill="black" stroke="black" points="2134,-222 2134,-222 2321,-222 2321,-222 2134,-222"/>
<polygon fill="none" stroke="black" points="2133.5,-67.5 2133.5,-242.5 2320.5,-242.5 2320.5,-67.5 2133.5,-67.5"/>
</g>
<!-- persons&#45;&gt;person_research_resources -->
<g id="edge14" class="edge">
<title>persons&#45;&gt;person_research_resources</title>
<path fill="none" stroke="black" d="M1267.09,-436.94C1427.64,-430.53 1979.26,-402.12 2125,-310 2150.75,-293.72 2171.44,-268.32 2187.27,-242.8"/>
<text text-anchor="middle" x="2171.27" y="-246.6" font-family="Arial" font-size="14.00">0…N</text>
<text text-anchor="middle" x="1271.09" y="-440.74" font-family="Arial" font-size="14.00">1</text>
</g>
<!-- person_works -->
<g id="node16" class="node">
<title>person_works</title>
<polygon fill="#a6ce39" stroke="transparent" points="2437.5,-197.5 2338.5,-197.5 2338.5,-112.5 2437.5,-112.5 2437.5,-197.5"/>
<text text-anchor="start" x="2342" y="-183.8" font-family="Arial" font-weight="bold" font-size="14.00" fill="#000000">person_works</text>
<text text-anchor="start" x="2351.5" y="-163.8" font-family="Arial" font-size="14.00" fill="#000000">id</text>
<text text-anchor="start" x="2351.5" y="-148.8" font-family="Arial" font-size="14.00" fill="#000000">container_id</text>
<text text-anchor="start" x="2351.5" y="-133.8" font-family="Arial" font-size="14.00" fill="#000000">person_id</text>
<text text-anchor="start" x="2351.5" y="-118.8" font-family="Arial" font-size="14.00" fill="#000000">doi</text>
<polygon fill="black" stroke="black" points="2339,-177 2339,-177 2438,-177 2438,-177 2339,-177"/>
<polygon fill="none" stroke="black" points="2338.5,-112.5 2338.5,-197.5 2437.5,-197.5 2437.5,-112.5 2338.5,-112.5"/>
</g>
<!-- persons&#45;&gt;person_works -->
<g id="edge15" class="edge">
<title>persons&#45;&gt;person_works</title>
<path fill="none" stroke="black" d="M1267.22,-436.07C1462.85,-424.95 2244.71,-376.62 2330,-310 2364.45,-283.09 2378.44,-233.34 2384.12,-197.66"/>
<text text-anchor="middle" x="2368.12" y="-201.46" font-family="Arial" font-size="14.00">0…N</text>
<text text-anchor="middle" x="1271.22" y="-424.87" font-family="Arial" font-size="14.00">1</text>
</g>
</g>
</svg>
