<?xml version="1.0" encoding="UTF-8" standalone="no"?>
<!DOCTYPE svg PUBLIC "-//W3C//DTD SVG 1.1//EN"
 "http://www.w3.org/Graphics/SVG/1.1/DTD/svg11.dtd">
<!-- Generated by graphviz version 9.0.0 (20230911.1827)
 -->
<!-- Title: D Pages: 1 -->
<svg width="1142pt" height="1806pt"
 viewBox="0.00 0.00 1141.80 1806.25" xmlns="http://www.w3.org/2000/svg" xmlns:xlink="http://www.w3.org/1999/xlink">
<g id="graph0" class="graph" transform="scale(1 1) rotate(0) translate(4 1802.25)">
<title>D</title>
<polygon fill="white" stroke="none" points="-4,4 -4,-1802.25 1137.8,-1802.25 1137.8,4 -4,4"/>
<!-- Alexandria3k tables -->
<g id="node1" class="node">
<title>Alexandria3k tables</title>
<polygon fill="#d3d3d3" stroke="black" points="1133.8,-1798.25 1000.21,-1798.25 1000.21,-1762.25 1133.8,-1762.25 1133.8,-1798.25"/>
<text text-anchor="middle" x="1067" y="-1774.83" font-family="Arial" font-size="14.00">Alexandria3k tables</text>
</g>
<!-- asjcs -->
<g id="node2" class="node">
<title>asjcs</title>
<polygon fill="#d3d3d3" stroke="none" points="438.62,-218 337.38,-218 337.38,-129.25 438.62,-129.25 438.62,-218"/>
<text text-anchor="start" x="371.12" y="-202.7" font-family="Arial" font-weight="bold" font-size="14.00">asjcs</text>
<text text-anchor="start" x="340.38" y="-181.95" font-family="Arial" font-size="14.00">id</text>
<text text-anchor="start" x="340.38" y="-166.2" font-family="Arial" font-size="14.00">field</text>
<text text-anchor="start" x="340.38" y="-150.45" font-family="Arial" font-size="14.00">subject_area_id</text>
<text text-anchor="start" x="340.38" y="-134.7" font-family="Arial" font-size="14.00">general_field_id</text>
<polygon fill="black" stroke="black" points="337.38,-197.25 337.38,-197.25 438.62,-197.25 438.62,-197.25 337.38,-197.25"/>
<polygon fill="none" stroke="black" points="337.38,-129.25 337.38,-218 438.62,-218 438.62,-129.25 337.38,-129.25"/>
</g>
<!-- asjc_general_fields -->
<g id="node4" class="node">
<title>asjc_general_fields</title>
<polygon fill="#d3d3d3" stroke="none" points="379.25,-57.25 248.75,-57.25 248.75,0 379.25,0 379.25,-57.25"/>
<text text-anchor="start" x="251.75" y="-41.95" font-family="Arial" font-weight="bold" font-size="14.00">asjc_general_fields</text>
<text text-anchor="start" x="296.75" y="-21.2" font-family="Arial" font-size="14.00">id</text>
<text text-anchor="start" x="296.75" y="-5.45" font-family="Arial" font-size="14.00">name</text>
<polygon fill="black" stroke="black" points="248.75,-36.5 248.75,-36.5 379.25,-36.5 379.25,-36.5 248.75,-36.5"/>
<polygon fill="none" stroke="black" points="248.75,0 248.75,-57.25 379.25,-57.25 379.25,0 248.75,0"/>
</g>
<!-- asjcs&#45;&gt;asjc_general_fields -->
<g id="edge1" class="edge">
<title>asjcs&#45;&gt;asjc_general_fields</title>
<path fill="none" stroke="black" d="M365.6,-129.33C353.43,-105.82 338.76,-77.47 328.17,-57.01"/>
<text text-anchor="middle" x="324.42" y="-59.46" font-family="Arial" font-size="14.00">1</text>
<text text-anchor="middle" x="349.85" y="-116.03" font-family="Arial" font-size="14.00">1…N</text>
</g>
<!-- asjc_subject_areas -->
<g id="node5" class="node">
<title>asjc_subject_areas</title>
<polygon fill="#d3d3d3" stroke="none" points="526.88,-57.25 397.12,-57.25 397.12,0 526.88,0 526.88,-57.25"/>
<text text-anchor="start" x="400.12" y="-41.95" font-family="Arial" font-weight="bold" font-size="14.00">asjc_subject_areas</text>
<text text-anchor="start" x="444.75" y="-21.2" font-family="Arial" font-size="14.00">id</text>
<text text-anchor="start" x="444.75" y="-5.45" font-family="Arial" font-size="14.00">name</text>
<polygon fill="black" stroke="black" points="397.12,-36.5 397.12,-36.5 526.88,-36.5 526.88,-36.5 397.12,-36.5"/>
<polygon fill="none" stroke="black" points="397.12,0 397.12,-57.25 526.88,-57.25 526.88,0 397.12,0"/>
</g>
<!-- asjcs&#45;&gt;asjc_subject_areas -->
<g id="edge2" class="edge">
<title>asjcs&#45;&gt;asjc_subject_areas</title>
<path fill="none" stroke="black" d="M410.4,-129.33C422.57,-105.82 437.24,-77.47 447.83,-57.01"/>
<text text-anchor="middle" x="444.08" y="-59.46" font-family="Arial" font-size="14.00">1</text>
<text text-anchor="middle" x="394.65" y="-116.03" font-family="Arial" font-size="14.00">1…N</text>
</g>
<!-- works_asjcs -->
<g id="node3" class="node">
<title>works_asjcs</title>
<polygon fill="#d3d3d3" stroke="none" points="206.5,-764.62 119.5,-764.62 119.5,-707.38 206.5,-707.38 206.5,-764.62"/>
<text text-anchor="start" x="122.5" y="-749.33" font-family="Arial" font-weight="bold" font-size="14.00">works_asjcs</text>
<text text-anchor="start" x="139.75" y="-728.58" font-family="Arial" font-size="14.00">work_id</text>
<text text-anchor="start" x="139.75" y="-712.83" font-family="Arial" font-size="14.00">asjc_id</text>
<polygon fill="black" stroke="black" points="119.5,-743.88 119.5,-743.88 206.5,-743.88 206.5,-743.88 119.5,-743.88"/>
<polygon fill="none" stroke="black" points="119.5,-707.38 119.5,-764.62 206.5,-764.62 206.5,-707.38 119.5,-707.38"/>
</g>
<!-- works_asjcs&#45;&gt;asjcs -->
<g id="edge13" class="edge">
<title>works_asjcs&#45;&gt;asjcs</title>
<path fill="none" stroke="black" d="M158.74,-707.42C148.81,-633.52 130.91,-427.31 215,-290 243.19,-243.97 297.45,-212.36 337.72,-194.02"/>
<text text-anchor="middle" x="333.97" y="-196.47" font-family="Arial" font-size="14.00">1</text>
<text text-anchor="middle" x="142.99" y="-694.12" font-family="Arial" font-size="14.00">0…N</text>
</g>
<!-- work_authors_rors -->
<g id="node6" class="node">
<title>work_authors_rors</title>
<polygon fill="#d3d3d3" stroke="none" points="778.5,-1566.5 649.5,-1566.5 649.5,-1509.25 778.5,-1509.25 778.5,-1566.5"/>
<text text-anchor="start" x="652.5" y="-1551.2" font-family="Arial" font-weight="bold" font-size="14.00">work_authors_rors</text>
<text text-anchor="start" x="667.88" y="-1530.45" font-family="Arial" font-size="14.00">ror_id</text>
<text text-anchor="start" x="667.88" y="-1514.7" font-family="Arial" font-size="14.00">work_author_id</text>
<polygon fill="black" stroke="black" points="649.5,-1545.75 649.5,-1545.75 778.5,-1545.75 778.5,-1545.75 649.5,-1545.75"/>
<polygon fill="none" stroke="black" points="649.5,-1509.25 649.5,-1566.5 778.5,-1566.5 778.5,-1509.25 649.5,-1509.25"/>
</g>
<!-- work_authors -->
<g id="node10" class="node">
<title>work_authors</title>
<polygon fill="#ffc62c" stroke="black" points="762.42,-1355.75 665.58,-1355.75 665.58,-1319.75 762.42,-1319.75 762.42,-1355.75"/>
<text text-anchor="middle" x="714" y="-1332.33" font-family="Arial" font-size="14.00">work_authors</text>
</g>
<!-- work_authors_rors&#45;&gt;work_authors -->
<g id="edge9" class="edge">
<title>work_authors_rors&#45;&gt;work_authors</title>
<path fill="none" stroke="black" d="M714,-1509.33C714,-1467.86 714,-1390.59 714,-1356.13"/>
<text text-anchor="middle" x="710.25" y="-1358.58" font-family="Arial" font-size="14.00">1</text>
<text text-anchor="middle" x="698.25" y="-1496.03" font-family="Arial" font-size="14.00">0…N</text>
</g>
<!-- usp_nplcit_dois -->
<g id="node7" class="node">
<title>usp_nplcit_dois</title>
<polygon fill="#d3d3d3" stroke="none" points="207.38,-1574.38 98.62,-1574.38 98.62,-1501.38 207.38,-1501.38 207.38,-1574.38"/>
<text text-anchor="start" x="101.62" y="-1559.08" font-family="Arial" font-weight="bold" font-size="14.00">usp_nplcit_dois</text>
<text text-anchor="start" x="120" y="-1538.33" font-family="Arial" font-size="14.00">patent_id</text>
<text text-anchor="start" x="120" y="-1522.58" font-family="Arial" font-size="14.00">nplcit_num</text>
<text text-anchor="start" x="120" y="-1506.83" font-family="Arial" font-size="14.00">doi</text>
<polygon fill="black" stroke="black" points="98.62,-1553.62 98.62,-1553.62 207.38,-1553.62 207.38,-1553.62 98.62,-1553.62"/>
<polygon fill="none" stroke="black" points="98.62,-1501.38 98.62,-1574.38 207.38,-1574.38 207.38,-1501.38 98.62,-1501.38"/>
</g>
<!-- works -->
<g id="node9" class="node">
<title>works</title>
<polygon fill="#ffc62c" stroke="black" points="245,-1355.75 191,-1355.75 191,-1319.75 245,-1319.75 245,-1355.75"/>
<text text-anchor="middle" x="218" y="-1332.33" font-family="Arial" font-size="14.00">works</text>
</g>
<!-- usp_nplcit_dois&#45;&gt;works -->
<g id="edge15" class="edge">
<title>usp_nplcit_dois&#45;&gt;works</title>
<path fill="none" stroke="black" d="M164.62,-1501.45C178.64,-1458.71 201.66,-1388.56 212.29,-1356.16"/>
<text text-anchor="middle" x="208.54" y="-1358.61" font-family="Arial" font-size="14.00">1</text>
<text text-anchor="middle" x="160.87" y="-1488.15" font-family="Arial" font-size="14.00">1</text>
</g>
<!-- Main Crossref tables -->
<g id="node8" class="node">
<title>Main Crossref tables</title>
<polygon fill="#ffc62c" stroke="black" points="223.17,-1798.25 82.83,-1798.25 82.83,-1762.25 223.17,-1762.25 223.17,-1798.25"/>
<text text-anchor="middle" x="153" y="-1774.83" font-family="Arial" font-size="14.00">Main Crossref tables</text>
</g>
<!-- Additional Crossref tables -->
<g id="node25" class="node">
<title>Additional Crossref tables</title>
<polygon fill="#3db1c8" stroke="black" points="410.8,-1798.25 241.2,-1798.25 241.2,-1762.25 410.8,-1762.25 410.8,-1798.25"/>
<text text-anchor="middle" x="326" y="-1774.83" font-family="Arial" font-size="14.00">Additional Crossref tables</text>
</g>
<!-- Main Crossref tables&#45;&gt;Additional Crossref tables -->
<!-- works&#45;&gt;works_asjcs -->
<g id="edge12" class="edge">
<title>works&#45;&gt;works_asjcs</title>
<path fill="none" stroke="black" d="M216.41,-1319.45C208.69,-1235.23 175.02,-868.04 165.51,-764.36"/>
<text text-anchor="middle" x="149.76" y="-766.81" font-family="Arial" font-size="14.00">0…N</text>
<text text-anchor="middle" x="212.66" y="-1306.15" font-family="Arial" font-size="14.00">1</text>
</g>
<!-- person_works -->
<g id="node15" class="node">
<title>person_works</title>
<polygon fill="#a6ce39" stroke="black" points="323.92,-754 224.08,-754 224.08,-718 323.92,-718 323.92,-754"/>
<text text-anchor="middle" x="274" y="-730.58" font-family="Arial" font-size="14.00">person_works</text>
</g>
<!-- works&#45;&gt;person_works -->
<g id="edge11" class="edge">
<title>works&#45;&gt;person_works</title>
<path fill="none" stroke="black" d="M219.62,-1319.45C227.76,-1232.25 264.22,-841.73 272.38,-754.37"/>
<text text-anchor="middle" x="257.75" y="-756.82" font-family="Arial" font-size="14.00">0…1</text>
<text text-anchor="middle" x="230.87" y="-1306.15" font-family="Arial" font-size="14.00">0..1</text>
</g>
<!-- open_access_journals -->
<g id="node24" class="node">
<title>open_access_journals</title>
<polygon fill="#fa9a87" stroke="none" points="543.88,-1182 342.12,-1182 342.12,-290 543.88,-290 543.88,-1182"/>
<text text-anchor="start" x="370.62" y="-1166.7" font-family="Arial" font-weight="bold" font-size="14.00">open_access_journals</text>
<text text-anchor="start" x="345.12" y="-1145.95" font-family="Arial" font-size="14.00">id</text>
<text text-anchor="start" x="345.12" y="-1130.2" font-family="Arial" font-size="14.00">name</text>
<text text-anchor="start" x="345.12" y="-1114.45" font-family="Arial" font-size="14.00">url</text>
<text text-anchor="start" x="345.12" y="-1098.7" font-family="Arial" font-size="14.00">doaj_url</text>
<text text-anchor="start" x="345.12" y="-1082.95" font-family="Arial" font-size="14.00">oaj_start</text>
<text text-anchor="start" x="345.12" y="-1067.2" font-family="Arial" font-size="14.00">alternative_name</text>
<text text-anchor="start" x="345.12" y="-1051.45" font-family="Arial" font-size="14.00">issn_print</text>
<text text-anchor="start" x="345.12" y="-1035.7" font-family="Arial" font-size="14.00">issn_eprint</text>
<text text-anchor="start" x="345.12" y="-1019.95" font-family="Arial" font-size="14.00">keywords</text>
<text text-anchor="start" x="345.12" y="-1004.2" font-family="Arial" font-size="14.00">languages</text>
<text text-anchor="start" x="345.12" y="-988.45" font-family="Arial" font-size="14.00">publisher</text>
<text text-anchor="start" x="345.12" y="-972.7" font-family="Arial" font-size="14.00">pubisher_country</text>
<text text-anchor="start" x="345.12" y="-956.95" font-family="Arial" font-size="14.00">society</text>
<text text-anchor="start" x="345.12" y="-941.2" font-family="Arial" font-size="14.00">society_country</text>
<text text-anchor="start" x="345.12" y="-925.45" font-family="Arial" font-size="14.00">license</text>
<text text-anchor="start" x="345.12" y="-909.7" font-family="Arial" font-size="14.00">license_attributes</text>
<text text-anchor="start" x="345.12" y="-893.95" font-family="Arial" font-size="14.00">license_terms_url</text>
<text text-anchor="start" x="345.12" y="-878.2" font-family="Arial" font-size="14.00">license_embedded</text>
<text text-anchor="start" x="345.12" y="-862.45" font-family="Arial" font-size="14.00">example_license_embedded_url</text>
<text text-anchor="start" x="345.12" y="-846.7" font-family="Arial" font-size="14.00">author_copyright</text>
<text text-anchor="start" x="345.12" y="-830.95" font-family="Arial" font-size="14.00">copyright_info_url</text>
<text text-anchor="start" x="345.12" y="-815.2" font-family="Arial" font-size="14.00">review_process</text>
<text text-anchor="start" x="345.12" y="-799.45" font-family="Arial" font-size="14.00">review_process_url</text>
<text text-anchor="start" x="345.12" y="-783.7" font-family="Arial" font-size="14.00">plagiarism_screening</text>
<text text-anchor="start" x="345.12" y="-767.95" font-family="Arial" font-size="14.00">plagiarism_info_url</text>
<text text-anchor="start" x="345.12" y="-752.2" font-family="Arial" font-size="14.00">aims_scope_url</text>
<text text-anchor="start" x="345.12" y="-736.45" font-family="Arial" font-size="14.00">board_url</text>
<text text-anchor="start" x="345.12" y="-720.7" font-family="Arial" font-size="14.00">author_instructions_url</text>
<text text-anchor="start" x="345.12" y="-704.95" font-family="Arial" font-size="14.00">sub_pub_weeks</text>
<text text-anchor="start" x="345.12" y="-689.2" font-family="Arial" font-size="14.00">apc</text>
<text text-anchor="start" x="345.12" y="-673.45" font-family="Arial" font-size="14.00">apc_info_url</text>
<text text-anchor="start" x="345.12" y="-657.7" font-family="Arial" font-size="14.00">apc_amount</text>
<text text-anchor="start" x="345.12" y="-641.95" font-family="Arial" font-size="14.00">apc_waiver</text>
<text text-anchor="start" x="345.12" y="-626.2" font-family="Arial" font-size="14.00">apc_waiver_info_url</text>
<text text-anchor="start" x="345.12" y="-610.45" font-family="Arial" font-size="14.00">other_fees</text>
<text text-anchor="start" x="345.12" y="-594.7" font-family="Arial" font-size="14.00">other_fees_info_url</text>
<text text-anchor="start" x="345.12" y="-578.95" font-family="Arial" font-size="14.00">preservation_services</text>
<text text-anchor="start" x="345.12" y="-563.2" font-family="Arial" font-size="14.00">preservation_national_library</text>
<text text-anchor="start" x="345.12" y="-547.45" font-family="Arial" font-size="14.00">preservation_info_url</text>
<text text-anchor="start" x="345.12" y="-531.7" font-family="Arial" font-size="14.00">deposit_policy_directory</text>
<text text-anchor="start" x="345.12" y="-515.95" font-family="Arial" font-size="14.00">deposit_policy_directory_url</text>
<text text-anchor="start" x="345.12" y="-500.2" font-family="Arial" font-size="14.00">persistent_article_identifiers</text>
<text text-anchor="start" x="345.12" y="-484.45" font-family="Arial" font-size="14.00">orcid_in_metadata</text>
<text text-anchor="start" x="345.12" y="-468.7" font-family="Arial" font-size="14.00">i4oc_compliance</text>
<text text-anchor="start" x="345.12" y="-452.95" font-family="Arial" font-size="14.00">doaj_oa_compliance</text>
<text text-anchor="start" x="345.12" y="-437.2" font-family="Arial" font-size="14.00">oa_statement_url</text>
<text text-anchor="start" x="345.12" y="-421.45" font-family="Arial" font-size="14.00">continues</text>
<text text-anchor="start" x="345.12" y="-405.7" font-family="Arial" font-size="14.00">continued_by</text>
<text text-anchor="start" x="345.12" y="-389.95" font-family="Arial" font-size="14.00">lcc_codes</text>
<text text-anchor="start" x="345.12" y="-374.2" font-family="Arial" font-size="14.00">subjects</text>
<text text-anchor="start" x="345.12" y="-358.45" font-family="Arial" font-size="14.00">doaj_Seal</text>
<text text-anchor="start" x="345.12" y="-342.7" font-family="Arial" font-size="14.00">added_on</text>
<text text-anchor="start" x="345.12" y="-326.95" font-family="Arial" font-size="14.00">last_updated</text>
<text text-anchor="start" x="345.12" y="-311.2" font-family="Arial" font-size="14.00">article_records_number</text>
<text text-anchor="start" x="345.12" y="-295.45" font-family="Arial" font-size="14.00">most_recent_addition</text>
<polygon fill="black" stroke="black" points="342.12,-1161.25 342.12,-1161.25 543.88,-1161.25 543.88,-1161.25 342.12,-1161.25"/>
<polygon fill="none" stroke="black" points="342.12,-290 342.12,-1182 543.88,-1182 543.88,-290 342.12,-290"/>
</g>
<!-- works&#45;&gt;open_access_journals -->
<g id="edge3" class="edge">
<title>works&#45;&gt;open_access_journals</title>
<path fill="none" stroke="black" d="M234.35,-1319.69C259.33,-1292.67 306.87,-1237.4 333,-1182 336.14,-1175.34 339.2,-1168.58 342.17,-1161.74"/>
<text text-anchor="middle" x="327.55" y="-1164.19" font-family="Arial" font-size="14.00">0…1</text>
<text text-anchor="middle" x="238.1" y="-1322.14" font-family="Arial" font-size="14.00">1</text>
</g>
<!-- journals_issns -->
<g id="node28" class="node">
<title>journals_issns</title>
<polygon fill="#3db1c8" stroke="none" points="101.25,-772.5 0.75,-772.5 0.75,-699.5 101.25,-699.5 101.25,-772.5"/>
<text text-anchor="start" x="3.75" y="-757.2" font-family="Arial" font-weight="bold" font-size="14.00">journals_issns</text>
<text text-anchor="start" x="21.75" y="-736.45" font-family="Arial" font-size="14.00">journal_id</text>
<text text-anchor="start" x="21.75" y="-720.7" font-family="Arial" font-size="14.00">issn</text>
<text text-anchor="start" x="21.75" y="-704.95" font-family="Arial" font-size="14.00">issn_type</text>
<polygon fill="black" stroke="black" points="0.75,-751.75 0.75,-751.75 101.25,-751.75 101.25,-751.75 0.75,-751.75"/>
<polygon fill="none" stroke="black" points="0.75,-699.5 0.75,-772.5 101.25,-772.5 101.25,-699.5 0.75,-699.5"/>
</g>
<!-- works&#45;&gt;journals_issns -->
<g id="edge8" class="edge">
<title>works&#45;&gt;journals_issns</title>
<path fill="none" stroke="black" d="M201.56,-1319.37C177.07,-1292.35 131.59,-1237.58 110,-1182 53.98,-1037.8 49.36,-849.68 50.11,-772.44"/>
<text text-anchor="middle" x="35.49" y="-774.89" font-family="Arial" font-size="14.00">0…1</text>
<text text-anchor="middle" x="197.81" y="-1306.07" font-family="Arial" font-size="14.00">1</text>
</g>
<!-- persons -->
<g id="node14" class="node">
<title>persons</title>
<polygon fill="#a6ce39" stroke="black" points="745.92,-754 682.08,-754 682.08,-718 745.92,-718 745.92,-754"/>
<text text-anchor="middle" x="714" y="-730.58" font-family="Arial" font-size="14.00">persons</text>
</g>
<!-- work_authors&#45;&gt;persons -->
<g id="edge6" class="edge">
<title>work_authors&#45;&gt;persons</title>
<path fill="none" stroke="black" d="M714,-1319.45C714,-1232.25 714,-841.73 714,-754.37"/>
<text text-anchor="middle" x="699.38" y="-756.82" font-family="Arial" font-size="14.00">0…1</text>
<text text-anchor="middle" x="710.25" y="-1306.15" font-family="Arial" font-size="14.00">1</text>
</g>
<!-- work_subjects -->
<g id="node11" class="node">
<title>work_subjects</title>
<polygon fill="#ffc62c" stroke="black" points="663.67,-754 562.33,-754 562.33,-718 663.67,-718 663.67,-754"/>
<text text-anchor="middle" x="613" y="-730.58" font-family="Arial" font-size="14.00">work_subjects</text>
</g>
<!-- work_subjects&#45;&gt;asjcs -->
<g id="edge14" class="edge">
<title>work_subjects&#45;&gt;asjcs</title>
<path fill="none" stroke="black" d="M615.39,-717.62C623.14,-654.59 642.21,-434.19 553,-290 523.03,-241.57 493.51,-250.87 447,-218 444.2,-216.02 441.33,-213.97 438.44,-211.9"/>
<text text-anchor="middle" x="442.19" y="-214.35" font-family="Arial" font-size="14.00">1</text>
<text text-anchor="middle" x="611.64" y="-704.32" font-family="Arial" font-size="14.00">1</text>
</g>
<!-- work_funders -->
<g id="node12" class="node">
<title>work_funders</title>
<polygon fill="#ffc62c" stroke="black" points="906.42,-1690.25 809.58,-1690.25 809.58,-1654.25 906.42,-1654.25 906.42,-1690.25"/>
<text text-anchor="middle" x="858" y="-1666.83" font-family="Arial" font-size="14.00">work_funders</text>
</g>
<!-- ror_funder_ids -->
<g id="node18" class="node">
<title>ror_funder_ids</title>
<polygon fill="#53baa1" stroke="black" points="904.42,-1555.88 801.58,-1555.88 801.58,-1519.88 904.42,-1519.88 904.42,-1555.88"/>
<text text-anchor="middle" x="853" y="-1532.45" font-family="Arial" font-size="14.00">ror_funder_ids</text>
</g>
<!-- work_funders&#45;&gt;ror_funder_ids -->
<g id="edge5" class="edge">
<title>work_funders&#45;&gt;ror_funder_ids</title>
<path fill="none" stroke="black" d="M857.35,-1653.94C856.39,-1628.57 854.61,-1581.56 853.65,-1556.18"/>
<text text-anchor="middle" x="839.03" y="-1558.63" font-family="Arial" font-size="14.00">0…1</text>
<text text-anchor="middle" x="853.6" y="-1640.64" font-family="Arial" font-size="14.00">1</text>
</g>
<!-- funder_names -->
<g id="node26" class="node">
<title>funder_names</title>
<polygon fill="#3db1c8" stroke="none" points="1021.5,-1582.25 922.5,-1582.25 922.5,-1493.5 1021.5,-1493.5 1021.5,-1582.25"/>
<text text-anchor="start" x="925.5" y="-1566.95" font-family="Arial" font-weight="bold" font-size="14.00">funder_names</text>
<text text-anchor="start" x="946.12" y="-1546.2" font-family="Arial" font-size="14.00">id</text>
<text text-anchor="start" x="946.12" y="-1530.45" font-family="Arial" font-size="14.00">url</text>
<text text-anchor="start" x="946.12" y="-1514.7" font-family="Arial" font-size="14.00">name</text>
<text text-anchor="start" x="946.12" y="-1498.95" font-family="Arial" font-size="14.00">replaced</text>
<polygon fill="black" stroke="black" points="922.5,-1561.5 922.5,-1561.5 1021.5,-1561.5 1021.5,-1561.5 922.5,-1561.5"/>
<polygon fill="none" stroke="black" points="922.5,-1493.5 922.5,-1582.25 1021.5,-1582.25 1021.5,-1493.5 922.5,-1493.5"/>
</g>
<!-- work_funders&#45;&gt;funder_names -->
<g id="edge4" class="edge">
<title>work_funders&#45;&gt;funder_names</title>
<path fill="none" stroke="black" d="M872.9,-1653.94C888.54,-1635.79 913.71,-1606.56 934.77,-1582.1"/>
<text text-anchor="middle" x="920.15" y="-1584.55" font-family="Arial" font-size="14.00">0…1</text>
<text text-anchor="middle" x="869.15" y="-1640.64" font-family="Arial" font-size="14.00">1</text>
</g>
<!-- ORCID tables -->
<g id="node13" class="node">
<title>ORCID tables</title>
<polygon fill="#a6ce39" stroke="black" points="736.92,-1798.25 637.08,-1798.25 637.08,-1762.25 736.92,-1762.25 736.92,-1798.25"/>
<text text-anchor="middle" x="687" y="-1774.83" font-family="Arial" font-size="14.00">ORCID tables</text>
</g>
<!-- USPTO tables -->
<g id="node19" class="node">
<title>USPTO tables</title>
<polygon fill="#9fd6ff" stroke="black" points="857.42,-1798.25 754.58,-1798.25 754.58,-1762.25 857.42,-1762.25 857.42,-1798.25"/>
<text text-anchor="middle" x="806" y="-1774.83" font-family="Arial" font-size="14.00">USPTO tables</text>
</g>
<!-- ORCID tables&#45;&gt;USPTO tables -->
<!-- ROR tables -->
<g id="node16" class="node">
<title>ROR tables</title>
<polygon fill="#53baa1" stroke="black" points="619.17,-1798.25 532.83,-1798.25 532.83,-1762.25 619.17,-1762.25 619.17,-1798.25"/>
<text text-anchor="middle" x="576" y="-1774.83" font-family="Arial" font-size="14.00">ROR tables</text>
</g>
<!-- ROR tables&#45;&gt;ORCID tables -->
<!-- research_organizations -->
<g id="node17" class="node">
<title>research_organizations</title>
<polygon fill="#53baa1" stroke="black" points="792.04,-1690.25 635.96,-1690.25 635.96,-1654.25 792.04,-1654.25 792.04,-1690.25"/>
<text text-anchor="middle" x="714" y="-1666.83" font-family="Arial" font-size="14.00">research_organizations</text>
</g>
<!-- research_organizations&#45;&gt;work_authors_rors -->
<g id="edge10" class="edge">
<title>research_organizations&#45;&gt;work_authors_rors</title>
<path fill="none" stroke="black" d="M714,-1653.94C714,-1631.66 714,-1592.67 714,-1566.32"/>
<text text-anchor="middle" x="698.25" y="-1568.77" font-family="Arial" font-size="14.00">0…N</text>
<text text-anchor="middle" x="710.25" y="-1640.64" font-family="Arial" font-size="14.00">1</text>
</g>
<!-- PubMed tables -->
<g id="node21" class="node">
<title>PubMed tables</title>
<polygon fill="#f78152" stroke="black" points="982.29,-1798.25 875.71,-1798.25 875.71,-1762.25 982.29,-1762.25 982.29,-1798.25"/>
<text text-anchor="middle" x="929" y="-1774.83" font-family="Arial" font-size="14.00">PubMed tables</text>
</g>
<!-- USPTO tables&#45;&gt;PubMed tables -->
<!-- usp_citations -->
<g id="node20" class="node">
<title>usp_citations</title>
<polygon fill="#9fd6ff" stroke="black" points="200.3,-1690.25 105.7,-1690.25 105.7,-1654.25 200.3,-1654.25 200.3,-1690.25"/>
<text text-anchor="middle" x="153" y="-1666.83" font-family="Arial" font-size="14.00">usp_citations</text>
</g>
<!-- usp_citations&#45;&gt;usp_nplcit_dois -->
<g id="edge16" class="edge">
<title>usp_citations&#45;&gt;usp_nplcit_dois</title>
<path fill="none" stroke="black" d="M153,-1653.94C153,-1633.83 153,-1600.11 153,-1574.36"/>
<text text-anchor="middle" x="149.25" y="-1576.81" font-family="Arial" font-size="14.00">1</text>
<text text-anchor="middle" x="138.38" y="-1640.64" font-family="Arial" font-size="14.00">0…1</text>
</g>
<!-- PubMed tables&#45;&gt;Alexandria3k tables -->
<!-- pubmed_articles -->
<g id="node22" class="node">
<title>pubmed_articles</title>
<polygon fill="#f78152" stroke="black" points="340.8,-1555.88 225.2,-1555.88 225.2,-1519.88 340.8,-1519.88 340.8,-1555.88"/>
<text text-anchor="middle" x="283" y="-1532.45" font-family="Arial" font-size="14.00">pubmed_articles</text>
</g>
<!-- pubmed_articles&#45;&gt;works -->
<g id="edge17" class="edge">
<title>pubmed_articles&#45;&gt;works</title>
<path fill="none" stroke="black" d="M277.35,-1519.64C265.05,-1482.17 236.01,-1393.65 223.69,-1356.09"/>
<text text-anchor="middle" x="238.31" y="-1358.54" font-family="Arial" font-size="14.00">0…1</text>
<text text-anchor="middle" x="262.72" y="-1506.34" font-family="Arial" font-size="14.00">0…1</text>
</g>
<!-- DOAJ table -->
<g id="node23" class="node">
<title>DOAJ table</title>
<polygon fill="#fa9a87" stroke="black" points="514.79,-1798.25 429.2,-1798.25 429.2,-1762.25 514.79,-1762.25 514.79,-1798.25"/>
<text text-anchor="middle" x="472" y="-1774.83" font-family="Arial" font-size="14.00">DOAJ table</text>
</g>
<!-- DOAJ table&#45;&gt;ROR tables -->
<!-- Additional Crossref tables&#45;&gt;DOAJ table -->
<!-- journal_names -->
<g id="node27" class="node">
<title>journal_names</title>
<polygon fill="#3db1c8" stroke="none" points="102,-1421.5 0,-1421.5 0,-1254 102,-1254 102,-1421.5"/>
<text text-anchor="start" x="3" y="-1406.2" font-family="Arial" font-weight="bold" font-size="14.00">journal_names</text>
<text text-anchor="start" x="3" y="-1385.45" font-family="Arial" font-size="14.00">id</text>
<text text-anchor="start" x="3" y="-1369.7" font-family="Arial" font-size="14.00">title</text>
<text text-anchor="start" x="3" y="-1353.95" font-family="Arial" font-size="14.00">crossref_id</text>
<text text-anchor="start" x="3" y="-1338.2" font-family="Arial" font-size="14.00">publisher</text>
<text text-anchor="start" x="3" y="-1322.45" font-family="Arial" font-size="14.00">issn_print</text>
<text text-anchor="start" x="3" y="-1306.7" font-family="Arial" font-size="14.00">issn_eprint</text>
<text text-anchor="start" x="3" y="-1290.95" font-family="Arial" font-size="14.00">issns_additional</text>
<text text-anchor="start" x="3" y="-1275.2" font-family="Arial" font-size="14.00">doi</text>
<text text-anchor="start" x="3" y="-1259.45" font-family="Arial" font-size="14.00">volume_info</text>
<polygon fill="black" stroke="black" points="0,-1400.75 0,-1400.75 102,-1400.75 102,-1400.75 0,-1400.75"/>
<polygon fill="none" stroke="black" points="0,-1254 0,-1421.5 102,-1421.5 102,-1254 0,-1254"/>
</g>
<!-- journal_names&#45;&gt;journals_issns -->
<g id="edge7" class="edge">
<title>journal_names&#45;&gt;journals_issns</title>
<path fill="none" stroke="black" d="M51,-1254.3C51,-1121.54 51,-865.81 51,-772.33"/>
<text text-anchor="middle" x="66.75" y="-774.78" font-family="Arial" font-size="14.00">1…N</text>
<text text-anchor="middle" x="38.62" y="-1241" font-family="Arial" font-size="14.00">1..N</text>
</g>
<!-- asjc_import -->
<g id="node29" class="node">
<title>asjc_import</title>
<polygon fill="#3db1c8" stroke="none" points="539.62,-218 456.38,-218 456.38,-129.25 539.62,-129.25 539.62,-218"/>
<text text-anchor="start" x="459.75" y="-202.7" font-family="Arial" font-weight="bold" font-size="14.00">asjc_import</text>
<text text-anchor="start" x="459.38" y="-181.95" font-family="Arial" font-size="14.00">id</text>
<text text-anchor="start" x="459.38" y="-166.2" font-family="Arial" font-size="14.00">code</text>
<text text-anchor="start" x="459.38" y="-150.45" font-family="Arial" font-size="14.00">field</text>
<text text-anchor="start" x="459.38" y="-134.7" font-family="Arial" font-size="14.00">subject_area</text>
<polygon fill="black" stroke="black" points="456.38,-197.25 456.38,-197.25 539.62,-197.25 539.62,-197.25 456.38,-197.25"/>
<polygon fill="none" stroke="black" points="456.38,-129.25 456.38,-218 539.62,-218 539.62,-129.25 456.38,-129.25"/>
</g>
</g>
</svg>
