<?xml version="1.0" encoding="UTF-8" standalone="no"?>
<!DOCTYPE svg PUBLIC "-//W3C//DTD SVG 1.1//EN"
 "http://www.w3.org/Graphics/SVG/1.1/DTD/svg11.dtd">
<!-- Generated by graphviz version 2.43.0 (0)
 -->
<!-- Title: D Pages: 1 -->
<svg width="1396pt" height="1889pt"
 viewBox="0.00 0.00 1396.00 1889.00" xmlns="http://www.w3.org/2000/svg" xmlns:xlink="http://www.w3.org/1999/xlink">
<g id="graph0" class="graph" transform="scale(1 1) rotate(0) translate(4 1885)">
<title>D</title>
<polygon fill="white" stroke="transparent" points="-4,4 -4,-1885 1392,-1885 1392,4 -4,4"/>
<!-- Alexandria3k tables -->
<g id="node1" class="node">
<title>Alexandria3k tables</title>
<polygon fill="#d3d3d3" stroke="black" points="1388,-1881 1254,-1881 1254,-1845 1388,-1845 1388,-1881"/>
<text text-anchor="middle" x="1321" y="-1859.3" font-family="Arial" font-size="14.00" fill="#000000">Alexandria3k tables</text>
</g>
<!-- asjcs -->
<g id="node2" class="node">
<title>asjcs</title>
<polygon fill="#d3d3d3" stroke="transparent" points="328,-212 226,-212 226,-127 328,-127 328,-212"/>
<text text-anchor="start" x="260" y="-198.3" font-family="Arial" font-weight="bold" font-size="14.00" fill="#000000">asjcs</text>
<text text-anchor="start" x="229" y="-178.3" font-family="Arial" font-size="14.00" fill="#000000">id</text>
<text text-anchor="start" x="229" y="-163.3" font-family="Arial" font-size="14.00" fill="#000000">field</text>
<text text-anchor="start" x="229" y="-148.3" font-family="Arial" font-size="14.00" fill="#000000">subject_area_id</text>
<text text-anchor="start" x="229" y="-133.3" font-family="Arial" font-size="14.00" fill="#000000">general_field_id</text>
<polygon fill="black" stroke="black" points="226,-191.5 226,-191.5 328,-191.5 328,-191.5 226,-191.5"/>
<polygon fill="none" stroke="black" points="226,-127 226,-212 328,-212 328,-127 226,-127"/>
</g>
<!-- asjc_general_fields -->
<g id="node4" class="node">
<title>asjc_general_fields</title>
<polygon fill="#d3d3d3" stroke="transparent" points="268.5,-55 137.5,-55 137.5,0 268.5,0 268.5,-55"/>
<text text-anchor="start" x="141" y="-41.3" font-family="Arial" font-weight="bold" font-size="14.00" fill="#000000">asjc_general_fields</text>
<text text-anchor="start" x="186" y="-21.3" font-family="Arial" font-size="14.00" fill="#000000">id</text>
<text text-anchor="start" x="186" y="-6.3" font-family="Arial" font-size="14.00" fill="#000000">name</text>
<polygon fill="black" stroke="black" points="138,-34.5 138,-34.5 269,-34.5 269,-34.5 138,-34.5"/>
<polygon fill="none" stroke="black" points="137.5,0 137.5,-55 268.5,-55 268.5,0 137.5,0"/>
</g>
<!-- asjcs&#45;&gt;asjc_general_fields -->
<g id="edge1" class="edge">
<title>asjcs&#45;&gt;asjc_general_fields</title>
<path fill="none" stroke="black" d="M255,-126.87C242.73,-103.66 227.81,-75.44 217.1,-55.18"/>
<text text-anchor="middle" x="213.1" y="-58.98" font-family="Arial" font-size="14.00">1</text>
<text text-anchor="middle" x="239" y="-115.67" font-family="Arial" font-size="14.00">1…N</text>
</g>
<!-- asjc_subject_areas -->
<g id="node5" class="node">
<title>asjc_subject_areas</title>
<polygon fill="#d3d3d3" stroke="transparent" points="417,-55 287,-55 287,0 417,0 417,-55"/>
<text text-anchor="start" x="290" y="-41.3" font-family="Arial" font-weight="bold" font-size="14.00" fill="#000000">asjc_subject_areas</text>
<text text-anchor="start" x="334.5" y="-21.3" font-family="Arial" font-size="14.00" fill="#000000">id</text>
<text text-anchor="start" x="334.5" y="-6.3" font-family="Arial" font-size="14.00" fill="#000000">name</text>
<polygon fill="black" stroke="black" points="287,-34.5 287,-34.5 417,-34.5 417,-34.5 287,-34.5"/>
<polygon fill="none" stroke="black" points="287,0 287,-55 417,-55 417,0 287,0"/>
</g>
<!-- asjcs&#45;&gt;asjc_subject_areas -->
<g id="edge2" class="edge">
<title>asjcs&#45;&gt;asjc_subject_areas</title>
<path fill="none" stroke="black" d="M299.3,-126.87C311.74,-103.66 326.86,-75.44 337.71,-55.18"/>
<text text-anchor="middle" x="333.71" y="-58.98" font-family="Arial" font-size="14.00">1</text>
<text text-anchor="middle" x="283.3" y="-115.67" font-family="Arial" font-size="14.00">1…N</text>
</g>
<!-- works_asjcs -->
<g id="node3" class="node">
<title>works_asjcs</title>
<polygon fill="#d3d3d3" stroke="transparent" points="548,-736.5 460,-736.5 460,-681.5 548,-681.5 548,-736.5"/>
<text text-anchor="start" x="463" y="-722.8" font-family="Arial" font-weight="bold" font-size="14.00" fill="#000000">works_asjcs</text>
<text text-anchor="start" x="480.5" y="-702.8" font-family="Arial" font-size="14.00" fill="#000000">work_id</text>
<text text-anchor="start" x="480.5" y="-687.8" font-family="Arial" font-size="14.00" fill="#000000">asjc_id</text>
<polygon fill="black" stroke="black" points="460,-716 460,-716 548,-716 548,-716 460,-716"/>
<polygon fill="none" stroke="black" points="460,-681.5 460,-736.5 548,-736.5 548,-681.5 460,-681.5"/>
</g>
<!-- works_asjcs&#45;&gt;asjcs -->
<g id="edge18" class="edge">
<title>works_asjcs&#45;&gt;asjcs</title>
<path fill="none" stroke="black" d="M508,-681.33C517.21,-610.37 533.24,-413.46 451,-284 418.87,-233.42 386.99,-245.05 337,-212 334.15,-210.11 331.23,-208.16 328.29,-206.18"/>
<text text-anchor="middle" x="332.29" y="-209.98" font-family="Arial" font-size="14.00">1</text>
<text text-anchor="middle" x="492" y="-670.13" font-family="Arial" font-size="14.00">0…N</text>
</g>
<!-- work_authors_rors -->
<g id="node6" class="node">
<title>work_authors_rors</title>
<polygon fill="#d3d3d3" stroke="transparent" points="610,-1657.5 480,-1657.5 480,-1602.5 610,-1602.5 610,-1657.5"/>
<text text-anchor="start" x="483" y="-1643.8" font-family="Arial" font-weight="bold" font-size="14.00" fill="#000000">work_authors_rors</text>
<text text-anchor="start" x="498.5" y="-1623.8" font-family="Arial" font-size="14.00" fill="#000000">ror_id</text>
<text text-anchor="start" x="498.5" y="-1608.8" font-family="Arial" font-size="14.00" fill="#000000">work_author_id</text>
<polygon fill="black" stroke="black" points="480,-1637 480,-1637 610,-1637 610,-1637 480,-1637"/>
<polygon fill="none" stroke="black" points="480,-1602.5 480,-1657.5 610,-1657.5 610,-1602.5 480,-1602.5"/>
</g>
<!-- work_authors -->
<g id="node10" class="node">
<title>work_authors</title>
<polygon fill="#ffc62c" stroke="black" points="694,-1498.5 596,-1498.5 596,-1462.5 694,-1462.5 694,-1498.5"/>
<text text-anchor="middle" x="645" y="-1476.8" font-family="Arial" font-size="14.00" fill="#000000">work_authors</text>
</g>
<!-- work_authors_rors&#45;&gt;work_authors -->
<g id="edge9" class="edge">
<title>work_authors_rors&#45;&gt;work_authors</title>
<path fill="none" stroke="black" d="M563.11,-1602.29C583.48,-1572.24 615.98,-1524.3 633.28,-1498.79"/>
<text text-anchor="middle" x="629.28" y="-1502.59" font-family="Arial" font-size="14.00">1</text>
<text text-anchor="middle" x="547.11" y="-1591.09" font-family="Arial" font-size="14.00">0…N</text>
</g>
<!-- usp_nplcit_dois -->
<g id="node7" class="node">
<title>usp_nplcit_dois</title>
<polygon fill="#d3d3d3" stroke="transparent" points="327.5,-1665 218.5,-1665 218.5,-1595 327.5,-1595 327.5,-1665"/>
<text text-anchor="start" x="222" y="-1651.8" font-family="Arial" font-weight="bold" font-size="14.00" fill="#000000">usp_nplcit_dois</text>
<text text-anchor="start" x="240" y="-1631.8" font-family="Arial" font-size="14.00" fill="#000000">patent_id</text>
<text text-anchor="start" x="240" y="-1616.8" font-family="Arial" font-size="14.00" fill="#000000">nplcit_num</text>
<text text-anchor="start" x="240" y="-1601.8" font-family="Arial" font-size="14.00" fill="#000000">doi</text>
<polygon fill="black" stroke="black" points="219,-1645 219,-1645 328,-1645 328,-1645 219,-1645"/>
<polygon fill="none" stroke="black" points="218.5,-1595 218.5,-1665 327.5,-1665 327.5,-1595 218.5,-1595"/>
</g>
<!-- works -->
<g id="node9" class="node">
<title>works</title>
<polygon fill="#ffc62c" stroke="black" points="368,-1304 314,-1304 314,-1268 368,-1268 368,-1304"/>
<text text-anchor="middle" x="341" y="-1282.3" font-family="Arial" font-size="14.00" fill="#000000">works</text>
</g>
<!-- usp_nplcit_dois&#45;&gt;works -->
<g id="edge20" class="edge">
<title>usp_nplcit_dois&#45;&gt;works</title>
<path fill="none" stroke="black" d="M274.48,-1594.87C276.63,-1556.4 281.68,-1492.18 293,-1438 303.36,-1388.46 323.62,-1332.12 334.2,-1304.36"/>
<text text-anchor="middle" x="330.2" y="-1308.16" font-family="Arial" font-size="14.00">1</text>
<text text-anchor="middle" x="270.48" y="-1583.67" font-family="Arial" font-size="14.00">1</text>
</g>
<!-- dc_works -->
<g id="node24" class="node">
<title>dc_works</title>
<polygon fill="#00b0e1" stroke="black" points="376,-1498.5 302,-1498.5 302,-1462.5 376,-1462.5 376,-1498.5"/>
<text text-anchor="middle" x="339" y="-1476.8" font-family="Arial" font-size="14.00" fill="#000000">dc_works</text>
</g>
<!-- usp_nplcit_dois&#45;&gt;dc_works -->
<g id="edge21" class="edge">
<title>usp_nplcit_dois&#45;&gt;dc_works</title>
<path fill="none" stroke="black" d="M288.31,-1594.79C301.79,-1564.66 320.86,-1522.04 331.35,-1498.6"/>
<text text-anchor="middle" x="316.35" y="-1502.4" font-family="Arial" font-size="14.00">0…1</text>
<text text-anchor="middle" x="303.31" y="-1583.59" font-family="Arial" font-size="14.00">0…1</text>
</g>
<!-- Main Crossref tables -->
<g id="node8" class="node">
<title>Main Crossref tables</title>
<polygon fill="#ffc62c" stroke="black" points="343.5,-1881 202.5,-1881 202.5,-1845 343.5,-1845 343.5,-1881"/>
<text text-anchor="middle" x="273" y="-1859.3" font-family="Arial" font-size="14.00" fill="#000000">Main Crossref tables</text>
</g>
<!-- Additional Crossref tables -->
<g id="node30" class="node">
<title>Additional Crossref tables</title>
<polygon fill="#dfa60c" stroke="black" points="532,-1881 362,-1881 362,-1845 532,-1845 532,-1881"/>
<text text-anchor="middle" x="447" y="-1859.3" font-family="Arial" font-size="14.00" fill="#000000">Additional Crossref tables</text>
</g>
<!-- Main Crossref tables&#45;&gt;Additional Crossref tables -->
<!-- works&#45;&gt;works_asjcs -->
<g id="edge16" class="edge">
<title>works&#45;&gt;works_asjcs</title>
<path fill="none" stroke="black" d="M358.23,-1267.77C383.35,-1241.47 429.39,-1188.58 451,-1134 507.05,-992.43 507.29,-805.32 505.19,-736.69"/>
<text text-anchor="middle" x="489.19" y="-740.49" font-family="Arial" font-size="14.00">0…N</text>
<text text-anchor="middle" x="354.23" y="-1256.57" font-family="Arial" font-size="14.00">1</text>
</g>
<!-- person_works -->
<g id="node15" class="node">
<title>person_works</title>
<polygon fill="#a6ce39" stroke="black" points="221.5,-727 120.5,-727 120.5,-691 221.5,-691 221.5,-727"/>
<text text-anchor="middle" x="171" y="-705.3" font-family="Arial" font-size="14.00" fill="#000000">person_works</text>
</g>
<!-- works&#45;&gt;person_works -->
<g id="edge14" class="edge">
<title>works&#45;&gt;person_works</title>
<path fill="none" stroke="black" d="M323.89,-1267.72C298.91,-1241.36 253.05,-1188.41 231,-1134 170.82,-985.52 169.44,-786.56 170.51,-727.33"/>
<text text-anchor="middle" x="155.51" y="-731.13" font-family="Arial" font-size="14.00">0…1</text>
<text text-anchor="middle" x="312.39" y="-1256.52" font-family="Arial" font-size="14.00">0..1</text>
</g>
<!-- open_access_journals -->
<g id="node29" class="node">
<title>open_access_journals</title>
<polygon fill="#fa9a87" stroke="transparent" points="442,-1134 240,-1134 240,-284 442,-284 442,-1134"/>
<text text-anchor="start" x="268.5" y="-1120.8" font-family="Arial" font-weight="bold" font-size="14.00" fill="#000000">open_access_journals</text>
<text text-anchor="start" x="243" y="-1100.8" font-family="Arial" font-size="14.00" fill="#000000">id</text>
<text text-anchor="start" x="243" y="-1085.8" font-family="Arial" font-size="14.00" fill="#000000">name</text>
<text text-anchor="start" x="243" y="-1070.8" font-family="Arial" font-size="14.00" fill="#000000">url</text>
<text text-anchor="start" x="243" y="-1055.8" font-family="Arial" font-size="14.00" fill="#000000">doaj_url</text>
<text text-anchor="start" x="243" y="-1040.8" font-family="Arial" font-size="14.00" fill="#000000">oaj_start</text>
<text text-anchor="start" x="243" y="-1025.8" font-family="Arial" font-size="14.00" fill="#000000">alternative_name</text>
<text text-anchor="start" x="243" y="-1010.8" font-family="Arial" font-size="14.00" fill="#000000">issn_print</text>
<text text-anchor="start" x="243" y="-995.8" font-family="Arial" font-size="14.00" fill="#000000">issn_eprint</text>
<text text-anchor="start" x="243" y="-980.8" font-family="Arial" font-size="14.00" fill="#000000">keywords</text>
<text text-anchor="start" x="243" y="-965.8" font-family="Arial" font-size="14.00" fill="#000000">languages</text>
<text text-anchor="start" x="243" y="-950.8" font-family="Arial" font-size="14.00" fill="#000000">publisher</text>
<text text-anchor="start" x="243" y="-935.8" font-family="Arial" font-size="14.00" fill="#000000">pubisher_country</text>
<text text-anchor="start" x="243" y="-920.8" font-family="Arial" font-size="14.00" fill="#000000">society</text>
<text text-anchor="start" x="243" y="-905.8" font-family="Arial" font-size="14.00" fill="#000000">society_country</text>
<text text-anchor="start" x="243" y="-890.8" font-family="Arial" font-size="14.00" fill="#000000">license</text>
<text text-anchor="start" x="243" y="-875.8" font-family="Arial" font-size="14.00" fill="#000000">license_attributes</text>
<text text-anchor="start" x="243" y="-860.8" font-family="Arial" font-size="14.00" fill="#000000">license_terms_url</text>
<text text-anchor="start" x="243" y="-845.8" font-family="Arial" font-size="14.00" fill="#000000">license_embedded</text>
<text text-anchor="start" x="243" y="-830.8" font-family="Arial" font-size="14.00" fill="#000000">example_license_embedded_url</text>
<text text-anchor="start" x="243" y="-815.8" font-family="Arial" font-size="14.00" fill="#000000">author_copyright</text>
<text text-anchor="start" x="243" y="-800.8" font-family="Arial" font-size="14.00" fill="#000000">copyright_info_url</text>
<text text-anchor="start" x="243" y="-785.8" font-family="Arial" font-size="14.00" fill="#000000">review_process</text>
<text text-anchor="start" x="243" y="-770.8" font-family="Arial" font-size="14.00" fill="#000000">review_process_url</text>
<text text-anchor="start" x="243" y="-755.8" font-family="Arial" font-size="14.00" fill="#000000">plagiarism_screening</text>
<text text-anchor="start" x="243" y="-740.8" font-family="Arial" font-size="14.00" fill="#000000">plagiarism_info_url</text>
<text text-anchor="start" x="243" y="-725.8" font-family="Arial" font-size="14.00" fill="#000000">aims_scope_url</text>
<text text-anchor="start" x="243" y="-710.8" font-family="Arial" font-size="14.00" fill="#000000">board_url</text>
<text text-anchor="start" x="243" y="-695.8" font-family="Arial" font-size="14.00" fill="#000000">author_instructions_url</text>
<text text-anchor="start" x="243" y="-680.8" font-family="Arial" font-size="14.00" fill="#000000">sub_pub_weeks</text>
<text text-anchor="start" x="243" y="-665.8" font-family="Arial" font-size="14.00" fill="#000000">apc</text>
<text text-anchor="start" x="243" y="-650.8" font-family="Arial" font-size="14.00" fill="#000000">apc_info_url</text>
<text text-anchor="start" x="243" y="-635.8" font-family="Arial" font-size="14.00" fill="#000000">apc_amount</text>
<text text-anchor="start" x="243" y="-620.8" font-family="Arial" font-size="14.00" fill="#000000">apc_waiver</text>
<text text-anchor="start" x="243" y="-605.8" font-family="Arial" font-size="14.00" fill="#000000">apc_waiver_info_url</text>
<text text-anchor="start" x="243" y="-590.8" font-family="Arial" font-size="14.00" fill="#000000">other_fees</text>
<text text-anchor="start" x="243" y="-575.8" font-family="Arial" font-size="14.00" fill="#000000">other_fees_info_url</text>
<text text-anchor="start" x="243" y="-560.8" font-family="Arial" font-size="14.00" fill="#000000">preservation_services</text>
<text text-anchor="start" x="243" y="-545.8" font-family="Arial" font-size="14.00" fill="#000000">preservation_national_library</text>
<text text-anchor="start" x="243" y="-530.8" font-family="Arial" font-size="14.00" fill="#000000">preservation_info_url</text>
<text text-anchor="start" x="243" y="-515.8" font-family="Arial" font-size="14.00" fill="#000000">deposit_policy_directory</text>
<text text-anchor="start" x="243" y="-500.8" font-family="Arial" font-size="14.00" fill="#000000">deposit_policy_directory_url</text>
<text text-anchor="start" x="243" y="-485.8" font-family="Arial" font-size="14.00" fill="#000000">persistent_article_identifiers</text>
<text text-anchor="start" x="243" y="-470.8" font-family="Arial" font-size="14.00" fill="#000000">orcid_in_metadata</text>
<text text-anchor="start" x="243" y="-455.8" font-family="Arial" font-size="14.00" fill="#000000">i4oc_compliance</text>
<text text-anchor="start" x="243" y="-440.8" font-family="Arial" font-size="14.00" fill="#000000">doaj_oa_compliance</text>
<text text-anchor="start" x="243" y="-425.8" font-family="Arial" font-size="14.00" fill="#000000">oa_statement_url</text>
<text text-anchor="start" x="243" y="-410.8" font-family="Arial" font-size="14.00" fill="#000000">continues</text>
<text text-anchor="start" x="243" y="-395.8" font-family="Arial" font-size="14.00" fill="#000000">continued_by</text>
<text text-anchor="start" x="243" y="-380.8" font-family="Arial" font-size="14.00" fill="#000000">lcc_codes</text>
<text text-anchor="start" x="243" y="-365.8" font-family="Arial" font-size="14.00" fill="#000000">subjects</text>
<text text-anchor="start" x="243" y="-350.8" font-family="Arial" font-size="14.00" fill="#000000">doaj_Seal</text>
<text text-anchor="start" x="243" y="-335.8" font-family="Arial" font-size="14.00" fill="#000000">added_on</text>
<text text-anchor="start" x="243" y="-320.8" font-family="Arial" font-size="14.00" fill="#000000">last_updated</text>
<text text-anchor="start" x="243" y="-305.8" font-family="Arial" font-size="14.00" fill="#000000">article_records_number</text>
<text text-anchor="start" x="243" y="-290.8" font-family="Arial" font-size="14.00" fill="#000000">most_recent_addition</text>
<polygon fill="black" stroke="black" points="240,-1114 240,-1114 442,-1114 442,-1114 240,-1114"/>
<polygon fill="none" stroke="black" points="240,-284 240,-1134 442,-1134 442,-284 240,-284"/>
</g>
<!-- works&#45;&gt;open_access_journals -->
<g id="edge3" class="edge">
<title>works&#45;&gt;open_access_journals</title>
<path fill="none" stroke="black" d="M341,-1267.79C341,-1243.03 341,-1193.73 341,-1134.25"/>
<text text-anchor="middle" x="326" y="-1138.05" font-family="Arial" font-size="14.00">0…1</text>
<text text-anchor="middle" x="337" y="-1256.59" font-family="Arial" font-size="14.00">1</text>
</g>
<!-- journals_issns -->
<g id="node33" class="node">
<title>journals_issns</title>
<polygon fill="#dfa60c" stroke="transparent" points="667.5,-744 566.5,-744 566.5,-674 667.5,-674 667.5,-744"/>
<text text-anchor="start" x="570" y="-730.8" font-family="Arial" font-weight="bold" font-size="14.00" fill="#000000">journals_issns</text>
<text text-anchor="start" x="588" y="-710.8" font-family="Arial" font-size="14.00" fill="#000000">journal_id</text>
<text text-anchor="start" x="588" y="-695.8" font-family="Arial" font-size="14.00" fill="#000000">issn</text>
<text text-anchor="start" x="588" y="-680.8" font-family="Arial" font-size="14.00" fill="#000000">issn_type</text>
<polygon fill="black" stroke="black" points="567,-724 567,-724 668,-724 668,-724 567,-724"/>
<polygon fill="none" stroke="black" points="566.5,-674 566.5,-744 667.5,-744 667.5,-674 566.5,-674"/>
</g>
<!-- works&#45;&gt;journals_issns -->
<g id="edge8" class="edge">
<title>works&#45;&gt;journals_issns</title>
<path fill="none" stroke="black" d="M368.34,-1274.53C415.58,-1254.88 511.75,-1207.69 557,-1134 634.7,-1007.45 627.68,-820.24 620.84,-744.09"/>
<text text-anchor="middle" x="635.84" y="-747.89" font-family="Arial" font-size="14.00">0…1</text>
<text text-anchor="middle" x="372.34" y="-1278.33" font-family="Arial" font-size="14.00">1</text>
</g>
<!-- persons -->
<g id="node14" class="node">
<title>persons</title>
<polygon fill="#a6ce39" stroke="black" points="754.5,-1304 689.5,-1304 689.5,-1268 754.5,-1268 754.5,-1304"/>
<text text-anchor="middle" x="722" y="-1282.3" font-family="Arial" font-size="14.00" fill="#000000">persons</text>
</g>
<!-- work_authors&#45;&gt;persons -->
<g id="edge6" class="edge">
<title>work_authors&#45;&gt;persons</title>
<path fill="none" stroke="black" d="M651.83,-1462.42C666.45,-1425.89 700.58,-1340.54 715.18,-1304.04"/>
<text text-anchor="middle" x="700.18" y="-1307.84" font-family="Arial" font-size="14.00">0…1</text>
<text text-anchor="middle" x="647.83" y="-1451.22" font-family="Arial" font-size="14.00">1</text>
</g>
<!-- work_subjects -->
<g id="node11" class="node">
<title>work_subjects</title>
<polygon fill="#ffc62c" stroke="black" points="102,-727 0,-727 0,-691 102,-691 102,-727"/>
<text text-anchor="middle" x="51" y="-705.3" font-family="Arial" font-size="14.00" fill="#000000">work_subjects</text>
</g>
<!-- work_subjects&#45;&gt;asjcs -->
<g id="edge19" class="edge">
<title>work_subjects&#45;&gt;asjcs</title>
<path fill="none" stroke="black" d="M48.78,-690.6C41.88,-629.44 26.07,-420.73 111,-284 137.8,-240.85 187.76,-210.09 225.9,-191.57"/>
<text text-anchor="middle" x="221.9" y="-195.37" font-family="Arial" font-size="14.00">1</text>
<text text-anchor="middle" x="44.78" y="-679.4" font-family="Arial" font-size="14.00">1</text>
</g>
<!-- work_funders -->
<g id="node12" class="node">
<title>work_funders</title>
<polygon fill="#ffc62c" stroke="black" points="1156,-1648 1058,-1648 1058,-1612 1156,-1612 1156,-1648"/>
<text text-anchor="middle" x="1107" y="-1626.3" font-family="Arial" font-size="14.00" fill="#000000">work_funders</text>
</g>
<!-- ror_funder_ids -->
<g id="node18" class="node">
<title>ror_funder_ids</title>
<polygon fill="#53baa1" stroke="black" points="1082,-1498.5 978,-1498.5 978,-1462.5 1082,-1462.5 1082,-1498.5"/>
<text text-anchor="middle" x="1030" y="-1476.8" font-family="Arial" font-size="14.00" fill="#000000">ror_funder_ids</text>
</g>
<!-- work_funders&#45;&gt;ror_funder_ids -->
<g id="edge5" class="edge">
<title>work_funders&#45;&gt;ror_funder_ids</title>
<path fill="none" stroke="black" d="M1098.02,-1611.79C1083.18,-1583.37 1053.73,-1526.95 1038.93,-1498.6"/>
<text text-anchor="middle" x="1053.93" y="-1502.4" font-family="Arial" font-size="14.00">0…1</text>
<text text-anchor="middle" x="1094.02" y="-1600.59" font-family="Arial" font-size="14.00">1</text>
</g>
<!-- funder_names -->
<g id="node31" class="node">
<title>funder_names</title>
<polygon fill="#dfa60c" stroke="transparent" points="1200,-1523 1100,-1523 1100,-1438 1200,-1438 1200,-1523"/>
<text text-anchor="start" x="1103" y="-1509.3" font-family="Arial" font-weight="bold" font-size="14.00" fill="#000000">funder_names</text>
<text text-anchor="start" x="1124" y="-1489.3" font-family="Arial" font-size="14.00" fill="#000000">id</text>
<text text-anchor="start" x="1124" y="-1474.3" font-family="Arial" font-size="14.00" fill="#000000">url</text>
<text text-anchor="start" x="1124" y="-1459.3" font-family="Arial" font-size="14.00" fill="#000000">name</text>
<text text-anchor="start" x="1124" y="-1444.3" font-family="Arial" font-size="14.00" fill="#000000">replaced</text>
<polygon fill="black" stroke="black" points="1100,-1502.5 1100,-1502.5 1200,-1502.5 1200,-1502.5 1100,-1502.5"/>
<polygon fill="none" stroke="black" points="1100,-1438 1100,-1523 1200,-1523 1200,-1438 1100,-1438"/>
</g>
<!-- work_funders&#45;&gt;funder_names -->
<g id="edge4" class="edge">
<title>work_funders&#45;&gt;funder_names</title>
<path fill="none" stroke="black" d="M1112.02,-1611.79C1118.31,-1590.21 1129.31,-1552.48 1137.85,-1523.16"/>
<text text-anchor="middle" x="1122.85" y="-1526.96" font-family="Arial" font-size="14.00">0…1</text>
<text text-anchor="middle" x="1108.02" y="-1600.59" font-family="Arial" font-size="14.00">1</text>
</g>
<!-- ORCID tables -->
<g id="node13" class="node">
<title>ORCID tables</title>
<polygon fill="#a6ce39" stroke="black" points="860.5,-1881 759.5,-1881 759.5,-1845 860.5,-1845 860.5,-1881"/>
<text text-anchor="middle" x="810" y="-1859.3" font-family="Arial" font-size="14.00" fill="#000000">ORCID tables</text>
</g>
<!-- USPTO tables -->
<g id="node19" class="node">
<title>USPTO tables</title>
<polygon fill="#9fd6ff" stroke="black" points="983,-1881 879,-1881 879,-1845 983,-1845 983,-1881"/>
<text text-anchor="middle" x="931" y="-1859.3" font-family="Arial" font-size="14.00" fill="#000000">USPTO tables</text>
</g>
<!-- ORCID tables&#45;&gt;USPTO tables -->
<!-- ROR tables -->
<g id="node16" class="node">
<title>ROR tables</title>
<polygon fill="#53baa1" stroke="black" points="741.5,-1881 654.5,-1881 654.5,-1845 741.5,-1845 741.5,-1881"/>
<text text-anchor="middle" x="698" y="-1859.3" font-family="Arial" font-size="14.00" fill="#000000">ROR tables</text>
</g>
<!-- ROR tables&#45;&gt;ORCID tables -->
<!-- research_organizations -->
<g id="node17" class="node">
<title>research_organizations</title>
<polygon fill="#53baa1" stroke="black" points="623.5,-1773 466.5,-1773 466.5,-1737 623.5,-1737 623.5,-1773"/>
<text text-anchor="middle" x="545" y="-1751.3" font-family="Arial" font-size="14.00" fill="#000000">research_organizations</text>
</g>
<!-- research_organizations&#45;&gt;work_authors_rors -->
<g id="edge13" class="edge">
<title>research_organizations&#45;&gt;work_authors_rors</title>
<path fill="none" stroke="black" d="M545,-1736.9C545,-1716.43 545,-1681.93 545,-1657.89"/>
<text text-anchor="middle" x="529" y="-1661.69" font-family="Arial" font-size="14.00">0…N</text>
<text text-anchor="middle" x="541" y="-1725.7" font-family="Arial" font-size="14.00">1</text>
</g>
<!-- PubMed tables -->
<g id="node21" class="node">
<title>PubMed tables</title>
<polygon fill="#326599" stroke="black" points="1108.5,-1881 1001.5,-1881 1001.5,-1845 1108.5,-1845 1108.5,-1881"/>
<text text-anchor="middle" x="1055" y="-1859.3" font-family="Arial" font-size="14.00" fill="#ffffff">PubMed tables</text>
</g>
<!-- USPTO tables&#45;&gt;PubMed tables -->
<!-- usp_citations -->
<g id="node20" class="node">
<title>usp_citations</title>
<polygon fill="#9fd6ff" stroke="black" points="320.5,-1773 225.5,-1773 225.5,-1737 320.5,-1737 320.5,-1773"/>
<text text-anchor="middle" x="273" y="-1751.3" font-family="Arial" font-size="14.00" fill="#000000">usp_citations</text>
</g>
<!-- usp_citations&#45;&gt;usp_nplcit_dois -->
<g id="edge22" class="edge">
<title>usp_citations&#45;&gt;usp_nplcit_dois</title>
<path fill="none" stroke="black" d="M273,-1736.9C273,-1718.41 273,-1688.48 273,-1665.14"/>
<text text-anchor="middle" x="269" y="-1668.94" font-family="Arial" font-size="14.00">1</text>
<text text-anchor="middle" x="258" y="-1725.7" font-family="Arial" font-size="14.00">0…1</text>
</g>
<!-- DataCite tables -->
<g id="node23" class="node">
<title>DataCite tables</title>
<polygon fill="#00b0e1" stroke="black" points="1235.5,-1881 1126.5,-1881 1126.5,-1845 1235.5,-1845 1235.5,-1881"/>
<text text-anchor="middle" x="1181" y="-1859.3" font-family="Arial" font-size="14.00" fill="#000000">DataCite tables</text>
</g>
<!-- PubMed tables&#45;&gt;DataCite tables -->
<!-- pubmed_articles -->
<g id="node22" class="node">
<title>pubmed_articles</title>
<polygon fill="#326599" stroke="black" points="462,-1648 346,-1648 346,-1612 462,-1612 462,-1648"/>
<text text-anchor="middle" x="404" y="-1626.3" font-family="Arial" font-size="14.00" fill="#ffffff">pubmed_articles</text>
</g>
<!-- pubmed_articles&#45;&gt;works -->
<g id="edge23" class="edge">
<title>pubmed_articles&#45;&gt;works</title>
<path fill="none" stroke="black" d="M403.36,-1611.99C401.87,-1578.43 397.29,-1501.47 385,-1438 375.44,-1388.67 356.89,-1332.25 347.22,-1304.41"/>
<text text-anchor="middle" x="362.22" y="-1308.21" font-family="Arial" font-size="14.00">0…1</text>
<text text-anchor="middle" x="418.36" y="-1600.79" font-family="Arial" font-size="14.00">0…1</text>
</g>
<!-- pubmed_articles&#45;&gt;dc_works -->
<g id="edge24" class="edge">
<title>pubmed_articles&#45;&gt;dc_works</title>
<path fill="none" stroke="black" d="M396.42,-1611.79C383.89,-1583.37 359.03,-1526.95 346.54,-1498.6"/>
<text text-anchor="middle" x="361.54" y="-1502.4" font-family="Arial" font-size="14.00">0…1</text>
<text text-anchor="middle" x="381.42" y="-1600.59" font-family="Arial" font-size="14.00">0…1</text>
</g>
<!-- DataCite tables&#45;&gt;Alexandria3k tables -->
<!-- dc_works&#45;&gt;works -->
<g id="edge15" class="edge">
<title>dc_works&#45;&gt;works</title>
<path fill="none" stroke="black" d="M339.18,-1462.42C339.56,-1425.89 340.44,-1340.54 340.82,-1304.04"/>
<text text-anchor="middle" x="325.82" y="-1307.84" font-family="Arial" font-size="14.00">0…1</text>
<text text-anchor="middle" x="354.18" y="-1451.22" font-family="Arial" font-size="14.00">0…1</text>
</g>
<!-- dc_works&#45;&gt;person_works -->
<g id="edge17" class="edge">
<title>dc_works&#45;&gt;person_works</title>
<path fill="none" stroke="black" d="M332.47,-1462.16C313.85,-1412.04 259.96,-1262.44 231,-1134 195.84,-978.07 177.42,-784.99 172.42,-727.14"/>
<text text-anchor="middle" x="187.42" y="-730.94" font-family="Arial" font-size="14.00">0…1</text>
<text text-anchor="middle" x="317.47" y="-1450.96" font-family="Arial" font-size="14.00">0…1</text>
</g>
<!-- dc_work_funding_references -->
<g id="node25" class="node">
<title>dc_work_funding_references</title>
<polygon fill="#00b0e1" stroke="black" points="1163,-1773 973,-1773 973,-1737 1163,-1737 1163,-1773"/>
<text text-anchor="middle" x="1068" y="-1751.3" font-family="Arial" font-size="14.00" fill="#000000">dc_work_funding_references</text>
</g>
<!-- dc_work_funding_references&#45;&gt;work_funders -->
<g id="edge25" class="edge">
<title>dc_work_funding_references&#45;&gt;work_funders</title>
<path fill="none" stroke="black" d="M1073.42,-1736.9C1080.83,-1713.53 1094.05,-1671.85 1101.5,-1648.35"/>
<text text-anchor="middle" x="1086.5" y="-1652.15" font-family="Arial" font-size="14.00">0…1</text>
<text text-anchor="middle" x="1088.42" y="-1725.7" font-family="Arial" font-size="14.00">0…1</text>
</g>
<!-- dc_work_funding_references&#45;&gt;ror_funder_ids -->
<g id="edge26" class="edge">
<title>dc_work_funding_references&#45;&gt;ror_funder_ids</title>
<path fill="none" stroke="black" d="M1063.73,-1736.71C1059.46,-1718.85 1052.97,-1690.13 1049,-1665 1039.4,-1604.26 1033.51,-1531.41 1031.17,-1498.78"/>
<text text-anchor="middle" x="1016.17" y="-1502.58" font-family="Arial" font-size="14.00">0…1</text>
<text text-anchor="middle" x="1048.73" y="-1725.51" font-family="Arial" font-size="14.00">0…1</text>
</g>
<!-- dc_creator_name_identifiers -->
<g id="node26" class="node">
<title>dc_creator_name_identifiers</title>
<polygon fill="#00b0e1" stroke="black" points="816,-1648 628,-1648 628,-1612 816,-1612 816,-1648"/>
<text text-anchor="middle" x="722" y="-1626.3" font-family="Arial" font-size="14.00" fill="#000000">dc_creator_name_identifiers</text>
</g>
<!-- dc_creator_name_identifiers&#45;&gt;work_authors -->
<g id="edge10" class="edge">
<title>dc_creator_name_identifiers&#45;&gt;work_authors</title>
<path fill="none" stroke="black" d="M713.02,-1611.79C698.18,-1583.37 668.73,-1526.95 653.93,-1498.6"/>
<text text-anchor="middle" x="668.93" y="-1502.4" font-family="Arial" font-size="14.00">0…1</text>
<text text-anchor="middle" x="698.02" y="-1600.59" font-family="Arial" font-size="14.00">0…1</text>
</g>
<!-- dc_creator_name_identifiers&#45;&gt;persons -->
<g id="edge11" class="edge">
<title>dc_creator_name_identifiers&#45;&gt;persons</title>
<path fill="none" stroke="black" d="M722,-1611.57C722,-1552.9 722,-1363.01 722,-1304.39"/>
<text text-anchor="middle" x="737" y="-1308.19" font-family="Arial" font-size="14.00">0…1</text>
<text text-anchor="middle" x="737" y="-1600.37" font-family="Arial" font-size="14.00">0…1</text>
</g>
<!-- dc_contributor_name_identifiers -->
<g id="node27" class="node">
<title>dc_contributor_name_identifiers</title>
<polygon fill="#00b0e1" stroke="black" points="959.5,-1498.5 750.5,-1498.5 750.5,-1462.5 959.5,-1462.5 959.5,-1498.5"/>
<text text-anchor="middle" x="855" y="-1476.8" font-family="Arial" font-size="14.00" fill="#000000">dc_contributor_name_identifiers</text>
</g>
<!-- dc_contributor_name_identifiers&#45;&gt;persons -->
<g id="edge12" class="edge">
<title>dc_contributor_name_identifiers&#45;&gt;persons</title>
<path fill="none" stroke="black" d="M843.2,-1462.42C817.96,-1425.89 758.99,-1340.54 733.78,-1304.04"/>
<text text-anchor="middle" x="748.78" y="-1307.84" font-family="Arial" font-size="14.00">0…1</text>
<text text-anchor="middle" x="828.2" y="-1451.22" font-family="Arial" font-size="14.00">0…1</text>
</g>
<!-- DOAJ table -->
<g id="node28" class="node">
<title>DOAJ table</title>
<polygon fill="#fa9a87" stroke="black" points="636,-1881 550,-1881 550,-1845 636,-1845 636,-1881"/>
<text text-anchor="middle" x="593" y="-1859.3" font-family="Arial" font-size="14.00" fill="#000000">DOAJ table</text>
</g>
<!-- DOAJ table&#45;&gt;ROR tables -->
<!-- Additional Crossref tables&#45;&gt;DOAJ table -->
<!-- journal_names -->
<g id="node32" class="node">
<title>journal_names</title>
<polygon fill="#dfa60c" stroke="transparent" points="668.5,-1366 565.5,-1366 565.5,-1206 668.5,-1206 668.5,-1366"/>
<text text-anchor="start" x="569" y="-1352.8" font-family="Arial" font-weight="bold" font-size="14.00" fill="#000000">journal_names</text>
<text text-anchor="start" x="569" y="-1332.8" font-family="Arial" font-size="14.00" fill="#000000">id</text>
<text text-anchor="start" x="569" y="-1317.8" font-family="Arial" font-size="14.00" fill="#000000">title</text>
<text text-anchor="start" x="569" y="-1302.8" font-family="Arial" font-size="14.00" fill="#000000">crossref_id</text>
<text text-anchor="start" x="569" y="-1287.8" font-family="Arial" font-size="14.00" fill="#000000">publisher</text>
<text text-anchor="start" x="569" y="-1272.8" font-family="Arial" font-size="14.00" fill="#000000">issn_print</text>
<text text-anchor="start" x="569" y="-1257.8" font-family="Arial" font-size="14.00" fill="#000000">issn_eprint</text>
<text text-anchor="start" x="569" y="-1242.8" font-family="Arial" font-size="14.00" fill="#000000">issns_additional</text>
<text text-anchor="start" x="569" y="-1227.8" font-family="Arial" font-size="14.00" fill="#000000">doi</text>
<text text-anchor="start" x="569" y="-1212.8" font-family="Arial" font-size="14.00" fill="#000000">volume_info</text>
<polygon fill="black" stroke="black" points="566,-1346 566,-1346 669,-1346 669,-1346 566,-1346"/>
<polygon fill="none" stroke="black" points="565.5,-1206 565.5,-1366 668.5,-1366 668.5,-1206 565.5,-1206"/>
</g>
<!-- journal_names&#45;&gt;journals_issns -->
<g id="edge7" class="edge">
<title>journal_names&#45;&gt;journals_issns</title>
<path fill="none" stroke="black" d="M617,-1205.95C617,-1078.82 617,-834.09 617,-744.2"/>
<text text-anchor="middle" x="601" y="-748" font-family="Arial" font-size="14.00">1…N</text>
<text text-anchor="middle" x="604.5" y="-1194.75" font-family="Arial" font-size="14.00">1..N</text>
</g>
<!-- asjc_import -->
<g id="node34" class="node">
<title>asjc_import</title>
<polygon fill="#dfa60c" stroke="transparent" points="430,-212 346,-212 346,-127 430,-127 430,-212"/>
<text text-anchor="start" x="349.5" y="-198.3" font-family="Arial" font-weight="bold" font-size="14.00" fill="#000000">asjc_import</text>
<text text-anchor="start" x="349" y="-178.3" font-family="Arial" font-size="14.00" fill="#000000">id</text>
<text text-anchor="start" x="349" y="-163.3" font-family="Arial" font-size="14.00" fill="#000000">code</text>
<text text-anchor="start" x="349" y="-148.3" font-family="Arial" font-size="14.00" fill="#000000">field</text>
<text text-anchor="start" x="349" y="-133.3" font-family="Arial" font-size="14.00" fill="#000000">subject_area</text>
<polygon fill="black" stroke="black" points="346,-191.5 346,-191.5 430,-191.5 430,-191.5 346,-191.5"/>
<polygon fill="none" stroke="black" points="346,-127 346,-212 430,-212 430,-127 346,-127"/>
</g>
</g>
</svg>
