<?xml version="1.0" encoding="UTF-8" standalone="no"?>
<!DOCTYPE svg PUBLIC "-//W3C//DTD SVG 1.1//EN"
 "http://www.w3.org/Graphics/SVG/1.1/DTD/svg11.dtd">
<!-- Generated by graphviz version 2.43.0 (0)
 -->
<!-- Title: D Pages: 1 -->
<svg width="1091pt" height="1747pt"
 viewBox="0.00 0.00 1090.50 1747.00" xmlns="http://www.w3.org/2000/svg" xmlns:xlink="http://www.w3.org/1999/xlink">
<g id="graph0" class="graph" transform="scale(1 1) rotate(0) translate(4 1743)">
<title>D</title>
<polygon fill="white" stroke="transparent" points="-4,4 -4,-1743 1086.5,-1743 1086.5,4 -4,4"/>
<!-- Alexandria3k tables -->
<g id="node1" class="node">
<title>Alexandria3k tables</title>
<polygon fill="#d3d3d3" stroke="black" points="1082.5,-1739 948.5,-1739 948.5,-1703 1082.5,-1703 1082.5,-1739"/>
<text text-anchor="middle" x="1015.5" y="-1717.3" font-family="Arial" font-size="14.00">Alexandria3k tables</text>
</g>
<!-- asjcs -->
<g id="node2" class="node">
<title>asjcs</title>
<polygon fill="#d3d3d3" stroke="transparent" points="441.5,-212 339.5,-212 339.5,-127 441.5,-127 441.5,-212"/>
<text text-anchor="start" x="373.5" y="-198.3" font-family="Arial" font-weight="bold" font-size="14.00">asjcs</text>
<text text-anchor="start" x="342.5" y="-178.3" font-family="Arial" font-size="14.00">id</text>
<text text-anchor="start" x="342.5" y="-163.3" font-family="Arial" font-size="14.00">field</text>
<text text-anchor="start" x="342.5" y="-148.3" font-family="Arial" font-size="14.00">subject_area_id</text>
<text text-anchor="start" x="342.5" y="-133.3" font-family="Arial" font-size="14.00">general_field_id</text>
<polygon fill="black" stroke="black" points="339.5,-191.5 339.5,-191.5 441.5,-191.5 441.5,-191.5 339.5,-191.5"/>
<polygon fill="none" stroke="black" points="339.5,-127 339.5,-212 441.5,-212 441.5,-127 339.5,-127"/>
</g>
<!-- asjc_general_fields -->
<g id="node4" class="node">
<title>asjc_general_fields</title>
<polygon fill="#d3d3d3" stroke="transparent" points="382,-55 251,-55 251,0 382,0 382,-55"/>
<text text-anchor="start" x="254.5" y="-41.3" font-family="Arial" font-weight="bold" font-size="14.00">asjc_general_fields</text>
<text text-anchor="start" x="299.5" y="-21.3" font-family="Arial" font-size="14.00">id</text>
<text text-anchor="start" x="299.5" y="-6.3" font-family="Arial" font-size="14.00">name</text>
<polygon fill="black" stroke="black" points="251.5,-34.5 251.5,-34.5 382.5,-34.5 382.5,-34.5 251.5,-34.5"/>
<polygon fill="none" stroke="black" points="251,0 251,-55 382,-55 382,0 251,0"/>
</g>
<!-- asjcs&#45;&gt;asjc_general_fields -->
<g id="edge1" class="edge">
<title>asjcs&#45;&gt;asjc_general_fields</title>
<path fill="none" stroke="black" d="M368.5,-126.87C356.23,-103.66 341.31,-75.44 330.6,-55.18"/>
<text text-anchor="middle" x="326.6" y="-58.98" font-family="Arial" font-size="14.00">1</text>
<text text-anchor="middle" x="352.5" y="-115.67" font-family="Arial" font-size="14.00">1…N</text>
</g>
<!-- asjc_subject_areas -->
<g id="node5" class="node">
<title>asjc_subject_areas</title>
<polygon fill="#d3d3d3" stroke="transparent" points="530.5,-55 400.5,-55 400.5,0 530.5,0 530.5,-55"/>
<text text-anchor="start" x="403.5" y="-41.3" font-family="Arial" font-weight="bold" font-size="14.00">asjc_subject_areas</text>
<text text-anchor="start" x="448" y="-21.3" font-family="Arial" font-size="14.00">id</text>
<text text-anchor="start" x="448" y="-6.3" font-family="Arial" font-size="14.00">name</text>
<polygon fill="black" stroke="black" points="400.5,-34.5 400.5,-34.5 530.5,-34.5 530.5,-34.5 400.5,-34.5"/>
<polygon fill="none" stroke="black" points="400.5,0 400.5,-55 530.5,-55 530.5,0 400.5,0"/>
</g>
<!-- asjcs&#45;&gt;asjc_subject_areas -->
<g id="edge2" class="edge">
<title>asjcs&#45;&gt;asjc_subject_areas</title>
<path fill="none" stroke="black" d="M412.8,-126.87C425.24,-103.66 440.36,-75.44 451.21,-55.18"/>
<text text-anchor="middle" x="447.21" y="-58.98" font-family="Arial" font-size="14.00">1</text>
<text text-anchor="middle" x="396.8" y="-115.67" font-family="Arial" font-size="14.00">1…N</text>
</g>
<!-- works_asjcs -->
<g id="node3" class="node">
<title>works_asjcs</title>
<polygon fill="#d3d3d3" stroke="transparent" points="208.5,-736.5 120.5,-736.5 120.5,-681.5 208.5,-681.5 208.5,-736.5"/>
<text text-anchor="start" x="123.5" y="-722.8" font-family="Arial" font-weight="bold" font-size="14.00">works_asjcs</text>
<text text-anchor="start" x="141" y="-702.8" font-family="Arial" font-size="14.00">work_id</text>
<text text-anchor="start" x="141" y="-687.8" font-family="Arial" font-size="14.00">asjc_id</text>
<polygon fill="black" stroke="black" points="120.5,-716 120.5,-716 208.5,-716 208.5,-716 120.5,-716"/>
<polygon fill="none" stroke="black" points="120.5,-681.5 120.5,-736.5 208.5,-736.5 208.5,-681.5 120.5,-681.5"/>
</g>
<!-- works_asjcs&#45;&gt;asjcs -->
<g id="edge13" class="edge">
<title>works_asjcs&#45;&gt;asjcs</title>
<path fill="none" stroke="black" d="M160.62,-681.41C151.72,-610.64 136.39,-414.17 217.5,-284 245.62,-238.88 299.04,-207.99 339.12,-189.97"/>
<text text-anchor="middle" x="335.12" y="-193.77" font-family="Arial" font-size="14.00">1</text>
<text text-anchor="middle" x="144.62" y="-670.21" font-family="Arial" font-size="14.00">0…N</text>
</g>
<!-- work_authors_rors -->
<g id="node6" class="node">
<title>work_authors_rors</title>
<polygon fill="#d3d3d3" stroke="transparent" points="784.5,-1508 654.5,-1508 654.5,-1453 784.5,-1453 784.5,-1508"/>
<text text-anchor="start" x="657.5" y="-1494.3" font-family="Arial" font-weight="bold" font-size="14.00">work_authors_rors</text>
<text text-anchor="start" x="673" y="-1474.3" font-family="Arial" font-size="14.00">ror_id</text>
<text text-anchor="start" x="673" y="-1459.3" font-family="Arial" font-size="14.00">work_author_id</text>
<polygon fill="black" stroke="black" points="654.5,-1487.5 654.5,-1487.5 784.5,-1487.5 784.5,-1487.5 654.5,-1487.5"/>
<polygon fill="none" stroke="black" points="654.5,-1453 654.5,-1508 784.5,-1508 784.5,-1453 654.5,-1453"/>
</g>
<!-- work_authors -->
<g id="node10" class="node">
<title>work_authors</title>
<polygon fill="#ffc62c" stroke="black" points="768.5,-1304 670.5,-1304 670.5,-1268 768.5,-1268 768.5,-1304"/>
<text text-anchor="middle" x="719.5" y="-1282.3" font-family="Arial" font-size="14.00">work_authors</text>
</g>
<!-- work_authors_rors&#45;&gt;work_authors -->
<g id="edge9" class="edge">
<title>work_authors_rors&#45;&gt;work_authors</title>
<path fill="none" stroke="black" d="M719.5,-1452.73C719.5,-1412.55 719.5,-1337.76 719.5,-1304.14"/>
<text text-anchor="middle" x="715.5" y="-1307.94" font-family="Arial" font-size="14.00">1</text>
<text text-anchor="middle" x="703.5" y="-1441.53" font-family="Arial" font-size="14.00">0…N</text>
</g>
<!-- usp_nplcit_dois -->
<g id="node7" class="node">
<title>usp_nplcit_dois</title>
<polygon fill="#d3d3d3" stroke="transparent" points="275,-1515.5 166,-1515.5 166,-1445.5 275,-1445.5 275,-1515.5"/>
<text text-anchor="start" x="169.5" y="-1502.3" font-family="Arial" font-weight="bold" font-size="14.00">usp_nplcit_dois</text>
<text text-anchor="start" x="187.5" y="-1482.3" font-family="Arial" font-size="14.00">patent_id</text>
<text text-anchor="start" x="187.5" y="-1467.3" font-family="Arial" font-size="14.00">nplcit_num</text>
<text text-anchor="start" x="187.5" y="-1452.3" font-family="Arial" font-size="14.00">doi</text>
<polygon fill="black" stroke="black" points="166.5,-1495.5 166.5,-1495.5 275.5,-1495.5 275.5,-1495.5 166.5,-1495.5"/>
<polygon fill="none" stroke="black" points="166,-1445.5 166,-1515.5 275,-1515.5 275,-1445.5 166,-1445.5"/>
</g>
<!-- works -->
<g id="node9" class="node">
<title>works</title>
<polygon fill="#ffc62c" stroke="black" points="247.5,-1304 193.5,-1304 193.5,-1268 247.5,-1268 247.5,-1304"/>
<text text-anchor="middle" x="220.5" y="-1282.3" font-family="Arial" font-size="14.00">works</text>
</g>
<!-- usp_nplcit_dois&#45;&gt;works -->
<g id="edge15" class="edge">
<title>usp_nplcit_dois&#45;&gt;works</title>
<path fill="none" stroke="black" d="M220.5,-1445.08C220.5,-1403.67 220.5,-1335.75 220.5,-1304.16"/>
<text text-anchor="middle" x="216.5" y="-1307.96" font-family="Arial" font-size="14.00">1</text>
<text text-anchor="middle" x="216.5" y="-1433.88" font-family="Arial" font-size="14.00">1</text>
</g>
<!-- Main Crossref tables -->
<g id="node8" class="node">
<title>Main Crossref tables</title>
<polygon fill="#ffc62c" stroke="black" points="291,-1739 150,-1739 150,-1703 291,-1703 291,-1739"/>
<text text-anchor="middle" x="220.5" y="-1717.3" font-family="Arial" font-size="14.00">Main Crossref tables</text>
</g>
<!-- Additional Crossref tables -->
<g id="node23" class="node">
<title>Additional Crossref tables</title>
<polygon fill="#3db1c8" stroke="black" points="479.5,-1739 309.5,-1739 309.5,-1703 479.5,-1703 479.5,-1739"/>
<text text-anchor="middle" x="394.5" y="-1717.3" font-family="Arial" font-size="14.00">Additional Crossref tables</text>
</g>
<!-- Main Crossref tables&#45;&gt;Additional Crossref tables -->
<!-- works&#45;&gt;works_asjcs -->
<g id="edge12" class="edge">
<title>works&#45;&gt;works_asjcs</title>
<path fill="none" stroke="black" d="M218.82,-1267.79C210.86,-1186.04 176.84,-836.73 167.11,-736.8"/>
<text text-anchor="middle" x="151.11" y="-740.6" font-family="Arial" font-size="14.00">0…N</text>
<text text-anchor="middle" x="214.82" y="-1256.59" font-family="Arial" font-size="14.00">1</text>
</g>
<!-- person_works -->
<g id="node15" class="node">
<title>person_works</title>
<polygon fill="#a6ce39" stroke="black" points="328,-727 227,-727 227,-691 328,-691 328,-727"/>
<text text-anchor="middle" x="277.5" y="-705.3" font-family="Arial" font-size="14.00">person_works</text>
</g>
<!-- works&#45;&gt;person_works -->
<g id="edge11" class="edge">
<title>works&#45;&gt;person_works</title>
<path fill="none" stroke="black" d="M222.21,-1267.79C230.6,-1183.14 267.42,-811.64 275.8,-727.14"/>
<text text-anchor="middle" x="260.8" y="-730.94" font-family="Arial" font-size="14.00">0…1</text>
<text text-anchor="middle" x="233.71" y="-1256.59" font-family="Arial" font-size="14.00">0..1</text>
</g>
<!-- open_access_journals -->
<g id="node22" class="node">
<title>open_access_journals</title>
<polygon fill="#fa9a87" stroke="transparent" points="548.5,-1134 346.5,-1134 346.5,-284 548.5,-284 548.5,-1134"/>
<text text-anchor="start" x="375" y="-1120.8" font-family="Arial" font-weight="bold" font-size="14.00">open_access_journals</text>
<text text-anchor="start" x="349.5" y="-1100.8" font-family="Arial" font-size="14.00">id</text>
<text text-anchor="start" x="349.5" y="-1085.8" font-family="Arial" font-size="14.00">name</text>
<text text-anchor="start" x="349.5" y="-1070.8" font-family="Arial" font-size="14.00">url</text>
<text text-anchor="start" x="349.5" y="-1055.8" font-family="Arial" font-size="14.00">doaj_url</text>
<text text-anchor="start" x="349.5" y="-1040.8" font-family="Arial" font-size="14.00">oaj_start</text>
<text text-anchor="start" x="349.5" y="-1025.8" font-family="Arial" font-size="14.00">alternative_name</text>
<text text-anchor="start" x="349.5" y="-1010.8" font-family="Arial" font-size="14.00">issn_print</text>
<text text-anchor="start" x="349.5" y="-995.8" font-family="Arial" font-size="14.00">issn_eprint</text>
<text text-anchor="start" x="349.5" y="-980.8" font-family="Arial" font-size="14.00">keywords</text>
<text text-anchor="start" x="349.5" y="-965.8" font-family="Arial" font-size="14.00">languages</text>
<text text-anchor="start" x="349.5" y="-950.8" font-family="Arial" font-size="14.00">publisher</text>
<text text-anchor="start" x="349.5" y="-935.8" font-family="Arial" font-size="14.00">pubisher_country</text>
<text text-anchor="start" x="349.5" y="-920.8" font-family="Arial" font-size="14.00">society</text>
<text text-anchor="start" x="349.5" y="-905.8" font-family="Arial" font-size="14.00">society_country</text>
<text text-anchor="start" x="349.5" y="-890.8" font-family="Arial" font-size="14.00">license</text>
<text text-anchor="start" x="349.5" y="-875.8" font-family="Arial" font-size="14.00">license_attributes</text>
<text text-anchor="start" x="349.5" y="-860.8" font-family="Arial" font-size="14.00">license_terms_url</text>
<text text-anchor="start" x="349.5" y="-845.8" font-family="Arial" font-size="14.00">license_embedded</text>
<text text-anchor="start" x="349.5" y="-830.8" font-family="Arial" font-size="14.00">example_license_embedded_url</text>
<text text-anchor="start" x="349.5" y="-815.8" font-family="Arial" font-size="14.00">author_copyright</text>
<text text-anchor="start" x="349.5" y="-800.8" font-family="Arial" font-size="14.00">copyright_info_url</text>
<text text-anchor="start" x="349.5" y="-785.8" font-family="Arial" font-size="14.00">review_process</text>
<text text-anchor="start" x="349.5" y="-770.8" font-family="Arial" font-size="14.00">review_process_url</text>
<text text-anchor="start" x="349.5" y="-755.8" font-family="Arial" font-size="14.00">plagiarism_screening</text>
<text text-anchor="start" x="349.5" y="-740.8" font-family="Arial" font-size="14.00">plagiarism_info_url</text>
<text text-anchor="start" x="349.5" y="-725.8" font-family="Arial" font-size="14.00">aims_scope_url</text>
<text text-anchor="start" x="349.5" y="-710.8" font-family="Arial" font-size="14.00">board_url</text>
<text text-anchor="start" x="349.5" y="-695.8" font-family="Arial" font-size="14.00">author_instructions_url</text>
<text text-anchor="start" x="349.5" y="-680.8" font-family="Arial" font-size="14.00">sub_pub_weeks</text>
<text text-anchor="start" x="349.5" y="-665.8" font-family="Arial" font-size="14.00">apc</text>
<text text-anchor="start" x="349.5" y="-650.8" font-family="Arial" font-size="14.00">apc_info_url</text>
<text text-anchor="start" x="349.5" y="-635.8" font-family="Arial" font-size="14.00">apc_amount</text>
<text text-anchor="start" x="349.5" y="-620.8" font-family="Arial" font-size="14.00">apc_waiver</text>
<text text-anchor="start" x="349.5" y="-605.8" font-family="Arial" font-size="14.00">apc_waiver_info_url</text>
<text text-anchor="start" x="349.5" y="-590.8" font-family="Arial" font-size="14.00">other_fees</text>
<text text-anchor="start" x="349.5" y="-575.8" font-family="Arial" font-size="14.00">other_fees_info_url</text>
<text text-anchor="start" x="349.5" y="-560.8" font-family="Arial" font-size="14.00">preservation_services</text>
<text text-anchor="start" x="349.5" y="-545.8" font-family="Arial" font-size="14.00">preservation_national_library</text>
<text text-anchor="start" x="349.5" y="-530.8" font-family="Arial" font-size="14.00">preservation_info_url</text>
<text text-anchor="start" x="349.5" y="-515.8" font-family="Arial" font-size="14.00">deposit_policy_directory</text>
<text text-anchor="start" x="349.5" y="-500.8" font-family="Arial" font-size="14.00">deposit_policy_directory_url</text>
<text text-anchor="start" x="349.5" y="-485.8" font-family="Arial" font-size="14.00">persistent_article_identifiers</text>
<text text-anchor="start" x="349.5" y="-470.8" font-family="Arial" font-size="14.00">orcid_in_metadata</text>
<text text-anchor="start" x="349.5" y="-455.8" font-family="Arial" font-size="14.00">i4oc_compliance</text>
<text text-anchor="start" x="349.5" y="-440.8" font-family="Arial" font-size="14.00">doaj_oa_compliance</text>
<text text-anchor="start" x="349.5" y="-425.8" font-family="Arial" font-size="14.00">oa_statement_url</text>
<text text-anchor="start" x="349.5" y="-410.8" font-family="Arial" font-size="14.00">continues</text>
<text text-anchor="start" x="349.5" y="-395.8" font-family="Arial" font-size="14.00">continued_by</text>
<text text-anchor="start" x="349.5" y="-380.8" font-family="Arial" font-size="14.00">lcc_codes</text>
<text text-anchor="start" x="349.5" y="-365.8" font-family="Arial" font-size="14.00">subjects</text>
<text text-anchor="start" x="349.5" y="-350.8" font-family="Arial" font-size="14.00">doaj_Seal</text>
<text text-anchor="start" x="349.5" y="-335.8" font-family="Arial" font-size="14.00">added_on</text>
<text text-anchor="start" x="349.5" y="-320.8" font-family="Arial" font-size="14.00">last_updated</text>
<text text-anchor="start" x="349.5" y="-305.8" font-family="Arial" font-size="14.00">article_records_number</text>
<text text-anchor="start" x="349.5" y="-290.8" font-family="Arial" font-size="14.00">most_recent_addition</text>
<polygon fill="black" stroke="black" points="346.5,-1114 346.5,-1114 548.5,-1114 548.5,-1114 346.5,-1114"/>
<polygon fill="none" stroke="black" points="346.5,-284 346.5,-1134 548.5,-1134 548.5,-284 346.5,-284"/>
</g>
<!-- works&#45;&gt;open_access_journals -->
<g id="edge3" class="edge">
<title>works&#45;&gt;open_access_journals</title>
<path fill="none" stroke="black" d="M237.93,-1267.59C263.51,-1241.05 311.04,-1187.88 337.5,-1134 340.56,-1127.77 343.54,-1121.45 346.44,-1115.04"/>
<text text-anchor="middle" x="331.44" y="-1118.84" font-family="Arial" font-size="14.00">0…1</text>
<text text-anchor="middle" x="241.93" y="-1256.39" font-family="Arial" font-size="14.00">1</text>
</g>
<!-- journals_issns -->
<g id="node26" class="node">
<title>journals_issns</title>
<polygon fill="#3db1c8" stroke="transparent" points="102,-744 1,-744 1,-674 102,-674 102,-744"/>
<text text-anchor="start" x="4.5" y="-730.8" font-family="Arial" font-weight="bold" font-size="14.00">journals_issns</text>
<text text-anchor="start" x="22.5" y="-710.8" font-family="Arial" font-size="14.00">journal_id</text>
<text text-anchor="start" x="22.5" y="-695.8" font-family="Arial" font-size="14.00">issn</text>
<text text-anchor="start" x="22.5" y="-680.8" font-family="Arial" font-size="14.00">issn_type</text>
<polygon fill="black" stroke="black" points="1.5,-724 1.5,-724 102.5,-724 102.5,-724 1.5,-724"/>
<polygon fill="none" stroke="black" points="1,-674 1,-744 102,-744 102,-674 1,-674"/>
</g>
<!-- works&#45;&gt;journals_issns -->
<g id="edge8" class="edge">
<title>works&#45;&gt;journals_issns</title>
<path fill="none" stroke="black" d="M203.55,-1267.69C178.8,-1241.29 133.36,-1188.28 111.5,-1134 56.43,-997.29 50.67,-818.04 50.88,-744.12"/>
<text text-anchor="middle" x="35.88" y="-747.92" font-family="Arial" font-size="14.00">0…1</text>
<text text-anchor="middle" x="199.55" y="-1256.49" font-family="Arial" font-size="14.00">1</text>
</g>
<!-- persons -->
<g id="node14" class="node">
<title>persons</title>
<polygon fill="#a6ce39" stroke="black" points="752,-727 687,-727 687,-691 752,-691 752,-727"/>
<text text-anchor="middle" x="719.5" y="-705.3" font-family="Arial" font-size="14.00">persons</text>
</g>
<!-- work_authors&#45;&gt;persons -->
<g id="edge6" class="edge">
<title>work_authors&#45;&gt;persons</title>
<path fill="none" stroke="black" d="M719.5,-1267.79C719.5,-1183.14 719.5,-811.64 719.5,-727.14"/>
<text text-anchor="middle" x="704.5" y="-730.94" font-family="Arial" font-size="14.00">0…1</text>
<text text-anchor="middle" x="715.5" y="-1256.59" font-family="Arial" font-size="14.00">1</text>
</g>
<!-- work_subjects -->
<g id="node11" class="node">
<title>work_subjects</title>
<polygon fill="#ffc62c" stroke="black" points="668.5,-727 566.5,-727 566.5,-691 668.5,-691 668.5,-727"/>
<text text-anchor="middle" x="617.5" y="-705.3" font-family="Arial" font-size="14.00">work_subjects</text>
</g>
<!-- work_subjects&#45;&gt;asjcs -->
<g id="edge14" class="edge">
<title>work_subjects&#45;&gt;asjcs</title>
<path fill="none" stroke="black" d="M619.71,-691C626.7,-630.31 643.13,-420.73 557.5,-284 527.08,-235.42 497.85,-244.3 450.5,-212 447.57,-210 444.56,-207.94 441.53,-205.86"/>
<text text-anchor="middle" x="445.53" y="-209.66" font-family="Arial" font-size="14.00">1</text>
<text text-anchor="middle" x="615.71" y="-679.8" font-family="Arial" font-size="14.00">1</text>
</g>
<!-- work_funders -->
<g id="node12" class="node">
<title>work_funders</title>
<polygon fill="#ffc62c" stroke="black" points="968.5,-1631 870.5,-1631 870.5,-1595 968.5,-1595 968.5,-1631"/>
<text text-anchor="middle" x="919.5" y="-1609.3" font-family="Arial" font-size="14.00">work_funders</text>
</g>
<!-- ror_funder_ids -->
<g id="node18" class="node">
<title>ror_funder_ids</title>
<polygon fill="#53baa1" stroke="black" points="938.5,-1498.5 834.5,-1498.5 834.5,-1462.5 938.5,-1462.5 938.5,-1498.5"/>
<text text-anchor="middle" x="886.5" y="-1476.8" font-family="Arial" font-size="14.00">ror_funder_ids</text>
</g>
<!-- work_funders&#45;&gt;ror_funder_ids -->
<g id="edge5" class="edge">
<title>work_funders&#45;&gt;ror_funder_ids</title>
<path fill="none" stroke="black" d="M915.19,-1594.94C908.86,-1569.93 897.14,-1523.58 890.82,-1498.56"/>
<text text-anchor="middle" x="875.82" y="-1502.36" font-family="Arial" font-size="14.00">0…1</text>
<text text-anchor="middle" x="911.19" y="-1583.74" font-family="Arial" font-size="14.00">1</text>
</g>
<!-- funder_names -->
<g id="node24" class="node">
<title>funder_names</title>
<polygon fill="#3db1c8" stroke="transparent" points="1056.5,-1523 956.5,-1523 956.5,-1438 1056.5,-1438 1056.5,-1523"/>
<text text-anchor="start" x="959.5" y="-1509.3" font-family="Arial" font-weight="bold" font-size="14.00">funder_names</text>
<text text-anchor="start" x="980.5" y="-1489.3" font-family="Arial" font-size="14.00">id</text>
<text text-anchor="start" x="980.5" y="-1474.3" font-family="Arial" font-size="14.00">url</text>
<text text-anchor="start" x="980.5" y="-1459.3" font-family="Arial" font-size="14.00">name</text>
<text text-anchor="start" x="980.5" y="-1444.3" font-family="Arial" font-size="14.00">replaced</text>
<polygon fill="black" stroke="black" points="956.5,-1502.5 956.5,-1502.5 1056.5,-1502.5 1056.5,-1502.5 956.5,-1502.5"/>
<polygon fill="none" stroke="black" points="956.5,-1438 956.5,-1523 1056.5,-1523 1056.5,-1438 956.5,-1438"/>
</g>
<!-- work_funders&#45;&gt;funder_names -->
<g id="edge4" class="edge">
<title>work_funders&#45;&gt;funder_names</title>
<path fill="none" stroke="black" d="M930.87,-1594.94C942.99,-1576.77 962.61,-1547.33 978.83,-1523"/>
<text text-anchor="middle" x="963.83" y="-1526.8" font-family="Arial" font-size="14.00">0…1</text>
<text text-anchor="middle" x="926.87" y="-1583.74" font-family="Arial" font-size="14.00">1</text>
</g>
<!-- ORCID tables -->
<g id="node13" class="node">
<title>ORCID tables</title>
<polygon fill="#a6ce39" stroke="black" points="808,-1739 707,-1739 707,-1703 808,-1703 808,-1739"/>
<text text-anchor="middle" x="757.5" y="-1717.3" font-family="Arial" font-size="14.00">ORCID tables</text>
</g>
<!-- USPTO tables -->
<g id="node19" class="node">
<title>USPTO tables</title>
<polygon fill="#9fd6ff" stroke="black" points="930.5,-1739 826.5,-1739 826.5,-1703 930.5,-1703 930.5,-1739"/>
<text text-anchor="middle" x="878.5" y="-1717.3" font-family="Arial" font-size="14.00">USPTO tables</text>
</g>
<!-- ORCID tables&#45;&gt;USPTO tables -->
<!-- ROR tables -->
<g id="node16" class="node">
<title>ROR tables</title>
<polygon fill="#53baa1" stroke="black" points="689,-1739 602,-1739 602,-1703 689,-1703 689,-1739"/>
<text text-anchor="middle" x="645.5" y="-1717.3" font-family="Arial" font-size="14.00">ROR tables</text>
</g>
<!-- ROR tables&#45;&gt;ORCID tables -->
<!-- research_organizations -->
<g id="node17" class="node">
<title>research_organizations</title>
<polygon fill="#53baa1" stroke="black" points="798,-1631 641,-1631 641,-1595 798,-1595 798,-1631"/>
<text text-anchor="middle" x="719.5" y="-1609.3" font-family="Arial" font-size="14.00">research_organizations</text>
</g>
<!-- research_organizations&#45;&gt;work_authors_rors -->
<g id="edge10" class="edge">
<title>research_organizations&#45;&gt;work_authors_rors</title>
<path fill="none" stroke="black" d="M719.5,-1594.94C719.5,-1572.83 719.5,-1534.05 719.5,-1508.07"/>
<text text-anchor="middle" x="703.5" y="-1511.87" font-family="Arial" font-size="14.00">0…N</text>
<text text-anchor="middle" x="715.5" y="-1583.74" font-family="Arial" font-size="14.00">1</text>
</g>
<!-- USPTO tables&#45;&gt;Alexandria3k tables -->
<!-- usp_citations -->
<g id="node20" class="node">
<title>usp_citations</title>
<polygon fill="#9fd6ff" stroke="black" points="268,-1631 173,-1631 173,-1595 268,-1595 268,-1631"/>
<text text-anchor="middle" x="220.5" y="-1609.3" font-family="Arial" font-size="14.00">usp_citations</text>
</g>
<!-- usp_citations&#45;&gt;usp_nplcit_dois -->
<g id="edge16" class="edge">
<title>usp_citations&#45;&gt;usp_nplcit_dois</title>
<path fill="none" stroke="black" d="M220.5,-1594.94C220.5,-1574.9 220.5,-1541.17 220.5,-1515.69"/>
<text text-anchor="middle" x="216.5" y="-1519.49" font-family="Arial" font-size="14.00">1</text>
<text text-anchor="middle" x="205.5" y="-1583.74" font-family="Arial" font-size="14.00">0…1</text>
</g>
<!-- DOAJ table -->
<g id="node21" class="node">
<title>DOAJ table</title>
<polygon fill="#fa9a87" stroke="black" points="583.5,-1739 497.5,-1739 497.5,-1703 583.5,-1703 583.5,-1739"/>
<text text-anchor="middle" x="540.5" y="-1717.3" font-family="Arial" font-size="14.00">DOAJ table</text>
</g>
<!-- DOAJ table&#45;&gt;ROR tables -->
<!-- Additional Crossref tables&#45;&gt;DOAJ table -->
<!-- journal_names -->
<g id="node25" class="node">
<title>journal_names</title>
<polygon fill="#3db1c8" stroke="transparent" points="103,-1366 0,-1366 0,-1206 103,-1206 103,-1366"/>
<text text-anchor="start" x="3.5" y="-1352.8" font-family="Arial" font-weight="bold" font-size="14.00">journal_names</text>
<text text-anchor="start" x="3.5" y="-1332.8" font-family="Arial" font-size="14.00">id</text>
<text text-anchor="start" x="3.5" y="-1317.8" font-family="Arial" font-size="14.00">title</text>
<text text-anchor="start" x="3.5" y="-1302.8" font-family="Arial" font-size="14.00">crossref_id</text>
<text text-anchor="start" x="3.5" y="-1287.8" font-family="Arial" font-size="14.00">publisher</text>
<text text-anchor="start" x="3.5" y="-1272.8" font-family="Arial" font-size="14.00">issn_print</text>
<text text-anchor="start" x="3.5" y="-1257.8" font-family="Arial" font-size="14.00">issn_eprint</text>
<text text-anchor="start" x="3.5" y="-1242.8" font-family="Arial" font-size="14.00">issns_additional</text>
<text text-anchor="start" x="3.5" y="-1227.8" font-family="Arial" font-size="14.00">doi</text>
<text text-anchor="start" x="3.5" y="-1212.8" font-family="Arial" font-size="14.00">volume_info</text>
<polygon fill="black" stroke="black" points="0.5,-1346 0.5,-1346 103.5,-1346 103.5,-1346 0.5,-1346"/>
<polygon fill="none" stroke="black" points="0,-1206 0,-1366 103,-1366 103,-1206 0,-1206"/>
</g>
<!-- journal_names&#45;&gt;journals_issns -->
<g id="edge7" class="edge">
<title>journal_names&#45;&gt;journals_issns</title>
<path fill="none" stroke="black" d="M51.5,-1205.95C51.5,-1078.82 51.5,-834.09 51.5,-744.2"/>
<text text-anchor="middle" x="67.5" y="-748" font-family="Arial" font-size="14.00">1…N</text>
<text text-anchor="middle" x="39" y="-1194.75" font-family="Arial" font-size="14.00">1..N</text>
</g>
<!-- asjc_import -->
<g id="node27" class="node">
<title>asjc_import</title>
<polygon fill="#3db1c8" stroke="transparent" points="543.5,-212 459.5,-212 459.5,-127 543.5,-127 543.5,-212"/>
<text text-anchor="start" x="463" y="-198.3" font-family="Arial" font-weight="bold" font-size="14.00">asjc_import</text>
<text text-anchor="start" x="462.5" y="-178.3" font-family="Arial" font-size="14.00">id</text>
<text text-anchor="start" x="462.5" y="-163.3" font-family="Arial" font-size="14.00">code</text>
<text text-anchor="start" x="462.5" y="-148.3" font-family="Arial" font-size="14.00">field</text>
<text text-anchor="start" x="462.5" y="-133.3" font-family="Arial" font-size="14.00">subject_area</text>
<polygon fill="black" stroke="black" points="459.5,-191.5 459.5,-191.5 543.5,-191.5 543.5,-191.5 459.5,-191.5"/>
<polygon fill="none" stroke="black" points="459.5,-127 459.5,-212 543.5,-212 543.5,-127 459.5,-127"/>
</g>
</g>
</svg>
