<?xml version="1.0" encoding="UTF-8" standalone="no"?>
<!DOCTYPE svg PUBLIC "-//W3C//DTD SVG 1.1//EN"
 "http://www.w3.org/Graphics/SVG/1.1/DTD/svg11.dtd">
<!-- Generated by graphviz version 2.43.0 (0)
 -->
<!-- Title: D Pages: 1 -->
<svg width="2383pt" height="1247pt"
 viewBox="0.00 0.00 2382.50 1247.00" xmlns="http://www.w3.org/2000/svg" xmlns:xlink="http://www.w3.org/1999/xlink">
<g id="graph0" class="graph" transform="scale(1 1) rotate(0) translate(4 1243)">
<title>D</title>
<polygon fill="white" stroke="transparent" points="-4,4 -4,-1243 2378.5,-1243 2378.5,4 -4,4"/>
<!-- pubmed_articles -->
<g id="node1" class="node">
<title>pubmed_articles</title>
<polygon fill="#326599" stroke="transparent" points="1304,-1239 1074,-1239 1074,-464 1304,-464 1304,-1239"/>
<text text-anchor="start" x="1134.5" y="-1225.3" font-family="Arial" font-weight="bold" font-size="14.00" fill="#ffffff">pubmed_articles</text>
<text text-anchor="start" x="1077" y="-1205.3" font-family="Arial" font-size="14.00" fill="#ffffff">id</text>
<text text-anchor="start" x="1077" y="-1190.3" font-family="Arial" font-size="14.00" fill="#ffffff">container_id</text>
<text text-anchor="start" x="1077" y="-1175.3" font-family="Arial" font-size="14.00" fill="#ffffff">pubmed_id</text>
<text text-anchor="start" x="1077" y="-1160.3" font-family="Arial" font-size="14.00" fill="#ffffff">doi</text>
<text text-anchor="start" x="1077" y="-1145.3" font-family="Arial" font-size="14.00" fill="#ffffff">publisher_item_identifier_article_id</text>
<text text-anchor="start" x="1077" y="-1130.3" font-family="Arial" font-size="14.00" fill="#ffffff">pmc_article_id</text>
<text text-anchor="start" x="1077" y="-1115.3" font-family="Arial" font-size="14.00" fill="#ffffff">journal_title</text>
<text text-anchor="start" x="1077" y="-1100.3" font-family="Arial" font-size="14.00" fill="#ffffff">journal_issn</text>
<text text-anchor="start" x="1077" y="-1085.3" font-family="Arial" font-size="14.00" fill="#ffffff">journal_issn_type</text>
<text text-anchor="start" x="1077" y="-1070.3" font-family="Arial" font-size="14.00" fill="#ffffff">journal_cited_medium</text>
<text text-anchor="start" x="1077" y="-1055.3" font-family="Arial" font-size="14.00" fill="#ffffff">journal_volume INTEGER</text>
<text text-anchor="start" x="1077" y="-1040.3" font-family="Arial" font-size="14.00" fill="#ffffff">journal_issue INTEGER</text>
<text text-anchor="start" x="1077" y="-1025.3" font-family="Arial" font-size="14.00" fill="#ffffff">journal_year INTEGER</text>
<text text-anchor="start" x="1077" y="-1010.3" font-family="Arial" font-size="14.00" fill="#ffffff">journal_month INTEGER</text>
<text text-anchor="start" x="1077" y="-995.3" font-family="Arial" font-size="14.00" fill="#ffffff">journal_day INTEGER</text>
<text text-anchor="start" x="1077" y="-980.3" font-family="Arial" font-size="14.00" fill="#ffffff">journal_medline_date</text>
<text text-anchor="start" x="1077" y="-965.3" font-family="Arial" font-size="14.00" fill="#ffffff">journal_ISO_abbreviation</text>
<text text-anchor="start" x="1077" y="-950.3" font-family="Arial" font-size="14.00" fill="#ffffff">article_date_year INTEGER</text>
<text text-anchor="start" x="1077" y="-935.3" font-family="Arial" font-size="14.00" fill="#ffffff">article_date_month INTEGER</text>
<text text-anchor="start" x="1077" y="-920.3" font-family="Arial" font-size="14.00" fill="#ffffff">article_date_day INTEGER</text>
<text text-anchor="start" x="1077" y="-905.3" font-family="Arial" font-size="14.00" fill="#ffffff">article_date_type</text>
<text text-anchor="start" x="1077" y="-890.3" font-family="Arial" font-size="14.00" fill="#ffffff">pagination</text>
<text text-anchor="start" x="1077" y="-875.3" font-family="Arial" font-size="14.00" fill="#ffffff">elocation_id</text>
<text text-anchor="start" x="1077" y="-860.3" font-family="Arial" font-size="14.00" fill="#ffffff">elocation_id_type</text>
<text text-anchor="start" x="1077" y="-845.3" font-family="Arial" font-size="14.00" fill="#ffffff">elocation_id_valid</text>
<text text-anchor="start" x="1077" y="-830.3" font-family="Arial" font-size="14.00" fill="#ffffff">language</text>
<text text-anchor="start" x="1077" y="-815.3" font-family="Arial" font-size="14.00" fill="#ffffff">title</text>
<text text-anchor="start" x="1077" y="-800.3" font-family="Arial" font-size="14.00" fill="#ffffff">vernacular_title</text>
<text text-anchor="start" x="1077" y="-785.3" font-family="Arial" font-size="14.00" fill="#ffffff">journal_country</text>
<text text-anchor="start" x="1077" y="-770.3" font-family="Arial" font-size="14.00" fill="#ffffff">medline_ta</text>
<text text-anchor="start" x="1077" y="-755.3" font-family="Arial" font-size="14.00" fill="#ffffff">nlm_unique_id</text>
<text text-anchor="start" x="1077" y="-740.3" font-family="Arial" font-size="14.00" fill="#ffffff">issn_linking</text>
<text text-anchor="start" x="1077" y="-725.3" font-family="Arial" font-size="14.00" fill="#ffffff">article_pubmodel</text>
<text text-anchor="start" x="1077" y="-710.3" font-family="Arial" font-size="14.00" fill="#ffffff">citation_subset</text>
<text text-anchor="start" x="1077" y="-695.3" font-family="Arial" font-size="14.00" fill="#ffffff">completed_year INTEGER</text>
<text text-anchor="start" x="1077" y="-680.3" font-family="Arial" font-size="14.00" fill="#ffffff">completed_month INTEGER</text>
<text text-anchor="start" x="1077" y="-665.3" font-family="Arial" font-size="14.00" fill="#ffffff">completed_day INTEGER</text>
<text text-anchor="start" x="1077" y="-650.3" font-family="Arial" font-size="14.00" fill="#ffffff">revised_year INTEGER</text>
<text text-anchor="start" x="1077" y="-635.3" font-family="Arial" font-size="14.00" fill="#ffffff">revised_month INTEGER</text>
<text text-anchor="start" x="1077" y="-620.3" font-family="Arial" font-size="14.00" fill="#ffffff">revised_day INTEGER</text>
<text text-anchor="start" x="1077" y="-605.3" font-family="Arial" font-size="14.00" fill="#ffffff">coi_statement</text>
<text text-anchor="start" x="1077" y="-590.3" font-family="Arial" font-size="14.00" fill="#ffffff">medline_citation_status</text>
<text text-anchor="start" x="1077" y="-575.3" font-family="Arial" font-size="14.00" fill="#ffffff">medline_citation_owner</text>
<text text-anchor="start" x="1077" y="-560.3" font-family="Arial" font-size="14.00" fill="#ffffff">medline_citation_version</text>
<text text-anchor="start" x="1077" y="-545.3" font-family="Arial" font-size="14.00" fill="#ffffff">medline_citation_indexing_method</text>
<text text-anchor="start" x="1077" y="-530.3" font-family="Arial" font-size="14.00" fill="#ffffff">medline_citation_version_date</text>
<text text-anchor="start" x="1077" y="-515.3" font-family="Arial" font-size="14.00" fill="#ffffff">keyword_list_owner</text>
<text text-anchor="start" x="1077" y="-500.3" font-family="Arial" font-size="14.00" fill="#ffffff">publication_status</text>
<text text-anchor="start" x="1077" y="-485.3" font-family="Arial" font-size="14.00" fill="#ffffff">abstract_copyright_information</text>
<text text-anchor="start" x="1077" y="-470.3" font-family="Arial" font-size="14.00" fill="#ffffff">other_abstract_copyright_information</text>
<polygon fill="black" stroke="black" points="1074,-1218.5 1074,-1218.5 1304,-1218.5 1304,-1218.5 1074,-1218.5"/>
<polygon fill="none" stroke="black" points="1074,-464 1074,-1239 1304,-1239 1304,-464 1074,-464"/>
</g>
<!-- pubmed_authors -->
<g id="node2" class="node">
<title>pubmed_authors</title>
<polygon fill="#326599" stroke="transparent" points="150.5,-392 33.5,-392 33.5,-202 150.5,-202 150.5,-392"/>
<text text-anchor="start" x="37" y="-378.8" font-family="Arial" font-weight="bold" font-size="14.00" fill="#ffffff">pubmed_authors</text>
<text text-anchor="start" x="42.5" y="-358.8" font-family="Arial" font-size="14.00" fill="#ffffff">id</text>
<text text-anchor="start" x="42.5" y="-343.8" font-family="Arial" font-size="14.00" fill="#ffffff">container_id</text>
<text text-anchor="start" x="42.5" y="-328.8" font-family="Arial" font-size="14.00" fill="#ffffff">article_id</text>
<text text-anchor="start" x="42.5" y="-313.8" font-family="Arial" font-size="14.00" fill="#ffffff">given</text>
<text text-anchor="start" x="42.5" y="-298.8" font-family="Arial" font-size="14.00" fill="#ffffff">family</text>
<text text-anchor="start" x="42.5" y="-283.8" font-family="Arial" font-size="14.00" fill="#ffffff">suffix</text>
<text text-anchor="start" x="42.5" y="-268.8" font-family="Arial" font-size="14.00" fill="#ffffff">initials</text>
<text text-anchor="start" x="42.5" y="-253.8" font-family="Arial" font-size="14.00" fill="#ffffff">valid</text>
<text text-anchor="start" x="42.5" y="-238.8" font-family="Arial" font-size="14.00" fill="#ffffff">identifier</text>
<text text-anchor="start" x="42.5" y="-223.8" font-family="Arial" font-size="14.00" fill="#ffffff">identifier_source</text>
<text text-anchor="start" x="42.5" y="-208.8" font-family="Arial" font-size="14.00" fill="#ffffff">collective_name</text>
<polygon fill="black" stroke="black" points="34,-372 34,-372 151,-372 151,-372 34,-372"/>
<polygon fill="none" stroke="black" points="33.5,-202 33.5,-392 150.5,-392 150.5,-202 33.5,-202"/>
</g>
<!-- pubmed_articles&#45;&gt;pubmed_authors -->
<g id="edge1" class="edge">
<title>pubmed_articles&#45;&gt;pubmed_authors</title>
<path fill="none" stroke="black" d="M1073.82,-820.71C871.65,-764.03 447.18,-625.11 160,-392 156.87,-389.46 153.82,-386.75 150.85,-383.9"/>
<text text-anchor="middle" x="166.85" y="-387.7" font-family="Arial" font-size="14.00">0…N</text>
<text text-anchor="middle" x="1069.82" y="-824.51" font-family="Arial" font-size="14.00">1</text>
</g>
<!-- pubmed_abstracts -->
<g id="node3" class="node">
<title>pubmed_abstracts</title>
<polygon fill="#326599" stroke="transparent" points="305,-362 169,-362 169,-232 305,-232 305,-362"/>
<text text-anchor="start" x="176.5" y="-348.8" font-family="Arial" font-weight="bold" font-size="14.00" fill="#ffffff">pubmed_abstracts</text>
<text text-anchor="start" x="172" y="-328.8" font-family="Arial" font-size="14.00" fill="#ffffff">id</text>
<text text-anchor="start" x="172" y="-313.8" font-family="Arial" font-size="14.00" fill="#ffffff">container_id</text>
<text text-anchor="start" x="172" y="-298.8" font-family="Arial" font-size="14.00" fill="#ffffff">article_id</text>
<text text-anchor="start" x="172" y="-283.8" font-family="Arial" font-size="14.00" fill="#ffffff">label</text>
<text text-anchor="start" x="172" y="-268.8" font-family="Arial" font-size="14.00" fill="#ffffff">text</text>
<text text-anchor="start" x="172" y="-253.8" font-family="Arial" font-size="14.00" fill="#ffffff">nlm_category</text>
<text text-anchor="start" x="172" y="-238.8" font-family="Arial" font-size="14.00" fill="#ffffff">copyright_information</text>
<polygon fill="black" stroke="black" points="169,-342 169,-342 305,-342 305,-342 169,-342"/>
<polygon fill="none" stroke="black" points="169,-232 169,-362 305,-362 305,-232 169,-232"/>
</g>
<!-- pubmed_articles&#45;&gt;pubmed_abstracts -->
<g id="edge2" class="edge">
<title>pubmed_articles&#45;&gt;pubmed_abstracts</title>
<path fill="none" stroke="black" d="M1073.68,-807.56C897.56,-738.32 556.5,-589.54 314,-392 303.37,-383.34 293.17,-373.02 283.87,-362.44"/>
<text text-anchor="middle" x="267.87" y="-366.24" font-family="Arial" font-size="14.00">0…N</text>
<text text-anchor="middle" x="1069.68" y="-796.36" font-family="Arial" font-size="14.00">1</text>
</g>
<!-- pubmed_keywords -->
<g id="node4" class="node">
<title>pubmed_keywords</title>
<polygon fill="#326599" stroke="transparent" points="453,-347 323,-347 323,-247 453,-247 453,-347"/>
<text text-anchor="start" x="326" y="-333.8" font-family="Arial" font-weight="bold" font-size="14.00" fill="#ffffff">pubmed_keywords</text>
<text text-anchor="start" x="351" y="-313.8" font-family="Arial" font-size="14.00" fill="#ffffff">id</text>
<text text-anchor="start" x="351" y="-298.8" font-family="Arial" font-size="14.00" fill="#ffffff">container_id</text>
<text text-anchor="start" x="351" y="-283.8" font-family="Arial" font-size="14.00" fill="#ffffff">article_id</text>
<text text-anchor="start" x="351" y="-268.8" font-family="Arial" font-size="14.00" fill="#ffffff">keyword</text>
<text text-anchor="start" x="351" y="-253.8" font-family="Arial" font-size="14.00" fill="#ffffff">major_topic</text>
<polygon fill="black" stroke="black" points="323,-327 323,-327 453,-327 453,-327 323,-327"/>
<polygon fill="none" stroke="black" points="323,-247 323,-347 453,-347 453,-247 323,-247"/>
</g>
<!-- pubmed_articles&#45;&gt;pubmed_keywords -->
<g id="edge3" class="edge">
<title>pubmed_articles&#45;&gt;pubmed_keywords</title>
<path fill="none" stroke="black" d="M1073.69,-793.67C922.97,-716 655.46,-566.28 462,-392 447.34,-378.79 433.37,-362.44 421.6,-347.1"/>
<text text-anchor="middle" x="405.6" y="-350.9" font-family="Arial" font-size="14.00">0…N</text>
<text text-anchor="middle" x="1069.69" y="-782.47" font-family="Arial" font-size="14.00">1</text>
</g>
<!-- pubmed_chemicals -->
<g id="node5" class="node">
<title>pubmed_chemicals</title>
<polygon fill="#326599" stroke="transparent" points="604.5,-354.5 471.5,-354.5 471.5,-239.5 604.5,-239.5 604.5,-354.5"/>
<text text-anchor="start" x="475" y="-340.8" font-family="Arial" font-weight="bold" font-size="14.00" fill="#ffffff">pubmed_chemicals</text>
<text text-anchor="start" x="477" y="-320.8" font-family="Arial" font-size="14.00" fill="#ffffff">id</text>
<text text-anchor="start" x="477" y="-305.8" font-family="Arial" font-size="14.00" fill="#ffffff">container_id</text>
<text text-anchor="start" x="477" y="-290.8" font-family="Arial" font-size="14.00" fill="#ffffff">article_id</text>
<text text-anchor="start" x="477" y="-275.8" font-family="Arial" font-size="14.00" fill="#ffffff">registry_number</text>
<text text-anchor="start" x="477" y="-260.8" font-family="Arial" font-size="14.00" fill="#ffffff">name_of_substance</text>
<text text-anchor="start" x="477" y="-245.8" font-family="Arial" font-size="14.00" fill="#ffffff">unique_identifier</text>
<polygon fill="black" stroke="black" points="472,-334 472,-334 605,-334 605,-334 472,-334"/>
<polygon fill="none" stroke="black" points="471.5,-239.5 471.5,-354.5 604.5,-354.5 604.5,-239.5 471.5,-239.5"/>
</g>
<!-- pubmed_articles&#45;&gt;pubmed_chemicals -->
<g id="edge4" class="edge">
<title>pubmed_articles&#45;&gt;pubmed_chemicals</title>
<path fill="none" stroke="black" d="M1073.98,-770.83C953.02,-684.41 760.17,-539.01 613,-392 601.63,-380.64 590.31,-367.61 580.04,-354.94"/>
<text text-anchor="middle" x="564.04" y="-358.74" font-family="Arial" font-size="14.00">0…N</text>
<text text-anchor="middle" x="1069.98" y="-759.63" font-family="Arial" font-size="14.00">1</text>
</g>
<!-- pubmed_investigators -->
<g id="node6" class="node">
<title>pubmed_investigators</title>
<polygon fill="#326599" stroke="transparent" points="773.5,-384.5 622.5,-384.5 622.5,-209.5 773.5,-209.5 773.5,-384.5"/>
<text text-anchor="start" x="626" y="-370.8" font-family="Arial" font-weight="bold" font-size="14.00" fill="#ffffff">pubmed_investigators</text>
<text text-anchor="start" x="648.5" y="-350.8" font-family="Arial" font-size="14.00" fill="#ffffff">id</text>
<text text-anchor="start" x="648.5" y="-335.8" font-family="Arial" font-size="14.00" fill="#ffffff">container_id</text>
<text text-anchor="start" x="648.5" y="-320.8" font-family="Arial" font-size="14.00" fill="#ffffff">article_id</text>
<text text-anchor="start" x="648.5" y="-305.8" font-family="Arial" font-size="14.00" fill="#ffffff">given</text>
<text text-anchor="start" x="648.5" y="-290.8" font-family="Arial" font-size="14.00" fill="#ffffff">family</text>
<text text-anchor="start" x="648.5" y="-275.8" font-family="Arial" font-size="14.00" fill="#ffffff">suffix</text>
<text text-anchor="start" x="648.5" y="-260.8" font-family="Arial" font-size="14.00" fill="#ffffff">initials</text>
<text text-anchor="start" x="648.5" y="-245.8" font-family="Arial" font-size="14.00" fill="#ffffff">valid</text>
<text text-anchor="start" x="648.5" y="-230.8" font-family="Arial" font-size="14.00" fill="#ffffff">identifier</text>
<text text-anchor="start" x="648.5" y="-215.8" font-family="Arial" font-size="14.00" fill="#ffffff">identifier_source</text>
<polygon fill="black" stroke="black" points="623,-364 623,-364 774,-364 774,-364 623,-364"/>
<polygon fill="none" stroke="black" points="622.5,-209.5 622.5,-384.5 773.5,-384.5 773.5,-209.5 622.5,-209.5"/>
</g>
<!-- pubmed_articles&#45;&gt;pubmed_investigators -->
<g id="edge5" class="edge">
<title>pubmed_articles&#45;&gt;pubmed_investigators</title>
<path fill="none" stroke="black" d="M1073.88,-720.96C981.34,-616.83 853.97,-473.5 773.82,-383.32"/>
<text text-anchor="middle" x="789.82" y="-387.12" font-family="Arial" font-size="14.00">0…N</text>
<text text-anchor="middle" x="1069.88" y="-724.76" font-family="Arial" font-size="14.00">1</text>
</g>
<!-- pubmed_comments_corrections -->
<g id="node7" class="node">
<title>pubmed_comments_corrections</title>
<polygon fill="#326599" stroke="transparent" points="1008.5,-369.5 791.5,-369.5 791.5,-224.5 1008.5,-224.5 1008.5,-369.5"/>
<text text-anchor="start" x="795" y="-355.8" font-family="Arial" font-weight="bold" font-size="14.00" fill="#ffffff">pubmed_comments_corrections</text>
<text text-anchor="start" x="859.5" y="-335.8" font-family="Arial" font-size="14.00" fill="#ffffff">id</text>
<text text-anchor="start" x="859.5" y="-320.8" font-family="Arial" font-size="14.00" fill="#ffffff">container_id</text>
<text text-anchor="start" x="859.5" y="-305.8" font-family="Arial" font-size="14.00" fill="#ffffff">article_id</text>
<text text-anchor="start" x="859.5" y="-290.8" font-family="Arial" font-size="14.00" fill="#ffffff">ref_type</text>
<text text-anchor="start" x="859.5" y="-275.8" font-family="Arial" font-size="14.00" fill="#ffffff">ref_source</text>
<text text-anchor="start" x="859.5" y="-260.8" font-family="Arial" font-size="14.00" fill="#ffffff">pmid</text>
<text text-anchor="start" x="859.5" y="-245.8" font-family="Arial" font-size="14.00" fill="#ffffff">pmid_version</text>
<text text-anchor="start" x="859.5" y="-230.8" font-family="Arial" font-size="14.00" fill="#ffffff">note</text>
<polygon fill="black" stroke="black" points="792,-349 792,-349 1009,-349 1009,-349 792,-349"/>
<polygon fill="none" stroke="black" points="791.5,-224.5 791.5,-369.5 1008.5,-369.5 1008.5,-224.5 791.5,-224.5"/>
</g>
<!-- pubmed_articles&#45;&gt;pubmed_comments_corrections -->
<g id="edge6" class="edge">
<title>pubmed_articles&#45;&gt;pubmed_comments_corrections</title>
<path fill="none" stroke="black" d="M1073.95,-630.55C1025.31,-537.56 972.02,-435.69 937.41,-369.52"/>
<text text-anchor="middle" x="921.41" y="-373.32" font-family="Arial" font-size="14.00">0…N</text>
<text text-anchor="middle" x="1069.95" y="-634.35" font-family="Arial" font-size="14.00">1</text>
</g>
<!-- pubmed_other_abstracts -->
<g id="node8" class="node">
<title>pubmed_other_abstracts</title>
<polygon fill="#326599" stroke="transparent" points="1195.5,-347 1026.5,-347 1026.5,-247 1195.5,-247 1195.5,-347"/>
<text text-anchor="start" x="1030" y="-333.8" font-family="Arial" font-weight="bold" font-size="14.00" fill="#ffffff">pubmed_other_abstracts</text>
<text text-anchor="start" x="1070.5" y="-313.8" font-family="Arial" font-size="14.00" fill="#ffffff">id</text>
<text text-anchor="start" x="1070.5" y="-298.8" font-family="Arial" font-size="14.00" fill="#ffffff">container_id</text>
<text text-anchor="start" x="1070.5" y="-283.8" font-family="Arial" font-size="14.00" fill="#ffffff">article_id</text>
<text text-anchor="start" x="1070.5" y="-268.8" font-family="Arial" font-size="14.00" fill="#ffffff">abstract_type</text>
<text text-anchor="start" x="1070.5" y="-253.8" font-family="Arial" font-size="14.00" fill="#ffffff">language</text>
<polygon fill="black" stroke="black" points="1027,-327 1027,-327 1196,-327 1196,-327 1027,-327"/>
<polygon fill="none" stroke="black" points="1026.5,-247 1026.5,-347 1195.5,-347 1195.5,-247 1026.5,-247"/>
</g>
<!-- pubmed_articles&#45;&gt;pubmed_other_abstracts -->
<g id="edge7" class="edge">
<title>pubmed_articles&#45;&gt;pubmed_other_abstracts</title>
<path fill="none" stroke="black" d="M1134.4,-463.77C1127.93,-417.89 1122.13,-376.87 1117.93,-347.12"/>
<text text-anchor="middle" x="1101.93" y="-350.92" font-family="Arial" font-size="14.00">0…N</text>
<text text-anchor="middle" x="1130.4" y="-452.57" font-family="Arial" font-size="14.00">1</text>
</g>
<!-- pubmed_grants -->
<g id="node9" class="node">
<title>pubmed_grants</title>
<polygon fill="#326599" stroke="transparent" points="1322.5,-362 1213.5,-362 1213.5,-232 1322.5,-232 1322.5,-362"/>
<text text-anchor="start" x="1217" y="-348.8" font-family="Arial" font-weight="bold" font-size="14.00" fill="#ffffff">pubmed_grants</text>
<text text-anchor="start" x="1231.5" y="-328.8" font-family="Arial" font-size="14.00" fill="#ffffff">id</text>
<text text-anchor="start" x="1231.5" y="-313.8" font-family="Arial" font-size="14.00" fill="#ffffff">container_id</text>
<text text-anchor="start" x="1231.5" y="-298.8" font-family="Arial" font-size="14.00" fill="#ffffff">article_id</text>
<text text-anchor="start" x="1231.5" y="-283.8" font-family="Arial" font-size="14.00" fill="#ffffff">grant_id</text>
<text text-anchor="start" x="1231.5" y="-268.8" font-family="Arial" font-size="14.00" fill="#ffffff">acronym</text>
<text text-anchor="start" x="1231.5" y="-253.8" font-family="Arial" font-size="14.00" fill="#ffffff">agency</text>
<text text-anchor="start" x="1231.5" y="-238.8" font-family="Arial" font-size="14.00" fill="#ffffff">country</text>
<polygon fill="black" stroke="black" points="1214,-342 1214,-342 1323,-342 1323,-342 1214,-342"/>
<polygon fill="none" stroke="black" points="1213.5,-232 1213.5,-362 1322.5,-362 1322.5,-232 1213.5,-232"/>
</g>
<!-- pubmed_articles&#45;&gt;pubmed_grants -->
<g id="edge8" class="edge">
<title>pubmed_articles&#45;&gt;pubmed_grants</title>
<path fill="none" stroke="black" d="M1244.3,-463.77C1249.82,-425.14 1254.85,-389.96 1258.84,-362.05"/>
<text text-anchor="middle" x="1242.84" y="-365.85" font-family="Arial" font-size="14.00">0…N</text>
<text text-anchor="middle" x="1240.3" y="-452.57" font-family="Arial" font-size="14.00">1</text>
</g>
<!-- pubmed_data_banks -->
<g id="node10" class="node">
<title>pubmed_data_banks</title>
<polygon fill="#326599" stroke="transparent" points="1483,-339.5 1341,-339.5 1341,-254.5 1483,-254.5 1483,-339.5"/>
<text text-anchor="start" x="1344" y="-325.8" font-family="Arial" font-weight="bold" font-size="14.00" fill="#ffffff">pubmed_data_banks</text>
<text text-anchor="start" x="1359" y="-305.8" font-family="Arial" font-size="14.00" fill="#ffffff">id</text>
<text text-anchor="start" x="1359" y="-290.8" font-family="Arial" font-size="14.00" fill="#ffffff">container_id</text>
<text text-anchor="start" x="1359" y="-275.8" font-family="Arial" font-size="14.00" fill="#ffffff">article_id</text>
<text text-anchor="start" x="1359" y="-260.8" font-family="Arial" font-size="14.00" fill="#ffffff">data_bank_name</text>
<polygon fill="black" stroke="black" points="1341,-319 1341,-319 1483,-319 1483,-319 1341,-319"/>
<polygon fill="none" stroke="black" points="1341,-254.5 1341,-339.5 1483,-339.5 1483,-254.5 1341,-254.5"/>
</g>
<!-- pubmed_articles&#45;&gt;pubmed_data_banks -->
<g id="edge9" class="edge">
<title>pubmed_articles&#45;&gt;pubmed_data_banks</title>
<path fill="none" stroke="black" d="M1304.09,-565.35C1339.88,-476.69 1375.17,-389.26 1395.2,-339.63"/>
<text text-anchor="middle" x="1379.2" y="-343.43" font-family="Arial" font-size="14.00">0…N</text>
<text text-anchor="middle" x="1308.09" y="-569.15" font-family="Arial" font-size="14.00">1</text>
</g>
<!-- pubmed_publication_types -->
<g id="node11" class="node">
<title>pubmed_publication_types</title>
<polygon fill="#326599" stroke="transparent" points="1683,-347 1501,-347 1501,-247 1683,-247 1683,-347"/>
<text text-anchor="start" x="1504" y="-333.8" font-family="Arial" font-weight="bold" font-size="14.00" fill="#ffffff">pubmed_publication_types</text>
<text text-anchor="start" x="1542" y="-313.8" font-family="Arial" font-size="14.00" fill="#ffffff">id</text>
<text text-anchor="start" x="1542" y="-298.8" font-family="Arial" font-size="14.00" fill="#ffffff">container_id</text>
<text text-anchor="start" x="1542" y="-283.8" font-family="Arial" font-size="14.00" fill="#ffffff">article_id</text>
<text text-anchor="start" x="1542" y="-268.8" font-family="Arial" font-size="14.00" fill="#ffffff">publication_type</text>
<text text-anchor="start" x="1542" y="-253.8" font-family="Arial" font-size="14.00" fill="#ffffff">unique_identifier</text>
<polygon fill="black" stroke="black" points="1501,-327 1501,-327 1683,-327 1683,-327 1501,-327"/>
<polygon fill="none" stroke="black" points="1501,-247 1501,-347 1683,-347 1683,-247 1501,-247"/>
</g>
<!-- pubmed_articles&#45;&gt;pubmed_publication_types -->
<g id="edge10" class="edge">
<title>pubmed_articles&#45;&gt;pubmed_publication_types</title>
<path fill="none" stroke="black" d="M1304.21,-692.55C1389.47,-575.66 1500.13,-423.95 1556.14,-347.16"/>
<text text-anchor="middle" x="1540.14" y="-350.96" font-family="Arial" font-size="14.00">0…N</text>
<text text-anchor="middle" x="1308.21" y="-696.35" font-family="Arial" font-size="14.00">1</text>
</g>
<!-- pubmed_meshs -->
<g id="node12" class="node">
<title>pubmed_meshs</title>
<polygon fill="#326599" stroke="transparent" points="1873,-384.5 1701,-384.5 1701,-209.5 1873,-209.5 1873,-384.5"/>
<text text-anchor="start" x="1734.5" y="-370.8" font-family="Arial" font-weight="bold" font-size="14.00" fill="#ffffff">pubmed_meshs</text>
<text text-anchor="start" x="1704" y="-350.8" font-family="Arial" font-size="14.00" fill="#ffffff">id</text>
<text text-anchor="start" x="1704" y="-335.8" font-family="Arial" font-size="14.00" fill="#ffffff">container_id</text>
<text text-anchor="start" x="1704" y="-320.8" font-family="Arial" font-size="14.00" fill="#ffffff">article_id</text>
<text text-anchor="start" x="1704" y="-305.8" font-family="Arial" font-size="14.00" fill="#ffffff">descriptor_name</text>
<text text-anchor="start" x="1704" y="-290.8" font-family="Arial" font-size="14.00" fill="#ffffff">descriptor_unique_identifier</text>
<text text-anchor="start" x="1704" y="-275.8" font-family="Arial" font-size="14.00" fill="#ffffff">descriptor_major_topic</text>
<text text-anchor="start" x="1704" y="-260.8" font-family="Arial" font-size="14.00" fill="#ffffff">descriptor_type</text>
<text text-anchor="start" x="1704" y="-245.8" font-family="Arial" font-size="14.00" fill="#ffffff">qualifier_name</text>
<text text-anchor="start" x="1704" y="-230.8" font-family="Arial" font-size="14.00" fill="#ffffff">qualifier_major_topic</text>
<text text-anchor="start" x="1704" y="-215.8" font-family="Arial" font-size="14.00" fill="#ffffff">qualifier_unique_identifier</text>
<polygon fill="black" stroke="black" points="1701,-364 1701,-364 1873,-364 1873,-364 1701,-364"/>
<polygon fill="none" stroke="black" points="1701,-209.5 1701,-384.5 1873,-384.5 1873,-209.5 1701,-209.5"/>
</g>
<!-- pubmed_articles&#45;&gt;pubmed_meshs -->
<g id="edge11" class="edge">
<title>pubmed_articles&#45;&gt;pubmed_meshs</title>
<path fill="none" stroke="black" d="M1304.09,-748.02C1406.85,-655.96 1560.91,-516.5 1692,-392 1694.94,-389.2 1697.93,-386.35 1700.94,-383.46"/>
<text text-anchor="middle" x="1684.94" y="-387.26" font-family="Arial" font-size="14.00">0…N</text>
<text text-anchor="middle" x="1308.09" y="-751.82" font-family="Arial" font-size="14.00">1</text>
</g>
<!-- pubmed_supplement_meshs -->
<g id="node13" class="node">
<title>pubmed_supplement_meshs</title>
<polygon fill="#326599" stroke="transparent" points="2086.5,-354.5 1891.5,-354.5 1891.5,-239.5 2086.5,-239.5 2086.5,-354.5"/>
<text text-anchor="start" x="1895" y="-340.8" font-family="Arial" font-weight="bold" font-size="14.00" fill="#ffffff">pubmed_supplement_meshs</text>
<text text-anchor="start" x="1912.5" y="-320.8" font-family="Arial" font-size="14.00" fill="#ffffff">id</text>
<text text-anchor="start" x="1912.5" y="-305.8" font-family="Arial" font-size="14.00" fill="#ffffff">container_id</text>
<text text-anchor="start" x="1912.5" y="-290.8" font-family="Arial" font-size="14.00" fill="#ffffff">article_id</text>
<text text-anchor="start" x="1912.5" y="-275.8" font-family="Arial" font-size="14.00" fill="#ffffff">supplement_mesh_name</text>
<text text-anchor="start" x="1912.5" y="-260.8" font-family="Arial" font-size="14.00" fill="#ffffff">unique_identifier</text>
<text text-anchor="start" x="1912.5" y="-245.8" font-family="Arial" font-size="14.00" fill="#ffffff">mesh_type</text>
<polygon fill="black" stroke="black" points="1892,-334 1892,-334 2087,-334 2087,-334 1892,-334"/>
<polygon fill="none" stroke="black" points="1891.5,-239.5 1891.5,-354.5 2086.5,-354.5 2086.5,-239.5 1891.5,-239.5"/>
</g>
<!-- pubmed_articles&#45;&gt;pubmed_supplement_meshs -->
<g id="edge12" class="edge">
<title>pubmed_articles&#45;&gt;pubmed_supplement_meshs</title>
<path fill="none" stroke="black" d="M1304.18,-781.03C1444.43,-694.93 1686.73,-541.26 1882,-392 1897.13,-380.44 1912.83,-367.33 1927.4,-354.64"/>
<text text-anchor="middle" x="1911.4" y="-358.44" font-family="Arial" font-size="14.00">0…N</text>
<text text-anchor="middle" x="1308.18" y="-784.83" font-family="Arial" font-size="14.00">1</text>
</g>
<!-- pubmed_references -->
<g id="node14" class="node">
<title>pubmed_references</title>
<polygon fill="#326599" stroke="transparent" points="2241,-339.5 2105,-339.5 2105,-254.5 2241,-254.5 2241,-339.5"/>
<text text-anchor="start" x="2108" y="-325.8" font-family="Arial" font-weight="bold" font-size="14.00" fill="#ffffff">pubmed_references</text>
<text text-anchor="start" x="2136" y="-305.8" font-family="Arial" font-size="14.00" fill="#ffffff">id</text>
<text text-anchor="start" x="2136" y="-290.8" font-family="Arial" font-size="14.00" fill="#ffffff">container_id</text>
<text text-anchor="start" x="2136" y="-275.8" font-family="Arial" font-size="14.00" fill="#ffffff">article_id</text>
<text text-anchor="start" x="2136" y="-260.8" font-family="Arial" font-size="14.00" fill="#ffffff">citation</text>
<polygon fill="black" stroke="black" points="2105,-319 2105,-319 2241,-319 2241,-319 2105,-319"/>
<polygon fill="none" stroke="black" points="2105,-254.5 2105,-339.5 2241,-339.5 2241,-254.5 2105,-254.5"/>
</g>
<!-- pubmed_articles&#45;&gt;pubmed_references -->
<g id="edge13" class="edge">
<title>pubmed_articles&#45;&gt;pubmed_references</title>
<path fill="none" stroke="black" d="M1304.16,-810.18C1485.5,-742.96 1842.97,-595.06 2096,-392 2114.43,-377.21 2131.47,-357.37 2144.81,-339.73"/>
<text text-anchor="middle" x="2128.81" y="-343.53" font-family="Arial" font-size="14.00">0…N</text>
<text text-anchor="middle" x="1308.16" y="-813.98" font-family="Arial" font-size="14.00">1</text>
</g>
<!-- pubmed_history -->
<g id="node15" class="node">
<title>pubmed_history</title>
<polygon fill="#326599" stroke="transparent" points="2374.5,-377 2259.5,-377 2259.5,-217 2374.5,-217 2374.5,-377"/>
<text text-anchor="start" x="2264.5" y="-363.8" font-family="Arial" font-weight="bold" font-size="14.00" fill="#ffffff">pubmed_history</text>
<text text-anchor="start" x="2263" y="-343.8" font-family="Arial" font-size="14.00" fill="#ffffff">id</text>
<text text-anchor="start" x="2263" y="-328.8" font-family="Arial" font-size="14.00" fill="#ffffff">container_id</text>
<text text-anchor="start" x="2263" y="-313.8" font-family="Arial" font-size="14.00" fill="#ffffff">article_id</text>
<text text-anchor="start" x="2263" y="-298.8" font-family="Arial" font-size="14.00" fill="#ffffff">publication_status</text>
<text text-anchor="start" x="2263" y="-283.8" font-family="Arial" font-size="14.00" fill="#ffffff">year INTEGER</text>
<text text-anchor="start" x="2263" y="-268.8" font-family="Arial" font-size="14.00" fill="#ffffff">month INTEGER</text>
<text text-anchor="start" x="2263" y="-253.8" font-family="Arial" font-size="14.00" fill="#ffffff">day INTEGER</text>
<text text-anchor="start" x="2263" y="-238.8" font-family="Arial" font-size="14.00" fill="#ffffff">hour INTEGER</text>
<text text-anchor="start" x="2263" y="-223.8" font-family="Arial" font-size="14.00" fill="#ffffff">minute INTEGER</text>
<polygon fill="black" stroke="black" points="2260,-357 2260,-357 2375,-357 2375,-357 2260,-357"/>
<polygon fill="none" stroke="black" points="2259.5,-217 2259.5,-377 2374.5,-377 2374.5,-217 2259.5,-217"/>
</g>
<!-- pubmed_articles&#45;&gt;pubmed_history -->
<g id="edge14" class="edge">
<title>pubmed_articles&#45;&gt;pubmed_history</title>
<path fill="none" stroke="black" d="M1304.26,-822.79C1511.5,-768.49 1953.08,-631.97 2250,-392 2255.46,-387.59 2260.67,-382.63 2265.61,-377.35"/>
<text text-anchor="middle" x="2249.61" y="-381.15" font-family="Arial" font-size="14.00">0…N</text>
<text text-anchor="middle" x="1308.26" y="-826.59" font-family="Arial" font-size="14.00">1</text>
</g>
<!-- pubmed_author_affiliations -->
<g id="node16" class="node">
<title>pubmed_author_affiliations</title>
<polygon fill="#326599" stroke="transparent" points="184,-115 0,-115 0,-15 184,-15 184,-115"/>
<text text-anchor="start" x="3" y="-101.8" font-family="Arial" font-weight="bold" font-size="14.00" fill="#ffffff">pubmed_author_affiliations</text>
<text text-anchor="start" x="55" y="-81.8" font-family="Arial" font-size="14.00" fill="#ffffff">id</text>
<text text-anchor="start" x="55" y="-66.8" font-family="Arial" font-size="14.00" fill="#ffffff">container_id</text>
<text text-anchor="start" x="55" y="-51.8" font-family="Arial" font-size="14.00" fill="#ffffff">author_id</text>
<text text-anchor="start" x="55" y="-36.8" font-family="Arial" font-size="14.00" fill="#ffffff">affiliation</text>
<text text-anchor="start" x="55" y="-21.8" font-family="Arial" font-size="14.00" fill="#ffffff">identifier</text>
<polygon fill="black" stroke="black" points="0,-95 0,-95 184,-95 184,-95 0,-95"/>
<polygon fill="none" stroke="black" points="0,-15 0,-115 184,-115 184,-15 0,-15"/>
</g>
<!-- pubmed_authors&#45;&gt;pubmed_author_affiliations -->
<g id="edge15" class="edge">
<title>pubmed_authors&#45;&gt;pubmed_author_affiliations</title>
<path fill="none" stroke="black" d="M92,-201.79C92,-172.01 92,-140.32 92,-115.04"/>
<text text-anchor="middle" x="76" y="-118.84" font-family="Arial" font-size="14.00">0…N</text>
<text text-anchor="middle" x="88" y="-190.59" font-family="Arial" font-size="14.00">1</text>
</g>
<!-- pubmed_investigator_affiliations -->
<g id="node17" class="node">
<title>pubmed_investigator_affiliations</title>
<polygon fill="#326599" stroke="transparent" points="807.5,-115 588.5,-115 588.5,-15 807.5,-15 807.5,-115"/>
<text text-anchor="start" x="592" y="-101.8" font-family="Arial" font-weight="bold" font-size="14.00" fill="#ffffff">pubmed_investigator_affiliations</text>
<text text-anchor="start" x="654.5" y="-81.8" font-family="Arial" font-size="14.00" fill="#ffffff">id</text>
<text text-anchor="start" x="654.5" y="-66.8" font-family="Arial" font-size="14.00" fill="#ffffff">container_id</text>
<text text-anchor="start" x="654.5" y="-51.8" font-family="Arial" font-size="14.00" fill="#ffffff">investigator_id</text>
<text text-anchor="start" x="654.5" y="-36.8" font-family="Arial" font-size="14.00" fill="#ffffff">affiliation</text>
<text text-anchor="start" x="654.5" y="-21.8" font-family="Arial" font-size="14.00" fill="#ffffff">identifier</text>
<polygon fill="black" stroke="black" points="589,-95 589,-95 808,-95 808,-95 589,-95"/>
<polygon fill="none" stroke="black" points="588.5,-15 588.5,-115 807.5,-115 807.5,-15 588.5,-15"/>
</g>
<!-- pubmed_investigators&#45;&gt;pubmed_investigator_affiliations -->
<g id="edge16" class="edge">
<title>pubmed_investigators&#45;&gt;pubmed_investigator_affiliations</title>
<path fill="none" stroke="black" d="M698,-209.37C698,-177.54 698,-142.61 698,-115.2"/>
<text text-anchor="middle" x="682" y="-119" font-family="Arial" font-size="14.00">0…N</text>
<text text-anchor="middle" x="694" y="-198.17" font-family="Arial" font-size="14.00">1</text>
</g>
<!-- pubmed_other_abstract_texts -->
<g id="node19" class="node">
<title>pubmed_other_abstract_texts</title>
<polygon fill="#326599" stroke="transparent" points="1211,-130 1011,-130 1011,0 1211,0 1211,-130"/>
<text text-anchor="start" x="1014" y="-116.8" font-family="Arial" font-weight="bold" font-size="14.00" fill="#ffffff">pubmed_other_abstract_texts</text>
<text text-anchor="start" x="1046" y="-96.8" font-family="Arial" font-size="14.00" fill="#ffffff">id</text>
<text text-anchor="start" x="1046" y="-81.8" font-family="Arial" font-size="14.00" fill="#ffffff">container_id</text>
<text text-anchor="start" x="1046" y="-66.8" font-family="Arial" font-size="14.00" fill="#ffffff">abstract_id</text>
<text text-anchor="start" x="1046" y="-51.8" font-family="Arial" font-size="14.00" fill="#ffffff">text</text>
<text text-anchor="start" x="1046" y="-36.8" font-family="Arial" font-size="14.00" fill="#ffffff">label</text>
<text text-anchor="start" x="1046" y="-21.8" font-family="Arial" font-size="14.00" fill="#ffffff">nlm_category</text>
<text text-anchor="start" x="1046" y="-6.8" font-family="Arial" font-size="14.00" fill="#ffffff">copyright_information</text>
<polygon fill="black" stroke="black" points="1011,-110 1011,-110 1211,-110 1211,-110 1011,-110"/>
<polygon fill="none" stroke="black" points="1011,0 1011,-130 1211,-130 1211,0 1011,0"/>
</g>
<!-- pubmed_other_abstracts&#45;&gt;pubmed_other_abstract_texts -->
<g id="edge18" class="edge">
<title>pubmed_other_abstracts&#45;&gt;pubmed_other_abstract_texts</title>
<path fill="none" stroke="black" d="M1111,-246.94C1111,-212.9 1111,-167.22 1111,-130.28"/>
<text text-anchor="middle" x="1095" y="-134.08" font-family="Arial" font-size="14.00">0…N</text>
<text text-anchor="middle" x="1107" y="-235.74" font-family="Arial" font-size="14.00">1</text>
</g>
<!-- pubmed_data_bank_accessions -->
<g id="node18" class="node">
<title>pubmed_data_bank_accessions</title>
<polygon fill="#326599" stroke="transparent" points="1519,-107.5 1305,-107.5 1305,-22.5 1519,-22.5 1519,-107.5"/>
<text text-anchor="start" x="1308" y="-93.8" font-family="Arial" font-weight="bold" font-size="14.00" fill="#ffffff">pubmed_data_bank_accessions</text>
<text text-anchor="start" x="1354.5" y="-73.8" font-family="Arial" font-size="14.00" fill="#ffffff">id</text>
<text text-anchor="start" x="1354.5" y="-58.8" font-family="Arial" font-size="14.00" fill="#ffffff">container_id</text>
<text text-anchor="start" x="1354.5" y="-43.8" font-family="Arial" font-size="14.00" fill="#ffffff">data_bank_id</text>
<text text-anchor="start" x="1354.5" y="-28.8" font-family="Arial" font-size="14.00" fill="#ffffff">accession_number</text>
<polygon fill="black" stroke="black" points="1305,-87 1305,-87 1519,-87 1519,-87 1305,-87"/>
<polygon fill="none" stroke="black" points="1305,-22.5 1305,-107.5 1519,-107.5 1519,-22.5 1305,-22.5"/>
</g>
<!-- pubmed_data_banks&#45;&gt;pubmed_data_bank_accessions -->
<g id="edge17" class="edge">
<title>pubmed_data_banks&#45;&gt;pubmed_data_bank_accessions</title>
<path fill="none" stroke="black" d="M1412,-254.35C1412,-212.79 1412,-149.31 1412,-107.73"/>
<text text-anchor="middle" x="1396" y="-111.53" font-family="Arial" font-size="14.00">0…N</text>
<text text-anchor="middle" x="1408" y="-243.15" font-family="Arial" font-size="14.00">1</text>
</g>
<!-- pubmed_reference_articles -->
<g id="node20" class="node">
<title>pubmed_reference_articles</title>
<polygon fill="#326599" stroke="transparent" points="2264.5,-115 2081.5,-115 2081.5,-15 2264.5,-15 2264.5,-115"/>
<text text-anchor="start" x="2085" y="-101.8" font-family="Arial" font-weight="bold" font-size="14.00" fill="#ffffff">pubmed_reference_articles</text>
<text text-anchor="start" x="2135.5" y="-81.8" font-family="Arial" font-size="14.00" fill="#ffffff">id</text>
<text text-anchor="start" x="2135.5" y="-66.8" font-family="Arial" font-size="14.00" fill="#ffffff">container_id</text>
<text text-anchor="start" x="2135.5" y="-51.8" font-family="Arial" font-size="14.00" fill="#ffffff">reference_id</text>
<text text-anchor="start" x="2135.5" y="-36.8" font-family="Arial" font-size="14.00" fill="#ffffff">article_id</text>
<text text-anchor="start" x="2135.5" y="-21.8" font-family="Arial" font-size="14.00" fill="#ffffff">id_type</text>
<polygon fill="black" stroke="black" points="2082,-95 2082,-95 2265,-95 2265,-95 2082,-95"/>
<polygon fill="none" stroke="black" points="2081.5,-15 2081.5,-115 2264.5,-115 2264.5,-15 2081.5,-15"/>
</g>
<!-- pubmed_references&#45;&gt;pubmed_reference_articles -->
<g id="edge19" class="edge">
<title>pubmed_references&#45;&gt;pubmed_reference_articles</title>
<path fill="none" stroke="black" d="M2173,-254.35C2173,-215.25 2173,-156.75 2173,-115.33"/>
<text text-anchor="middle" x="2157" y="-119.13" font-family="Arial" font-size="14.00">0…N</text>
<text text-anchor="middle" x="2169" y="-243.15" font-family="Arial" font-size="14.00">1</text>
</g>
</g>
</svg>
