<?xml version="1.0" encoding="UTF-8" standalone="no"?>
<!DOCTYPE svg PUBLIC "-//W3C//DTD SVG 1.1//EN"
 "http://www.w3.org/Graphics/SVG/1.1/DTD/svg11.dtd">
<!-- Generated by graphviz version 9.0.0 (20230911.1827)
 -->
<!-- Title: D Pages: 1 -->
<svg width="2373pt" height="1300pt"
 viewBox="0.00 0.00 2372.88 1300.25" xmlns="http://www.w3.org/2000/svg" xmlns:xlink="http://www.w3.org/1999/xlink">
<g id="graph0" class="graph" transform="scale(1 1) rotate(0) translate(4 1296.25)">
<title>D</title>
<polygon fill="white" stroke="none" points="-4,4 -4,-1296.25 2368.88,-1296.25 2368.88,4 -4,4"/>
<!-- pubmed_articles -->
<g id="node1" class="node">
<title>pubmed_articles</title>
<polygon fill="#f78152" stroke="none" points="1300.62,-1292.25 1071.12,-1292.25 1071.12,-479 1300.62,-479 1300.62,-1292.25"/>
<text text-anchor="start" x="1131.88" y="-1276.95" font-family="Arial" font-weight="bold" font-size="14.00">pubmed_articles</text>
<text text-anchor="start" x="1074.12" y="-1256.2" font-family="Arial" font-size="14.00">id</text>
<text text-anchor="start" x="1074.12" y="-1240.45" font-family="Arial" font-size="14.00">container_id</text>
<text text-anchor="start" x="1074.12" y="-1224.7" font-family="Arial" font-size="14.00">pubmed_id</text>
<text text-anchor="start" x="1074.12" y="-1208.95" font-family="Arial" font-size="14.00">doi</text>
<text text-anchor="start" x="1074.12" y="-1193.2" font-family="Arial" font-size="14.00">publisher_item_identifier_article_id</text>
<text text-anchor="start" x="1074.12" y="-1177.45" font-family="Arial" font-size="14.00">pmc_article_id</text>
<text text-anchor="start" x="1074.12" y="-1161.7" font-family="Arial" font-size="14.00">journal_title</text>
<text text-anchor="start" x="1074.12" y="-1145.95" font-family="Arial" font-size="14.00">journal_issn</text>
<text text-anchor="start" x="1074.12" y="-1130.2" font-family="Arial" font-size="14.00">journal_issn_type</text>
<text text-anchor="start" x="1074.12" y="-1114.45" font-family="Arial" font-size="14.00">journal_cited_medium</text>
<text text-anchor="start" x="1074.12" y="-1098.7" font-family="Arial" font-size="14.00">journal_volume INTEGER</text>
<text text-anchor="start" x="1074.12" y="-1082.95" font-family="Arial" font-size="14.00">journal_issue INTEGER</text>
<text text-anchor="start" x="1074.12" y="-1067.2" font-family="Arial" font-size="14.00">journal_year INTEGER</text>
<text text-anchor="start" x="1074.12" y="-1051.45" font-family="Arial" font-size="14.00">journal_month INTEGER</text>
<text text-anchor="start" x="1074.12" y="-1035.7" font-family="Arial" font-size="14.00">journal_day INTEGER</text>
<text text-anchor="start" x="1074.12" y="-1019.95" font-family="Arial" font-size="14.00">journal_medline_date</text>
<text text-anchor="start" x="1074.12" y="-1004.2" font-family="Arial" font-size="14.00">journal_ISO_abbreviation</text>
<text text-anchor="start" x="1074.12" y="-988.45" font-family="Arial" font-size="14.00">article_date_year INTEGER</text>
<text text-anchor="start" x="1074.12" y="-972.7" font-family="Arial" font-size="14.00">article_date_month INTEGER</text>
<text text-anchor="start" x="1074.12" y="-956.95" font-family="Arial" font-size="14.00">article_date_day INTEGER</text>
<text text-anchor="start" x="1074.12" y="-941.2" font-family="Arial" font-size="14.00">article_date_type</text>
<text text-anchor="start" x="1074.12" y="-925.45" font-family="Arial" font-size="14.00">pagination</text>
<text text-anchor="start" x="1074.12" y="-909.7" font-family="Arial" font-size="14.00">elocation_id</text>
<text text-anchor="start" x="1074.12" y="-893.95" font-family="Arial" font-size="14.00">elocation_id_type</text>
<text text-anchor="start" x="1074.12" y="-878.2" font-family="Arial" font-size="14.00">elocation_id_valid</text>
<text text-anchor="start" x="1074.12" y="-862.45" font-family="Arial" font-size="14.00">language</text>
<text text-anchor="start" x="1074.12" y="-846.7" font-family="Arial" font-size="14.00">title</text>
<text text-anchor="start" x="1074.12" y="-830.95" font-family="Arial" font-size="14.00">vernacular_title</text>
<text text-anchor="start" x="1074.12" y="-815.2" font-family="Arial" font-size="14.00">journal_country</text>
<text text-anchor="start" x="1074.12" y="-799.45" font-family="Arial" font-size="14.00">medline_ta</text>
<text text-anchor="start" x="1074.12" y="-783.7" font-family="Arial" font-size="14.00">nlm_unique_id</text>
<text text-anchor="start" x="1074.12" y="-767.95" font-family="Arial" font-size="14.00">issn_linking</text>
<text text-anchor="start" x="1074.12" y="-752.2" font-family="Arial" font-size="14.00">article_pubmodel</text>
<text text-anchor="start" x="1074.12" y="-736.45" font-family="Arial" font-size="14.00">citation_subset</text>
<text text-anchor="start" x="1074.12" y="-720.7" font-family="Arial" font-size="14.00">completed_year INTEGER</text>
<text text-anchor="start" x="1074.12" y="-704.95" font-family="Arial" font-size="14.00">completed_month INTEGER</text>
<text text-anchor="start" x="1074.12" y="-689.2" font-family="Arial" font-size="14.00">completed_day INTEGER</text>
<text text-anchor="start" x="1074.12" y="-673.45" font-family="Arial" font-size="14.00">revised_year INTEGER</text>
<text text-anchor="start" x="1074.12" y="-657.7" font-family="Arial" font-size="14.00">revised_month INTEGER</text>
<text text-anchor="start" x="1074.12" y="-641.95" font-family="Arial" font-size="14.00">revised_day INTEGER</text>
<text text-anchor="start" x="1074.12" y="-626.2" font-family="Arial" font-size="14.00">coi_statement</text>
<text text-anchor="start" x="1074.12" y="-610.45" font-family="Arial" font-size="14.00">medline_citation_status</text>
<text text-anchor="start" x="1074.12" y="-594.7" font-family="Arial" font-size="14.00">medline_citation_owner</text>
<text text-anchor="start" x="1074.12" y="-578.95" font-family="Arial" font-size="14.00">medline_citation_version</text>
<text text-anchor="start" x="1074.12" y="-563.2" font-family="Arial" font-size="14.00">medline_citation_indexing_method</text>
<text text-anchor="start" x="1074.12" y="-547.45" font-family="Arial" font-size="14.00">medline_citation_version_date</text>
<text text-anchor="start" x="1074.12" y="-531.7" font-family="Arial" font-size="14.00">keyword_list_owner</text>
<text text-anchor="start" x="1074.12" y="-515.95" font-family="Arial" font-size="14.00">publication_status</text>
<text text-anchor="start" x="1074.12" y="-500.2" font-family="Arial" font-size="14.00">abstract_copyright_information</text>
<text text-anchor="start" x="1074.12" y="-484.45" font-family="Arial" font-size="14.00">other_abstract_copyright_information</text>
<polygon fill="black" stroke="black" points="1071.12,-1271.5 1071.12,-1271.5 1300.62,-1271.5 1300.62,-1271.5 1071.12,-1271.5"/>
<polygon fill="none" stroke="black" points="1071.12,-479 1071.12,-1292.25 1300.62,-1292.25 1300.62,-479 1071.12,-479"/>
</g>
<!-- pubmed_authors -->
<g id="node2" class="node">
<title>pubmed_authors</title>
<polygon fill="#f78152" stroke="none" points="150,-407 33.75,-407 33.75,-208 150,-208 150,-407"/>
<text text-anchor="start" x="36.75" y="-391.7" font-family="Arial" font-weight="bold" font-size="14.00">pubmed_authors</text>
<text text-anchor="start" x="42.38" y="-370.95" font-family="Arial" font-size="14.00">id</text>
<text text-anchor="start" x="42.38" y="-355.2" font-family="Arial" font-size="14.00">container_id</text>
<text text-anchor="start" x="42.38" y="-339.45" font-family="Arial" font-size="14.00">article_id</text>
<text text-anchor="start" x="42.38" y="-323.7" font-family="Arial" font-size="14.00">given</text>
<text text-anchor="start" x="42.38" y="-307.95" font-family="Arial" font-size="14.00">family</text>
<text text-anchor="start" x="42.38" y="-292.2" font-family="Arial" font-size="14.00">suffix</text>
<text text-anchor="start" x="42.38" y="-276.45" font-family="Arial" font-size="14.00">initials</text>
<text text-anchor="start" x="42.38" y="-260.7" font-family="Arial" font-size="14.00">valid</text>
<text text-anchor="start" x="42.38" y="-244.95" font-family="Arial" font-size="14.00">identifier</text>
<text text-anchor="start" x="42.38" y="-229.2" font-family="Arial" font-size="14.00">identifier_source</text>
<text text-anchor="start" x="42.38" y="-213.45" font-family="Arial" font-size="14.00">collective_name</text>
<polygon fill="black" stroke="black" points="33.75,-386.25 33.75,-386.25 150,-386.25 150,-386.25 33.75,-386.25"/>
<polygon fill="none" stroke="black" points="33.75,-208 33.75,-407 150,-407 150,-208 33.75,-208"/>
</g>
<!-- pubmed_articles&#45;&gt;pubmed_authors -->
<g id="edge1" class="edge">
<title>pubmed_articles&#45;&gt;pubmed_authors</title>
<path fill="none" stroke="black" d="M1071.46,-853.53C869.13,-794.08 442.82,-648.3 158.88,-407 155.72,-404.32 152.65,-401.46 149.68,-398.46"/>
<text text-anchor="middle" x="165.43" y="-400.91" font-family="Arial" font-size="14.00">0…N</text>
<text text-anchor="middle" x="1067.71" y="-855.98" font-family="Arial" font-size="14.00">1</text>
</g>
<!-- pubmed_abstracts -->
<g id="node3" class="node">
<title>pubmed_abstracts</title>
<polygon fill="#f78152" stroke="none" points="303.75,-375.5 168,-375.5 168,-239.5 303.75,-239.5 303.75,-375.5"/>
<text text-anchor="start" x="175.5" y="-360.2" font-family="Arial" font-weight="bold" font-size="14.00">pubmed_abstracts</text>
<text text-anchor="start" x="171" y="-339.45" font-family="Arial" font-size="14.00">id</text>
<text text-anchor="start" x="171" y="-323.7" font-family="Arial" font-size="14.00">container_id</text>
<text text-anchor="start" x="171" y="-307.95" font-family="Arial" font-size="14.00">article_id</text>
<text text-anchor="start" x="171" y="-292.2" font-family="Arial" font-size="14.00">label</text>
<text text-anchor="start" x="171" y="-276.45" font-family="Arial" font-size="14.00">text</text>
<text text-anchor="start" x="171" y="-260.7" font-family="Arial" font-size="14.00">nlm_category</text>
<text text-anchor="start" x="171" y="-244.95" font-family="Arial" font-size="14.00">copyright_information</text>
<polygon fill="black" stroke="black" points="168,-354.75 168,-354.75 303.75,-354.75 303.75,-354.75 168,-354.75"/>
<polygon fill="none" stroke="black" points="168,-239.5 168,-375.5 303.75,-375.5 303.75,-239.5 168,-239.5"/>
</g>
<!-- pubmed_articles&#45;&gt;pubmed_abstracts -->
<g id="edge2" class="edge">
<title>pubmed_articles&#45;&gt;pubmed_abstracts</title>
<path fill="none" stroke="black" d="M1071.47,-839.88C895.49,-767.34 553.55,-611.35 312.88,-407 301.95,-397.73 291.55,-386.69 282.11,-375.41"/>
<text text-anchor="middle" x="266.36" y="-377.86" font-family="Arial" font-size="14.00">0…N</text>
<text text-anchor="middle" x="1067.72" y="-826.58" font-family="Arial" font-size="14.00">1</text>
</g>
<!-- pubmed_keywords -->
<g id="node4" class="node">
<title>pubmed_keywords</title>
<polygon fill="#f78152" stroke="none" points="451.75,-359.75 322,-359.75 322,-255.25 451.75,-255.25 451.75,-359.75"/>
<text text-anchor="start" x="325" y="-344.45" font-family="Arial" font-weight="bold" font-size="14.00">pubmed_keywords</text>
<text text-anchor="start" x="350.12" y="-323.7" font-family="Arial" font-size="14.00">id</text>
<text text-anchor="start" x="350.12" y="-307.95" font-family="Arial" font-size="14.00">container_id</text>
<text text-anchor="start" x="350.12" y="-292.2" font-family="Arial" font-size="14.00">article_id</text>
<text text-anchor="start" x="350.12" y="-276.45" font-family="Arial" font-size="14.00">keyword</text>
<text text-anchor="start" x="350.12" y="-260.7" font-family="Arial" font-size="14.00">major_topic</text>
<polygon fill="black" stroke="black" points="322,-339 322,-339 451.75,-339 451.75,-339 322,-339"/>
<polygon fill="none" stroke="black" points="322,-255.25 322,-359.75 451.75,-359.75 451.75,-255.25 322,-255.25"/>
</g>
<!-- pubmed_articles&#45;&gt;pubmed_keywords -->
<g id="edge3" class="edge">
<title>pubmed_articles&#45;&gt;pubmed_keywords</title>
<path fill="none" stroke="black" d="M1071.14,-825.35C920.52,-744.07 652.79,-587.41 460.88,-407 445.99,-393.01 431.92,-375.75 420.11,-359.61"/>
<text text-anchor="middle" x="404.36" y="-362.06" font-family="Arial" font-size="14.00">0…N</text>
<text text-anchor="middle" x="1067.39" y="-812.05" font-family="Arial" font-size="14.00">1</text>
</g>
<!-- pubmed_chemicals -->
<g id="node5" class="node">
<title>pubmed_chemicals</title>
<polygon fill="#f78152" stroke="none" points="602.25,-367.62 469.5,-367.62 469.5,-247.38 602.25,-247.38 602.25,-367.62"/>
<text text-anchor="start" x="472.5" y="-352.32" font-family="Arial" font-weight="bold" font-size="14.00">pubmed_chemicals</text>
<text text-anchor="start" x="474.75" y="-331.57" font-family="Arial" font-size="14.00">id</text>
<text text-anchor="start" x="474.75" y="-315.82" font-family="Arial" font-size="14.00">container_id</text>
<text text-anchor="start" x="474.75" y="-300.07" font-family="Arial" font-size="14.00">article_id</text>
<text text-anchor="start" x="474.75" y="-284.32" font-family="Arial" font-size="14.00">registry_number</text>
<text text-anchor="start" x="474.75" y="-268.57" font-family="Arial" font-size="14.00">name_of_substance</text>
<text text-anchor="start" x="474.75" y="-252.82" font-family="Arial" font-size="14.00">unique_identifier</text>
<polygon fill="black" stroke="black" points="469.5,-346.88 469.5,-346.88 602.25,-346.88 602.25,-346.88 469.5,-346.88"/>
<polygon fill="none" stroke="black" points="469.5,-247.38 469.5,-367.62 602.25,-367.62 602.25,-247.38 469.5,-247.38"/>
</g>
<!-- pubmed_articles&#45;&gt;pubmed_chemicals -->
<g id="edge4" class="edge">
<title>pubmed_articles&#45;&gt;pubmed_chemicals</title>
<path fill="none" stroke="black" d="M1071.16,-801.14C950.54,-710.71 758.29,-558.91 611.88,-407 600.18,-394.87 588.56,-380.99 578.05,-367.55"/>
<text text-anchor="middle" x="562.3" y="-370" font-family="Arial" font-size="14.00">0…N</text>
<text text-anchor="middle" x="1067.41" y="-787.84" font-family="Arial" font-size="14.00">1</text>
</g>
<!-- pubmed_investigators -->
<g id="node6" class="node">
<title>pubmed_investigators</title>
<polygon fill="#f78152" stroke="none" points="771.25,-399.12 620.5,-399.12 620.5,-215.88 771.25,-215.88 771.25,-399.12"/>
<text text-anchor="start" x="623.5" y="-383.82" font-family="Arial" font-weight="bold" font-size="14.00">pubmed_investigators</text>
<text text-anchor="start" x="646.38" y="-363.07" font-family="Arial" font-size="14.00">id</text>
<text text-anchor="start" x="646.38" y="-347.32" font-family="Arial" font-size="14.00">container_id</text>
<text text-anchor="start" x="646.38" y="-331.57" font-family="Arial" font-size="14.00">article_id</text>
<text text-anchor="start" x="646.38" y="-315.82" font-family="Arial" font-size="14.00">given</text>
<text text-anchor="start" x="646.38" y="-300.07" font-family="Arial" font-size="14.00">family</text>
<text text-anchor="start" x="646.38" y="-284.32" font-family="Arial" font-size="14.00">suffix</text>
<text text-anchor="start" x="646.38" y="-268.57" font-family="Arial" font-size="14.00">initials</text>
<text text-anchor="start" x="646.38" y="-252.82" font-family="Arial" font-size="14.00">valid</text>
<text text-anchor="start" x="646.38" y="-237.07" font-family="Arial" font-size="14.00">identifier</text>
<text text-anchor="start" x="646.38" y="-221.32" font-family="Arial" font-size="14.00">identifier_source</text>
<polygon fill="black" stroke="black" points="620.5,-378.38 620.5,-378.38 771.25,-378.38 771.25,-378.38 620.5,-378.38"/>
<polygon fill="none" stroke="black" points="620.5,-215.88 620.5,-399.12 771.25,-399.12 771.25,-215.88 620.5,-215.88"/>
</g>
<!-- pubmed_articles&#45;&gt;pubmed_investigators -->
<g id="edge5" class="edge">
<title>pubmed_articles&#45;&gt;pubmed_investigators</title>
<path fill="none" stroke="black" d="M1071.3,-749.91C978.67,-641 850.94,-490.82 770.91,-396.72"/>
<text text-anchor="middle" x="786.66" y="-399.17" font-family="Arial" font-size="14.00">0…N</text>
<text text-anchor="middle" x="1067.55" y="-752.36" font-family="Arial" font-size="14.00">1</text>
</g>
<!-- pubmed_comments_corrections -->
<g id="node7" class="node">
<title>pubmed_comments_corrections</title>
<polygon fill="#f78152" stroke="none" points="1006.25,-383.38 789.5,-383.38 789.5,-231.62 1006.25,-231.62 1006.25,-383.38"/>
<text text-anchor="start" x="792.5" y="-368.07" font-family="Arial" font-weight="bold" font-size="14.00">pubmed_comments_corrections</text>
<text text-anchor="start" x="857.38" y="-347.32" font-family="Arial" font-size="14.00">id</text>
<text text-anchor="start" x="857.38" y="-331.57" font-family="Arial" font-size="14.00">container_id</text>
<text text-anchor="start" x="857.38" y="-315.82" font-family="Arial" font-size="14.00">article_id</text>
<text text-anchor="start" x="857.38" y="-300.07" font-family="Arial" font-size="14.00">ref_type</text>
<text text-anchor="start" x="857.38" y="-284.32" font-family="Arial" font-size="14.00">ref_source</text>
<text text-anchor="start" x="857.38" y="-268.57" font-family="Arial" font-size="14.00">pmid</text>
<text text-anchor="start" x="857.38" y="-252.82" font-family="Arial" font-size="14.00">pmid_version</text>
<text text-anchor="start" x="857.38" y="-237.07" font-family="Arial" font-size="14.00">note</text>
<polygon fill="black" stroke="black" points="789.5,-362.62 789.5,-362.62 1006.25,-362.62 1006.25,-362.62 789.5,-362.62"/>
<polygon fill="none" stroke="black" points="789.5,-231.62 789.5,-383.38 1006.25,-383.38 1006.25,-231.62 789.5,-231.62"/>
</g>
<!-- pubmed_articles&#45;&gt;pubmed_comments_corrections -->
<g id="edge6" class="edge">
<title>pubmed_articles&#45;&gt;pubmed_comments_corrections</title>
<path fill="none" stroke="black" d="M1071.22,-655.27C1022.75,-558.31 969.65,-452.08 935.16,-383.08"/>
<text text-anchor="middle" x="919.41" y="-385.53" font-family="Arial" font-size="14.00">0…N</text>
<text text-anchor="middle" x="1067.47" y="-657.72" font-family="Arial" font-size="14.00">1</text>
</g>
<!-- pubmed_other_abstracts -->
<g id="node8" class="node">
<title>pubmed_other_abstracts</title>
<polygon fill="#f78152" stroke="none" points="1191.88,-359.75 1023.88,-359.75 1023.88,-255.25 1191.88,-255.25 1191.88,-359.75"/>
<text text-anchor="start" x="1026.88" y="-344.45" font-family="Arial" font-weight="bold" font-size="14.00">pubmed_other_abstracts</text>
<text text-anchor="start" x="1067.38" y="-323.7" font-family="Arial" font-size="14.00">id</text>
<text text-anchor="start" x="1067.38" y="-307.95" font-family="Arial" font-size="14.00">container_id</text>
<text text-anchor="start" x="1067.38" y="-292.2" font-family="Arial" font-size="14.00">article_id</text>
<text text-anchor="start" x="1067.38" y="-276.45" font-family="Arial" font-size="14.00">abstract_type</text>
<text text-anchor="start" x="1067.38" y="-260.7" font-family="Arial" font-size="14.00">language</text>
<polygon fill="black" stroke="black" points="1023.88,-339 1023.88,-339 1191.88,-339 1191.88,-339 1023.88,-339"/>
<polygon fill="none" stroke="black" points="1023.88,-255.25 1023.88,-359.75 1191.88,-359.75 1191.88,-255.25 1023.88,-255.25"/>
</g>
<!-- pubmed_articles&#45;&gt;pubmed_other_abstracts -->
<g id="edge7" class="edge">
<title>pubmed_articles&#45;&gt;pubmed_other_abstracts</title>
<path fill="none" stroke="black" d="M1130.96,-479.02C1124.61,-432.1 1118.94,-390.2 1114.8,-359.68"/>
<text text-anchor="middle" x="1099.05" y="-362.13" font-family="Arial" font-size="14.00">0…N</text>
<text text-anchor="middle" x="1127.21" y="-465.72" font-family="Arial" font-size="14.00">1</text>
</g>
<!-- pubmed_grants -->
<g id="node9" class="node">
<title>pubmed_grants</title>
<polygon fill="#f78152" stroke="none" points="1317.88,-375.5 1209.88,-375.5 1209.88,-239.5 1317.88,-239.5 1317.88,-375.5"/>
<text text-anchor="start" x="1212.88" y="-360.2" font-family="Arial" font-weight="bold" font-size="14.00">pubmed_grants</text>
<text text-anchor="start" x="1227.12" y="-339.45" font-family="Arial" font-size="14.00">id</text>
<text text-anchor="start" x="1227.12" y="-323.7" font-family="Arial" font-size="14.00">container_id</text>
<text text-anchor="start" x="1227.12" y="-307.95" font-family="Arial" font-size="14.00">article_id</text>
<text text-anchor="start" x="1227.12" y="-292.2" font-family="Arial" font-size="14.00">grant_id</text>
<text text-anchor="start" x="1227.12" y="-276.45" font-family="Arial" font-size="14.00">acronym</text>
<text text-anchor="start" x="1227.12" y="-260.7" font-family="Arial" font-size="14.00">agency</text>
<text text-anchor="start" x="1227.12" y="-244.95" font-family="Arial" font-size="14.00">country</text>
<polygon fill="black" stroke="black" points="1209.88,-354.75 1209.88,-354.75 1317.88,-354.75 1317.88,-354.75 1209.88,-354.75"/>
<polygon fill="none" stroke="black" points="1209.88,-239.5 1209.88,-375.5 1317.88,-375.5 1317.88,-239.5 1209.88,-239.5"/>
</g>
<!-- pubmed_articles&#45;&gt;pubmed_grants -->
<g id="edge8" class="edge">
<title>pubmed_articles&#45;&gt;pubmed_grants</title>
<path fill="none" stroke="black" d="M1240.79,-479.02C1246.13,-439.58 1250.99,-403.68 1254.86,-375.11"/>
<text text-anchor="middle" x="1239.11" y="-377.56" font-family="Arial" font-size="14.00">0…N</text>
<text text-anchor="middle" x="1237.04" y="-465.72" font-family="Arial" font-size="14.00">1</text>
</g>
<!-- pubmed_data_banks -->
<g id="node10" class="node">
<title>pubmed_data_banks</title>
<polygon fill="#f78152" stroke="none" points="1477.38,-351.88 1336.38,-351.88 1336.38,-263.12 1477.38,-263.12 1477.38,-351.88"/>
<text text-anchor="start" x="1339.38" y="-336.57" font-family="Arial" font-weight="bold" font-size="14.00">pubmed_data_banks</text>
<text text-anchor="start" x="1354.38" y="-315.82" font-family="Arial" font-size="14.00">id</text>
<text text-anchor="start" x="1354.38" y="-300.07" font-family="Arial" font-size="14.00">container_id</text>
<text text-anchor="start" x="1354.38" y="-284.32" font-family="Arial" font-size="14.00">article_id</text>
<text text-anchor="start" x="1354.38" y="-268.57" font-family="Arial" font-size="14.00">data_bank_name</text>
<polygon fill="black" stroke="black" points="1336.38,-331.12 1336.38,-331.12 1477.38,-331.12 1477.38,-331.12 1336.38,-331.12"/>
<polygon fill="none" stroke="black" points="1336.38,-263.12 1336.38,-351.88 1477.38,-351.88 1477.38,-263.12 1336.38,-263.12"/>
</g>
<!-- pubmed_articles&#45;&gt;pubmed_data_banks -->
<g id="edge9" class="edge">
<title>pubmed_articles&#45;&gt;pubmed_data_banks</title>
<path fill="none" stroke="black" d="M1300.58,-585.59C1335.9,-493.53 1370.64,-402.97 1390.35,-351.58"/>
<text text-anchor="middle" x="1374.6" y="-354.03" font-family="Arial" font-size="14.00">0…N</text>
<text text-anchor="middle" x="1304.33" y="-588.04" font-family="Arial" font-size="14.00">1</text>
</g>
<!-- pubmed_publication_types -->
<g id="node11" class="node">
<title>pubmed_publication_types</title>
<polygon fill="#f78152" stroke="none" points="1676.62,-359.75 1495.12,-359.75 1495.12,-255.25 1676.62,-255.25 1676.62,-359.75"/>
<text text-anchor="start" x="1498.12" y="-344.45" font-family="Arial" font-weight="bold" font-size="14.00">pubmed_publication_types</text>
<text text-anchor="start" x="1536.38" y="-323.7" font-family="Arial" font-size="14.00">id</text>
<text text-anchor="start" x="1536.38" y="-307.95" font-family="Arial" font-size="14.00">container_id</text>
<text text-anchor="start" x="1536.38" y="-292.2" font-family="Arial" font-size="14.00">article_id</text>
<text text-anchor="start" x="1536.38" y="-276.45" font-family="Arial" font-size="14.00">publication_type</text>
<text text-anchor="start" x="1536.38" y="-260.7" font-family="Arial" font-size="14.00">unique_identifier</text>
<polygon fill="black" stroke="black" points="1495.12,-339 1495.12,-339 1676.62,-339 1676.62,-339 1495.12,-339"/>
<polygon fill="none" stroke="black" points="1495.12,-255.25 1495.12,-359.75 1676.62,-359.75 1676.62,-255.25 1495.12,-255.25"/>
</g>
<!-- pubmed_articles&#45;&gt;pubmed_publication_types -->
<g id="edge10" class="edge">
<title>pubmed_articles&#45;&gt;pubmed_publication_types</title>
<path fill="none" stroke="black" d="M1300.5,-719.53C1385.11,-597.67 1494.81,-439.66 1550.33,-359.69"/>
<text text-anchor="middle" x="1534.58" y="-362.14" font-family="Arial" font-size="14.00">0…N</text>
<text text-anchor="middle" x="1304.25" y="-721.98" font-family="Arial" font-size="14.00">1</text>
</g>
<!-- pubmed_meshs -->
<g id="node12" class="node">
<title>pubmed_meshs</title>
<polygon fill="#f78152" stroke="none" points="1866.75,-399.12 1695,-399.12 1695,-215.88 1866.75,-215.88 1866.75,-399.12"/>
<text text-anchor="start" x="1728.75" y="-383.82" font-family="Arial" font-weight="bold" font-size="14.00">pubmed_meshs</text>
<text text-anchor="start" x="1698" y="-363.07" font-family="Arial" font-size="14.00">id</text>
<text text-anchor="start" x="1698" y="-347.32" font-family="Arial" font-size="14.00">container_id</text>
<text text-anchor="start" x="1698" y="-331.57" font-family="Arial" font-size="14.00">article_id</text>
<text text-anchor="start" x="1698" y="-315.82" font-family="Arial" font-size="14.00">descriptor_name</text>
<text text-anchor="start" x="1698" y="-300.07" font-family="Arial" font-size="14.00">descriptor_unique_identifier</text>
<text text-anchor="start" x="1698" y="-284.32" font-family="Arial" font-size="14.00">descriptor_major_topic</text>
<text text-anchor="start" x="1698" y="-268.57" font-family="Arial" font-size="14.00">descriptor_type</text>
<text text-anchor="start" x="1698" y="-252.82" font-family="Arial" font-size="14.00">qualifier_name</text>
<text text-anchor="start" x="1698" y="-237.07" font-family="Arial" font-size="14.00">qualifier_major_topic</text>
<text text-anchor="start" x="1698" y="-221.32" font-family="Arial" font-size="14.00">qualifier_unique_identifier</text>
<polygon fill="black" stroke="black" points="1695,-378.38 1695,-378.38 1866.75,-378.38 1866.75,-378.38 1695,-378.38"/>
<polygon fill="none" stroke="black" points="1695,-215.88 1695,-399.12 1866.75,-399.12 1866.75,-215.88 1695,-215.88"/>
</g>
<!-- pubmed_articles&#45;&gt;pubmed_meshs -->
<g id="edge11" class="edge">
<title>pubmed_articles&#45;&gt;pubmed_meshs</title>
<path fill="none" stroke="black" d="M1300.59,-777.57C1402.77,-681.62 1555.8,-536.46 1685.88,-407 1688.91,-403.98 1691.98,-400.9 1695.08,-397.79"/>
<text text-anchor="middle" x="1679.33" y="-400.24" font-family="Arial" font-size="14.00">0…N</text>
<text text-anchor="middle" x="1304.34" y="-780.02" font-family="Arial" font-size="14.00">1</text>
</g>
<!-- pubmed_supplement_meshs -->
<g id="node13" class="node">
<title>pubmed_supplement_meshs</title>
<polygon fill="#f78152" stroke="none" points="2079,-367.62 1884.75,-367.62 1884.75,-247.38 2079,-247.38 2079,-367.62"/>
<text text-anchor="start" x="1887.75" y="-352.32" font-family="Arial" font-weight="bold" font-size="14.00">pubmed_supplement_meshs</text>
<text text-anchor="start" x="1905" y="-331.57" font-family="Arial" font-size="14.00">id</text>
<text text-anchor="start" x="1905" y="-315.82" font-family="Arial" font-size="14.00">container_id</text>
<text text-anchor="start" x="1905" y="-300.07" font-family="Arial" font-size="14.00">article_id</text>
<text text-anchor="start" x="1905" y="-284.32" font-family="Arial" font-size="14.00">supplement_mesh_name</text>
<text text-anchor="start" x="1905" y="-268.57" font-family="Arial" font-size="14.00">unique_identifier</text>
<text text-anchor="start" x="1905" y="-252.82" font-family="Arial" font-size="14.00">mesh_type</text>
<polygon fill="black" stroke="black" points="1884.75,-346.88 1884.75,-346.88 2079,-346.88 2079,-346.88 1884.75,-346.88"/>
<polygon fill="none" stroke="black" points="1884.75,-247.38 1884.75,-367.62 2079,-367.62 2079,-247.38 1884.75,-247.38"/>
</g>
<!-- pubmed_articles&#45;&gt;pubmed_supplement_meshs -->
<g id="edge12" class="edge">
<title>pubmed_articles&#45;&gt;pubmed_supplement_meshs</title>
<path fill="none" stroke="black" d="M1300.58,-812.46C1440.49,-722.82 1682.27,-562.64 1875.88,-407 1891.05,-394.8 1906.75,-380.96 1921.27,-367.59"/>
<text text-anchor="middle" x="1905.52" y="-370.04" font-family="Arial" font-size="14.00">0…N</text>
<text text-anchor="middle" x="1304.33" y="-814.91" font-family="Arial" font-size="14.00">1</text>
</g>
<!-- pubmed_references -->
<g id="node14" class="node">
<title>pubmed_references</title>
<polygon fill="#f78152" stroke="none" points="2232.38,-351.88 2097.38,-351.88 2097.38,-263.12 2232.38,-263.12 2232.38,-351.88"/>
<text text-anchor="start" x="2100.38" y="-336.57" font-family="Arial" font-weight="bold" font-size="14.00">pubmed_references</text>
<text text-anchor="start" x="2128.12" y="-315.82" font-family="Arial" font-size="14.00">id</text>
<text text-anchor="start" x="2128.12" y="-300.07" font-family="Arial" font-size="14.00">container_id</text>
<text text-anchor="start" x="2128.12" y="-284.32" font-family="Arial" font-size="14.00">article_id</text>
<text text-anchor="start" x="2128.12" y="-268.57" font-family="Arial" font-size="14.00">citation</text>
<polygon fill="black" stroke="black" points="2097.38,-331.12 2097.38,-331.12 2232.38,-331.12 2232.38,-331.12 2097.38,-331.12"/>
<polygon fill="none" stroke="black" points="2097.38,-263.12 2097.38,-351.88 2232.38,-351.88 2232.38,-263.12 2097.38,-263.12"/>
</g>
<!-- pubmed_articles&#45;&gt;pubmed_references -->
<g id="edge13" class="edge">
<title>pubmed_articles&#45;&gt;pubmed_references</title>
<path fill="none" stroke="black" d="M1300.47,-842.21C1481.29,-771.49 1837.91,-616.33 2087.88,-407 2106.68,-391.25 2123.89,-370.22 2137.24,-351.63"/>
<text text-anchor="middle" x="2121.49" y="-354.08" font-family="Arial" font-size="14.00">0…N</text>
<text text-anchor="middle" x="1304.22" y="-844.66" font-family="Arial" font-size="14.00">1</text>
</g>
<!-- pubmed_history -->
<g id="node15" class="node">
<title>pubmed_history</title>
<polygon fill="#f78152" stroke="none" points="2364.88,-391.25 2250.88,-391.25 2250.88,-223.75 2364.88,-223.75 2364.88,-391.25"/>
<text text-anchor="start" x="2255" y="-375.95" font-family="Arial" font-weight="bold" font-size="14.00">pubmed_history</text>
<text text-anchor="start" x="2253.88" y="-355.2" font-family="Arial" font-size="14.00">id</text>
<text text-anchor="start" x="2253.88" y="-339.45" font-family="Arial" font-size="14.00">container_id</text>
<text text-anchor="start" x="2253.88" y="-323.7" font-family="Arial" font-size="14.00">article_id</text>
<text text-anchor="start" x="2253.88" y="-307.95" font-family="Arial" font-size="14.00">publication_status</text>
<text text-anchor="start" x="2253.88" y="-292.2" font-family="Arial" font-size="14.00">year INTEGER</text>
<text text-anchor="start" x="2253.88" y="-276.45" font-family="Arial" font-size="14.00">month INTEGER</text>
<text text-anchor="start" x="2253.88" y="-260.7" font-family="Arial" font-size="14.00">day INTEGER</text>
<text text-anchor="start" x="2253.88" y="-244.95" font-family="Arial" font-size="14.00">hour INTEGER</text>
<text text-anchor="start" x="2253.88" y="-229.2" font-family="Arial" font-size="14.00">minute INTEGER</text>
<polygon fill="black" stroke="black" points="2250.88,-370.5 2250.88,-370.5 2364.88,-370.5 2364.88,-370.5 2250.88,-370.5"/>
<polygon fill="none" stroke="black" points="2250.88,-223.75 2250.88,-391.25 2364.88,-391.25 2364.88,-223.75 2250.88,-223.75"/>
</g>
<!-- pubmed_articles&#45;&gt;pubmed_history -->
<g id="edge14" class="edge">
<title>pubmed_articles&#45;&gt;pubmed_history</title>
<path fill="none" stroke="black" d="M1300.44,-855.47C1507.43,-798.24 1949.35,-654.7 2241.88,-407 2247.53,-402.21 2252.9,-396.82 2257.95,-391.09"/>
<text text-anchor="middle" x="2242.2" y="-393.54" font-family="Arial" font-size="14.00">0…N</text>
<text text-anchor="middle" x="1304.19" y="-857.92" font-family="Arial" font-size="14.00">1</text>
</g>
<!-- pubmed_author_affiliations -->
<g id="node16" class="node">
<title>pubmed_author_affiliations</title>
<polygon fill="#f78152" stroke="none" points="183.75,-120.25 0,-120.25 0,-15.75 183.75,-15.75 183.75,-120.25"/>
<text text-anchor="start" x="3" y="-104.95" font-family="Arial" font-weight="bold" font-size="14.00">pubmed_author_affiliations</text>
<text text-anchor="start" x="55.12" y="-84.2" font-family="Arial" font-size="14.00">id</text>
<text text-anchor="start" x="55.12" y="-68.45" font-family="Arial" font-size="14.00">container_id</text>
<text text-anchor="start" x="55.12" y="-52.7" font-family="Arial" font-size="14.00">author_id</text>
<text text-anchor="start" x="55.12" y="-36.95" font-family="Arial" font-size="14.00">affiliation</text>
<text text-anchor="start" x="55.12" y="-21.2" font-family="Arial" font-size="14.00">identifier</text>
<polygon fill="black" stroke="black" points="0,-99.5 0,-99.5 183.75,-99.5 183.75,-99.5 0,-99.5"/>
<polygon fill="none" stroke="black" points="0,-15.75 0,-120.25 183.75,-120.25 183.75,-15.75 0,-15.75"/>
</g>
<!-- pubmed_authors&#45;&gt;pubmed_author_affiliations -->
<g id="edge15" class="edge">
<title>pubmed_authors&#45;&gt;pubmed_author_affiliations</title>
<path fill="none" stroke="black" d="M91.88,-208.19C91.88,-177.94 91.88,-145.87 91.88,-120.15"/>
<text text-anchor="middle" x="76.12" y="-122.6" font-family="Arial" font-size="14.00">0…N</text>
<text text-anchor="middle" x="88.12" y="-194.89" font-family="Arial" font-size="14.00">1</text>
</g>
<!-- pubmed_investigator_affiliations -->
<g id="node17" class="node">
<title>pubmed_investigator_affiliations</title>
<polygon fill="#f78152" stroke="none" points="805,-120.25 586.75,-120.25 586.75,-15.75 805,-15.75 805,-120.25"/>
<text text-anchor="start" x="589.75" y="-104.95" font-family="Arial" font-weight="bold" font-size="14.00">pubmed_investigator_affiliations</text>
<text text-anchor="start" x="652.38" y="-84.2" font-family="Arial" font-size="14.00">id</text>
<text text-anchor="start" x="652.38" y="-68.45" font-family="Arial" font-size="14.00">container_id</text>
<text text-anchor="start" x="652.38" y="-52.7" font-family="Arial" font-size="14.00">investigator_id</text>
<text text-anchor="start" x="652.38" y="-36.95" font-family="Arial" font-size="14.00">affiliation</text>
<text text-anchor="start" x="652.38" y="-21.2" font-family="Arial" font-size="14.00">identifier</text>
<polygon fill="black" stroke="black" points="586.75,-99.5 586.75,-99.5 805,-99.5 805,-99.5 586.75,-99.5"/>
<polygon fill="none" stroke="black" points="586.75,-15.75 586.75,-120.25 805,-120.25 805,-15.75 586.75,-15.75"/>
</g>
<!-- pubmed_investigators&#45;&gt;pubmed_investigator_affiliations -->
<g id="edge16" class="edge">
<title>pubmed_investigators&#45;&gt;pubmed_investigator_affiliations</title>
<path fill="none" stroke="black" d="M695.88,-216.03C695.88,-183.52 695.88,-148.01 695.88,-120.03"/>
<text text-anchor="middle" x="680.12" y="-122.48" font-family="Arial" font-size="14.00">0…N</text>
<text text-anchor="middle" x="692.12" y="-202.73" font-family="Arial" font-size="14.00">1</text>
</g>
<!-- pubmed_other_abstract_texts -->
<g id="node19" class="node">
<title>pubmed_other_abstract_texts</title>
<polygon fill="#f78152" stroke="none" points="1207.62,-136 1008.12,-136 1008.12,0 1207.62,0 1207.62,-136"/>
<text text-anchor="start" x="1011.12" y="-120.7" font-family="Arial" font-weight="bold" font-size="14.00">pubmed_other_abstract_texts</text>
<text text-anchor="start" x="1043" y="-99.95" font-family="Arial" font-size="14.00">id</text>
<text text-anchor="start" x="1043" y="-84.2" font-family="Arial" font-size="14.00">container_id</text>
<text text-anchor="start" x="1043" y="-68.45" font-family="Arial" font-size="14.00">abstract_id</text>
<text text-anchor="start" x="1043" y="-52.7" font-family="Arial" font-size="14.00">text</text>
<text text-anchor="start" x="1043" y="-36.95" font-family="Arial" font-size="14.00">label</text>
<text text-anchor="start" x="1043" y="-21.2" font-family="Arial" font-size="14.00">nlm_category</text>
<text text-anchor="start" x="1043" y="-5.45" font-family="Arial" font-size="14.00">copyright_information</text>
<polygon fill="black" stroke="black" points="1008.12,-115.25 1008.12,-115.25 1207.62,-115.25 1207.62,-115.25 1008.12,-115.25"/>
<polygon fill="none" stroke="black" points="1008.12,0 1008.12,-136 1207.62,-136 1207.62,0 1008.12,0"/>
</g>
<!-- pubmed_other_abstracts&#45;&gt;pubmed_other_abstract_texts -->
<g id="edge18" class="edge">
<title>pubmed_other_abstracts&#45;&gt;pubmed_other_abstract_texts</title>
<path fill="none" stroke="black" d="M1107.88,-255.26C1107.88,-220.35 1107.88,-173.78 1107.88,-135.95"/>
<text text-anchor="middle" x="1092.12" y="-138.4" font-family="Arial" font-size="14.00">0…N</text>
<text text-anchor="middle" x="1104.12" y="-241.96" font-family="Arial" font-size="14.00">1</text>
</g>
<!-- pubmed_data_bank_accessions -->
<g id="node18" class="node">
<title>pubmed_data_bank_accessions</title>
<polygon fill="#f78152" stroke="none" points="1513.75,-112.38 1300,-112.38 1300,-23.62 1513.75,-23.62 1513.75,-112.38"/>
<text text-anchor="start" x="1303" y="-97.08" font-family="Arial" font-weight="bold" font-size="14.00">pubmed_data_bank_accessions</text>
<text text-anchor="start" x="1349.88" y="-76.33" font-family="Arial" font-size="14.00">id</text>
<text text-anchor="start" x="1349.88" y="-60.58" font-family="Arial" font-size="14.00">container_id</text>
<text text-anchor="start" x="1349.88" y="-44.83" font-family="Arial" font-size="14.00">data_bank_id</text>
<text text-anchor="start" x="1349.88" y="-29.07" font-family="Arial" font-size="14.00">accession_number</text>
<polygon fill="black" stroke="black" points="1300,-91.62 1300,-91.62 1513.75,-91.62 1513.75,-91.62 1300,-91.62"/>
<polygon fill="none" stroke="black" points="1300,-23.62 1300,-112.38 1513.75,-112.38 1513.75,-23.62 1300,-23.62"/>
</g>
<!-- pubmed_data_banks&#45;&gt;pubmed_data_bank_accessions -->
<g id="edge17" class="edge">
<title>pubmed_data_banks&#45;&gt;pubmed_data_bank_accessions</title>
<path fill="none" stroke="black" d="M1406.88,-263.21C1406.88,-220.27 1406.88,-154.83 1406.88,-111.99"/>
<text text-anchor="middle" x="1391.12" y="-114.44" font-family="Arial" font-size="14.00">0…N</text>
<text text-anchor="middle" x="1403.12" y="-249.91" font-family="Arial" font-size="14.00">1</text>
</g>
<!-- pubmed_reference_articles -->
<g id="node20" class="node">
<title>pubmed_reference_articles</title>
<polygon fill="#f78152" stroke="none" points="2256,-120.25 2073.75,-120.25 2073.75,-15.75 2256,-15.75 2256,-120.25"/>
<text text-anchor="start" x="2076.75" y="-104.95" font-family="Arial" font-weight="bold" font-size="14.00">pubmed_reference_articles</text>
<text text-anchor="start" x="2127.38" y="-84.2" font-family="Arial" font-size="14.00">id</text>
<text text-anchor="start" x="2127.38" y="-68.45" font-family="Arial" font-size="14.00">container_id</text>
<text text-anchor="start" x="2127.38" y="-52.7" font-family="Arial" font-size="14.00">reference_id</text>
<text text-anchor="start" x="2127.38" y="-36.95" font-family="Arial" font-size="14.00">article_id</text>
<text text-anchor="start" x="2127.38" y="-21.2" font-family="Arial" font-size="14.00">id_type</text>
<polygon fill="black" stroke="black" points="2073.75,-99.5 2073.75,-99.5 2256,-99.5 2256,-99.5 2073.75,-99.5"/>
<polygon fill="none" stroke="black" points="2073.75,-15.75 2073.75,-120.25 2256,-120.25 2256,-15.75 2073.75,-15.75"/>
</g>
<!-- pubmed_references&#45;&gt;pubmed_reference_articles -->
<g id="edge19" class="edge">
<title>pubmed_references&#45;&gt;pubmed_reference_articles</title>
<path fill="none" stroke="black" d="M2164.88,-263.21C2164.88,-222.94 2164.88,-162.9 2164.88,-120.25"/>
<text text-anchor="middle" x="2149.12" y="-122.7" font-family="Arial" font-size="14.00">0…N</text>
<text text-anchor="middle" x="2161.12" y="-249.91" font-family="Arial" font-size="14.00">1</text>
</g>
</g>
</svg>
