<?xml version="1.0" encoding="UTF-8" standalone="no"?>
<!DOCTYPE svg PUBLIC "-//W3C//DTD SVG 1.1//EN"
 "http://www.w3.org/Graphics/SVG/1.1/DTD/svg11.dtd">
<!-- Generated by graphviz version 2.43.0 (0)
 -->
<!-- Title: D Pages: 1 -->
<svg width="839pt" height="370pt"
 viewBox="0.00 0.00 839.00 370.00" xmlns="http://www.w3.org/2000/svg" xmlns:xlink="http://www.w3.org/1999/xlink">
<g id="graph0" class="graph" transform="scale(1 1) rotate(0) translate(4 366)">
<title>D</title>
<polygon fill="white" stroke="transparent" points="-4,4 -4,-366 835,-366 835,4 -4,4"/>
<!-- research_organizations -->
<g id="node1" class="node">
<title>research_organizations</title>
<polygon fill="#53baa1" stroke="transparent" points="454,-362 296,-362 296,-157 454,-157 454,-362"/>
<text text-anchor="start" x="299" y="-348.3" font-family="Arial" font-weight="bold" font-size="14.00" fill="#000000">research_organizations</text>
<text text-anchor="start" x="306.5" y="-328.3" font-family="Arial" font-size="14.00" fill="#000000">id</text>
<text text-anchor="start" x="306.5" y="-313.3" font-family="Arial" font-size="14.00" fill="#000000">ror_path</text>
<text text-anchor="start" x="306.5" y="-298.3" font-family="Arial" font-size="14.00" fill="#000000">name</text>
<text text-anchor="start" x="306.5" y="-283.3" font-family="Arial" font-size="14.00" fill="#000000">status</text>
<text text-anchor="start" x="306.5" y="-268.3" font-family="Arial" font-size="14.00" fill="#000000">established</text>
<text text-anchor="start" x="306.5" y="-253.3" font-family="Arial" font-size="14.00" fill="#000000">grid</text>
<text text-anchor="start" x="306.5" y="-238.3" font-family="Arial" font-size="14.00" fill="#000000">address_city</text>
<text text-anchor="start" x="306.5" y="-223.3" font-family="Arial" font-size="14.00" fill="#000000">address_state</text>
<text text-anchor="start" x="306.5" y="-208.3" font-family="Arial" font-size="14.00" fill="#000000">address_postcode</text>
<text text-anchor="start" x="306.5" y="-193.3" font-family="Arial" font-size="14.00" fill="#000000">address_country_code</text>
<text text-anchor="start" x="306.5" y="-178.3" font-family="Arial" font-size="14.00" fill="#000000">address_lat</text>
<text text-anchor="start" x="306.5" y="-163.3" font-family="Arial" font-size="14.00" fill="#000000">address_lng</text>
<polygon fill="black" stroke="black" points="296,-341.5 296,-341.5 454,-341.5 454,-341.5 296,-341.5"/>
<polygon fill="none" stroke="black" points="296,-157 296,-362 454,-362 454,-157 296,-157"/>
</g>
<!-- ror_types -->
<g id="node2" class="node">
<title>ror_types</title>
<polygon fill="#53baa1" stroke="transparent" points="68,-77.5 0,-77.5 0,-7.5 68,-7.5 68,-77.5"/>
<text text-anchor="start" x="3" y="-64.3" font-family="Arial" font-weight="bold" font-size="14.00" fill="#000000">ror_types</text>
<text text-anchor="start" x="16.5" y="-44.3" font-family="Arial" font-size="14.00" fill="#000000">id</text>
<text text-anchor="start" x="16.5" y="-29.3" font-family="Arial" font-size="14.00" fill="#000000">ror_id</text>
<text text-anchor="start" x="16.5" y="-14.3" font-family="Arial" font-size="14.00" fill="#000000">type</text>
<polygon fill="black" stroke="black" points="0,-57.5 0,-57.5 68,-57.5 68,-57.5 0,-57.5"/>
<polygon fill="none" stroke="black" points="0,-7.5 0,-77.5 68,-77.5 68,-7.5 0,-7.5"/>
</g>
<!-- research_organizations&#45;&gt;ror_types -->
<g id="edge1" class="edge">
<title>research_organizations&#45;&gt;ror_types</title>
<path fill="none" stroke="black" d="M295.84,-219.13C233.84,-186.74 146.72,-137.72 77,-85 74.02,-82.75 71.03,-80.31 68.09,-77.78"/>
<text text-anchor="middle" x="52.09" y="-81.58" font-family="Arial" font-size="14.00">1…N</text>
<text text-anchor="middle" x="291.84" y="-222.93" font-family="Arial" font-size="14.00">1</text>
</g>
<!-- ror_links -->
<g id="node3" class="node">
<title>ror_links</title>
<polygon fill="#53baa1" stroke="transparent" points="150,-77.5 86,-77.5 86,-7.5 150,-7.5 150,-77.5"/>
<text text-anchor="start" x="89" y="-64.3" font-family="Arial" font-weight="bold" font-size="14.00" fill="#000000">ror_links</text>
<text text-anchor="start" x="100.5" y="-44.3" font-family="Arial" font-size="14.00" fill="#000000">id</text>
<text text-anchor="start" x="100.5" y="-29.3" font-family="Arial" font-size="14.00" fill="#000000">ror_id</text>
<text text-anchor="start" x="100.5" y="-14.3" font-family="Arial" font-size="14.00" fill="#000000">link</text>
<polygon fill="black" stroke="black" points="86,-57.5 86,-57.5 150,-57.5 150,-57.5 86,-57.5"/>
<polygon fill="none" stroke="black" points="86,-7.5 86,-77.5 150,-77.5 150,-7.5 86,-7.5"/>
</g>
<!-- research_organizations&#45;&gt;ror_links -->
<g id="edge2" class="edge">
<title>research_organizations&#45;&gt;ror_links</title>
<path fill="none" stroke="black" d="M295.99,-198.56C254.29,-166.06 202.84,-124.55 159,-85 156.14,-82.42 153.23,-79.69 150.34,-76.92"/>
<text text-anchor="middle" x="166.34" y="-80.72" font-family="Arial" font-size="14.00">0…N</text>
<text text-anchor="middle" x="291.99" y="-202.36" font-family="Arial" font-size="14.00">1</text>
</g>
<!-- ror_aliases -->
<g id="node4" class="node">
<title>ror_aliases</title>
<polygon fill="#53baa1" stroke="transparent" points="246,-77.5 168,-77.5 168,-7.5 246,-7.5 246,-77.5"/>
<text text-anchor="start" x="171" y="-64.3" font-family="Arial" font-weight="bold" font-size="14.00" fill="#000000">ror_aliases</text>
<text text-anchor="start" x="189.5" y="-44.3" font-family="Arial" font-size="14.00" fill="#000000">id</text>
<text text-anchor="start" x="189.5" y="-29.3" font-family="Arial" font-size="14.00" fill="#000000">ror_id</text>
<text text-anchor="start" x="189.5" y="-14.3" font-family="Arial" font-size="14.00" fill="#000000">alias</text>
<polygon fill="black" stroke="black" points="168,-57.5 168,-57.5 246,-57.5 246,-57.5 168,-57.5"/>
<polygon fill="none" stroke="black" points="168,-7.5 168,-77.5 246,-77.5 246,-7.5 168,-7.5"/>
</g>
<!-- research_organizations&#45;&gt;ror_aliases -->
<g id="edge3" class="edge">
<title>research_organizations&#45;&gt;ror_aliases</title>
<path fill="none" stroke="black" d="M295.92,-157.3C273.62,-128.76 250.86,-99.63 233.95,-77.99"/>
<text text-anchor="middle" x="217.95" y="-81.79" font-family="Arial" font-size="14.00">0…N</text>
<text text-anchor="middle" x="291.92" y="-161.1" font-family="Arial" font-size="14.00">1</text>
</g>
<!-- ror_acronyms -->
<g id="node5" class="node">
<title>ror_acronyms</title>
<polygon fill="#53baa1" stroke="transparent" points="361.5,-77.5 264.5,-77.5 264.5,-7.5 361.5,-7.5 361.5,-77.5"/>
<text text-anchor="start" x="268" y="-64.3" font-family="Arial" font-weight="bold" font-size="14.00" fill="#000000">ror_acronyms</text>
<text text-anchor="start" x="287" y="-44.3" font-family="Arial" font-size="14.00" fill="#000000">id</text>
<text text-anchor="start" x="287" y="-29.3" font-family="Arial" font-size="14.00" fill="#000000">ror_id</text>
<text text-anchor="start" x="287" y="-14.3" font-family="Arial" font-size="14.00" fill="#000000">acronym</text>
<polygon fill="black" stroke="black" points="265,-57.5 265,-57.5 362,-57.5 362,-57.5 265,-57.5"/>
<polygon fill="none" stroke="black" points="264.5,-7.5 264.5,-77.5 361.5,-77.5 361.5,-7.5 264.5,-7.5"/>
</g>
<!-- research_organizations&#45;&gt;ror_acronyms -->
<g id="edge4" class="edge">
<title>research_organizations&#45;&gt;ror_acronyms</title>
<path fill="none" stroke="black" d="M345.72,-156.98C337.51,-128.49 329.13,-99.45 322.91,-77.87"/>
<text text-anchor="middle" x="306.91" y="-81.67" font-family="Arial" font-size="14.00">0…N</text>
<text text-anchor="middle" x="341.72" y="-145.78" font-family="Arial" font-size="14.00">1</text>
</g>
<!-- ror_relationships -->
<g id="node6" class="node">
<title>ror_relationships</title>
<polygon fill="#53baa1" stroke="transparent" points="496.5,-85 379.5,-85 379.5,0 496.5,0 496.5,-85"/>
<text text-anchor="start" x="383" y="-71.3" font-family="Arial" font-weight="bold" font-size="14.00" fill="#000000">ror_relationships</text>
<text text-anchor="start" x="413" y="-51.3" font-family="Arial" font-size="14.00" fill="#000000">id</text>
<text text-anchor="start" x="413" y="-36.3" font-family="Arial" font-size="14.00" fill="#000000">ror_id</text>
<text text-anchor="start" x="413" y="-21.3" font-family="Arial" font-size="14.00" fill="#000000">type</text>
<text text-anchor="start" x="413" y="-6.3" font-family="Arial" font-size="14.00" fill="#000000">ror_path</text>
<polygon fill="black" stroke="black" points="380,-64.5 380,-64.5 497,-64.5 497,-64.5 380,-64.5"/>
<polygon fill="none" stroke="black" points="379.5,0 379.5,-85 496.5,-85 496.5,0 379.5,0"/>
</g>
<!-- research_organizations&#45;&gt;ror_relationships -->
<g id="edge5" class="edge">
<title>research_organizations&#45;&gt;ror_relationships</title>
<path fill="none" stroke="black" d="M404.75,-156.98C412.2,-131.54 419.79,-105.65 425.83,-85.03"/>
<text text-anchor="middle" x="409.83" y="-88.83" font-family="Arial" font-size="14.00">0…N</text>
<text text-anchor="middle" x="400.75" y="-145.78" font-family="Arial" font-size="14.00">1</text>
</g>
<!-- ror_funder_ids -->
<g id="node7" class="node">
<title>ror_funder_ids</title>
<polygon fill="#53baa1" stroke="transparent" points="617,-77.5 515,-77.5 515,-7.5 617,-7.5 617,-77.5"/>
<text text-anchor="start" x="518" y="-64.3" font-family="Arial" font-weight="bold" font-size="14.00" fill="#000000">ror_funder_ids</text>
<text text-anchor="start" x="537.5" y="-44.3" font-family="Arial" font-size="14.00" fill="#000000">id</text>
<text text-anchor="start" x="537.5" y="-29.3" font-family="Arial" font-size="14.00" fill="#000000">ror_id</text>
<text text-anchor="start" x="537.5" y="-14.3" font-family="Arial" font-size="14.00" fill="#000000">funder_id</text>
<polygon fill="black" stroke="black" points="515,-57.5 515,-57.5 617,-57.5 617,-57.5 515,-57.5"/>
<polygon fill="none" stroke="black" points="515,-7.5 515,-77.5 617,-77.5 617,-7.5 515,-7.5"/>
</g>
<!-- research_organizations&#45;&gt;ror_funder_ids -->
<g id="edge6" class="edge">
<title>research_organizations&#45;&gt;ror_funder_ids</title>
<path fill="none" stroke="black" d="M454.07,-169.5C482.8,-137.15 513.58,-102.5 535.58,-77.74"/>
<text text-anchor="middle" x="519.58" y="-81.54" font-family="Arial" font-size="14.00">0…N</text>
<text text-anchor="middle" x="458.07" y="-173.3" font-family="Arial" font-size="14.00">1</text>
</g>
<!-- ror_wikidata_ids -->
<g id="node8" class="node">
<title>ror_wikidata_ids</title>
<polygon fill="#53baa1" stroke="transparent" points="749,-77.5 635,-77.5 635,-7.5 749,-7.5 749,-77.5"/>
<text text-anchor="start" x="638" y="-64.3" font-family="Arial" font-weight="bold" font-size="14.00" fill="#000000">ror_wikidata_ids</text>
<text text-anchor="start" x="658.5" y="-44.3" font-family="Arial" font-size="14.00" fill="#000000">id</text>
<text text-anchor="start" x="658.5" y="-29.3" font-family="Arial" font-size="14.00" fill="#000000">ror_id</text>
<text text-anchor="start" x="658.5" y="-14.3" font-family="Arial" font-size="14.00" fill="#000000">wikidata_id</text>
<polygon fill="black" stroke="black" points="635,-57.5 635,-57.5 749,-57.5 749,-57.5 635,-57.5"/>
<polygon fill="none" stroke="black" points="635,-7.5 635,-77.5 749,-77.5 749,-7.5 635,-7.5"/>
</g>
<!-- research_organizations&#45;&gt;ror_wikidata_ids -->
<g id="edge7" class="edge">
<title>research_organizations&#45;&gt;ror_wikidata_ids</title>
<path fill="none" stroke="black" d="M454.17,-204.8C512.86,-165 591.09,-111.94 641.51,-77.75"/>
<text text-anchor="middle" x="625.51" y="-81.55" font-family="Arial" font-size="14.00">0…N</text>
<text text-anchor="middle" x="458.17" y="-208.6" font-family="Arial" font-size="14.00">1</text>
</g>
<!-- ror_isnis -->
<g id="node9" class="node">
<title>ror_isnis</title>
<polygon fill="#53baa1" stroke="transparent" points="831,-77.5 767,-77.5 767,-7.5 831,-7.5 831,-77.5"/>
<text text-anchor="start" x="770" y="-64.3" font-family="Arial" font-weight="bold" font-size="14.00" fill="#000000">ror_isnis</text>
<text text-anchor="start" x="781.5" y="-44.3" font-family="Arial" font-size="14.00" fill="#000000">id</text>
<text text-anchor="start" x="781.5" y="-29.3" font-family="Arial" font-size="14.00" fill="#000000">ror_id</text>
<text text-anchor="start" x="781.5" y="-14.3" font-family="Arial" font-size="14.00" fill="#000000">isni</text>
<polygon fill="black" stroke="black" points="767,-57.5 767,-57.5 831,-57.5 831,-57.5 767,-57.5"/>
<polygon fill="none" stroke="black" points="767,-7.5 767,-77.5 831,-77.5 831,-7.5 767,-7.5"/>
</g>
<!-- research_organizations&#45;&gt;ror_isnis -->
<g id="edge8" class="edge">
<title>research_organizations&#45;&gt;ror_isnis</title>
<path fill="none" stroke="black" d="M454.24,-232.31C534.94,-203.48 661.56,-152.17 758,-85 761.16,-82.8 764.28,-80.34 767.31,-77.74"/>
<text text-anchor="middle" x="751.31" y="-81.54" font-family="Arial" font-size="14.00">0…N</text>
<text text-anchor="middle" x="458.24" y="-236.11" font-family="Arial" font-size="14.00">1</text>
</g>
</g>
</svg>
