<?xml version="1.0" encoding="UTF-8" standalone="no"?>
<!DOCTYPE svg PUBLIC "-//W3C//DTD SVG 1.1//EN"
 "http://www.w3.org/Graphics/SVG/1.1/DTD/svg11.dtd">
<!-- Generated by graphviz version 9.0.0 (20230911.1827)
 -->
<!-- Title: D Pages: 1 -->
<svg width="832pt" height="384pt"
 viewBox="0.00 0.00 832.25 383.50" xmlns="http://www.w3.org/2000/svg" xmlns:xlink="http://www.w3.org/1999/xlink">
<g id="graph0" class="graph" transform="scale(1 1) rotate(0) translate(4 379.5)">
<title>D</title>
<polygon fill="white" stroke="none" points="-4,4 -4,-379.5 828.25,-379.5 828.25,4 -4,4"/>
<!-- research_organizations -->
<g id="node1" class="node">
<title>research_organizations</title>
<polygon fill="#53baa1" stroke="none" points="450.5,-375.5 293,-375.5 293,-160.75 450.5,-160.75 450.5,-375.5"/>
<text text-anchor="start" x="296" y="-360.2" font-family="Arial" font-weight="bold" font-size="14.00">research_organizations</text>
<text text-anchor="start" x="303.5" y="-339.45" font-family="Arial" font-size="14.00">id</text>
<text text-anchor="start" x="303.5" y="-323.7" font-family="Arial" font-size="14.00">ror_path</text>
<text text-anchor="start" x="303.5" y="-307.95" font-family="Arial" font-size="14.00">name</text>
<text text-anchor="start" x="303.5" y="-292.2" font-family="Arial" font-size="14.00">status</text>
<text text-anchor="start" x="303.5" y="-276.45" font-family="Arial" font-size="14.00">established</text>
<text text-anchor="start" x="303.5" y="-260.7" font-family="Arial" font-size="14.00">grid</text>
<text text-anchor="start" x="303.5" y="-244.95" font-family="Arial" font-size="14.00">address_city</text>
<text text-anchor="start" x="303.5" y="-229.2" font-family="Arial" font-size="14.00">address_state</text>
<text text-anchor="start" x="303.5" y="-213.45" font-family="Arial" font-size="14.00">address_postcode</text>
<text text-anchor="start" x="303.5" y="-197.7" font-family="Arial" font-size="14.00">address_country_code</text>
<text text-anchor="start" x="303.5" y="-181.95" font-family="Arial" font-size="14.00">address_lat</text>
<text text-anchor="start" x="303.5" y="-166.2" font-family="Arial" font-size="14.00">address_lng</text>
<polygon fill="black" stroke="black" points="293,-354.75 293,-354.75 450.5,-354.75 450.5,-354.75 293,-354.75"/>
<polygon fill="none" stroke="black" points="293,-160.75 293,-375.5 450.5,-375.5 450.5,-160.75 293,-160.75"/>
</g>
<!-- ror_types -->
<g id="node2" class="node">
<title>ror_types</title>
<polygon fill="#53baa1" stroke="none" points="67.5,-80.88 0,-80.88 0,-7.88 67.5,-7.88 67.5,-80.88"/>
<text text-anchor="start" x="3" y="-65.58" font-family="Arial" font-weight="bold" font-size="14.00">ror_types</text>
<text text-anchor="start" x="16.5" y="-44.83" font-family="Arial" font-size="14.00">id</text>
<text text-anchor="start" x="16.5" y="-29.07" font-family="Arial" font-size="14.00">ror_id</text>
<text text-anchor="start" x="16.5" y="-13.32" font-family="Arial" font-size="14.00">type</text>
<polygon fill="black" stroke="black" points="0,-60.12 0,-60.12 67.5,-60.12 67.5,-60.12 0,-60.12"/>
<polygon fill="none" stroke="black" points="0,-7.88 0,-80.88 67.5,-80.88 67.5,-7.88 0,-7.88"/>
</g>
<!-- research_organizations&#45;&gt;ror_types -->
<g id="edge1" class="edge">
<title>research_organizations&#45;&gt;ror_types</title>
<path fill="none" stroke="black" d="M293.05,-227C231.24,-193.8 144.42,-143.37 75.75,-88.75 72.63,-86.27 69.52,-83.57 66.47,-80.77"/>
<text text-anchor="middle" x="50.72" y="-83.22" font-family="Arial" font-size="14.00">1…N</text>
<text text-anchor="middle" x="289.3" y="-229.45" font-family="Arial" font-size="14.00">1</text>
</g>
<!-- ror_links -->
<g id="node3" class="node">
<title>ror_links</title>
<polygon fill="#53baa1" stroke="none" points="148.25,-80.88 85.25,-80.88 85.25,-7.88 148.25,-7.88 148.25,-80.88"/>
<text text-anchor="start" x="88.25" y="-65.58" font-family="Arial" font-weight="bold" font-size="14.00">ror_links</text>
<text text-anchor="start" x="99.5" y="-44.83" font-family="Arial" font-size="14.00">id</text>
<text text-anchor="start" x="99.5" y="-29.07" font-family="Arial" font-size="14.00">ror_id</text>
<text text-anchor="start" x="99.5" y="-13.32" font-family="Arial" font-size="14.00">link</text>
<polygon fill="black" stroke="black" points="85.25,-60.12 85.25,-60.12 148.25,-60.12 148.25,-60.12 85.25,-60.12"/>
<polygon fill="none" stroke="black" points="85.25,-7.88 85.25,-80.88 148.25,-80.88 148.25,-7.88 85.25,-7.88"/>
</g>
<!-- research_organizations&#45;&gt;ror_links -->
<g id="edge2" class="edge">
<title>research_organizations&#45;&gt;ror_links</title>
<path fill="none" stroke="black" d="M293.25,-206.17C251.55,-172.77 200.11,-129.9 156.75,-88.75 153.93,-86.07 151.06,-83.23 148.22,-80.34"/>
<text text-anchor="middle" x="132.47" y="-82.79" font-family="Arial" font-size="14.00">0…N</text>
<text text-anchor="middle" x="289.5" y="-208.62" font-family="Arial" font-size="14.00">1</text>
</g>
<!-- ror_aliases -->
<g id="node4" class="node">
<title>ror_aliases</title>
<polygon fill="#53baa1" stroke="none" points="243.38,-80.88 166.12,-80.88 166.12,-7.88 243.38,-7.88 243.38,-80.88"/>
<text text-anchor="start" x="169.12" y="-65.58" font-family="Arial" font-weight="bold" font-size="14.00">ror_aliases</text>
<text text-anchor="start" x="187.5" y="-44.83" font-family="Arial" font-size="14.00">id</text>
<text text-anchor="start" x="187.5" y="-29.07" font-family="Arial" font-size="14.00">ror_id</text>
<text text-anchor="start" x="187.5" y="-13.32" font-family="Arial" font-size="14.00">alias</text>
<polygon fill="black" stroke="black" points="166.12,-60.12 166.12,-60.12 243.38,-60.12 243.38,-60.12 166.12,-60.12"/>
<polygon fill="none" stroke="black" points="166.12,-7.88 166.12,-80.88 243.38,-80.88 243.38,-7.88 166.12,-7.88"/>
</g>
<!-- research_organizations&#45;&gt;ror_aliases -->
<g id="edge3" class="edge">
<title>research_organizations&#45;&gt;ror_aliases</title>
<path fill="none" stroke="black" d="M293.14,-162.74C270.89,-133.2 248.18,-103.04 231.35,-80.69"/>
<text text-anchor="middle" x="215.6" y="-83.14" font-family="Arial" font-size="14.00">0…N</text>
<text text-anchor="middle" x="289.39" y="-165.19" font-family="Arial" font-size="14.00">1</text>
</g>
<!-- ror_acronyms -->
<g id="node5" class="node">
<title>ror_acronyms</title>
<polygon fill="#53baa1" stroke="none" points="358.12,-80.88 261.38,-80.88 261.38,-7.88 358.12,-7.88 358.12,-80.88"/>
<text text-anchor="start" x="264.38" y="-65.58" font-family="Arial" font-weight="bold" font-size="14.00">ror_acronyms</text>
<text text-anchor="start" x="283.5" y="-44.83" font-family="Arial" font-size="14.00">id</text>
<text text-anchor="start" x="283.5" y="-29.07" font-family="Arial" font-size="14.00">ror_id</text>
<text text-anchor="start" x="283.5" y="-13.32" font-family="Arial" font-size="14.00">acronym</text>
<polygon fill="black" stroke="black" points="261.38,-60.12 261.38,-60.12 358.12,-60.12 358.12,-60.12 261.38,-60.12"/>
<polygon fill="none" stroke="black" points="261.38,-7.88 261.38,-80.88 358.12,-80.88 358.12,-7.88 261.38,-7.88"/>
</g>
<!-- research_organizations&#45;&gt;ror_acronyms -->
<g id="edge4" class="edge">
<title>research_organizations&#45;&gt;ror_acronyms</title>
<path fill="none" stroke="black" d="M342.02,-160.8C333.94,-131.9 325.75,-102.58 319.64,-80.73"/>
<text text-anchor="middle" x="303.89" y="-83.18" font-family="Arial" font-size="14.00">0…N</text>
<text text-anchor="middle" x="338.27" y="-147.5" font-family="Arial" font-size="14.00">1</text>
</g>
<!-- ror_relationships -->
<g id="node6" class="node">
<title>ror_relationships</title>
<polygon fill="#53baa1" stroke="none" points="492.88,-88.75 376.62,-88.75 376.62,0 492.88,0 492.88,-88.75"/>
<text text-anchor="start" x="379.62" y="-73.45" font-family="Arial" font-weight="bold" font-size="14.00">ror_relationships</text>
<text text-anchor="start" x="409.62" y="-52.7" font-family="Arial" font-size="14.00">id</text>
<text text-anchor="start" x="409.62" y="-36.95" font-family="Arial" font-size="14.00">ror_id</text>
<text text-anchor="start" x="409.62" y="-21.2" font-family="Arial" font-size="14.00">type</text>
<text text-anchor="start" x="409.62" y="-5.45" font-family="Arial" font-size="14.00">ror_path</text>
<polygon fill="black" stroke="black" points="376.62,-68 376.62,-68 492.88,-68 492.88,-68 376.62,-68"/>
<polygon fill="none" stroke="black" points="376.62,0 376.62,-88.75 492.88,-88.75 492.88,0 376.62,0"/>
</g>
<!-- research_organizations&#45;&gt;ror_relationships -->
<g id="edge5" class="edge">
<title>research_organizations&#45;&gt;ror_relationships</title>
<path fill="none" stroke="black" d="M401.96,-160.8C409.22,-135.23 416.58,-109.34 422.48,-88.58"/>
<text text-anchor="middle" x="406.73" y="-91.03" font-family="Arial" font-size="14.00">0…N</text>
<text text-anchor="middle" x="398.21" y="-147.5" font-family="Arial" font-size="14.00">1</text>
</g>
<!-- ror_funder_ids -->
<g id="node7" class="node">
<title>ror_funder_ids</title>
<polygon fill="#53baa1" stroke="none" points="612.38,-80.88 511.12,-80.88 511.12,-7.88 612.38,-7.88 612.38,-80.88"/>
<text text-anchor="start" x="514.12" y="-65.58" font-family="Arial" font-weight="bold" font-size="14.00">ror_funder_ids</text>
<text text-anchor="start" x="533.62" y="-44.83" font-family="Arial" font-size="14.00">id</text>
<text text-anchor="start" x="533.62" y="-29.07" font-family="Arial" font-size="14.00">ror_id</text>
<text text-anchor="start" x="533.62" y="-13.32" font-family="Arial" font-size="14.00">funder_id</text>
<polygon fill="black" stroke="black" points="511.12,-60.12 511.12,-60.12 612.38,-60.12 612.38,-60.12 511.12,-60.12"/>
<polygon fill="none" stroke="black" points="511.12,-7.88 511.12,-80.88 612.38,-80.88 612.38,-7.88 511.12,-7.88"/>
</g>
<!-- research_organizations&#45;&gt;ror_funder_ids -->
<g id="edge6" class="edge">
<title>research_organizations&#45;&gt;ror_funder_ids</title>
<path fill="none" stroke="black" d="M450.4,-175.33C478.99,-141.97 509.61,-106.23 531.49,-80.69"/>
<text text-anchor="middle" x="515.74" y="-83.14" font-family="Arial" font-size="14.00">0…N</text>
<text text-anchor="middle" x="454.15" y="-177.78" font-family="Arial" font-size="14.00">1</text>
</g>
<!-- ror_wikidata_ids -->
<g id="node8" class="node">
<title>ror_wikidata_ids</title>
<polygon fill="#53baa1" stroke="none" points="743.38,-80.88 630.12,-80.88 630.12,-7.88 743.38,-7.88 743.38,-80.88"/>
<text text-anchor="start" x="633.12" y="-65.58" font-family="Arial" font-weight="bold" font-size="14.00">ror_wikidata_ids</text>
<text text-anchor="start" x="653.38" y="-44.83" font-family="Arial" font-size="14.00">id</text>
<text text-anchor="start" x="653.38" y="-29.07" font-family="Arial" font-size="14.00">ror_id</text>
<text text-anchor="start" x="653.38" y="-13.32" font-family="Arial" font-size="14.00">wikidata_id</text>
<polygon fill="black" stroke="black" points="630.12,-60.12 630.12,-60.12 743.38,-60.12 743.38,-60.12 630.12,-60.12"/>
<polygon fill="none" stroke="black" points="630.12,-7.88 630.12,-80.88 743.38,-80.88 743.38,-7.88 630.12,-7.88"/>
</g>
<!-- research_organizations&#45;&gt;ror_wikidata_ids -->
<g id="edge7" class="edge">
<title>research_organizations&#45;&gt;ror_wikidata_ids</title>
<path fill="none" stroke="black" d="M450.43,-211.74C508.74,-170.69 586.47,-115.97 636.58,-80.7"/>
<text text-anchor="middle" x="620.83" y="-83.15" font-family="Arial" font-size="14.00">0…N</text>
<text text-anchor="middle" x="454.18" y="-214.19" font-family="Arial" font-size="14.00">1</text>
</g>
<!-- ror_isnis -->
<g id="node9" class="node">
<title>ror_isnis</title>
<polygon fill="#53baa1" stroke="none" points="824.25,-80.88 761.25,-80.88 761.25,-7.88 824.25,-7.88 824.25,-80.88"/>
<text text-anchor="start" x="764.25" y="-65.58" font-family="Arial" font-weight="bold" font-size="14.00">ror_isnis</text>
<text text-anchor="start" x="775.5" y="-44.83" font-family="Arial" font-size="14.00">id</text>
<text text-anchor="start" x="775.5" y="-29.07" font-family="Arial" font-size="14.00">ror_id</text>
<text text-anchor="start" x="775.5" y="-13.32" font-family="Arial" font-size="14.00">isni</text>
<polygon fill="black" stroke="black" points="761.25,-60.12 761.25,-60.12 824.25,-60.12 824.25,-60.12 761.25,-60.12"/>
<polygon fill="none" stroke="black" points="761.25,-7.88 761.25,-80.88 824.25,-80.88 824.25,-7.88 761.25,-7.88"/>
</g>
<!-- research_organizations&#45;&gt;ror_isnis -->
<g id="edge8" class="edge">
<title>research_organizations&#45;&gt;ror_isnis</title>
<path fill="none" stroke="black" d="M450.26,-240.63C530.85,-211.18 657.57,-158.42 752.75,-88.75 756.06,-86.33 759.31,-83.61 762.44,-80.74"/>
<text text-anchor="middle" x="746.69" y="-83.19" font-family="Arial" font-size="14.00">0…N</text>
<text text-anchor="middle" x="454.01" y="-243.08" font-family="Arial" font-size="14.00">1</text>
</g>
</g>
</svg>
