<?xml version="1.0" encoding="UTF-8" standalone="no"?>
<!DOCTYPE svg PUBLIC "-//W3C//DTD SVG 1.1//EN"
 "http://www.w3.org/Graphics/SVG/1.1/DTD/svg11.dtd">
<!-- Generated by graphviz version 9.0.0 (20230911.1827)
 -->
<!-- Title: D Pages: 1 -->
<svg width="848pt" height="985pt"
 viewBox="0.00 0.00 847.50 985.25" xmlns="http://www.w3.org/2000/svg" xmlns:xlink="http://www.w3.org/1999/xlink">
<g id="graph0" class="graph" transform="scale(1 1) rotate(0) translate(4 981.25)">
<title>D</title>
<polygon fill="white" stroke="none" points="-4,4 -4,-981.25 843.5,-981.25 843.5,4 -4,4"/>
<!-- works -->
<g id="node1" class="node">
<title>works</title>
<polygon fill="#ffc62c" stroke="none" points="528.88,-977.25 378.88,-977.25 378.88,-605 528.88,-605 528.88,-977.25"/>
<text text-anchor="start" x="434" y="-961.95" font-family="Arial" font-weight="bold" font-size="14.00">works</text>
<text text-anchor="start" x="381.88" y="-941.2" font-family="Arial" font-size="14.00">id</text>
<text text-anchor="start" x="381.88" y="-925.45" font-family="Arial" font-size="14.00">container_id</text>
<text text-anchor="start" x="381.88" y="-909.7" font-family="Arial" font-size="14.00">doi</text>
<text text-anchor="start" x="381.88" y="-893.95" font-family="Arial" font-size="14.00">title</text>
<text text-anchor="start" x="381.88" y="-878.2" font-family="Arial" font-size="14.00">published_year</text>
<text text-anchor="start" x="381.88" y="-862.45" font-family="Arial" font-size="14.00">published_month</text>
<text text-anchor="start" x="381.88" y="-846.7" font-family="Arial" font-size="14.00">published_day</text>
<text text-anchor="start" x="381.88" y="-830.95" font-family="Arial" font-size="14.00">short_container_title</text>
<text text-anchor="start" x="381.88" y="-815.2" font-family="Arial" font-size="14.00">container_title</text>
<text text-anchor="start" x="381.88" y="-799.45" font-family="Arial" font-size="14.00">publisher</text>
<text text-anchor="start" x="381.88" y="-783.7" font-family="Arial" font-size="14.00">abstract</text>
<text text-anchor="start" x="381.88" y="-767.95" font-family="Arial" font-size="14.00">type</text>
<text text-anchor="start" x="381.88" y="-752.2" font-family="Arial" font-size="14.00">subtype</text>
<text text-anchor="start" x="381.88" y="-736.45" font-family="Arial" font-size="14.00">page</text>
<text text-anchor="start" x="381.88" y="-720.7" font-family="Arial" font-size="14.00">volume</text>
<text text-anchor="start" x="381.88" y="-704.95" font-family="Arial" font-size="14.00">article_number</text>
<text text-anchor="start" x="381.88" y="-689.2" font-family="Arial" font-size="14.00">journal_issue</text>
<text text-anchor="start" x="381.88" y="-673.45" font-family="Arial" font-size="14.00">issn_print</text>
<text text-anchor="start" x="381.88" y="-657.7" font-family="Arial" font-size="14.00">issn_electronic</text>
<text text-anchor="start" x="381.88" y="-641.95" font-family="Arial" font-size="14.00">update_count</text>
<text text-anchor="start" x="381.88" y="-626.2" font-family="Arial" font-size="14.00">references_count</text>
<text text-anchor="start" x="381.88" y="-610.45" font-family="Arial" font-size="14.00">is_referenced_by_count</text>
<polygon fill="black" stroke="black" points="378.88,-956.5 378.88,-956.5 528.88,-956.5 528.88,-956.5 378.88,-956.5"/>
<polygon fill="none" stroke="black" points="378.88,-605 378.88,-977.25 528.88,-977.25 528.88,-605 378.88,-605"/>
</g>
<!-- work_authors -->
<g id="node2" class="node">
<title>work_authors</title>
<polygon fill="#ffc62c" stroke="none" points="123.75,-438.5 0,-438.5 0,-239.5 123.75,-239.5 123.75,-438.5"/>
<text text-anchor="start" x="17.25" y="-423.2" font-family="Arial" font-weight="bold" font-size="14.00">work_authors</text>
<text text-anchor="start" x="3" y="-402.45" font-family="Arial" font-size="14.00">id</text>
<text text-anchor="start" x="3" y="-386.7" font-family="Arial" font-size="14.00">container_id</text>
<text text-anchor="start" x="3" y="-370.95" font-family="Arial" font-size="14.00">work_id</text>
<text text-anchor="start" x="3" y="-355.2" font-family="Arial" font-size="14.00">orcid</text>
<text text-anchor="start" x="3" y="-339.45" font-family="Arial" font-size="14.00">suffix</text>
<text text-anchor="start" x="3" y="-323.7" font-family="Arial" font-size="14.00">given</text>
<text text-anchor="start" x="3" y="-307.95" font-family="Arial" font-size="14.00">family</text>
<text text-anchor="start" x="3" y="-292.2" font-family="Arial" font-size="14.00">name</text>
<text text-anchor="start" x="3" y="-276.45" font-family="Arial" font-size="14.00">authenticated_orcid</text>
<text text-anchor="start" x="3" y="-260.7" font-family="Arial" font-size="14.00">prefix</text>
<text text-anchor="start" x="3" y="-244.95" font-family="Arial" font-size="14.00">sequence</text>
<polygon fill="black" stroke="black" points="0,-417.75 0,-417.75 123.75,-417.75 123.75,-417.75 0,-417.75"/>
<polygon fill="none" stroke="black" points="0,-239.5 0,-438.5 123.75,-438.5 123.75,-239.5 0,-239.5"/>
</g>
<!-- works&#45;&gt;work_authors -->
<g id="edge1" class="edge">
<title>works&#45;&gt;work_authors</title>
<path fill="none" stroke="black" d="M379.12,-747.37C306.69,-702.46 198.3,-625.56 131.88,-533 111.72,-504.91 96.79,-470.4 86.01,-438.36"/>
<text text-anchor="middle" x="70.26" y="-440.81" font-family="Arial" font-size="14.00">1…N</text>
<text text-anchor="middle" x="375.37" y="-749.82" font-family="Arial" font-size="14.00">1</text>
</g>
<!-- work_references -->
<g id="node4" class="node">
<title>work_references</title>
<polygon fill="#ffc62c" stroke="none" points="270.38,-533 141.38,-533 141.38,-145 270.38,-145 270.38,-533"/>
<text text-anchor="start" x="151.88" y="-517.7" font-family="Arial" font-weight="bold" font-size="14.00">work_references</text>
<text text-anchor="start" x="144.38" y="-496.95" font-family="Arial" font-size="14.00">work_id</text>
<text text-anchor="start" x="144.38" y="-481.2" font-family="Arial" font-size="14.00">container_id</text>
<text text-anchor="start" x="144.38" y="-465.45" font-family="Arial" font-size="14.00">issn</text>
<text text-anchor="start" x="144.38" y="-449.7" font-family="Arial" font-size="14.00">standards_body</text>
<text text-anchor="start" x="144.38" y="-433.95" font-family="Arial" font-size="14.00">issue</text>
<text text-anchor="start" x="144.38" y="-418.2" font-family="Arial" font-size="14.00">key</text>
<text text-anchor="start" x="144.38" y="-402.45" font-family="Arial" font-size="14.00">series_title</text>
<text text-anchor="start" x="144.38" y="-386.7" font-family="Arial" font-size="14.00">isbn_type</text>
<text text-anchor="start" x="144.38" y="-370.95" font-family="Arial" font-size="14.00">doi_asserted_by</text>
<text text-anchor="start" x="144.38" y="-355.2" font-family="Arial" font-size="14.00">first_page</text>
<text text-anchor="start" x="144.38" y="-339.45" font-family="Arial" font-size="14.00">isbn</text>
<text text-anchor="start" x="144.38" y="-323.7" font-family="Arial" font-size="14.00">doi</text>
<text text-anchor="start" x="144.38" y="-307.95" font-family="Arial" font-size="14.00">component</text>
<text text-anchor="start" x="144.38" y="-292.2" font-family="Arial" font-size="14.00">article_title</text>
<text text-anchor="start" x="144.38" y="-276.45" font-family="Arial" font-size="14.00">volume_title</text>
<text text-anchor="start" x="144.38" y="-260.7" font-family="Arial" font-size="14.00">volume</text>
<text text-anchor="start" x="144.38" y="-244.95" font-family="Arial" font-size="14.00">author</text>
<text text-anchor="start" x="144.38" y="-229.2" font-family="Arial" font-size="14.00">standard_designator</text>
<text text-anchor="start" x="144.38" y="-213.45" font-family="Arial" font-size="14.00">year</text>
<text text-anchor="start" x="144.38" y="-197.7" font-family="Arial" font-size="14.00">unstructured</text>
<text text-anchor="start" x="144.38" y="-181.95" font-family="Arial" font-size="14.00">edition</text>
<text text-anchor="start" x="144.38" y="-166.2" font-family="Arial" font-size="14.00">journal_title</text>
<text text-anchor="start" x="144.38" y="-150.45" font-family="Arial" font-size="14.00">issn_type</text>
<polygon fill="black" stroke="black" points="141.38,-512.25 141.38,-512.25 270.38,-512.25 270.38,-512.25 141.38,-512.25"/>
<polygon fill="none" stroke="black" points="141.38,-145 141.38,-533 270.38,-533 270.38,-145 141.38,-145"/>
</g>
<!-- works&#45;&gt;work_references -->
<g id="edge3" class="edge">
<title>works&#45;&gt;work_references</title>
<path fill="none" stroke="black" d="M378.95,-691.88C345.59,-645.32 307.47,-587.97 278.88,-533 275.98,-527.44 273.14,-521.73 270.37,-515.94"/>
<text text-anchor="middle" x="286.12" y="-518.39" font-family="Arial" font-size="14.00">0…N</text>
<text text-anchor="middle" x="375.2" y="-678.58" font-family="Arial" font-size="14.00">1</text>
</g>
<!-- work_updates -->
<g id="node5" class="node">
<title>work_updates</title>
<polygon fill="#ffc62c" stroke="none" points="385.62,-391.25 288.12,-391.25 288.12,-286.75 385.62,-286.75 385.62,-391.25"/>
<text text-anchor="start" x="291.12" y="-375.95" font-family="Arial" font-weight="bold" font-size="14.00">work_updates</text>
<text text-anchor="start" x="300.12" y="-355.2" font-family="Arial" font-size="14.00">work_id</text>
<text text-anchor="start" x="300.12" y="-339.45" font-family="Arial" font-size="14.00">container_id</text>
<text text-anchor="start" x="300.12" y="-323.7" font-family="Arial" font-size="14.00">label</text>
<text text-anchor="start" x="300.12" y="-307.95" font-family="Arial" font-size="14.00">doi</text>
<text text-anchor="start" x="300.12" y="-292.2" font-family="Arial" font-size="14.00">timestamp</text>
<polygon fill="black" stroke="black" points="288.12,-370.5 288.12,-370.5 385.62,-370.5 385.62,-370.5 288.12,-370.5"/>
<polygon fill="none" stroke="black" points="288.12,-286.75 288.12,-391.25 385.62,-391.25 385.62,-286.75 288.12,-286.75"/>
</g>
<!-- works&#45;&gt;work_updates -->
<g id="edge4" class="edge">
<title>works&#45;&gt;work_updates</title>
<path fill="none" stroke="black" d="M405.78,-605.09C385.61,-527.5 363.74,-443.35 350.17,-391.14"/>
<text text-anchor="middle" x="334.42" y="-393.59" font-family="Arial" font-size="14.00">0…N</text>
<text text-anchor="middle" x="402.03" y="-591.79" font-family="Arial" font-size="14.00">1</text>
</g>
<!-- work_subjects -->
<g id="node6" class="node">
<title>work_subjects</title>
<polygon fill="#ffc62c" stroke="none" points="504.12,-375.5 403.62,-375.5 403.62,-302.5 504.12,-302.5 504.12,-375.5"/>
<text text-anchor="start" x="406.62" y="-360.2" font-family="Arial" font-weight="bold" font-size="14.00">work_subjects</text>
<text text-anchor="start" x="417.12" y="-339.45" font-family="Arial" font-size="14.00">work_id</text>
<text text-anchor="start" x="417.12" y="-323.7" font-family="Arial" font-size="14.00">container_id</text>
<text text-anchor="start" x="417.12" y="-307.95" font-family="Arial" font-size="14.00">name</text>
<polygon fill="black" stroke="black" points="403.62,-354.75 403.62,-354.75 504.12,-354.75 504.12,-354.75 403.62,-354.75"/>
<polygon fill="none" stroke="black" points="403.62,-302.5 403.62,-375.5 504.12,-375.5 504.12,-302.5 403.62,-302.5"/>
</g>
<!-- works&#45;&gt;work_subjects -->
<g id="edge5" class="edge">
<title>works&#45;&gt;work_subjects</title>
<path fill="none" stroke="black" d="M453.88,-605.09C453.88,-519.01 453.88,-424.86 453.88,-375.21"/>
<text text-anchor="middle" x="438.12" y="-377.66" font-family="Arial" font-size="14.00">0…N</text>
<text text-anchor="middle" x="450.12" y="-591.79" font-family="Arial" font-size="14.00">1</text>
</g>
<!-- work_funders -->
<g id="node7" class="node">
<title>work_funders</title>
<polygon fill="#ffc62c" stroke="none" points="617.5,-391.25 522.25,-391.25 522.25,-286.75 617.5,-286.75 617.5,-391.25"/>
<text text-anchor="start" x="525.25" y="-375.95" font-family="Arial" font-weight="bold" font-size="14.00">work_funders</text>
<text text-anchor="start" x="533.12" y="-355.2" font-family="Arial" font-size="14.00">id</text>
<text text-anchor="start" x="533.12" y="-339.45" font-family="Arial" font-size="14.00">container_id</text>
<text text-anchor="start" x="533.12" y="-323.7" font-family="Arial" font-size="14.00">work_id</text>
<text text-anchor="start" x="533.12" y="-307.95" font-family="Arial" font-size="14.00">doi</text>
<text text-anchor="start" x="533.12" y="-292.2" font-family="Arial" font-size="14.00">name</text>
<polygon fill="black" stroke="black" points="522.25,-370.5 522.25,-370.5 617.5,-370.5 617.5,-370.5 522.25,-370.5"/>
<polygon fill="none" stroke="black" points="522.25,-286.75 522.25,-391.25 617.5,-391.25 617.5,-286.75 522.25,-286.75"/>
</g>
<!-- works&#45;&gt;work_funders -->
<g id="edge6" class="edge">
<title>works&#45;&gt;work_funders</title>
<path fill="none" stroke="black" d="M501.56,-605.09C521.56,-527.5 543.24,-443.35 556.7,-391.14"/>
<text text-anchor="middle" x="540.95" y="-393.59" font-family="Arial" font-size="14.00">0…N</text>
<text text-anchor="middle" x="497.81" y="-591.79" font-family="Arial" font-size="14.00">1</text>
</g>
<!-- work_licenses -->
<g id="node8" class="node">
<title>work_licenses</title>
<polygon fill="#ffc62c" stroke="none" points="738.62,-391.25 635.12,-391.25 635.12,-286.75 738.62,-286.75 738.62,-391.25"/>
<text text-anchor="start" x="640.38" y="-375.95" font-family="Arial" font-weight="bold" font-size="14.00">work_licenses</text>
<text text-anchor="start" x="638.12" y="-355.2" font-family="Arial" font-size="14.00">work_id</text>
<text text-anchor="start" x="638.12" y="-339.45" font-family="Arial" font-size="14.00">container_id</text>
<text text-anchor="start" x="638.12" y="-323.7" font-family="Arial" font-size="14.00">url</text>
<text text-anchor="start" x="638.12" y="-307.95" font-family="Arial" font-size="14.00">start_timestamp</text>
<text text-anchor="start" x="638.12" y="-292.2" font-family="Arial" font-size="14.00">delay_in_days</text>
<polygon fill="black" stroke="black" points="635.12,-370.5 635.12,-370.5 738.62,-370.5 738.62,-370.5 635.12,-370.5"/>
<polygon fill="none" stroke="black" points="635.12,-286.75 635.12,-391.25 738.62,-391.25 738.62,-286.75 635.12,-286.75"/>
</g>
<!-- works&#45;&gt;work_licenses -->
<g id="edge7" class="edge">
<title>works&#45;&gt;work_licenses</title>
<path fill="none" stroke="black" d="M528.74,-693.43C562.18,-646.85 600.02,-589.04 626.88,-533 648.94,-486.96 665.3,-430.91 675.32,-391.1"/>
<text text-anchor="middle" x="659.57" y="-393.55" font-family="Arial" font-size="14.00">0…N</text>
<text text-anchor="middle" x="532.49" y="-695.88" font-family="Arial" font-size="14.00">1</text>
</g>
<!-- work_links -->
<g id="node9" class="node">
<title>work_links</title>
<polygon fill="#ffc62c" stroke="none" points="839.5,-383.38 756.25,-383.38 756.25,-294.62 839.5,-294.62 839.5,-383.38"/>
<text text-anchor="start" x="762.62" y="-368.07" font-family="Arial" font-weight="bold" font-size="14.00">work_links</text>
<text text-anchor="start" x="759.25" y="-347.32" font-family="Arial" font-size="14.00">work_id</text>
<text text-anchor="start" x="759.25" y="-331.57" font-family="Arial" font-size="14.00">container_id</text>
<text text-anchor="start" x="759.25" y="-315.82" font-family="Arial" font-size="14.00">url</text>
<text text-anchor="start" x="759.25" y="-300.07" font-family="Arial" font-size="14.00">content_type</text>
<polygon fill="black" stroke="black" points="756.25,-362.62 756.25,-362.62 839.5,-362.62 839.5,-362.62 756.25,-362.62"/>
<polygon fill="none" stroke="black" points="756.25,-294.62 756.25,-383.38 839.5,-383.38 839.5,-294.62 756.25,-294.62"/>
</g>
<!-- works&#45;&gt;work_links -->
<g id="edge8" class="edge">
<title>works&#45;&gt;work_links</title>
<path fill="none" stroke="black" d="M528.63,-743.85C595.93,-698.32 692.51,-622.73 747.88,-533 776.5,-486.61 788.83,-424.24 794.08,-383.12"/>
<text text-anchor="middle" x="778.33" y="-385.57" font-family="Arial" font-size="14.00">0…N</text>
<text text-anchor="middle" x="532.38" y="-730.55" font-family="Arial" font-size="14.00">1</text>
</g>
<!-- author_affiliations -->
<g id="node3" class="node">
<title>author_affiliations</title>
<polygon fill="#ffc62c" stroke="none" points="123.38,-73 0.38,-73 0.38,0 123.38,0 123.38,-73"/>
<text text-anchor="start" x="3.38" y="-57.7" font-family="Arial" font-weight="bold" font-size="14.00">author_affiliations</text>
<text text-anchor="start" x="25.12" y="-36.95" font-family="Arial" font-size="14.00">author_id</text>
<text text-anchor="start" x="25.12" y="-21.2" font-family="Arial" font-size="14.00">container_id</text>
<text text-anchor="start" x="25.12" y="-5.45" font-family="Arial" font-size="14.00">name</text>
<polygon fill="black" stroke="black" points="0.38,-52.25 0.38,-52.25 123.38,-52.25 123.38,-52.25 0.38,-52.25"/>
<polygon fill="none" stroke="black" points="0.38,0 0.38,-73 123.38,-73 123.38,0 0.38,0"/>
</g>
<!-- work_authors&#45;&gt;author_affiliations -->
<g id="edge2" class="edge">
<title>work_authors&#45;&gt;author_affiliations</title>
<path fill="none" stroke="black" d="M61.88,-239.61C61.88,-182.26 61.88,-113.44 61.88,-72.7"/>
<text text-anchor="middle" x="46.12" y="-75.15" font-family="Arial" font-size="14.00">1…N</text>
<text text-anchor="middle" x="58.12" y="-226.31" font-family="Arial" font-size="14.00">1</text>
</g>
<!-- funder_awards -->
<g id="node10" class="node">
<title>funder_awards</title>
<polygon fill="#ffc62c" stroke="none" points="621.25,-73 518.5,-73 518.5,0 621.25,0 621.25,-73"/>
<text text-anchor="start" x="521.5" y="-57.7" font-family="Arial" font-weight="bold" font-size="14.00">funder_awards</text>
<text text-anchor="start" x="533.12" y="-36.95" font-family="Arial" font-size="14.00">funder_id</text>
<text text-anchor="start" x="533.12" y="-21.2" font-family="Arial" font-size="14.00">container_id</text>
<text text-anchor="start" x="533.12" y="-5.45" font-family="Arial" font-size="14.00">name</text>
<polygon fill="black" stroke="black" points="518.5,-52.25 518.5,-52.25 621.25,-52.25 621.25,-52.25 518.5,-52.25"/>
<polygon fill="none" stroke="black" points="518.5,0 518.5,-73 621.25,-73 621.25,0 518.5,0"/>
</g>
<!-- work_funders&#45;&gt;funder_awards -->
<g id="edge9" class="edge">
<title>work_funders&#45;&gt;funder_awards</title>
<path fill="none" stroke="black" d="M569.88,-287.02C569.88,-226.07 569.88,-125.67 569.88,-72.72"/>
<text text-anchor="middle" x="585.62" y="-75.17" font-family="Arial" font-size="14.00">0…N</text>
<text text-anchor="middle" x="573.62" y="-273.72" font-family="Arial" font-size="14.00">1</text>
</g>
</g>
</svg>
