<?xml version="1.0" encoding="UTF-8" standalone="no"?>
<!DOCTYPE svg PUBLIC "-//W3C//DTD SVG 1.1//EN"
 "http://www.w3.org/Graphics/SVG/1.1/DTD/svg11.dtd">
<!-- Generated by graphviz version 2.43.0 (0)
 -->
<!-- Title: D Pages: 1 -->
<svg width="854pt" height="947pt"
 viewBox="0.00 0.00 854.00 947.00" xmlns="http://www.w3.org/2000/svg" xmlns:xlink="http://www.w3.org/1999/xlink">
<g id="graph0" class="graph" transform="scale(1 1) rotate(0) translate(4 943)">
<title>D</title>
<polygon fill="white" stroke="transparent" points="-4,4 -4,-943 850,-943 850,4 -4,4"/>
<!-- works -->
<g id="node1" class="node">
<title>works</title>
<polygon fill="#ffc62c" stroke="transparent" points="532.5,-939 381.5,-939 381.5,-584 532.5,-584 532.5,-939"/>
<text text-anchor="start" x="437.5" y="-925.3" font-family="Arial" font-weight="bold" font-size="14.00" fill="#000000">works</text>
<text text-anchor="start" x="385" y="-905.3" font-family="Arial" font-size="14.00" fill="#000000">id</text>
<text text-anchor="start" x="385" y="-890.3" font-family="Arial" font-size="14.00" fill="#000000">container_id</text>
<text text-anchor="start" x="385" y="-875.3" font-family="Arial" font-size="14.00" fill="#000000">doi</text>
<text text-anchor="start" x="385" y="-860.3" font-family="Arial" font-size="14.00" fill="#000000">title</text>
<text text-anchor="start" x="385" y="-845.3" font-family="Arial" font-size="14.00" fill="#000000">published_year</text>
<text text-anchor="start" x="385" y="-830.3" font-family="Arial" font-size="14.00" fill="#000000">published_month</text>
<text text-anchor="start" x="385" y="-815.3" font-family="Arial" font-size="14.00" fill="#000000">published_day</text>
<text text-anchor="start" x="385" y="-800.3" font-family="Arial" font-size="14.00" fill="#000000">short_container_title</text>
<text text-anchor="start" x="385" y="-785.3" font-family="Arial" font-size="14.00" fill="#000000">container_title</text>
<text text-anchor="start" x="385" y="-770.3" font-family="Arial" font-size="14.00" fill="#000000">publisher</text>
<text text-anchor="start" x="385" y="-755.3" font-family="Arial" font-size="14.00" fill="#000000">abstract</text>
<text text-anchor="start" x="385" y="-740.3" font-family="Arial" font-size="14.00" fill="#000000">type</text>
<text text-anchor="start" x="385" y="-725.3" font-family="Arial" font-size="14.00" fill="#000000">subtype</text>
<text text-anchor="start" x="385" y="-710.3" font-family="Arial" font-size="14.00" fill="#000000">page</text>
<text text-anchor="start" x="385" y="-695.3" font-family="Arial" font-size="14.00" fill="#000000">volume</text>
<text text-anchor="start" x="385" y="-680.3" font-family="Arial" font-size="14.00" fill="#000000">article_number</text>
<text text-anchor="start" x="385" y="-665.3" font-family="Arial" font-size="14.00" fill="#000000">journal_issue</text>
<text text-anchor="start" x="385" y="-650.3" font-family="Arial" font-size="14.00" fill="#000000">issn_print</text>
<text text-anchor="start" x="385" y="-635.3" font-family="Arial" font-size="14.00" fill="#000000">issn_electronic</text>
<text text-anchor="start" x="385" y="-620.3" font-family="Arial" font-size="14.00" fill="#000000">update_count</text>
<text text-anchor="start" x="385" y="-605.3" font-family="Arial" font-size="14.00" fill="#000000">references_count</text>
<text text-anchor="start" x="385" y="-590.3" font-family="Arial" font-size="14.00" fill="#000000">is_referenced_by_count</text>
<polygon fill="black" stroke="black" points="382,-918.5 382,-918.5 533,-918.5 533,-918.5 382,-918.5"/>
<polygon fill="none" stroke="black" points="381.5,-584 381.5,-939 532.5,-939 532.5,-584 381.5,-584"/>
</g>
<!-- work_authors -->
<g id="node2" class="node">
<title>work_authors</title>
<polygon fill="#ffc62c" stroke="transparent" points="124,-422 0,-422 0,-232 124,-232 124,-422"/>
<text text-anchor="start" x="17" y="-408.8" font-family="Arial" font-weight="bold" font-size="14.00" fill="#000000">work_authors</text>
<text text-anchor="start" x="3" y="-388.8" font-family="Arial" font-size="14.00" fill="#000000">id</text>
<text text-anchor="start" x="3" y="-373.8" font-family="Arial" font-size="14.00" fill="#000000">container_id</text>
<text text-anchor="start" x="3" y="-358.8" font-family="Arial" font-size="14.00" fill="#000000">work_id</text>
<text text-anchor="start" x="3" y="-343.8" font-family="Arial" font-size="14.00" fill="#000000">orcid</text>
<text text-anchor="start" x="3" y="-328.8" font-family="Arial" font-size="14.00" fill="#000000">suffix</text>
<text text-anchor="start" x="3" y="-313.8" font-family="Arial" font-size="14.00" fill="#000000">given</text>
<text text-anchor="start" x="3" y="-298.8" font-family="Arial" font-size="14.00" fill="#000000">family</text>
<text text-anchor="start" x="3" y="-283.8" font-family="Arial" font-size="14.00" fill="#000000">name</text>
<text text-anchor="start" x="3" y="-268.8" font-family="Arial" font-size="14.00" fill="#000000">authenticated_orcid</text>
<text text-anchor="start" x="3" y="-253.8" font-family="Arial" font-size="14.00" fill="#000000">prefix</text>
<text text-anchor="start" x="3" y="-238.8" font-family="Arial" font-size="14.00" fill="#000000">sequence</text>
<polygon fill="black" stroke="black" points="0,-402 0,-402 124,-402 124,-402 0,-402"/>
<polygon fill="none" stroke="black" points="0,-232 0,-422 124,-422 124,-232 0,-232"/>
</g>
<!-- works&#45;&gt;work_authors -->
<g id="edge1" class="edge">
<title>works&#45;&gt;work_authors</title>
<path fill="none" stroke="black" d="M381.44,-719.17C308.82,-676.02 200.42,-602.1 133,-512 113.2,-485.54 98.24,-452.89 87.29,-422.47"/>
<text text-anchor="middle" x="71.29" y="-426.27" font-family="Arial" font-size="14.00">1…N</text>
<text text-anchor="middle" x="377.44" y="-722.97" font-family="Arial" font-size="14.00">1</text>
</g>
<!-- work_references -->
<g id="node4" class="node">
<title>work_references</title>
<polygon fill="#ffc62c" stroke="transparent" points="272,-512 142,-512 142,-142 272,-142 272,-512"/>
<text text-anchor="start" x="152.5" y="-498.8" font-family="Arial" font-weight="bold" font-size="14.00" fill="#000000">work_references</text>
<text text-anchor="start" x="145" y="-478.8" font-family="Arial" font-size="14.00" fill="#000000">work_id</text>
<text text-anchor="start" x="145" y="-463.8" font-family="Arial" font-size="14.00" fill="#000000">container_id</text>
<text text-anchor="start" x="145" y="-448.8" font-family="Arial" font-size="14.00" fill="#000000">issn</text>
<text text-anchor="start" x="145" y="-433.8" font-family="Arial" font-size="14.00" fill="#000000">standards_body</text>
<text text-anchor="start" x="145" y="-418.8" font-family="Arial" font-size="14.00" fill="#000000">issue</text>
<text text-anchor="start" x="145" y="-403.8" font-family="Arial" font-size="14.00" fill="#000000">key</text>
<text text-anchor="start" x="145" y="-388.8" font-family="Arial" font-size="14.00" fill="#000000">series_title</text>
<text text-anchor="start" x="145" y="-373.8" font-family="Arial" font-size="14.00" fill="#000000">isbn_type</text>
<text text-anchor="start" x="145" y="-358.8" font-family="Arial" font-size="14.00" fill="#000000">doi_asserted_by</text>
<text text-anchor="start" x="145" y="-343.8" font-family="Arial" font-size="14.00" fill="#000000">first_page</text>
<text text-anchor="start" x="145" y="-328.8" font-family="Arial" font-size="14.00" fill="#000000">isbn</text>
<text text-anchor="start" x="145" y="-313.8" font-family="Arial" font-size="14.00" fill="#000000">doi</text>
<text text-anchor="start" x="145" y="-298.8" font-family="Arial" font-size="14.00" fill="#000000">component</text>
<text text-anchor="start" x="145" y="-283.8" font-family="Arial" font-size="14.00" fill="#000000">article_title</text>
<text text-anchor="start" x="145" y="-268.8" font-family="Arial" font-size="14.00" fill="#000000">volume_title</text>
<text text-anchor="start" x="145" y="-253.8" font-family="Arial" font-size="14.00" fill="#000000">volume</text>
<text text-anchor="start" x="145" y="-238.8" font-family="Arial" font-size="14.00" fill="#000000">author</text>
<text text-anchor="start" x="145" y="-223.8" font-family="Arial" font-size="14.00" fill="#000000">standard_designator</text>
<text text-anchor="start" x="145" y="-208.8" font-family="Arial" font-size="14.00" fill="#000000">year</text>
<text text-anchor="start" x="145" y="-193.8" font-family="Arial" font-size="14.00" fill="#000000">unstructured</text>
<text text-anchor="start" x="145" y="-178.8" font-family="Arial" font-size="14.00" fill="#000000">edition</text>
<text text-anchor="start" x="145" y="-163.8" font-family="Arial" font-size="14.00" fill="#000000">journal_title</text>
<text text-anchor="start" x="145" y="-148.8" font-family="Arial" font-size="14.00" fill="#000000">issn_type</text>
<polygon fill="black" stroke="black" points="142,-492 142,-492 272,-492 272,-492 142,-492"/>
<polygon fill="none" stroke="black" points="142,-142 142,-512 272,-512 272,-142 142,-142"/>
</g>
<!-- works&#45;&gt;work_references -->
<g id="edge3" class="edge">
<title>works&#45;&gt;work_references</title>
<path fill="none" stroke="black" d="M381.48,-665.08C348.08,-620.22 309.92,-565.03 281,-512 277.95,-506.41 274.95,-500.66 272.02,-494.82"/>
<text text-anchor="middle" x="288.02" y="-498.62" font-family="Arial" font-size="14.00">0…N</text>
<text text-anchor="middle" x="377.48" y="-668.88" font-family="Arial" font-size="14.00">1</text>
</g>
<!-- work_updates -->
<g id="node5" class="node">
<title>work_updates</title>
<polygon fill="#ffc62c" stroke="transparent" points="388,-377 290,-377 290,-277 388,-277 388,-377"/>
<text text-anchor="start" x="293" y="-363.8" font-family="Arial" font-weight="bold" font-size="14.00" fill="#000000">work_updates</text>
<text text-anchor="start" x="302" y="-343.8" font-family="Arial" font-size="14.00" fill="#000000">work_id</text>
<text text-anchor="start" x="302" y="-328.8" font-family="Arial" font-size="14.00" fill="#000000">container_id</text>
<text text-anchor="start" x="302" y="-313.8" font-family="Arial" font-size="14.00" fill="#000000">label</text>
<text text-anchor="start" x="302" y="-298.8" font-family="Arial" font-size="14.00" fill="#000000">doi</text>
<text text-anchor="start" x="302" y="-283.8" font-family="Arial" font-size="14.00" fill="#000000">timestamp</text>
<polygon fill="black" stroke="black" points="290,-357 290,-357 388,-357 388,-357 290,-357"/>
<polygon fill="none" stroke="black" points="290,-277 290,-377 388,-377 388,-277 290,-277"/>
</g>
<!-- works&#45;&gt;work_updates -->
<g id="edge4" class="edge">
<title>works&#45;&gt;work_updates</title>
<path fill="none" stroke="black" d="M408.83,-583.96C388.44,-509.22 366.26,-427.92 352.49,-377.46"/>
<text text-anchor="middle" x="336.49" y="-381.26" font-family="Arial" font-size="14.00">0…N</text>
<text text-anchor="middle" x="404.83" y="-572.76" font-family="Arial" font-size="14.00">1</text>
</g>
<!-- work_subjects -->
<g id="node6" class="node">
<title>work_subjects</title>
<polygon fill="#ffc62c" stroke="transparent" points="507.5,-362 406.5,-362 406.5,-292 507.5,-292 507.5,-362"/>
<text text-anchor="start" x="410" y="-348.8" font-family="Arial" font-weight="bold" font-size="14.00" fill="#000000">work_subjects</text>
<text text-anchor="start" x="420.5" y="-328.8" font-family="Arial" font-size="14.00" fill="#000000">work_id</text>
<text text-anchor="start" x="420.5" y="-313.8" font-family="Arial" font-size="14.00" fill="#000000">container_id</text>
<text text-anchor="start" x="420.5" y="-298.8" font-family="Arial" font-size="14.00" fill="#000000">name</text>
<polygon fill="black" stroke="black" points="407,-342 407,-342 508,-342 508,-342 407,-342"/>
<polygon fill="none" stroke="black" points="406.5,-292 406.5,-362 507.5,-362 507.5,-292 406.5,-292"/>
</g>
<!-- works&#45;&gt;work_subjects -->
<g id="edge5" class="edge">
<title>works&#45;&gt;work_subjects</title>
<path fill="none" stroke="black" d="M457,-583.96C457,-501.04 457,-410.06 457,-362.05"/>
<text text-anchor="middle" x="441" y="-365.85" font-family="Arial" font-size="14.00">0…N</text>
<text text-anchor="middle" x="453" y="-572.76" font-family="Arial" font-size="14.00">1</text>
</g>
<!-- work_funders -->
<g id="node7" class="node">
<title>work_funders</title>
<polygon fill="#ffc62c" stroke="transparent" points="622,-377 526,-377 526,-277 622,-277 622,-377"/>
<text text-anchor="start" x="529" y="-363.8" font-family="Arial" font-weight="bold" font-size="14.00" fill="#000000">work_funders</text>
<text text-anchor="start" x="537" y="-343.8" font-family="Arial" font-size="14.00" fill="#000000">id</text>
<text text-anchor="start" x="537" y="-328.8" font-family="Arial" font-size="14.00" fill="#000000">container_id</text>
<text text-anchor="start" x="537" y="-313.8" font-family="Arial" font-size="14.00" fill="#000000">work_id</text>
<text text-anchor="start" x="537" y="-298.8" font-family="Arial" font-size="14.00" fill="#000000">doi</text>
<text text-anchor="start" x="537" y="-283.8" font-family="Arial" font-size="14.00" fill="#000000">name</text>
<polygon fill="black" stroke="black" points="526,-357 526,-357 622,-357 622,-357 526,-357"/>
<polygon fill="none" stroke="black" points="526,-277 526,-377 622,-377 622,-277 526,-277"/>
</g>
<!-- works&#45;&gt;work_funders -->
<g id="edge6" class="edge">
<title>works&#45;&gt;work_funders</title>
<path fill="none" stroke="black" d="M504.76,-583.96C524.98,-509.22 546.97,-427.92 560.62,-377.46"/>
<text text-anchor="middle" x="544.62" y="-381.26" font-family="Arial" font-size="14.00">0…N</text>
<text text-anchor="middle" x="500.76" y="-572.76" font-family="Arial" font-size="14.00">1</text>
</g>
<!-- work_licenses -->
<g id="node8" class="node">
<title>work_licenses</title>
<polygon fill="#ffc62c" stroke="transparent" points="744,-377 640,-377 640,-277 744,-277 744,-377"/>
<text text-anchor="start" x="645" y="-363.8" font-family="Arial" font-weight="bold" font-size="14.00" fill="#000000">work_licenses</text>
<text text-anchor="start" x="643" y="-343.8" font-family="Arial" font-size="14.00" fill="#000000">work_id</text>
<text text-anchor="start" x="643" y="-328.8" font-family="Arial" font-size="14.00" fill="#000000">container_id</text>
<text text-anchor="start" x="643" y="-313.8" font-family="Arial" font-size="14.00" fill="#000000">url</text>
<text text-anchor="start" x="643" y="-298.8" font-family="Arial" font-size="14.00" fill="#000000">start_timestamp</text>
<text text-anchor="start" x="643" y="-283.8" font-family="Arial" font-size="14.00" fill="#000000">delay_in_days</text>
<polygon fill="black" stroke="black" points="640,-357 640,-357 744,-357 744,-357 640,-357"/>
<polygon fill="none" stroke="black" points="640,-277 640,-377 744,-377 744,-277 640,-277"/>
</g>
<!-- works&#45;&gt;work_licenses -->
<g id="edge7" class="edge">
<title>works&#45;&gt;work_licenses</title>
<path fill="none" stroke="black" d="M532.69,-666.35C566.1,-621.52 603.87,-566.01 631,-512 652.9,-468.39 669.56,-415.15 679.89,-377.19"/>
<text text-anchor="middle" x="663.89" y="-380.99" font-family="Arial" font-size="14.00">0…N</text>
<text text-anchor="middle" x="536.69" y="-670.15" font-family="Arial" font-size="14.00">1</text>
</g>
<!-- work_links -->
<g id="node9" class="node">
<title>work_links</title>
<polygon fill="#ffc62c" stroke="transparent" points="846,-369.5 762,-369.5 762,-284.5 846,-284.5 846,-369.5"/>
<text text-anchor="start" x="768.5" y="-355.8" font-family="Arial" font-weight="bold" font-size="14.00" fill="#000000">work_links</text>
<text text-anchor="start" x="765" y="-335.8" font-family="Arial" font-size="14.00" fill="#000000">work_id</text>
<text text-anchor="start" x="765" y="-320.8" font-family="Arial" font-size="14.00" fill="#000000">container_id</text>
<text text-anchor="start" x="765" y="-305.8" font-family="Arial" font-size="14.00" fill="#000000">url</text>
<text text-anchor="start" x="765" y="-290.8" font-family="Arial" font-size="14.00" fill="#000000">content_type</text>
<polygon fill="black" stroke="black" points="762,-349 762,-349 846,-349 846,-349 762,-349"/>
<polygon fill="none" stroke="black" points="762,-284.5 762,-369.5 846,-369.5 846,-284.5 762,-284.5"/>
</g>
<!-- works&#45;&gt;work_links -->
<g id="edge8" class="edge">
<title>works&#45;&gt;work_links</title>
<path fill="none" stroke="black" d="M532.6,-715.83C600.11,-672.13 696.76,-599.48 753,-512 781.15,-468.22 793.95,-408.94 799.65,-369.63"/>
<text text-anchor="middle" x="783.65" y="-373.43" font-family="Arial" font-size="14.00">0…N</text>
<text text-anchor="middle" x="536.6" y="-719.63" font-family="Arial" font-size="14.00">1</text>
</g>
<!-- author_affiliations -->
<g id="node3" class="node">
<title>author_affiliations</title>
<polygon fill="#ffc62c" stroke="transparent" points="124,-70 0,-70 0,0 124,0 124,-70"/>
<text text-anchor="start" x="3" y="-56.8" font-family="Arial" font-weight="bold" font-size="14.00" fill="#000000">author_affiliations</text>
<text text-anchor="start" x="25" y="-36.8" font-family="Arial" font-size="14.00" fill="#000000">author_id</text>
<text text-anchor="start" x="25" y="-21.8" font-family="Arial" font-size="14.00" fill="#000000">container_id</text>
<text text-anchor="start" x="25" y="-6.8" font-family="Arial" font-size="14.00" fill="#000000">name</text>
<polygon fill="black" stroke="black" points="0,-50 0,-50 124,-50 124,-50 0,-50"/>
<polygon fill="none" stroke="black" points="0,0 0,-70 124,-70 124,0 0,0"/>
</g>
<!-- work_authors&#45;&gt;author_affiliations -->
<g id="edge2" class="edge">
<title>work_authors&#45;&gt;author_affiliations</title>
<path fill="none" stroke="black" d="M62,-231.85C62,-176.44 62,-109.7 62,-70.17"/>
<text text-anchor="middle" x="46" y="-73.97" font-family="Arial" font-size="14.00">1…N</text>
<text text-anchor="middle" x="58" y="-220.65" font-family="Arial" font-size="14.00">1</text>
</g>
<!-- funder_awards -->
<g id="node10" class="node">
<title>funder_awards</title>
<polygon fill="#ffc62c" stroke="transparent" points="625.5,-70 522.5,-70 522.5,0 625.5,0 625.5,-70"/>
<text text-anchor="start" x="526" y="-56.8" font-family="Arial" font-weight="bold" font-size="14.00" fill="#000000">funder_awards</text>
<text text-anchor="start" x="537.5" y="-36.8" font-family="Arial" font-size="14.00" fill="#000000">funder_id</text>
<text text-anchor="start" x="537.5" y="-21.8" font-family="Arial" font-size="14.00" fill="#000000">container_id</text>
<text text-anchor="start" x="537.5" y="-6.8" font-family="Arial" font-size="14.00" fill="#000000">name</text>
<polygon fill="black" stroke="black" points="523,-50 523,-50 626,-50 626,-50 523,-50"/>
<polygon fill="none" stroke="black" points="522.5,0 522.5,-70 625.5,-70 625.5,0 522.5,0"/>
</g>
<!-- work_funders&#45;&gt;funder_awards -->
<g id="edge9" class="edge">
<title>work_funders&#45;&gt;funder_awards</title>
<path fill="none" stroke="black" d="M574,-276.81C574,-218.15 574,-121.62 574,-70.41"/>
<text text-anchor="middle" x="558" y="-74.21" font-family="Arial" font-size="14.00">0…N</text>
<text text-anchor="middle" x="570" y="-265.61" font-family="Arial" font-size="14.00">1</text>
</g>
</g>
</svg>
