<?xml version="1.0" encoding="UTF-8" standalone="no"?>
<!DOCTYPE svg PUBLIC "-//W3C//DTD SVG 1.1//EN"
 "http://www.w3.org/Graphics/SVG/1.1/DTD/svg11.dtd">
<!-- Generated by graphviz version 2.43.0 (0)
 -->
<!-- Title: D Pages: 1 -->
<svg width="1889pt" height="707pt"
 viewBox="0.00 0.00 1889.00 707.00" xmlns="http://www.w3.org/2000/svg" xmlns:xlink="http://www.w3.org/1999/xlink">
<g id="graph0" class="graph" transform="scale(1 1) rotate(0) translate(4 703)">
<title>D</title>
<polygon fill="white" stroke="transparent" points="-4,4 -4,-703 1885,-703 1885,4 -4,4"/>
<!-- dc_works -->
<g id="node1" class="node">
<title>dc_works</title>
<polygon fill="#00b0e1" stroke="transparent" points="1048,-699 903,-699 903,-389 1048,-389 1048,-699"/>
<text text-anchor="start" x="944" y="-685.8" font-family="Arial" font-weight="bold" font-size="14.00" fill="#000000">dc_works</text>
<text text-anchor="start" x="906.5" y="-665.8" font-family="Arial" font-size="14.00" fill="#000000">id</text>
<text text-anchor="start" x="906.5" y="-650.8" font-family="Arial" font-size="14.00" fill="#000000">container_id</text>
<text text-anchor="start" x="906.5" y="-635.8" font-family="Arial" font-size="14.00" fill="#000000">identifier</text>
<text text-anchor="start" x="906.5" y="-620.8" font-family="Arial" font-size="14.00" fill="#000000">identifier_type</text>
<text text-anchor="start" x="906.5" y="-605.8" font-family="Arial" font-size="14.00" fill="#000000">doi</text>
<text text-anchor="start" x="906.5" y="-590.8" font-family="Arial" font-size="14.00" fill="#000000">publisher</text>
<text text-anchor="start" x="906.5" y="-575.8" font-family="Arial" font-size="14.00" fill="#000000">publication_year</text>
<text text-anchor="start" x="906.5" y="-560.8" font-family="Arial" font-size="14.00" fill="#000000">resource_type</text>
<text text-anchor="start" x="906.5" y="-545.8" font-family="Arial" font-size="14.00" fill="#000000">resource_type_general</text>
<text text-anchor="start" x="906.5" y="-530.8" font-family="Arial" font-size="14.00" fill="#000000">language</text>
<text text-anchor="start" x="906.5" y="-515.8" font-family="Arial" font-size="14.00" fill="#000000">sizes</text>
<text text-anchor="start" x="906.5" y="-500.8" font-family="Arial" font-size="14.00" fill="#000000">formats</text>
<text text-anchor="start" x="906.5" y="-485.8" font-family="Arial" font-size="14.00" fill="#000000">schema_version</text>
<text text-anchor="start" x="906.5" y="-470.8" font-family="Arial" font-size="14.00" fill="#000000">metadata_version</text>
<text text-anchor="start" x="906.5" y="-455.8" font-family="Arial" font-size="14.00" fill="#000000">url</text>
<text text-anchor="start" x="906.5" y="-440.8" font-family="Arial" font-size="14.00" fill="#000000">created</text>
<text text-anchor="start" x="906.5" y="-425.8" font-family="Arial" font-size="14.00" fill="#000000">registered</text>
<text text-anchor="start" x="906.5" y="-410.8" font-family="Arial" font-size="14.00" fill="#000000">published</text>
<text text-anchor="start" x="906.5" y="-395.8" font-family="Arial" font-size="14.00" fill="#000000">updated</text>
<polygon fill="black" stroke="black" points="903.5,-679 903.5,-679 1048.5,-679 1048.5,-679 903.5,-679"/>
<polygon fill="none" stroke="black" points="903,-389 903,-699 1048,-699 1048,-389 903,-389"/>
</g>
<!-- dc_work_creators -->
<g id="node2" class="node">
<title>dc_work_creators</title>
<polygon fill="#00b0e1" stroke="transparent" points="346,-309.5 223,-309.5 223,-179.5 346,-179.5 346,-309.5"/>
<text text-anchor="start" x="226.5" y="-296.3" font-family="Arial" font-weight="bold" font-size="14.00" fill="#000000">dc_work_creators</text>
<text text-anchor="start" x="245.5" y="-276.3" font-family="Arial" font-size="14.00" fill="#000000">id</text>
<text text-anchor="start" x="245.5" y="-261.3" font-family="Arial" font-size="14.00" fill="#000000">container_id</text>
<text text-anchor="start" x="245.5" y="-246.3" font-family="Arial" font-size="14.00" fill="#000000">work_id</text>
<text text-anchor="start" x="245.5" y="-231.3" font-family="Arial" font-size="14.00" fill="#000000">name</text>
<text text-anchor="start" x="245.5" y="-216.3" font-family="Arial" font-size="14.00" fill="#000000">name_type</text>
<text text-anchor="start" x="245.5" y="-201.3" font-family="Arial" font-size="14.00" fill="#000000">given_name</text>
<text text-anchor="start" x="245.5" y="-186.3" font-family="Arial" font-size="14.00" fill="#000000">family_name</text>
<polygon fill="black" stroke="black" points="223.5,-289.5 223.5,-289.5 346.5,-289.5 346.5,-289.5 223.5,-289.5"/>
<polygon fill="none" stroke="black" points="223,-179.5 223,-309.5 346,-309.5 346,-179.5 223,-179.5"/>
</g>
<!-- dc_works&#45;&gt;dc_work_creators -->
<g id="edge1" class="edge">
<title>dc_works&#45;&gt;dc_work_creators</title>
<path fill="none" stroke="black" d="M902.97,-518.68C792.75,-480.76 577.51,-402.92 403.5,-317 384.37,-307.56 364.25,-296.1 346.1,-285.14"/>
<text text-anchor="middle" x="362.1" y="-288.94" font-family="Arial" font-size="14.00">1…N</text>
<text text-anchor="middle" x="898.97" y="-522.48" font-family="Arial" font-size="14.00">1</text>
</g>
<!-- dc_work_contributors -->
<g id="node3" class="node">
<title>dc_work_contributors</title>
<polygon fill="#00b0e1" stroke="transparent" points="561,-309.5 412,-309.5 412,-179.5 561,-179.5 561,-309.5"/>
<text text-anchor="start" x="415.5" y="-296.3" font-family="Arial" font-weight="bold" font-size="14.00" fill="#000000">dc_work_contributors</text>
<text text-anchor="start" x="438.5" y="-276.3" font-family="Arial" font-size="14.00" fill="#000000">id</text>
<text text-anchor="start" x="438.5" y="-261.3" font-family="Arial" font-size="14.00" fill="#000000">container_id</text>
<text text-anchor="start" x="438.5" y="-246.3" font-family="Arial" font-size="14.00" fill="#000000">work_id</text>
<text text-anchor="start" x="438.5" y="-231.3" font-family="Arial" font-size="14.00" fill="#000000">contributor_type</text>
<text text-anchor="start" x="438.5" y="-216.3" font-family="Arial" font-size="14.00" fill="#000000">name</text>
<text text-anchor="start" x="438.5" y="-201.3" font-family="Arial" font-size="14.00" fill="#000000">family_name</text>
<text text-anchor="start" x="438.5" y="-186.3" font-family="Arial" font-size="14.00" fill="#000000">given_name</text>
<polygon fill="black" stroke="black" points="412.5,-289.5 412.5,-289.5 561.5,-289.5 561.5,-289.5 412.5,-289.5"/>
<polygon fill="none" stroke="black" points="412,-179.5 412,-309.5 561,-309.5 561,-179.5 412,-179.5"/>
</g>
<!-- dc_works&#45;&gt;dc_work_contributors -->
<g id="edge6" class="edge">
<title>dc_works&#45;&gt;dc_work_contributors</title>
<path fill="none" stroke="black" d="M902.73,-507.86C819.64,-466.51 680.94,-393.71 570.5,-317 567.2,-314.71 563.87,-312.31 560.55,-309.84"/>
<text text-anchor="middle" x="544.55" y="-313.64" font-family="Arial" font-size="14.00">0…N</text>
<text text-anchor="middle" x="898.73" y="-496.66" font-family="Arial" font-size="14.00">1</text>
</g>
<!-- dc_work_titles -->
<g id="node4" class="node">
<title>dc_work_titles</title>
<polygon fill="#00b0e1" stroke="transparent" points="680,-287 579,-287 579,-202 680,-202 680,-287"/>
<text text-anchor="start" x="582.5" y="-273.3" font-family="Arial" font-weight="bold" font-size="14.00" fill="#000000">dc_work_titles</text>
<text text-anchor="start" x="593" y="-253.3" font-family="Arial" font-size="14.00" fill="#000000">work_id</text>
<text text-anchor="start" x="593" y="-238.3" font-family="Arial" font-size="14.00" fill="#000000">container_id</text>
<text text-anchor="start" x="593" y="-223.3" font-family="Arial" font-size="14.00" fill="#000000">title</text>
<text text-anchor="start" x="593" y="-208.3" font-family="Arial" font-size="14.00" fill="#000000">title_type</text>
<polygon fill="black" stroke="black" points="579.5,-266.5 579.5,-266.5 680.5,-266.5 680.5,-266.5 579.5,-266.5"/>
<polygon fill="none" stroke="black" points="579,-202 579,-287 680,-287 680,-202 579,-202"/>
</g>
<!-- dc_works&#45;&gt;dc_work_titles -->
<g id="edge2" class="edge">
<title>dc_works&#45;&gt;dc_work_titles</title>
<path fill="none" stroke="black" d="M902.83,-491.99C842.94,-448.47 757.15,-382.69 689.5,-317 680.08,-307.86 670.62,-297.34 662.08,-287.24"/>
<text text-anchor="middle" x="646.08" y="-291.04" font-family="Arial" font-size="14.00">1…N</text>
<text text-anchor="middle" x="898.83" y="-480.79" font-family="Arial" font-size="14.00">1</text>
</g>
<!-- dc_work_subjects -->
<g id="node7" class="node">
<title>dc_work_subjects</title>
<polygon fill="#00b0e1" stroke="transparent" points="822.5,-302 698.5,-302 698.5,-187 822.5,-187 822.5,-302"/>
<text text-anchor="start" x="701.5" y="-288.3" font-family="Arial" font-weight="bold" font-size="14.00" fill="#000000">dc_work_subjects</text>
<text text-anchor="start" x="711" y="-268.3" font-family="Arial" font-size="14.00" fill="#000000">work_id</text>
<text text-anchor="start" x="711" y="-253.3" font-family="Arial" font-size="14.00" fill="#000000">container_id</text>
<text text-anchor="start" x="711" y="-238.3" font-family="Arial" font-size="14.00" fill="#000000">subject</text>
<text text-anchor="start" x="711" y="-223.3" font-family="Arial" font-size="14.00" fill="#000000">subject_scheme</text>
<text text-anchor="start" x="711" y="-208.3" font-family="Arial" font-size="14.00" fill="#000000">scheme_uri</text>
<text text-anchor="start" x="711" y="-193.3" font-family="Arial" font-size="14.00" fill="#000000">value_uri</text>
<polygon fill="black" stroke="black" points="698.5,-281.5 698.5,-281.5 822.5,-281.5 822.5,-281.5 698.5,-281.5"/>
<polygon fill="none" stroke="black" points="698.5,-187 698.5,-302 822.5,-302 822.5,-187 698.5,-187"/>
</g>
<!-- dc_works&#45;&gt;dc_work_subjects -->
<g id="edge5" class="edge">
<title>dc_works&#45;&gt;dc_work_subjects</title>
<path fill="none" stroke="black" d="M902.71,-442.28C868.97,-395.59 830.11,-341.82 801.55,-302.3"/>
<text text-anchor="middle" x="785.55" y="-306.1" font-family="Arial" font-size="14.00">0…N</text>
<text text-anchor="middle" x="898.71" y="-446.08" font-family="Arial" font-size="14.00">1</text>
</g>
<!-- dc_work_dates -->
<g id="node10" class="node">
<title>dc_work_dates</title>
<polygon fill="#00b0e1" stroke="transparent" points="946,-287 841,-287 841,-202 946,-202 946,-287"/>
<text text-anchor="start" x="844.5" y="-273.3" font-family="Arial" font-weight="bold" font-size="14.00" fill="#000000">dc_work_dates</text>
<text text-anchor="start" x="857" y="-253.3" font-family="Arial" font-size="14.00" fill="#000000">work_id</text>
<text text-anchor="start" x="857" y="-238.3" font-family="Arial" font-size="14.00" fill="#000000">container_id</text>
<text text-anchor="start" x="857" y="-223.3" font-family="Arial" font-size="14.00" fill="#000000">date</text>
<text text-anchor="start" x="857" y="-208.3" font-family="Arial" font-size="14.00" fill="#000000">date_type</text>
<polygon fill="black" stroke="black" points="841.5,-266.5 841.5,-266.5 946.5,-266.5 946.5,-266.5 841.5,-266.5"/>
<polygon fill="none" stroke="black" points="841,-202 841,-287 946,-287 946,-202 841,-202"/>
</g>
<!-- dc_works&#45;&gt;dc_work_dates -->
<g id="edge9" class="edge">
<title>dc_works&#45;&gt;dc_work_dates</title>
<path fill="none" stroke="black" d="M932.94,-388.59C922.6,-351.09 912.4,-314.08 904.96,-287.09"/>
<text text-anchor="middle" x="888.96" y="-290.89" font-family="Arial" font-size="14.00">0…N</text>
<text text-anchor="middle" x="928.94" y="-377.39" font-family="Arial" font-size="14.00">1</text>
</g>
<!-- dc_work_related_identifiers -->
<g id="node11" class="node">
<title>dc_work_related_identifiers</title>
<polygon fill="#00b0e1" stroke="transparent" points="1150.5,-317 964.5,-317 964.5,-172 1150.5,-172 1150.5,-317"/>
<text text-anchor="start" x="967.5" y="-303.3" font-family="Arial" font-weight="bold" font-size="14.00" fill="#000000">dc_work_related_identifiers</text>
<text text-anchor="start" x="976.5" y="-283.3" font-family="Arial" font-size="14.00" fill="#000000">work_id</text>
<text text-anchor="start" x="976.5" y="-268.3" font-family="Arial" font-size="14.00" fill="#000000">container_id</text>
<text text-anchor="start" x="976.5" y="-253.3" font-family="Arial" font-size="14.00" fill="#000000">related_identifier</text>
<text text-anchor="start" x="976.5" y="-238.3" font-family="Arial" font-size="14.00" fill="#000000">related_identifier_type</text>
<text text-anchor="start" x="976.5" y="-223.3" font-family="Arial" font-size="14.00" fill="#000000">relation_type</text>
<text text-anchor="start" x="976.5" y="-208.3" font-family="Arial" font-size="14.00" fill="#000000">related_metadata_scheme</text>
<text text-anchor="start" x="976.5" y="-193.3" font-family="Arial" font-size="14.00" fill="#000000">scheme_uri</text>
<text text-anchor="start" x="976.5" y="-178.3" font-family="Arial" font-size="14.00" fill="#000000">scheme_type</text>
<polygon fill="black" stroke="black" points="964.5,-296.5 964.5,-296.5 1150.5,-296.5 1150.5,-296.5 964.5,-296.5"/>
<polygon fill="none" stroke="black" points="964.5,-172 964.5,-317 1150.5,-317 1150.5,-172 964.5,-172"/>
</g>
<!-- dc_works&#45;&gt;dc_work_related_identifiers -->
<g id="edge10" class="edge">
<title>dc_works&#45;&gt;dc_work_related_identifiers</title>
<path fill="none" stroke="black" d="M1018.06,-388.59C1024.92,-363.68 1031.73,-339 1037.71,-317.31"/>
<text text-anchor="middle" x="1021.71" y="-321.11" font-family="Arial" font-size="14.00">0…N</text>
<text text-anchor="middle" x="1014.06" y="-377.39" font-family="Arial" font-size="14.00">1</text>
</g>
<!-- dc_work_rights -->
<g id="node12" class="node">
<title>dc_work_rights</title>
<polygon fill="#00b0e1" stroke="transparent" points="1322.5,-317 1168.5,-317 1168.5,-172 1322.5,-172 1322.5,-317"/>
<text text-anchor="start" x="1195" y="-303.3" font-family="Arial" font-weight="bold" font-size="14.00" fill="#000000">dc_work_rights</text>
<text text-anchor="start" x="1171.5" y="-283.3" font-family="Arial" font-size="14.00" fill="#000000">work_id</text>
<text text-anchor="start" x="1171.5" y="-268.3" font-family="Arial" font-size="14.00" fill="#000000">container_id</text>
<text text-anchor="start" x="1171.5" y="-253.3" font-family="Arial" font-size="14.00" fill="#000000">rights</text>
<text text-anchor="start" x="1171.5" y="-238.3" font-family="Arial" font-size="14.00" fill="#000000">lang</text>
<text text-anchor="start" x="1171.5" y="-223.3" font-family="Arial" font-size="14.00" fill="#000000">rights_uri</text>
<text text-anchor="start" x="1171.5" y="-208.3" font-family="Arial" font-size="14.00" fill="#000000">rights_identifier</text>
<text text-anchor="start" x="1171.5" y="-193.3" font-family="Arial" font-size="14.00" fill="#000000">rights_identifier_scheme</text>
<text text-anchor="start" x="1171.5" y="-178.3" font-family="Arial" font-size="14.00" fill="#000000">scheme_uri</text>
<polygon fill="black" stroke="black" points="1168.5,-296.5 1168.5,-296.5 1322.5,-296.5 1322.5,-296.5 1168.5,-296.5"/>
<polygon fill="none" stroke="black" points="1168.5,-172 1168.5,-317 1322.5,-317 1322.5,-172 1168.5,-172"/>
</g>
<!-- dc_works&#45;&gt;dc_work_rights -->
<g id="edge11" class="edge">
<title>dc_works&#45;&gt;dc_work_rights</title>
<path fill="none" stroke="black" d="M1048.21,-462.88C1089.44,-417.45 1140.61,-361.07 1180.5,-317.12"/>
<text text-anchor="middle" x="1164.5" y="-320.92" font-family="Arial" font-size="14.00">0…N</text>
<text text-anchor="middle" x="1052.21" y="-466.68" font-family="Arial" font-size="14.00">1</text>
</g>
<!-- dc_work_geo_locations -->
<g id="node13" class="node">
<title>dc_work_geo_locations</title>
<polygon fill="#00b0e1" stroke="transparent" points="1500.5,-294.5 1340.5,-294.5 1340.5,-194.5 1500.5,-194.5 1500.5,-294.5"/>
<text text-anchor="start" x="1343.5" y="-281.3" font-family="Arial" font-weight="bold" font-size="14.00" fill="#000000">dc_work_geo_locations</text>
<text text-anchor="start" x="1362" y="-261.3" font-family="Arial" font-size="14.00" fill="#000000">work_id</text>
<text text-anchor="start" x="1362" y="-246.3" font-family="Arial" font-size="14.00" fill="#000000">container_id</text>
<text text-anchor="start" x="1362" y="-231.3" font-family="Arial" font-size="14.00" fill="#000000">geo_location_place</text>
<text text-anchor="start" x="1362" y="-216.3" font-family="Arial" font-size="14.00" fill="#000000">geo_location_point</text>
<text text-anchor="start" x="1362" y="-201.3" font-family="Arial" font-size="14.00" fill="#000000">geo_location_box</text>
<polygon fill="black" stroke="black" points="1340.5,-274.5 1340.5,-274.5 1500.5,-274.5 1500.5,-274.5 1340.5,-274.5"/>
<polygon fill="none" stroke="black" points="1340.5,-194.5 1340.5,-294.5 1500.5,-294.5 1500.5,-194.5 1340.5,-194.5"/>
</g>
<!-- dc_works&#45;&gt;dc_work_geo_locations -->
<g id="edge12" class="edge">
<title>dc_works&#45;&gt;dc_work_geo_locations</title>
<path fill="none" stroke="black" d="M1048.3,-500.05C1121.36,-456.19 1236.4,-385.07 1331.5,-317 1341.33,-309.96 1351.53,-302.22 1361.36,-294.51"/>
<text text-anchor="middle" x="1345.36" y="-298.31" font-family="Arial" font-size="14.00">0…N</text>
<text text-anchor="middle" x="1052.3" y="-503.85" font-family="Arial" font-size="14.00">1</text>
</g>
<!-- dc_work_descriptions -->
<g id="node14" class="node">
<title>dc_work_descriptions</title>
<polygon fill="#00b0e1" stroke="transparent" points="1668.5,-287 1518.5,-287 1518.5,-202 1668.5,-202 1668.5,-287"/>
<text text-anchor="start" x="1521.5" y="-273.3" font-family="Arial" font-weight="bold" font-size="14.00" fill="#000000">dc_work_descriptions</text>
<text text-anchor="start" x="1544" y="-253.3" font-family="Arial" font-size="14.00" fill="#000000">work_id</text>
<text text-anchor="start" x="1544" y="-238.3" font-family="Arial" font-size="14.00" fill="#000000">container_id</text>
<text text-anchor="start" x="1544" y="-223.3" font-family="Arial" font-size="14.00" fill="#000000">description</text>
<text text-anchor="start" x="1544" y="-208.3" font-family="Arial" font-size="14.00" fill="#000000">description_type</text>
<polygon fill="black" stroke="black" points="1518.5,-266.5 1518.5,-266.5 1668.5,-266.5 1668.5,-266.5 1518.5,-266.5"/>
<polygon fill="none" stroke="black" points="1518.5,-202 1518.5,-287 1668.5,-287 1668.5,-202 1518.5,-202"/>
</g>
<!-- dc_works&#45;&gt;dc_work_descriptions -->
<g id="edge13" class="edge">
<title>dc_works&#45;&gt;dc_work_descriptions</title>
<path fill="none" stroke="black" d="M1048.41,-520.08C1154.49,-485.02 1355.5,-412.01 1509.5,-317 1523.35,-308.45 1537.27,-297.7 1549.68,-287.15"/>
<text text-anchor="middle" x="1533.68" y="-290.95" font-family="Arial" font-size="14.00">0…N</text>
<text text-anchor="middle" x="1052.41" y="-523.88" font-family="Arial" font-size="14.00">1</text>
</g>
<!-- dc_work_funding_references -->
<g id="node15" class="node">
<title>dc_work_funding_references</title>
<polygon fill="#00b0e1" stroke="transparent" points="1881,-317 1686,-317 1686,-172 1881,-172 1881,-317"/>
<text text-anchor="start" x="1689.5" y="-303.3" font-family="Arial" font-weight="bold" font-size="14.00" fill="#000000">dc_work_funding_references</text>
<text text-anchor="start" x="1719" y="-283.3" font-family="Arial" font-size="14.00" fill="#000000">work_id</text>
<text text-anchor="start" x="1719" y="-268.3" font-family="Arial" font-size="14.00" fill="#000000">container_id</text>
<text text-anchor="start" x="1719" y="-253.3" font-family="Arial" font-size="14.00" fill="#000000">funder_name</text>
<text text-anchor="start" x="1719" y="-238.3" font-family="Arial" font-size="14.00" fill="#000000">funder_identifier</text>
<text text-anchor="start" x="1719" y="-223.3" font-family="Arial" font-size="14.00" fill="#000000">funder_identifier_type</text>
<text text-anchor="start" x="1719" y="-208.3" font-family="Arial" font-size="14.00" fill="#000000">award_number</text>
<text text-anchor="start" x="1719" y="-193.3" font-family="Arial" font-size="14.00" fill="#000000">award_uri</text>
<text text-anchor="start" x="1719" y="-178.3" font-family="Arial" font-size="14.00" fill="#000000">award_title</text>
<polygon fill="black" stroke="black" points="1686.5,-296.5 1686.5,-296.5 1881.5,-296.5 1881.5,-296.5 1686.5,-296.5"/>
<polygon fill="none" stroke="black" points="1686,-172 1686,-317 1881,-317 1881,-172 1686,-172"/>
</g>
<!-- dc_works&#45;&gt;dc_work_funding_references -->
<g id="edge14" class="edge">
<title>dc_works&#45;&gt;dc_work_funding_references</title>
<path fill="none" stroke="black" d="M1048.05,-526.83C1178.36,-496.23 1458.85,-423.28 1677.5,-317 1680.3,-315.64 1683.1,-314.22 1685.91,-312.74"/>
<text text-anchor="middle" x="1669.91" y="-316.54" font-family="Arial" font-size="14.00">0…N</text>
<text text-anchor="middle" x="1052.05" y="-530.63" font-family="Arial" font-size="14.00">1</text>
</g>
<!-- dc_creator_name_identifiers -->
<g id="node5" class="node">
<title>dc_creator_name_identifiers</title>
<polygon fill="#00b0e1" stroke="transparent" points="191,-100 0,-100 0,0 191,0 191,-100"/>
<text text-anchor="start" x="3.5" y="-86.8" font-family="Arial" font-weight="bold" font-size="14.00" fill="#000000">dc_creator_name_identifiers</text>
<text text-anchor="start" x="21.5" y="-66.8" font-family="Arial" font-size="14.00" fill="#000000">creator_id</text>
<text text-anchor="start" x="21.5" y="-51.8" font-family="Arial" font-size="14.00" fill="#000000">container_id</text>
<text text-anchor="start" x="21.5" y="-36.8" font-family="Arial" font-size="14.00" fill="#000000">name_identifier</text>
<text text-anchor="start" x="21.5" y="-21.8" font-family="Arial" font-size="14.00" fill="#000000">name_identifier_scheme</text>
<text text-anchor="start" x="21.5" y="-6.8" font-family="Arial" font-size="14.00" fill="#000000">scheme_uri</text>
<polygon fill="black" stroke="black" points="0.5,-80 0.5,-80 191.5,-80 191.5,-80 0.5,-80"/>
<polygon fill="none" stroke="black" points="0,0 0,-100 191,-100 191,0 0,0"/>
</g>
<!-- dc_work_creators&#45;&gt;dc_creator_name_identifiers -->
<g id="edge3" class="edge">
<title>dc_work_creators&#45;&gt;dc_creator_name_identifiers</title>
<path fill="none" stroke="black" d="M222.88,-180.73C197.24,-154.62 167.91,-124.75 143.87,-100.26"/>
<text text-anchor="middle" x="127.87" y="-104.06" font-family="Arial" font-size="14.00">0…N</text>
<text text-anchor="middle" x="218.88" y="-184.53" font-family="Arial" font-size="14.00">1</text>
</g>
<!-- dc_creator_affiliations -->
<g id="node6" class="node">
<title>dc_creator_affiliations</title>
<polygon fill="#00b0e1" stroke="transparent" points="360,-85 209,-85 209,-15 360,-15 360,-85"/>
<text text-anchor="start" x="212.5" y="-71.8" font-family="Arial" font-weight="bold" font-size="14.00" fill="#000000">dc_creator_affiliations</text>
<text text-anchor="start" x="248" y="-51.8" font-family="Arial" font-size="14.00" fill="#000000">creator_id</text>
<text text-anchor="start" x="248" y="-36.8" font-family="Arial" font-size="14.00" fill="#000000">container_id</text>
<text text-anchor="start" x="248" y="-21.8" font-family="Arial" font-size="14.00" fill="#000000">name</text>
<polygon fill="black" stroke="black" points="209.5,-65 209.5,-65 360.5,-65 360.5,-65 209.5,-65"/>
<polygon fill="none" stroke="black" points="209,-15 209,-85 360,-85 360,-15 209,-15"/>
</g>
<!-- dc_work_creators&#45;&gt;dc_creator_affiliations -->
<g id="edge4" class="edge">
<title>dc_work_creators&#45;&gt;dc_creator_affiliations</title>
<path fill="none" stroke="black" d="M284.5,-179.4C284.5,-147.9 284.5,-111.21 284.5,-85.14"/>
<text text-anchor="middle" x="268.5" y="-88.94" font-family="Arial" font-size="14.00">0…N</text>
<text text-anchor="middle" x="280.5" y="-168.2" font-family="Arial" font-size="14.00">1</text>
</g>
<!-- dc_contributor_name_identifiers -->
<g id="node8" class="node">
<title>dc_contributor_name_identifiers</title>
<polygon fill="#00b0e1" stroke="transparent" points="595,-100 378,-100 378,0 595,0 595,-100"/>
<text text-anchor="start" x="381.5" y="-86.8" font-family="Arial" font-weight="bold" font-size="14.00" fill="#000000">dc_contributor_name_identifiers</text>
<text text-anchor="start" x="412.5" y="-66.8" font-family="Arial" font-size="14.00" fill="#000000">contributor_id</text>
<text text-anchor="start" x="412.5" y="-51.8" font-family="Arial" font-size="14.00" fill="#000000">container_id</text>
<text text-anchor="start" x="412.5" y="-36.8" font-family="Arial" font-size="14.00" fill="#000000">name_identifier</text>
<text text-anchor="start" x="412.5" y="-21.8" font-family="Arial" font-size="14.00" fill="#000000">name_identifier_scheme</text>
<text text-anchor="start" x="412.5" y="-6.8" font-family="Arial" font-size="14.00" fill="#000000">scheme_uri</text>
<polygon fill="black" stroke="black" points="378.5,-80 378.5,-80 595.5,-80 595.5,-80 378.5,-80"/>
<polygon fill="none" stroke="black" points="378,0 378,-100 595,-100 595,0 378,0"/>
</g>
<!-- dc_work_contributors&#45;&gt;dc_contributor_name_identifiers -->
<g id="edge7" class="edge">
<title>dc_work_contributors&#45;&gt;dc_contributor_name_identifiers</title>
<path fill="none" stroke="black" d="M486.5,-179.4C486.5,-153.59 486.5,-124.29 486.5,-100.21"/>
<text text-anchor="middle" x="470.5" y="-104.01" font-family="Arial" font-size="14.00">0…N</text>
<text text-anchor="middle" x="482.5" y="-168.2" font-family="Arial" font-size="14.00">1</text>
</g>
<!-- dc_contributor_affiliations -->
<g id="node9" class="node">
<title>dc_contributor_affiliations</title>
<polygon fill="#00b0e1" stroke="transparent" points="790,-85 613,-85 613,-15 790,-15 790,-85"/>
<text text-anchor="start" x="616.5" y="-71.8" font-family="Arial" font-weight="bold" font-size="14.00" fill="#000000">dc_contributor_affiliations</text>
<text text-anchor="start" x="661" y="-51.8" font-family="Arial" font-size="14.00" fill="#000000">contributor_id</text>
<text text-anchor="start" x="661" y="-36.8" font-family="Arial" font-size="14.00" fill="#000000">container_id</text>
<text text-anchor="start" x="661" y="-21.8" font-family="Arial" font-size="14.00" fill="#000000">name</text>
<polygon fill="black" stroke="black" points="613.5,-65 613.5,-65 790.5,-65 790.5,-65 613.5,-65"/>
<polygon fill="none" stroke="black" points="613,-15 613,-85 790,-85 790,-15 613,-15"/>
</g>
<!-- dc_work_contributors&#45;&gt;dc_contributor_affiliations -->
<g id="edge8" class="edge">
<title>dc_work_contributors&#45;&gt;dc_contributor_affiliations</title>
<path fill="none" stroke="black" d="M558.09,-179.4C593.27,-147.9 634.25,-111.21 663.37,-85.14"/>
<text text-anchor="middle" x="647.37" y="-88.94" font-family="Arial" font-size="14.00">0…N</text>
<text text-anchor="middle" x="554.09" y="-168.2" font-family="Arial" font-size="14.00">1</text>
</g>
</g>
</svg>
