<?xml version="1.0" encoding="UTF-8" standalone="no"?>
<!DOCTYPE svg PUBLIC "-//W3C//DTD SVG 1.1//EN"
 "http://www.w3.org/Graphics/SVG/1.1/DTD/svg11.dtd">
<!-- Generated by graphviz version 9.0.0 (20230911.1827)
 -->
<!-- Title: D Pages: 1 -->
<svg width="2436pt" height="525pt"
 viewBox="0.00 0.00 2436.00 525.25" xmlns="http://www.w3.org/2000/svg" xmlns:xlink="http://www.w3.org/1999/xlink">
<g id="graph0" class="graph" transform="scale(1 1) rotate(0) translate(4 521.25)">
<title>D</title>
<polygon fill="white" stroke="none" points="-4,4 -4,-521.25 2432,-521.25 2432,4 -4,4"/>
<!-- persons -->
<g id="node1" class="node">
<title>persons</title>
<polygon fill="#a6ce39" stroke="none" points="1260.38,-517.25 1173.38,-517.25 1173.38,-397 1260.38,-397 1260.38,-517.25"/>
<text text-anchor="start" x="1190.62" y="-501.95" font-family="Arial" font-weight="bold" font-size="14.00">persons</text>
<text text-anchor="start" x="1176.38" y="-481.2" font-family="Arial" font-size="14.00">id</text>
<text text-anchor="start" x="1176.38" y="-465.45" font-family="Arial" font-size="14.00">container_id</text>
<text text-anchor="start" x="1176.38" y="-449.7" font-family="Arial" font-size="14.00">orcid</text>
<text text-anchor="start" x="1176.38" y="-433.95" font-family="Arial" font-size="14.00">given_names</text>
<text text-anchor="start" x="1176.38" y="-418.2" font-family="Arial" font-size="14.00">family_name</text>
<text text-anchor="start" x="1176.38" y="-402.45" font-family="Arial" font-size="14.00">biography</text>
<polygon fill="black" stroke="black" points="1173.38,-496.5 1173.38,-496.5 1260.38,-496.5 1260.38,-496.5 1173.38,-496.5"/>
<polygon fill="none" stroke="black" points="1173.38,-397 1173.38,-517.25 1260.38,-517.25 1260.38,-397 1173.38,-397"/>
</g>
<!-- person_researcher_urls -->
<g id="node2" class="node">
<title>person_researcher_urls</title>
<polygon fill="#a6ce39" stroke="none" points="159.75,-214.75 0,-214.75 0,-110.25 159.75,-110.25 159.75,-214.75"/>
<text text-anchor="start" x="3" y="-199.45" font-family="Arial" font-weight="bold" font-size="14.00">person_researcher_urls</text>
<text text-anchor="start" x="43.12" y="-178.7" font-family="Arial" font-size="14.00">id</text>
<text text-anchor="start" x="43.12" y="-162.95" font-family="Arial" font-size="14.00">container_id</text>
<text text-anchor="start" x="43.12" y="-147.2" font-family="Arial" font-size="14.00">person_id</text>
<text text-anchor="start" x="43.12" y="-131.45" font-family="Arial" font-size="14.00">name</text>
<text text-anchor="start" x="43.12" y="-115.7" font-family="Arial" font-size="14.00">url</text>
<polygon fill="black" stroke="black" points="0,-194 0,-194 159.75,-194 159.75,-194 0,-194"/>
<polygon fill="none" stroke="black" points="0,-110.25 0,-214.75 159.75,-214.75 159.75,-110.25 0,-110.25"/>
</g>
<!-- persons&#45;&gt;person_researcher_urls -->
<g id="edge1" class="edge">
<title>persons&#45;&gt;person_researcher_urls</title>
<path fill="none" stroke="black" d="M1173.47,-455.82C997.25,-453.85 336.77,-438.83 168.88,-325 130.85,-299.22 107.49,-251.6 94.3,-214.72"/>
<text text-anchor="middle" x="78.55" y="-217.17" font-family="Arial" font-size="14.00">0…N</text>
<text text-anchor="middle" x="1169.72" y="-458.27" font-family="Arial" font-size="14.00">1</text>
</g>
<!-- person_countries -->
<g id="node3" class="node">
<title>person_countries</title>
<polygon fill="#a6ce39" stroke="none" points="297.5,-206.88 178.25,-206.88 178.25,-118.12 297.5,-118.12 297.5,-206.88"/>
<text text-anchor="start" x="181.25" y="-191.57" font-family="Arial" font-weight="bold" font-size="14.00">person_countries</text>
<text text-anchor="start" x="201.12" y="-170.82" font-family="Arial" font-size="14.00">id</text>
<text text-anchor="start" x="201.12" y="-155.07" font-family="Arial" font-size="14.00">container_id</text>
<text text-anchor="start" x="201.12" y="-139.32" font-family="Arial" font-size="14.00">person_id</text>
<text text-anchor="start" x="201.12" y="-123.58" font-family="Arial" font-size="14.00">country</text>
<polygon fill="black" stroke="black" points="178.25,-186.12 178.25,-186.12 297.5,-186.12 297.5,-186.12 178.25,-186.12"/>
<polygon fill="none" stroke="black" points="178.25,-118.12 178.25,-206.88 297.5,-206.88 297.5,-118.12 178.25,-118.12"/>
</g>
<!-- persons&#45;&gt;person_countries -->
<g id="edge2" class="edge">
<title>persons&#45;&gt;person_countries</title>
<path fill="none" stroke="black" d="M1173.41,-455.39C1011.3,-451.83 444.2,-431.82 305.88,-325 268.92,-296.46 251.83,-244.08 244.07,-206.71"/>
<text text-anchor="middle" x="228.32" y="-209.16" font-family="Arial" font-size="14.00">0…N</text>
<text text-anchor="middle" x="1169.66" y="-442.09" font-family="Arial" font-size="14.00">1</text>
</g>
<!-- person_keywords -->
<g id="node4" class="node">
<title>person_keywords</title>
<polygon fill="#a6ce39" stroke="none" points="436.62,-206.88 315.12,-206.88 315.12,-118.12 436.62,-118.12 436.62,-206.88"/>
<text text-anchor="start" x="318.12" y="-191.57" font-family="Arial" font-weight="bold" font-size="14.00">person_keywords</text>
<text text-anchor="start" x="339.12" y="-170.82" font-family="Arial" font-size="14.00">id</text>
<text text-anchor="start" x="339.12" y="-155.07" font-family="Arial" font-size="14.00">container_id</text>
<text text-anchor="start" x="339.12" y="-139.32" font-family="Arial" font-size="14.00">person_id</text>
<text text-anchor="start" x="339.12" y="-123.58" font-family="Arial" font-size="14.00">keyword</text>
<polygon fill="black" stroke="black" points="315.12,-186.12 315.12,-186.12 436.62,-186.12 436.62,-186.12 315.12,-186.12"/>
<polygon fill="none" stroke="black" points="315.12,-118.12 315.12,-206.88 436.62,-206.88 436.62,-118.12 315.12,-118.12"/>
</g>
<!-- persons&#45;&gt;person_keywords -->
<g id="edge3" class="edge">
<title>persons&#45;&gt;person_keywords</title>
<path fill="none" stroke="black" d="M1173.48,-454.08C1028.1,-446.45 560.92,-415.24 445.88,-325 408.97,-296.05 391.15,-243.75 382.8,-206.52"/>
<text text-anchor="middle" x="367.05" y="-208.97" font-family="Arial" font-size="14.00">0…N</text>
<text text-anchor="middle" x="1169.73" y="-440.78" font-family="Arial" font-size="14.00">1</text>
</g>
<!-- person_external_identifiers -->
<g id="node5" class="node">
<title>person_external_identifiers</title>
<polygon fill="#a6ce39" stroke="none" points="637,-222.62 454.75,-222.62 454.75,-102.38 637,-102.38 637,-222.62"/>
<text text-anchor="start" x="457.75" y="-207.32" font-family="Arial" font-weight="bold" font-size="14.00">person_external_identifiers</text>
<text text-anchor="start" x="509.12" y="-186.57" font-family="Arial" font-size="14.00">id</text>
<text text-anchor="start" x="509.12" y="-170.82" font-family="Arial" font-size="14.00">container_id</text>
<text text-anchor="start" x="509.12" y="-155.07" font-family="Arial" font-size="14.00">person_id</text>
<text text-anchor="start" x="509.12" y="-139.32" font-family="Arial" font-size="14.00">type</text>
<text text-anchor="start" x="509.12" y="-123.58" font-family="Arial" font-size="14.00">value</text>
<text text-anchor="start" x="509.12" y="-107.83" font-family="Arial" font-size="14.00">url</text>
<polygon fill="black" stroke="black" points="454.75,-201.88 454.75,-201.88 637,-201.88 637,-201.88 454.75,-201.88"/>
<polygon fill="none" stroke="black" points="454.75,-102.38 454.75,-222.62 637,-222.62 637,-102.38 454.75,-102.38"/>
</g>
<!-- persons&#45;&gt;person_external_identifiers -->
<g id="edge4" class="edge">
<title>persons&#45;&gt;person_external_identifiers</title>
<path fill="none" stroke="black" d="M1173.68,-457.04C1071.88,-457.08 812.97,-444.56 645.88,-325 610.34,-299.57 584.8,-257.2 568.43,-222.24"/>
<text text-anchor="middle" x="552.68" y="-224.69" font-family="Arial" font-size="14.00">0…N</text>
<text text-anchor="middle" x="1169.93" y="-459.49" font-family="Arial" font-size="14.00">1</text>
</g>
<!-- person_distinctions -->
<g id="node6" class="node">
<title>person_distinctions</title>
<polygon fill="#a6ce39" stroke="none" points="792.88,-301.38 654.88,-301.38 654.88,-23.62 792.88,-23.62 792.88,-301.38"/>
<text text-anchor="start" x="659.75" y="-286.07" font-family="Arial" font-weight="bold" font-size="14.00">person_distinctions</text>
<text text-anchor="start" x="657.88" y="-265.32" font-family="Arial" font-size="14.00">id</text>
<text text-anchor="start" x="657.88" y="-249.57" font-family="Arial" font-size="14.00">container_id</text>
<text text-anchor="start" x="657.88" y="-233.82" font-family="Arial" font-size="14.00">person_id</text>
<text text-anchor="start" x="657.88" y="-218.07" font-family="Arial" font-size="14.00">organization_name</text>
<text text-anchor="start" x="657.88" y="-202.32" font-family="Arial" font-size="14.00">organization_city</text>
<text text-anchor="start" x="657.88" y="-186.57" font-family="Arial" font-size="14.00">organization_region</text>
<text text-anchor="start" x="657.88" y="-170.82" font-family="Arial" font-size="14.00">organization_country</text>
<text text-anchor="start" x="657.88" y="-155.07" font-family="Arial" font-size="14.00">organization_identifier</text>
<text text-anchor="start" x="657.88" y="-139.32" font-family="Arial" font-size="14.00">department_name</text>
<text text-anchor="start" x="657.88" y="-123.58" font-family="Arial" font-size="14.00">role_title</text>
<text text-anchor="start" x="657.88" y="-107.83" font-family="Arial" font-size="14.00">start_year</text>
<text text-anchor="start" x="657.88" y="-92.08" font-family="Arial" font-size="14.00">start_month</text>
<text text-anchor="start" x="657.88" y="-76.33" font-family="Arial" font-size="14.00">start_day</text>
<text text-anchor="start" x="657.88" y="-60.58" font-family="Arial" font-size="14.00">end_year</text>
<text text-anchor="start" x="657.88" y="-44.83" font-family="Arial" font-size="14.00">end_month</text>
<text text-anchor="start" x="657.88" y="-29.07" font-family="Arial" font-size="14.00">end_day</text>
<polygon fill="black" stroke="black" points="654.88,-280.62 654.88,-280.62 792.88,-280.62 792.88,-280.62 654.88,-280.62"/>
<polygon fill="none" stroke="black" points="654.88,-23.62 654.88,-301.38 792.88,-301.38 792.88,-23.62 654.88,-23.62"/>
</g>
<!-- persons&#45;&gt;person_distinctions -->
<g id="edge5" class="edge">
<title>persons&#45;&gt;person_distinctions</title>
<path fill="none" stroke="black" d="M1173.56,-453.52C1091.55,-446.43 912,-420.31 801.88,-325 793.75,-317.97 786.4,-309.9 779.77,-301.2"/>
<text text-anchor="middle" x="764.02" y="-303.65" font-family="Arial" font-size="14.00">0…N</text>
<text text-anchor="middle" x="1177.31" y="-455.97" font-family="Arial" font-size="14.00">1</text>
</g>
<!-- person_educations -->
<g id="node7" class="node">
<title>person_educations</title>
<polygon fill="#a6ce39" stroke="none" points="948.88,-301.38 810.88,-301.38 810.88,-23.62 948.88,-23.62 948.88,-301.38"/>
<text text-anchor="start" x="818" y="-286.07" font-family="Arial" font-weight="bold" font-size="14.00">person_educations</text>
<text text-anchor="start" x="813.88" y="-265.32" font-family="Arial" font-size="14.00">id</text>
<text text-anchor="start" x="813.88" y="-249.57" font-family="Arial" font-size="14.00">container_id</text>
<text text-anchor="start" x="813.88" y="-233.82" font-family="Arial" font-size="14.00">person_id</text>
<text text-anchor="start" x="813.88" y="-218.07" font-family="Arial" font-size="14.00">organization_name</text>
<text text-anchor="start" x="813.88" y="-202.32" font-family="Arial" font-size="14.00">organization_city</text>
<text text-anchor="start" x="813.88" y="-186.57" font-family="Arial" font-size="14.00">organization_region</text>
<text text-anchor="start" x="813.88" y="-170.82" font-family="Arial" font-size="14.00">organization_country</text>
<text text-anchor="start" x="813.88" y="-155.07" font-family="Arial" font-size="14.00">organization_identifier</text>
<text text-anchor="start" x="813.88" y="-139.32" font-family="Arial" font-size="14.00">department_name</text>
<text text-anchor="start" x="813.88" y="-123.58" font-family="Arial" font-size="14.00">role_title</text>
<text text-anchor="start" x="813.88" y="-107.83" font-family="Arial" font-size="14.00">start_year</text>
<text text-anchor="start" x="813.88" y="-92.08" font-family="Arial" font-size="14.00">start_month</text>
<text text-anchor="start" x="813.88" y="-76.33" font-family="Arial" font-size="14.00">start_day</text>
<text text-anchor="start" x="813.88" y="-60.58" font-family="Arial" font-size="14.00">end_year</text>
<text text-anchor="start" x="813.88" y="-44.83" font-family="Arial" font-size="14.00">end_month</text>
<text text-anchor="start" x="813.88" y="-29.07" font-family="Arial" font-size="14.00">end_day</text>
<polygon fill="black" stroke="black" points="810.88,-280.62 810.88,-280.62 948.88,-280.62 948.88,-280.62 810.88,-280.62"/>
<polygon fill="none" stroke="black" points="810.88,-23.62 810.88,-301.38 948.88,-301.38 948.88,-23.62 810.88,-23.62"/>
</g>
<!-- persons&#45;&gt;person_educations -->
<g id="edge6" class="edge">
<title>persons&#45;&gt;person_educations</title>
<path fill="none" stroke="black" d="M1173.57,-443.8C1117.44,-425.89 1019.48,-387.77 957.88,-325 950.79,-317.78 944.24,-309.79 938.21,-301.34"/>
<text text-anchor="middle" x="922.46" y="-303.79" font-family="Arial" font-size="14.00">0…N</text>
<text text-anchor="middle" x="1169.82" y="-430.5" font-family="Arial" font-size="14.00">1</text>
</g>
<!-- person_employments -->
<g id="node8" class="node">
<title>person_employments</title>
<polygon fill="#a6ce39" stroke="none" points="1114.38,-301.38 967.38,-301.38 967.38,-23.62 1114.38,-23.62 1114.38,-301.38"/>
<text text-anchor="start" x="970.38" y="-286.07" font-family="Arial" font-weight="bold" font-size="14.00">person_employments</text>
<text text-anchor="start" x="974.88" y="-265.32" font-family="Arial" font-size="14.00">id</text>
<text text-anchor="start" x="974.88" y="-249.57" font-family="Arial" font-size="14.00">container_id</text>
<text text-anchor="start" x="974.88" y="-233.82" font-family="Arial" font-size="14.00">person_id</text>
<text text-anchor="start" x="974.88" y="-218.07" font-family="Arial" font-size="14.00">organization_name</text>
<text text-anchor="start" x="974.88" y="-202.32" font-family="Arial" font-size="14.00">organization_city</text>
<text text-anchor="start" x="974.88" y="-186.57" font-family="Arial" font-size="14.00">organization_region</text>
<text text-anchor="start" x="974.88" y="-170.82" font-family="Arial" font-size="14.00">organization_country</text>
<text text-anchor="start" x="974.88" y="-155.07" font-family="Arial" font-size="14.00">organization_identifier</text>
<text text-anchor="start" x="974.88" y="-139.32" font-family="Arial" font-size="14.00">department_name</text>
<text text-anchor="start" x="974.88" y="-123.58" font-family="Arial" font-size="14.00">role_title</text>
<text text-anchor="start" x="974.88" y="-107.83" font-family="Arial" font-size="14.00">start_year</text>
<text text-anchor="start" x="974.88" y="-92.08" font-family="Arial" font-size="14.00">start_month</text>
<text text-anchor="start" x="974.88" y="-76.33" font-family="Arial" font-size="14.00">start_day</text>
<text text-anchor="start" x="974.88" y="-60.58" font-family="Arial" font-size="14.00">end_year</text>
<text text-anchor="start" x="974.88" y="-44.83" font-family="Arial" font-size="14.00">end_month</text>
<text text-anchor="start" x="974.88" y="-29.07" font-family="Arial" font-size="14.00">end_day</text>
<polygon fill="black" stroke="black" points="967.38,-280.62 967.38,-280.62 1114.38,-280.62 1114.38,-280.62 967.38,-280.62"/>
<polygon fill="none" stroke="black" points="967.38,-23.62 967.38,-301.38 1114.38,-301.38 1114.38,-23.62 967.38,-23.62"/>
</g>
<!-- persons&#45;&gt;person_employments -->
<g id="edge7" class="edge">
<title>persons&#45;&gt;person_employments</title>
<path fill="none" stroke="black" d="M1173.52,-399.64C1156.88,-376.96 1138.22,-350.26 1122.88,-325 1118.22,-317.34 1113.59,-309.38 1109.03,-301.29"/>
<text text-anchor="middle" x="1093.28" y="-303.74" font-family="Arial" font-size="14.00">0…N</text>
<text text-anchor="middle" x="1169.77" y="-402.09" font-family="Arial" font-size="14.00">1</text>
</g>
<!-- person_invited_positions -->
<g id="node9" class="node">
<title>person_invited_positions</title>
<polygon fill="#a6ce39" stroke="none" points="1301.62,-301.38 1132.12,-301.38 1132.12,-23.62 1301.62,-23.62 1301.62,-301.38"/>
<text text-anchor="start" x="1135.12" y="-286.07" font-family="Arial" font-weight="bold" font-size="14.00">person_invited_positions</text>
<text text-anchor="start" x="1150.88" y="-265.32" font-family="Arial" font-size="14.00">id</text>
<text text-anchor="start" x="1150.88" y="-249.57" font-family="Arial" font-size="14.00">container_id</text>
<text text-anchor="start" x="1150.88" y="-233.82" font-family="Arial" font-size="14.00">person_id</text>
<text text-anchor="start" x="1150.88" y="-218.07" font-family="Arial" font-size="14.00">organization_name</text>
<text text-anchor="start" x="1150.88" y="-202.32" font-family="Arial" font-size="14.00">organization_city</text>
<text text-anchor="start" x="1150.88" y="-186.57" font-family="Arial" font-size="14.00">organization_region</text>
<text text-anchor="start" x="1150.88" y="-170.82" font-family="Arial" font-size="14.00">organization_country</text>
<text text-anchor="start" x="1150.88" y="-155.07" font-family="Arial" font-size="14.00">organization_identifier</text>
<text text-anchor="start" x="1150.88" y="-139.32" font-family="Arial" font-size="14.00">department_name</text>
<text text-anchor="start" x="1150.88" y="-123.58" font-family="Arial" font-size="14.00">role_title</text>
<text text-anchor="start" x="1150.88" y="-107.83" font-family="Arial" font-size="14.00">start_year</text>
<text text-anchor="start" x="1150.88" y="-92.08" font-family="Arial" font-size="14.00">start_month</text>
<text text-anchor="start" x="1150.88" y="-76.33" font-family="Arial" font-size="14.00">start_day</text>
<text text-anchor="start" x="1150.88" y="-60.58" font-family="Arial" font-size="14.00">end_year</text>
<text text-anchor="start" x="1150.88" y="-44.83" font-family="Arial" font-size="14.00">end_month</text>
<text text-anchor="start" x="1150.88" y="-29.07" font-family="Arial" font-size="14.00">end_day</text>
<polygon fill="black" stroke="black" points="1132.12,-280.62 1132.12,-280.62 1301.62,-280.62 1301.62,-280.62 1132.12,-280.62"/>
<polygon fill="none" stroke="black" points="1132.12,-23.62 1132.12,-301.38 1301.62,-301.38 1301.62,-23.62 1132.12,-23.62"/>
</g>
<!-- persons&#45;&gt;person_invited_positions -->
<g id="edge8" class="edge">
<title>persons&#45;&gt;person_invited_positions</title>
<path fill="none" stroke="black" d="M1216.88,-397.26C1216.88,-369.47 1216.88,-335.04 1216.88,-301.22"/>
<text text-anchor="middle" x="1201.12" y="-303.67" font-family="Arial" font-size="14.00">0…N</text>
<text text-anchor="middle" x="1213.12" y="-383.96" font-family="Arial" font-size="14.00">1</text>
</g>
<!-- person_memberships -->
<g id="node10" class="node">
<title>person_memberships</title>
<polygon fill="#a6ce39" stroke="none" points="1467.75,-301.38 1320,-301.38 1320,-23.62 1467.75,-23.62 1467.75,-301.38"/>
<text text-anchor="start" x="1323" y="-286.07" font-family="Arial" font-weight="bold" font-size="14.00">person_memberships</text>
<text text-anchor="start" x="1327.88" y="-265.32" font-family="Arial" font-size="14.00">id</text>
<text text-anchor="start" x="1327.88" y="-249.57" font-family="Arial" font-size="14.00">container_id</text>
<text text-anchor="start" x="1327.88" y="-233.82" font-family="Arial" font-size="14.00">person_id</text>
<text text-anchor="start" x="1327.88" y="-218.07" font-family="Arial" font-size="14.00">organization_name</text>
<text text-anchor="start" x="1327.88" y="-202.32" font-family="Arial" font-size="14.00">organization_city</text>
<text text-anchor="start" x="1327.88" y="-186.57" font-family="Arial" font-size="14.00">organization_region</text>
<text text-anchor="start" x="1327.88" y="-170.82" font-family="Arial" font-size="14.00">organization_country</text>
<text text-anchor="start" x="1327.88" y="-155.07" font-family="Arial" font-size="14.00">organization_identifier</text>
<text text-anchor="start" x="1327.88" y="-139.32" font-family="Arial" font-size="14.00">department_name</text>
<text text-anchor="start" x="1327.88" y="-123.58" font-family="Arial" font-size="14.00">role_title</text>
<text text-anchor="start" x="1327.88" y="-107.83" font-family="Arial" font-size="14.00">start_year</text>
<text text-anchor="start" x="1327.88" y="-92.08" font-family="Arial" font-size="14.00">start_month</text>
<text text-anchor="start" x="1327.88" y="-76.33" font-family="Arial" font-size="14.00">start_day</text>
<text text-anchor="start" x="1327.88" y="-60.58" font-family="Arial" font-size="14.00">end_year</text>
<text text-anchor="start" x="1327.88" y="-44.83" font-family="Arial" font-size="14.00">end_month</text>
<text text-anchor="start" x="1327.88" y="-29.07" font-family="Arial" font-size="14.00">end_day</text>
<polygon fill="black" stroke="black" points="1320,-280.62 1320,-280.62 1467.75,-280.62 1467.75,-280.62 1320,-280.62"/>
<polygon fill="none" stroke="black" points="1320,-23.62 1320,-301.38 1467.75,-301.38 1467.75,-23.62 1320,-23.62"/>
</g>
<!-- persons&#45;&gt;person_memberships -->
<g id="edge9" class="edge">
<title>persons&#45;&gt;person_memberships</title>
<path fill="none" stroke="black" d="M1260.17,-399.6C1276.8,-376.92 1295.47,-350.22 1310.88,-325 1315.56,-317.33 1320.23,-309.37 1324.83,-301.28"/>
<text text-anchor="middle" x="1309.08" y="-303.73" font-family="Arial" font-size="14.00">0…N</text>
<text text-anchor="middle" x="1263.92" y="-402.05" font-family="Arial" font-size="14.00">1</text>
</g>
<!-- person_qualifications -->
<g id="node11" class="node">
<title>person_qualifications</title>
<polygon fill="#a6ce39" stroke="none" points="1631.62,-301.38 1486.12,-301.38 1486.12,-23.62 1631.62,-23.62 1631.62,-301.38"/>
<text text-anchor="start" x="1489.12" y="-286.07" font-family="Arial" font-weight="bold" font-size="14.00">person_qualifications</text>
<text text-anchor="start" x="1492.88" y="-265.32" font-family="Arial" font-size="14.00">id</text>
<text text-anchor="start" x="1492.88" y="-249.57" font-family="Arial" font-size="14.00">container_id</text>
<text text-anchor="start" x="1492.88" y="-233.82" font-family="Arial" font-size="14.00">person_id</text>
<text text-anchor="start" x="1492.88" y="-218.07" font-family="Arial" font-size="14.00">organization_name</text>
<text text-anchor="start" x="1492.88" y="-202.32" font-family="Arial" font-size="14.00">organization_city</text>
<text text-anchor="start" x="1492.88" y="-186.57" font-family="Arial" font-size="14.00">organization_region</text>
<text text-anchor="start" x="1492.88" y="-170.82" font-family="Arial" font-size="14.00">organization_country</text>
<text text-anchor="start" x="1492.88" y="-155.07" font-family="Arial" font-size="14.00">organization_identifier</text>
<text text-anchor="start" x="1492.88" y="-139.32" font-family="Arial" font-size="14.00">department_name</text>
<text text-anchor="start" x="1492.88" y="-123.58" font-family="Arial" font-size="14.00">role_title</text>
<text text-anchor="start" x="1492.88" y="-107.83" font-family="Arial" font-size="14.00">start_year</text>
<text text-anchor="start" x="1492.88" y="-92.08" font-family="Arial" font-size="14.00">start_month</text>
<text text-anchor="start" x="1492.88" y="-76.33" font-family="Arial" font-size="14.00">start_day</text>
<text text-anchor="start" x="1492.88" y="-60.58" font-family="Arial" font-size="14.00">end_year</text>
<text text-anchor="start" x="1492.88" y="-44.83" font-family="Arial" font-size="14.00">end_month</text>
<text text-anchor="start" x="1492.88" y="-29.07" font-family="Arial" font-size="14.00">end_day</text>
<polygon fill="black" stroke="black" points="1486.12,-280.62 1486.12,-280.62 1631.62,-280.62 1631.62,-280.62 1486.12,-280.62"/>
<polygon fill="none" stroke="black" points="1486.12,-23.62 1486.12,-301.38 1631.62,-301.38 1631.62,-23.62 1486.12,-23.62"/>
</g>
<!-- persons&#45;&gt;person_qualifications -->
<g id="edge10" class="edge">
<title>persons&#45;&gt;person_qualifications</title>
<path fill="none" stroke="black" d="M1260.16,-443.66C1316.3,-425.59 1414.41,-387.29 1476.88,-325 1484.11,-317.78 1490.83,-309.8 1497.05,-301.35"/>
<text text-anchor="middle" x="1481.3" y="-303.8" font-family="Arial" font-size="14.00">0…N</text>
<text text-anchor="middle" x="1263.91" y="-430.36" font-family="Arial" font-size="14.00">1</text>
</g>
<!-- person_services -->
<g id="node12" class="node">
<title>person_services</title>
<polygon fill="#a6ce39" stroke="none" points="1787.88,-301.38 1649.88,-301.38 1649.88,-23.62 1787.88,-23.62 1787.88,-301.38"/>
<text text-anchor="start" x="1665.62" y="-286.07" font-family="Arial" font-weight="bold" font-size="14.00">person_services</text>
<text text-anchor="start" x="1652.88" y="-265.32" font-family="Arial" font-size="14.00">id</text>
<text text-anchor="start" x="1652.88" y="-249.57" font-family="Arial" font-size="14.00">container_id</text>
<text text-anchor="start" x="1652.88" y="-233.82" font-family="Arial" font-size="14.00">person_id</text>
<text text-anchor="start" x="1652.88" y="-218.07" font-family="Arial" font-size="14.00">organization_name</text>
<text text-anchor="start" x="1652.88" y="-202.32" font-family="Arial" font-size="14.00">organization_city</text>
<text text-anchor="start" x="1652.88" y="-186.57" font-family="Arial" font-size="14.00">organization_region</text>
<text text-anchor="start" x="1652.88" y="-170.82" font-family="Arial" font-size="14.00">organization_country</text>
<text text-anchor="start" x="1652.88" y="-155.07" font-family="Arial" font-size="14.00">organization_identifier</text>
<text text-anchor="start" x="1652.88" y="-139.32" font-family="Arial" font-size="14.00">department_name</text>
<text text-anchor="start" x="1652.88" y="-123.58" font-family="Arial" font-size="14.00">role_title</text>
<text text-anchor="start" x="1652.88" y="-107.83" font-family="Arial" font-size="14.00">start_year</text>
<text text-anchor="start" x="1652.88" y="-92.08" font-family="Arial" font-size="14.00">start_month</text>
<text text-anchor="start" x="1652.88" y="-76.33" font-family="Arial" font-size="14.00">start_day</text>
<text text-anchor="start" x="1652.88" y="-60.58" font-family="Arial" font-size="14.00">end_year</text>
<text text-anchor="start" x="1652.88" y="-44.83" font-family="Arial" font-size="14.00">end_month</text>
<text text-anchor="start" x="1652.88" y="-29.07" font-family="Arial" font-size="14.00">end_day</text>
<polygon fill="black" stroke="black" points="1649.88,-280.62 1649.88,-280.62 1787.88,-280.62 1787.88,-280.62 1649.88,-280.62"/>
<polygon fill="none" stroke="black" points="1649.88,-23.62 1649.88,-301.38 1787.88,-301.38 1787.88,-23.62 1649.88,-23.62"/>
</g>
<!-- persons&#45;&gt;person_services -->
<g id="edge11" class="edge">
<title>persons&#45;&gt;person_services</title>
<path fill="none" stroke="black" d="M1260.14,-453.88C1343.44,-447.39 1527.85,-422.23 1640.88,-325 1649.02,-317.99 1656.38,-309.94 1663.03,-301.26"/>
<text text-anchor="middle" x="1647.28" y="-303.71" font-family="Arial" font-size="14.00">0…N</text>
<text text-anchor="middle" x="1263.89" y="-456.33" font-family="Arial" font-size="14.00">1</text>
</g>
<!-- person_fundings -->
<g id="node13" class="node">
<title>person_fundings</title>
<polygon fill="#a6ce39" stroke="none" points="1943.88,-325 1805.88,-325 1805.88,0 1943.88,0 1943.88,-325"/>
<text text-anchor="start" x="1820.12" y="-309.7" font-family="Arial" font-weight="bold" font-size="14.00">person_fundings</text>
<text text-anchor="start" x="1808.88" y="-288.95" font-family="Arial" font-size="14.00">id</text>
<text text-anchor="start" x="1808.88" y="-273.2" font-family="Arial" font-size="14.00">container_id</text>
<text text-anchor="start" x="1808.88" y="-257.45" font-family="Arial" font-size="14.00">person_id</text>
<text text-anchor="start" x="1808.88" y="-241.7" font-family="Arial" font-size="14.00">title</text>
<text text-anchor="start" x="1808.88" y="-225.95" font-family="Arial" font-size="14.00">type</text>
<text text-anchor="start" x="1808.88" y="-210.2" font-family="Arial" font-size="14.00">short_description</text>
<text text-anchor="start" x="1808.88" y="-194.45" font-family="Arial" font-size="14.00">amount</text>
<text text-anchor="start" x="1808.88" y="-178.7" font-family="Arial" font-size="14.00">url</text>
<text text-anchor="start" x="1808.88" y="-162.95" font-family="Arial" font-size="14.00">start_year</text>
<text text-anchor="start" x="1808.88" y="-147.2" font-family="Arial" font-size="14.00">start_month</text>
<text text-anchor="start" x="1808.88" y="-131.45" font-family="Arial" font-size="14.00">start_day</text>
<text text-anchor="start" x="1808.88" y="-115.7" font-family="Arial" font-size="14.00">end_year</text>
<text text-anchor="start" x="1808.88" y="-99.95" font-family="Arial" font-size="14.00">end_month</text>
<text text-anchor="start" x="1808.88" y="-84.2" font-family="Arial" font-size="14.00">end_day</text>
<text text-anchor="start" x="1808.88" y="-68.45" font-family="Arial" font-size="14.00">organization_name</text>
<text text-anchor="start" x="1808.88" y="-52.7" font-family="Arial" font-size="14.00">organization_city</text>
<text text-anchor="start" x="1808.88" y="-36.95" font-family="Arial" font-size="14.00">organization_region</text>
<text text-anchor="start" x="1808.88" y="-21.2" font-family="Arial" font-size="14.00">organization_country</text>
<text text-anchor="start" x="1808.88" y="-5.45" font-family="Arial" font-size="14.00">organization_identifier</text>
<polygon fill="black" stroke="black" points="1805.88,-304.25 1805.88,-304.25 1943.88,-304.25 1943.88,-304.25 1805.88,-304.25"/>
<polygon fill="none" stroke="black" points="1805.88,0 1805.88,-325 1943.88,-325 1943.88,0 1805.88,0"/>
</g>
<!-- persons&#45;&gt;person_fundings -->
<g id="edge12" class="edge">
<title>persons&#45;&gt;person_fundings</title>
<path fill="none" stroke="black" d="M1260.24,-451.23C1380.08,-436.94 1712.52,-392.05 1796.88,-325 1800.04,-322.48 1803.09,-319.8 1806.02,-316.98"/>
<text text-anchor="middle" x="1790.27" y="-319.43" font-family="Arial" font-size="14.00">0…N</text>
<text text-anchor="middle" x="1263.99" y="-437.93" font-family="Arial" font-size="14.00">1</text>
</g>
<!-- person_peer_reviews -->
<g id="node14" class="node">
<title>person_peer_reviews</title>
<polygon fill="#a6ce39" stroke="none" points="2106.25,-301.38 1961.5,-301.38 1961.5,-23.62 2106.25,-23.62 2106.25,-301.38"/>
<text text-anchor="start" x="1964.5" y="-286.07" font-family="Arial" font-weight="bold" font-size="14.00">person_peer_reviews</text>
<text text-anchor="start" x="1971.25" y="-265.32" font-family="Arial" font-size="14.00">id</text>
<text text-anchor="start" x="1971.25" y="-249.57" font-family="Arial" font-size="14.00">container_id</text>
<text text-anchor="start" x="1971.25" y="-233.82" font-family="Arial" font-size="14.00">person_id</text>
<text text-anchor="start" x="1971.25" y="-218.07" font-family="Arial" font-size="14.00">reviewer_role</text>
<text text-anchor="start" x="1971.25" y="-202.32" font-family="Arial" font-size="14.00">review_type</text>
<text text-anchor="start" x="1971.25" y="-186.57" font-family="Arial" font-size="14.00">subject_type</text>
<text text-anchor="start" x="1971.25" y="-170.82" font-family="Arial" font-size="14.00">subject_name</text>
<text text-anchor="start" x="1971.25" y="-155.07" font-family="Arial" font-size="14.00">subject_url</text>
<text text-anchor="start" x="1971.25" y="-139.32" font-family="Arial" font-size="14.00">group_id</text>
<text text-anchor="start" x="1971.25" y="-123.58" font-family="Arial" font-size="14.00">completion_year</text>
<text text-anchor="start" x="1971.25" y="-107.83" font-family="Arial" font-size="14.00">completion_month</text>
<text text-anchor="start" x="1971.25" y="-92.08" font-family="Arial" font-size="14.00">completion_day</text>
<text text-anchor="start" x="1971.25" y="-76.33" font-family="Arial" font-size="14.00">organization_name</text>
<text text-anchor="start" x="1971.25" y="-60.58" font-family="Arial" font-size="14.00">organization_city</text>
<text text-anchor="start" x="1971.25" y="-44.83" font-family="Arial" font-size="14.00">organization_region</text>
<text text-anchor="start" x="1971.25" y="-29.07" font-family="Arial" font-size="14.00">organization_country</text>
<polygon fill="black" stroke="black" points="1961.5,-280.62 1961.5,-280.62 2106.25,-280.62 2106.25,-280.62 1961.5,-280.62"/>
<polygon fill="none" stroke="black" points="1961.5,-23.62 1961.5,-301.38 2106.25,-301.38 2106.25,-23.62 1961.5,-23.62"/>
</g>
<!-- persons&#45;&gt;person_peer_reviews -->
<g id="edge13" class="edge">
<title>persons&#45;&gt;person_peer_reviews</title>
<path fill="none" stroke="black" d="M1260.33,-453.44C1401.02,-443.97 1841.45,-408.16 1952.88,-325 1961.92,-318.25 1970.03,-310.2 1977.28,-301.35"/>
<text text-anchor="middle" x="1961.53" y="-303.8" font-family="Arial" font-size="14.00">0…N</text>
<text text-anchor="middle" x="1264.08" y="-455.89" font-family="Arial" font-size="14.00">1</text>
</g>
<!-- person_research_resources -->
<g id="node15" class="node">
<title>person_research_resources</title>
<polygon fill="#a6ce39" stroke="none" points="2311.25,-254.12 2124.5,-254.12 2124.5,-70.88 2311.25,-70.88 2311.25,-254.12"/>
<text text-anchor="start" x="2127.5" y="-238.82" font-family="Arial" font-weight="bold" font-size="14.00">person_research_resources</text>
<text text-anchor="start" x="2181.12" y="-218.07" font-family="Arial" font-size="14.00">id</text>
<text text-anchor="start" x="2181.12" y="-202.32" font-family="Arial" font-size="14.00">container_id</text>
<text text-anchor="start" x="2181.12" y="-186.57" font-family="Arial" font-size="14.00">person_id</text>
<text text-anchor="start" x="2181.12" y="-170.82" font-family="Arial" font-size="14.00">title</text>
<text text-anchor="start" x="2181.12" y="-155.07" font-family="Arial" font-size="14.00">start_year</text>
<text text-anchor="start" x="2181.12" y="-139.32" font-family="Arial" font-size="14.00">start_month</text>
<text text-anchor="start" x="2181.12" y="-123.58" font-family="Arial" font-size="14.00">start_day</text>
<text text-anchor="start" x="2181.12" y="-107.83" font-family="Arial" font-size="14.00">end_year</text>
<text text-anchor="start" x="2181.12" y="-92.08" font-family="Arial" font-size="14.00">end_month</text>
<text text-anchor="start" x="2181.12" y="-76.33" font-family="Arial" font-size="14.00">end_day</text>
<polygon fill="black" stroke="black" points="2124.5,-233.38 2124.5,-233.38 2311.25,-233.38 2311.25,-233.38 2124.5,-233.38"/>
<polygon fill="none" stroke="black" points="2124.5,-70.88 2124.5,-254.12 2311.25,-254.12 2311.25,-70.88 2124.5,-70.88"/>
</g>
<!-- persons&#45;&gt;person_research_resources -->
<g id="edge14" class="edge">
<title>persons&#45;&gt;person_research_resources</title>
<path fill="none" stroke="black" d="M1260.28,-454.5C1419.61,-447.84 1970.5,-418.36 2114.88,-325 2141.54,-307.75 2162.65,-280.9 2178.63,-254.01"/>
<text text-anchor="middle" x="2162.88" y="-256.46" font-family="Arial" font-size="14.00">0…N</text>
<text text-anchor="middle" x="1256.53" y="-456.95" font-family="Arial" font-size="14.00">1</text>
</g>
<!-- person_works -->
<g id="node16" class="node">
<title>person_works</title>
<polygon fill="#a6ce39" stroke="none" points="2428,-206.88 2329.75,-206.88 2329.75,-118.12 2428,-118.12 2428,-206.88"/>
<text text-anchor="start" x="2332.75" y="-191.57" font-family="Arial" font-weight="bold" font-size="14.00">person_works</text>
<text text-anchor="start" x="2342.12" y="-170.82" font-family="Arial" font-size="14.00">id</text>
<text text-anchor="start" x="2342.12" y="-155.07" font-family="Arial" font-size="14.00">container_id</text>
<text text-anchor="start" x="2342.12" y="-139.32" font-family="Arial" font-size="14.00">person_id</text>
<text text-anchor="start" x="2342.12" y="-123.58" font-family="Arial" font-size="14.00">doi</text>
<polygon fill="black" stroke="black" points="2329.75,-186.12 2329.75,-186.12 2428,-186.12 2428,-186.12 2329.75,-186.12"/>
<polygon fill="none" stroke="black" points="2329.75,-118.12 2329.75,-206.88 2428,-206.88 2428,-118.12 2329.75,-118.12"/>
</g>
<!-- persons&#45;&gt;person_works -->
<g id="edge15" class="edge">
<title>persons&#45;&gt;person_works</title>
<path fill="none" stroke="black" d="M1260.3,-453.63C1454.22,-442.15 2235.19,-392.01 2319.88,-325 2355.81,-296.57 2369.86,-244.17 2375.35,-206.76"/>
<text text-anchor="middle" x="2359.6" y="-209.21" font-family="Arial" font-size="14.00">0…N</text>
<text text-anchor="middle" x="1256.55" y="-440.33" font-family="Arial" font-size="14.00">1</text>
</g>
</g>
</svg>
