<?xml version="1.0" encoding="UTF-8" standalone="no"?>
<!DOCTYPE svg PUBLIC "-//W3C//DTD SVG 1.1//EN"
 "http://www.w3.org/Graphics/SVG/1.1/DTD/svg11.dtd">
<!-- Generated by graphviz version 2.38.0 (20140413.2041)
 -->
<!-- Title: D Pages: 1 -->
<svg width="2611pt" height="505pt"
 viewBox="0.00 0.00 2610.50 505.00" xmlns="http://www.w3.org/2000/svg" xmlns:xlink="http://www.w3.org/1999/xlink">
<g id="graph0" class="graph" transform="scale(1 1) rotate(0) translate(4 501)">
<title>D</title>
<polygon fill="white" stroke="none" points="-4,4 -4,-501 2606.5,-501 2606.5,4 -4,4"/>
<!-- persons -->
<g id="node1" class="node"><title>persons</title>
<polygon fill="#a6ce39" stroke="none" points="1350.5,-497 1259.5,-497 1259.5,-382 1350.5,-382 1350.5,-497"/>
<text text-anchor="start" x="1276.5" y="-483.3" font-family="Arial" font-weight="bold" font-size="14.00">persons</text>
<text text-anchor="start" x="1263" y="-463.3" font-family="Arial" font-size="14.00">id</text>
<text text-anchor="start" x="1263" y="-448.3" font-family="Arial" font-size="14.00">container_id</text>
<text text-anchor="start" x="1263" y="-433.3" font-family="Arial" font-size="14.00">orcid</text>
<text text-anchor="start" x="1263" y="-418.3" font-family="Arial" font-size="14.00">given_names</text>
<text text-anchor="start" x="1263" y="-403.3" font-family="Arial" font-size="14.00">family_name</text>
<text text-anchor="start" x="1263" y="-388.3" font-family="Arial" font-size="14.00">biography</text>
<polygon fill="black" stroke="black" points="1260,-476.5 1260,-476.5 1351,-476.5 1351,-476.5 1260,-476.5"/>
<polygon fill="none" stroke="black" points="1259.5,-382 1259.5,-497 1350.5,-497 1350.5,-382 1259.5,-382"/>
</g>
<!-- person_researcher_urls -->
<g id="node2" class="node"><title>person_researcher_urls</title>
<polygon fill="#a6ce39" stroke="none" points="176,-205 0,-205 0,-105 176,-105 176,-205"/>
<text text-anchor="start" x="3" y="-191.8" font-family="Arial" font-weight="bold" font-size="14.00">person_researcher_urls</text>
<text text-anchor="start" x="49" y="-171.8" font-family="Arial" font-size="14.00">id</text>
<text text-anchor="start" x="49" y="-156.8" font-family="Arial" font-size="14.00">container_id</text>
<text text-anchor="start" x="49" y="-141.8" font-family="Arial" font-size="14.00">person_id</text>
<text text-anchor="start" x="49" y="-126.8" font-family="Arial" font-size="14.00">name</text>
<text text-anchor="start" x="49" y="-111.8" font-family="Arial" font-size="14.00">url</text>
<polygon fill="black" stroke="black" points="0,-185 0,-185 176,-185 176,-185 0,-185"/>
<polygon fill="none" stroke="black" points="0,-105 0,-205 176,-205 176,-105 0,-105"/>
</g>
<!-- persons&#45;&gt;person_researcher_urls -->
<g id="edge1" class="edge"><title>persons&#45;&gt;person_researcher_urls</title>
<path fill="none" stroke="black" d="M1259.46,-438.416C1072.92,-437.305 368.482,-425.409 185,-310 146.619,-285.858 120.788,-240.393 105.497,-205.095"/>
</g>
<!-- person_countries -->
<g id="node3" class="node"><title>person_countries</title>
<polygon fill="#a6ce39" stroke="none" points="324,-197.5 194,-197.5 194,-112.5 324,-112.5 324,-197.5"/>
<text text-anchor="start" x="197" y="-183.8" font-family="Arial" font-weight="bold" font-size="14.00">person_countries</text>
<text text-anchor="start" x="220" y="-163.8" font-family="Arial" font-size="14.00">id</text>
<text text-anchor="start" x="220" y="-148.8" font-family="Arial" font-size="14.00">container_id</text>
<text text-anchor="start" x="220" y="-133.8" font-family="Arial" font-size="14.00">person_id</text>
<text text-anchor="start" x="220" y="-118.8" font-family="Arial" font-size="14.00">country</text>
<polygon fill="black" stroke="black" points="194,-177 194,-177 324,-177 324,-177 194,-177"/>
<polygon fill="none" stroke="black" points="194,-112.5 194,-197.5 324,-197.5 324,-112.5 194,-112.5"/>
</g>
<!-- persons&#45;&gt;person_countries -->
<g id="edge2" class="edge"><title>persons&#45;&gt;person_countries</title>
<path fill="none" stroke="black" d="M1259.41,-438.078C1087.96,-435.657 483.92,-419.38 333,-310 296.253,-283.367 276.997,-233.561 267.452,-197.794"/>
</g>
<!-- person_keywords -->
<g id="node4" class="node"><title>person_keywords</title>
<polygon fill="#a6ce39" stroke="none" points="475.5,-197.5 342.5,-197.5 342.5,-112.5 475.5,-112.5 475.5,-197.5"/>
<text text-anchor="start" x="346" y="-183.8" font-family="Arial" font-weight="bold" font-size="14.00">person_keywords</text>
<text text-anchor="start" x="370.5" y="-163.8" font-family="Arial" font-size="14.00">id</text>
<text text-anchor="start" x="370.5" y="-148.8" font-family="Arial" font-size="14.00">container_id</text>
<text text-anchor="start" x="370.5" y="-133.8" font-family="Arial" font-size="14.00">person_id</text>
<text text-anchor="start" x="370.5" y="-118.8" font-family="Arial" font-size="14.00">keyword</text>
<polygon fill="black" stroke="black" points="343,-177 343,-177 476,-177 476,-177 343,-177"/>
<polygon fill="none" stroke="black" points="342.5,-112.5 342.5,-197.5 475.5,-197.5 475.5,-112.5 342.5,-112.5"/>
</g>
<!-- persons&#45;&gt;person_keywords -->
<g id="edge3" class="edge"><title>persons&#45;&gt;person_keywords</title>
<path fill="none" stroke="black" d="M1259.32,-436.774C1105.65,-430.156 610.102,-401.963 485,-310 448.246,-282.982 428.278,-233.251 418.159,-197.607"/>
</g>
<!-- person_external_identifiers -->
<g id="node5" class="node"><title>person_external_identifiers</title>
<polygon fill="#a6ce39" stroke="none" points="692,-212.5 494,-212.5 494,-97.5 692,-97.5 692,-212.5"/>
<text text-anchor="start" x="497" y="-198.8" font-family="Arial" font-weight="bold" font-size="14.00">person_external_identifiers</text>
<text text-anchor="start" x="554" y="-178.8" font-family="Arial" font-size="14.00">id</text>
<text text-anchor="start" x="554" y="-163.8" font-family="Arial" font-size="14.00">container_id</text>
<text text-anchor="start" x="554" y="-148.8" font-family="Arial" font-size="14.00">person_id</text>
<text text-anchor="start" x="554" y="-133.8" font-family="Arial" font-size="14.00">type</text>
<text text-anchor="start" x="554" y="-118.8" font-family="Arial" font-size="14.00">value</text>
<text text-anchor="start" x="554" y="-103.8" font-family="Arial" font-size="14.00">url</text>
<polygon fill="black" stroke="black" points="494,-192 494,-192 692,-192 692,-192 494,-192"/>
<polygon fill="none" stroke="black" points="494,-97.5 494,-212.5 692,-212.5 692,-97.5 494,-97.5"/>
</g>
<!-- persons&#45;&gt;person_external_identifiers -->
<g id="edge4" class="edge"><title>persons&#45;&gt;person_external_identifiers</title>
<path fill="none" stroke="black" d="M1259.07,-433.129C1134.61,-417.898 793.992,-371.513 701,-310 665.049,-286.218 637.458,-246.018 619.165,-212.653"/>
</g>
<!-- person_distinctions -->
<g id="node6" class="node"><title>person_distinctions</title>
<polygon fill="#a6ce39" stroke="none" points="855.5,-287.5 710.5,-287.5 710.5,-22.5 855.5,-22.5 855.5,-287.5"/>
<text text-anchor="start" x="714" y="-273.8" font-family="Arial" font-weight="bold" font-size="14.00">person_distinctions</text>
<text text-anchor="start" x="714" y="-253.8" font-family="Arial" font-size="14.00">id</text>
<text text-anchor="start" x="714" y="-238.8" font-family="Arial" font-size="14.00">container_id</text>
<text text-anchor="start" x="714" y="-223.8" font-family="Arial" font-size="14.00">person_id</text>
<text text-anchor="start" x="714" y="-208.8" font-family="Arial" font-size="14.00">organization_name</text>
<text text-anchor="start" x="714" y="-193.8" font-family="Arial" font-size="14.00">organization_city</text>
<text text-anchor="start" x="714" y="-178.8" font-family="Arial" font-size="14.00">organization_region</text>
<text text-anchor="start" x="714" y="-163.8" font-family="Arial" font-size="14.00">organization_country</text>
<text text-anchor="start" x="714" y="-148.8" font-family="Arial" font-size="14.00">organization_identifier</text>
<text text-anchor="start" x="714" y="-133.8" font-family="Arial" font-size="14.00">department_name</text>
<text text-anchor="start" x="714" y="-118.8" font-family="Arial" font-size="14.00">role_title</text>
<text text-anchor="start" x="714" y="-103.8" font-family="Arial" font-size="14.00">start_year</text>
<text text-anchor="start" x="714" y="-88.8" font-family="Arial" font-size="14.00">start_month</text>
<text text-anchor="start" x="714" y="-73.8" font-family="Arial" font-size="14.00">start_day</text>
<text text-anchor="start" x="714" y="-58.8" font-family="Arial" font-size="14.00">end_year</text>
<text text-anchor="start" x="714" y="-43.8" font-family="Arial" font-size="14.00">end_month</text>
<text text-anchor="start" x="714" y="-28.8" font-family="Arial" font-size="14.00">end_day</text>
<polygon fill="black" stroke="black" points="711,-267 711,-267 856,-267 856,-267 711,-267"/>
<polygon fill="none" stroke="black" points="710.5,-22.5 710.5,-287.5 855.5,-287.5 855.5,-22.5 710.5,-22.5"/>
</g>
<!-- persons&#45;&gt;person_distinctions -->
<g id="edge5" class="edge"><title>persons&#45;&gt;person_distinctions</title>
<path fill="none" stroke="black" d="M1259.34,-436.654C1172.82,-430.905 983.031,-407.256 864,-310 855.929,-303.406 848.563,-295.792 841.857,-287.553"/>
</g>
<!-- person_educations -->
<g id="node7" class="node"><title>person_educations</title>
<polygon fill="#a6ce39" stroke="none" points="1018.5,-287.5 873.5,-287.5 873.5,-22.5 1018.5,-22.5 1018.5,-287.5"/>
<text text-anchor="start" x="878.5" y="-273.8" font-family="Arial" font-weight="bold" font-size="14.00">person_educations</text>
<text text-anchor="start" x="877" y="-253.8" font-family="Arial" font-size="14.00">id</text>
<text text-anchor="start" x="877" y="-238.8" font-family="Arial" font-size="14.00">container_id</text>
<text text-anchor="start" x="877" y="-223.8" font-family="Arial" font-size="14.00">person_id</text>
<text text-anchor="start" x="877" y="-208.8" font-family="Arial" font-size="14.00">organization_name</text>
<text text-anchor="start" x="877" y="-193.8" font-family="Arial" font-size="14.00">organization_city</text>
<text text-anchor="start" x="877" y="-178.8" font-family="Arial" font-size="14.00">organization_region</text>
<text text-anchor="start" x="877" y="-163.8" font-family="Arial" font-size="14.00">organization_country</text>
<text text-anchor="start" x="877" y="-148.8" font-family="Arial" font-size="14.00">organization_identifier</text>
<text text-anchor="start" x="877" y="-133.8" font-family="Arial" font-size="14.00">department_name</text>
<text text-anchor="start" x="877" y="-118.8" font-family="Arial" font-size="14.00">role_title</text>
<text text-anchor="start" x="877" y="-103.8" font-family="Arial" font-size="14.00">start_year</text>
<text text-anchor="start" x="877" y="-88.8" font-family="Arial" font-size="14.00">start_month</text>
<text text-anchor="start" x="877" y="-73.8" font-family="Arial" font-size="14.00">start_day</text>
<text text-anchor="start" x="877" y="-58.8" font-family="Arial" font-size="14.00">end_year</text>
<text text-anchor="start" x="877" y="-43.8" font-family="Arial" font-size="14.00">end_month</text>
<text text-anchor="start" x="877" y="-28.8" font-family="Arial" font-size="14.00">end_day</text>
<polygon fill="black" stroke="black" points="874,-267 874,-267 1019,-267 1019,-267 874,-267"/>
<polygon fill="none" stroke="black" points="873.5,-22.5 873.5,-287.5 1018.5,-287.5 1018.5,-22.5 873.5,-22.5"/>
</g>
<!-- persons&#45;&gt;person_educations -->
<g id="edge6" class="edge"><title>persons&#45;&gt;person_educations</title>
<path fill="none" stroke="black" d="M1259.34,-427.129C1199.78,-410.3 1095.28,-373.683 1028,-310 1020.85,-303.233 1014.19,-295.702 1008.02,-287.71"/>
</g>
<!-- person_employments -->
<g id="node8" class="node"><title>person_employments</title>
<polygon fill="#a6ce39" stroke="none" points="1195,-287.5 1037,-287.5 1037,-22.5 1195,-22.5 1195,-287.5"/>
<text text-anchor="start" x="1040" y="-273.8" font-family="Arial" font-weight="bold" font-size="14.00">person_employments</text>
<text text-anchor="start" x="1046.5" y="-253.8" font-family="Arial" font-size="14.00">id</text>
<text text-anchor="start" x="1046.5" y="-238.8" font-family="Arial" font-size="14.00">container_id</text>
<text text-anchor="start" x="1046.5" y="-223.8" font-family="Arial" font-size="14.00">person_id</text>
<text text-anchor="start" x="1046.5" y="-208.8" font-family="Arial" font-size="14.00">organization_name</text>
<text text-anchor="start" x="1046.5" y="-193.8" font-family="Arial" font-size="14.00">organization_city</text>
<text text-anchor="start" x="1046.5" y="-178.8" font-family="Arial" font-size="14.00">organization_region</text>
<text text-anchor="start" x="1046.5" y="-163.8" font-family="Arial" font-size="14.00">organization_country</text>
<text text-anchor="start" x="1046.5" y="-148.8" font-family="Arial" font-size="14.00">organization_identifier</text>
<text text-anchor="start" x="1046.5" y="-133.8" font-family="Arial" font-size="14.00">department_name</text>
<text text-anchor="start" x="1046.5" y="-118.8" font-family="Arial" font-size="14.00">role_title</text>
<text text-anchor="start" x="1046.5" y="-103.8" font-family="Arial" font-size="14.00">start_year</text>
<text text-anchor="start" x="1046.5" y="-88.8" font-family="Arial" font-size="14.00">start_month</text>
<text text-anchor="start" x="1046.5" y="-73.8" font-family="Arial" font-size="14.00">start_day</text>
<text text-anchor="start" x="1046.5" y="-58.8" font-family="Arial" font-size="14.00">end_year</text>
<text text-anchor="start" x="1046.5" y="-43.8" font-family="Arial" font-size="14.00">end_month</text>
<text text-anchor="start" x="1046.5" y="-28.8" font-family="Arial" font-size="14.00">end_day</text>
<polygon fill="black" stroke="black" points="1037,-267 1037,-267 1195,-267 1195,-267 1037,-267"/>
<polygon fill="none" stroke="black" points="1037,-22.5 1037,-287.5 1195,-287.5 1195,-22.5 1037,-22.5"/>
</g>
<!-- persons&#45;&gt;person_employments -->
<g id="edge7" class="edge"><title>persons&#45;&gt;person_employments</title>
<path fill="none" stroke="black" d="M1259.42,-384.174C1241.39,-361.764 1220.96,-335.184 1204,-310 1199.18,-302.848 1194.37,-295.419 1189.61,-287.857"/>
</g>
<!-- person_invited_positions -->
<g id="node9" class="node"><title>person_invited_positions</title>
<polygon fill="#a6ce39" stroke="none" points="1397,-287.5 1213,-287.5 1213,-22.5 1397,-22.5 1397,-287.5"/>
<text text-anchor="start" x="1216" y="-273.8" font-family="Arial" font-weight="bold" font-size="14.00">person_invited_positions</text>
<text text-anchor="start" x="1235.5" y="-253.8" font-family="Arial" font-size="14.00">id</text>
<text text-anchor="start" x="1235.5" y="-238.8" font-family="Arial" font-size="14.00">container_id</text>
<text text-anchor="start" x="1235.5" y="-223.8" font-family="Arial" font-size="14.00">person_id</text>
<text text-anchor="start" x="1235.5" y="-208.8" font-family="Arial" font-size="14.00">organization_name</text>
<text text-anchor="start" x="1235.5" y="-193.8" font-family="Arial" font-size="14.00">organization_city</text>
<text text-anchor="start" x="1235.5" y="-178.8" font-family="Arial" font-size="14.00">organization_region</text>
<text text-anchor="start" x="1235.5" y="-163.8" font-family="Arial" font-size="14.00">organization_country</text>
<text text-anchor="start" x="1235.5" y="-148.8" font-family="Arial" font-size="14.00">organization_identifier</text>
<text text-anchor="start" x="1235.5" y="-133.8" font-family="Arial" font-size="14.00">department_name</text>
<text text-anchor="start" x="1235.5" y="-118.8" font-family="Arial" font-size="14.00">role_title</text>
<text text-anchor="start" x="1235.5" y="-103.8" font-family="Arial" font-size="14.00">start_year</text>
<text text-anchor="start" x="1235.5" y="-88.8" font-family="Arial" font-size="14.00">start_month</text>
<text text-anchor="start" x="1235.5" y="-73.8" font-family="Arial" font-size="14.00">start_day</text>
<text text-anchor="start" x="1235.5" y="-58.8" font-family="Arial" font-size="14.00">end_year</text>
<text text-anchor="start" x="1235.5" y="-43.8" font-family="Arial" font-size="14.00">end_month</text>
<text text-anchor="start" x="1235.5" y="-28.8" font-family="Arial" font-size="14.00">end_day</text>
<polygon fill="black" stroke="black" points="1213,-267 1213,-267 1397,-267 1397,-267 1213,-267"/>
<polygon fill="none" stroke="black" points="1213,-22.5 1213,-287.5 1397,-287.5 1397,-22.5 1213,-22.5"/>
</g>
<!-- persons&#45;&gt;person_invited_positions -->
<g id="edge8" class="edge"><title>persons&#45;&gt;person_invited_positions</title>
<path fill="none" stroke="black" d="M1305,-381.672C1305,-354.523 1305,-320.801 1305,-287.774"/>
</g>
<!-- person_memberships -->
<g id="node10" class="node"><title>person_memberships</title>
<polygon fill="#a6ce39" stroke="none" points="1575,-287.5 1415,-287.5 1415,-22.5 1575,-22.5 1575,-287.5"/>
<text text-anchor="start" x="1418" y="-273.8" font-family="Arial" font-weight="bold" font-size="14.00">person_memberships</text>
<text text-anchor="start" x="1425.5" y="-253.8" font-family="Arial" font-size="14.00">id</text>
<text text-anchor="start" x="1425.5" y="-238.8" font-family="Arial" font-size="14.00">container_id</text>
<text text-anchor="start" x="1425.5" y="-223.8" font-family="Arial" font-size="14.00">person_id</text>
<text text-anchor="start" x="1425.5" y="-208.8" font-family="Arial" font-size="14.00">organization_name</text>
<text text-anchor="start" x="1425.5" y="-193.8" font-family="Arial" font-size="14.00">organization_city</text>
<text text-anchor="start" x="1425.5" y="-178.8" font-family="Arial" font-size="14.00">organization_region</text>
<text text-anchor="start" x="1425.5" y="-163.8" font-family="Arial" font-size="14.00">organization_country</text>
<text text-anchor="start" x="1425.5" y="-148.8" font-family="Arial" font-size="14.00">organization_identifier</text>
<text text-anchor="start" x="1425.5" y="-133.8" font-family="Arial" font-size="14.00">department_name</text>
<text text-anchor="start" x="1425.5" y="-118.8" font-family="Arial" font-size="14.00">role_title</text>
<text text-anchor="start" x="1425.5" y="-103.8" font-family="Arial" font-size="14.00">start_year</text>
<text text-anchor="start" x="1425.5" y="-88.8" font-family="Arial" font-size="14.00">start_month</text>
<text text-anchor="start" x="1425.5" y="-73.8" font-family="Arial" font-size="14.00">start_day</text>
<text text-anchor="start" x="1425.5" y="-58.8" font-family="Arial" font-size="14.00">end_year</text>
<text text-anchor="start" x="1425.5" y="-43.8" font-family="Arial" font-size="14.00">end_month</text>
<text text-anchor="start" x="1425.5" y="-28.8" font-family="Arial" font-size="14.00">end_day</text>
<polygon fill="black" stroke="black" points="1415,-267 1415,-267 1575,-267 1575,-267 1415,-267"/>
<polygon fill="none" stroke="black" points="1415,-22.5 1415,-287.5 1575,-287.5 1575,-22.5 1415,-22.5"/>
</g>
<!-- persons&#45;&gt;person_memberships -->
<g id="edge9" class="edge"><title>persons&#45;&gt;person_memberships</title>
<path fill="none" stroke="black" d="M1350.52,-384.132C1368.54,-361.716 1388.98,-335.142 1406,-310 1410.85,-302.84 1415.7,-295.404 1420.5,-287.838"/>
</g>
<!-- person_qualifications -->
<g id="node11" class="node"><title>person_qualifications</title>
<polygon fill="#a6ce39" stroke="none" points="1750.5,-287.5 1593.5,-287.5 1593.5,-22.5 1750.5,-22.5 1750.5,-287.5"/>
<text text-anchor="start" x="1597" y="-273.8" font-family="Arial" font-weight="bold" font-size="14.00">person_qualifications</text>
<text text-anchor="start" x="1603" y="-253.8" font-family="Arial" font-size="14.00">id</text>
<text text-anchor="start" x="1603" y="-238.8" font-family="Arial" font-size="14.00">container_id</text>
<text text-anchor="start" x="1603" y="-223.8" font-family="Arial" font-size="14.00">person_id</text>
<text text-anchor="start" x="1603" y="-208.8" font-family="Arial" font-size="14.00">organization_name</text>
<text text-anchor="start" x="1603" y="-193.8" font-family="Arial" font-size="14.00">organization_city</text>
<text text-anchor="start" x="1603" y="-178.8" font-family="Arial" font-size="14.00">organization_region</text>
<text text-anchor="start" x="1603" y="-163.8" font-family="Arial" font-size="14.00">organization_country</text>
<text text-anchor="start" x="1603" y="-148.8" font-family="Arial" font-size="14.00">organization_identifier</text>
<text text-anchor="start" x="1603" y="-133.8" font-family="Arial" font-size="14.00">department_name</text>
<text text-anchor="start" x="1603" y="-118.8" font-family="Arial" font-size="14.00">role_title</text>
<text text-anchor="start" x="1603" y="-103.8" font-family="Arial" font-size="14.00">start_year</text>
<text text-anchor="start" x="1603" y="-88.8" font-family="Arial" font-size="14.00">start_month</text>
<text text-anchor="start" x="1603" y="-73.8" font-family="Arial" font-size="14.00">start_day</text>
<text text-anchor="start" x="1603" y="-58.8" font-family="Arial" font-size="14.00">end_year</text>
<text text-anchor="start" x="1603" y="-43.8" font-family="Arial" font-size="14.00">end_month</text>
<text text-anchor="start" x="1603" y="-28.8" font-family="Arial" font-size="14.00">end_day</text>
<polygon fill="black" stroke="black" points="1594,-267 1594,-267 1751,-267 1751,-267 1594,-267"/>
<polygon fill="none" stroke="black" points="1593.5,-22.5 1593.5,-287.5 1750.5,-287.5 1750.5,-22.5 1593.5,-22.5"/>
</g>
<!-- persons&#45;&gt;person_qualifications -->
<g id="edge10" class="edge"><title>persons&#45;&gt;person_qualifications</title>
<path fill="none" stroke="black" d="M1350.71,-426.907C1410.38,-409.835 1515.28,-372.95 1584,-310 1591.38,-303.24 1598.3,-295.714 1604.77,-287.726"/>
</g>
<!-- person_services -->
<g id="node12" class="node"><title>person_services</title>
<polygon fill="#a6ce39" stroke="none" points="1913.5,-287.5 1768.5,-287.5 1768.5,-22.5 1913.5,-22.5 1913.5,-287.5"/>
<text text-anchor="start" x="1782.5" y="-273.8" font-family="Arial" font-weight="bold" font-size="14.00">person_services</text>
<text text-anchor="start" x="1772" y="-253.8" font-family="Arial" font-size="14.00">id</text>
<text text-anchor="start" x="1772" y="-238.8" font-family="Arial" font-size="14.00">container_id</text>
<text text-anchor="start" x="1772" y="-223.8" font-family="Arial" font-size="14.00">person_id</text>
<text text-anchor="start" x="1772" y="-208.8" font-family="Arial" font-size="14.00">organization_name</text>
<text text-anchor="start" x="1772" y="-193.8" font-family="Arial" font-size="14.00">organization_city</text>
<text text-anchor="start" x="1772" y="-178.8" font-family="Arial" font-size="14.00">organization_region</text>
<text text-anchor="start" x="1772" y="-163.8" font-family="Arial" font-size="14.00">organization_country</text>
<text text-anchor="start" x="1772" y="-148.8" font-family="Arial" font-size="14.00">organization_identifier</text>
<text text-anchor="start" x="1772" y="-133.8" font-family="Arial" font-size="14.00">department_name</text>
<text text-anchor="start" x="1772" y="-118.8" font-family="Arial" font-size="14.00">role_title</text>
<text text-anchor="start" x="1772" y="-103.8" font-family="Arial" font-size="14.00">start_year</text>
<text text-anchor="start" x="1772" y="-88.8" font-family="Arial" font-size="14.00">start_month</text>
<text text-anchor="start" x="1772" y="-73.8" font-family="Arial" font-size="14.00">start_day</text>
<text text-anchor="start" x="1772" y="-58.8" font-family="Arial" font-size="14.00">end_year</text>
<text text-anchor="start" x="1772" y="-43.8" font-family="Arial" font-size="14.00">end_month</text>
<text text-anchor="start" x="1772" y="-28.8" font-family="Arial" font-size="14.00">end_day</text>
<polygon fill="black" stroke="black" points="1769,-267 1769,-267 1914,-267 1914,-267 1769,-267"/>
<polygon fill="none" stroke="black" points="1768.5,-22.5 1768.5,-287.5 1913.5,-287.5 1913.5,-22.5 1768.5,-22.5"/>
</g>
<!-- persons&#45;&gt;person_services -->
<g id="edge11" class="edge"><title>persons&#45;&gt;person_services</title>
<path fill="none" stroke="black" d="M1350.71,-437.16C1439.28,-432.293 1636.43,-410.114 1760,-310 1768.1,-303.439 1775.48,-295.85 1782.2,-287.628"/>
</g>
<!-- person_fundings -->
<g id="node13" class="node"><title>person_fundings</title>
<polygon fill="#a6ce39" stroke="none" points="2076.5,-310 1931.5,-310 1931.5,-0 2076.5,-0 2076.5,-310"/>
<text text-anchor="start" x="1944.5" y="-296.8" font-family="Arial" font-weight="bold" font-size="14.00">person_fundings</text>
<text text-anchor="start" x="1935" y="-276.8" font-family="Arial" font-size="14.00">id</text>
<text text-anchor="start" x="1935" y="-261.8" font-family="Arial" font-size="14.00">container_id</text>
<text text-anchor="start" x="1935" y="-246.8" font-family="Arial" font-size="14.00">person_id</text>
<text text-anchor="start" x="1935" y="-231.8" font-family="Arial" font-size="14.00">title</text>
<text text-anchor="start" x="1935" y="-216.8" font-family="Arial" font-size="14.00">type</text>
<text text-anchor="start" x="1935" y="-201.8" font-family="Arial" font-size="14.00">short_description</text>
<text text-anchor="start" x="1935" y="-186.8" font-family="Arial" font-size="14.00">amount</text>
<text text-anchor="start" x="1935" y="-171.8" font-family="Arial" font-size="14.00">url</text>
<text text-anchor="start" x="1935" y="-156.8" font-family="Arial" font-size="14.00">start_year</text>
<text text-anchor="start" x="1935" y="-141.8" font-family="Arial" font-size="14.00">start_month</text>
<text text-anchor="start" x="1935" y="-126.8" font-family="Arial" font-size="14.00">start_day</text>
<text text-anchor="start" x="1935" y="-111.8" font-family="Arial" font-size="14.00">end_year</text>
<text text-anchor="start" x="1935" y="-96.8" font-family="Arial" font-size="14.00">end_month</text>
<text text-anchor="start" x="1935" y="-81.8" font-family="Arial" font-size="14.00">end_day</text>
<text text-anchor="start" x="1935" y="-66.8" font-family="Arial" font-size="14.00">organization_name</text>
<text text-anchor="start" x="1935" y="-51.8" font-family="Arial" font-size="14.00">organization_city</text>
<text text-anchor="start" x="1935" y="-36.8" font-family="Arial" font-size="14.00">organization_region</text>
<text text-anchor="start" x="1935" y="-21.8" font-family="Arial" font-size="14.00">organization_country</text>
<text text-anchor="start" x="1935" y="-6.8" font-family="Arial" font-size="14.00">organization_identifier</text>
<polygon fill="black" stroke="black" points="1932,-290 1932,-290 2077,-290 2077,-290 1932,-290"/>
<polygon fill="none" stroke="black" points="1931.5,-0 1931.5,-310 2076.5,-310 2076.5,-0 1931.5,-0"/>
</g>
<!-- persons&#45;&gt;person_fundings -->
<g id="edge12" class="edge"><title>persons&#45;&gt;person_fundings</title>
<path fill="none" stroke="black" d="M1350.6,-434.066C1477.51,-420.955 1831.54,-378.921 1923,-310 1925.9,-307.818 1928.7,-305.503 1931.41,-303.071"/>
</g>
<!-- person_peer_reviews -->
<g id="node14" class="node"><title>person_peer_reviews</title>
<polygon fill="#a6ce39" stroke="none" points="2253,-287.5 2095,-287.5 2095,-22.5 2253,-22.5 2253,-287.5"/>
<text text-anchor="start" x="2098" y="-273.8" font-family="Arial" font-weight="bold" font-size="14.00">person_peer_reviews</text>
<text text-anchor="start" x="2109" y="-253.8" font-family="Arial" font-size="14.00">id</text>
<text text-anchor="start" x="2109" y="-238.8" font-family="Arial" font-size="14.00">container_id</text>
<text text-anchor="start" x="2109" y="-223.8" font-family="Arial" font-size="14.00">person_id</text>
<text text-anchor="start" x="2109" y="-208.8" font-family="Arial" font-size="14.00">reviewer_role</text>
<text text-anchor="start" x="2109" y="-193.8" font-family="Arial" font-size="14.00">review_type</text>
<text text-anchor="start" x="2109" y="-178.8" font-family="Arial" font-size="14.00">subject_type</text>
<text text-anchor="start" x="2109" y="-163.8" font-family="Arial" font-size="14.00">subject_name</text>
<text text-anchor="start" x="2109" y="-148.8" font-family="Arial" font-size="14.00">subject_url</text>
<text text-anchor="start" x="2109" y="-133.8" font-family="Arial" font-size="14.00">group_id</text>
<text text-anchor="start" x="2109" y="-118.8" font-family="Arial" font-size="14.00">completion_year</text>
<text text-anchor="start" x="2109" y="-103.8" font-family="Arial" font-size="14.00">completion_month</text>
<text text-anchor="start" x="2109" y="-88.8" font-family="Arial" font-size="14.00">completion_day</text>
<text text-anchor="start" x="2109" y="-73.8" font-family="Arial" font-size="14.00">organization_name</text>
<text text-anchor="start" x="2109" y="-58.8" font-family="Arial" font-size="14.00">organization_city</text>
<text text-anchor="start" x="2109" y="-43.8" font-family="Arial" font-size="14.00">organization_region</text>
<text text-anchor="start" x="2109" y="-28.8" font-family="Arial" font-size="14.00">organization_country</text>
<polygon fill="black" stroke="black" points="2095,-267 2095,-267 2253,-267 2253,-267 2095,-267"/>
<polygon fill="none" stroke="black" points="2095,-22.5 2095,-287.5 2253,-287.5 2253,-22.5 2095,-22.5"/>
</g>
<!-- persons&#45;&gt;person_peer_reviews -->
<g id="edge13" class="edge"><title>persons&#45;&gt;person_peer_reviews</title>
<path fill="none" stroke="black" d="M1350.64,-436.08C1499,-427.445 1965.05,-394.059 2086,-310 2095.1,-303.673 2103.39,-296.081 2110.9,-287.703"/>
</g>
<!-- person_research_resources -->
<g id="node15" class="node"><title>person_research_resources</title>
<polygon fill="#a6ce39" stroke="none" points="2477,-242.5 2271,-242.5 2271,-67.5 2477,-67.5 2477,-242.5"/>
<text text-anchor="start" x="2274" y="-228.8" font-family="Arial" font-weight="bold" font-size="14.00">person_research_resources</text>
<text text-anchor="start" x="2335" y="-208.8" font-family="Arial" font-size="14.00">id</text>
<text text-anchor="start" x="2335" y="-193.8" font-family="Arial" font-size="14.00">container_id</text>
<text text-anchor="start" x="2335" y="-178.8" font-family="Arial" font-size="14.00">person_id</text>
<text text-anchor="start" x="2335" y="-163.8" font-family="Arial" font-size="14.00">title</text>
<text text-anchor="start" x="2335" y="-148.8" font-family="Arial" font-size="14.00">start_year</text>
<text text-anchor="start" x="2335" y="-133.8" font-family="Arial" font-size="14.00">start_month</text>
<text text-anchor="start" x="2335" y="-118.8" font-family="Arial" font-size="14.00">start_day</text>
<text text-anchor="start" x="2335" y="-103.8" font-family="Arial" font-size="14.00">end_year</text>
<text text-anchor="start" x="2335" y="-88.8" font-family="Arial" font-size="14.00">end_month</text>
<text text-anchor="start" x="2335" y="-73.8" font-family="Arial" font-size="14.00">end_day</text>
<polygon fill="black" stroke="black" points="2271,-222 2271,-222 2477,-222 2477,-222 2271,-222"/>
<polygon fill="none" stroke="black" points="2271,-67.5 2271,-242.5 2477,-242.5 2477,-67.5 2271,-67.5"/>
</g>
<!-- persons&#45;&gt;person_research_resources -->
<g id="edge14" class="edge"><title>persons&#45;&gt;person_research_resources</title>
<path fill="none" stroke="black" d="M1350.75,-437.064C1519.42,-431.062 2104.79,-403.751 2262,-310 2289.12,-293.829 2311.59,-268.292 2329.11,-242.627"/>
</g>
<!-- person_works -->
<g id="node16" class="node"><title>person_works</title>
<polygon fill="#a6ce39" stroke="none" points="2602.5,-197.5 2495.5,-197.5 2495.5,-112.5 2602.5,-112.5 2602.5,-197.5"/>
<text text-anchor="start" x="2499" y="-183.8" font-family="Arial" font-weight="bold" font-size="14.00">person_works</text>
<text text-anchor="start" x="2510.5" y="-163.8" font-family="Arial" font-size="14.00">id</text>
<text text-anchor="start" x="2510.5" y="-148.8" font-family="Arial" font-size="14.00">container_id</text>
<text text-anchor="start" x="2510.5" y="-133.8" font-family="Arial" font-size="14.00">person_id</text>
<text text-anchor="start" x="2510.5" y="-118.8" font-family="Arial" font-size="14.00">doi</text>
<polygon fill="black" stroke="black" points="2496,-177 2496,-177 2603,-177 2603,-177 2496,-177"/>
<polygon fill="none" stroke="black" points="2495.5,-112.5 2495.5,-197.5 2602.5,-197.5 2602.5,-112.5 2495.5,-112.5"/>
</g>
<!-- persons&#45;&gt;person_works -->
<g id="edge15" class="edge"><title>persons&#45;&gt;person_works</title>
<path fill="none" stroke="black" d="M1350.73,-436.27C1556.87,-425.855 2393.63,-379.554 2486,-310 2521.31,-283.414 2536.91,-233.599 2543.76,-197.817"/>
</g>
</g>
</svg>
