<?xml version="1.0" encoding="UTF-8" standalone="no"?>
<!DOCTYPE svg PUBLIC "-//W3C//DTD SVG 1.1//EN"
 "http://www.w3.org/Graphics/SVG/1.1/DTD/svg11.dtd">
<!-- Generated by graphviz version 2.38.0 (20140413.2041)
 -->
<!-- Title: D Pages: 1 -->
<svg width="1256pt" height="1482pt"
 viewBox="0.00 0.00 1256.00 1482.00" xmlns="http://www.w3.org/2000/svg" xmlns:xlink="http://www.w3.org/1999/xlink">
<g id="graph0" class="graph" transform="scale(1 1) rotate(0) translate(4 1478)">
<title>D</title>
<polygon fill="white" stroke="none" points="-4,4 -4,-1478 1252,-1478 1252,4 -4,4"/>
<!-- Alexandria3k tables -->
<g id="node1" class="node"><title>Alexandria3k tables</title>
<polygon fill="#d3d3d3" stroke="black" points="1248,-1474 1108,-1474 1108,-1438 1248,-1438 1248,-1474"/>
<text text-anchor="middle" x="1178" y="-1452.3" font-family="Arial" font-size="14.00">Alexandria3k tables</text>
</g>
<!-- asjcs -->
<g id="node2" class="node"><title>asjcs</title>
<polygon fill="#d3d3d3" stroke="none" points="125.5,-212 16.5,-212 16.5,-127 125.5,-127 125.5,-212"/>
<text text-anchor="start" x="53" y="-198.3" font-family="Arial" font-weight="bold" font-size="14.00">asjcs</text>
<text text-anchor="start" x="20" y="-178.3" font-family="Arial" font-size="14.00">id</text>
<text text-anchor="start" x="20" y="-163.3" font-family="Arial" font-size="14.00">field</text>
<text text-anchor="start" x="20" y="-148.3" font-family="Arial" font-size="14.00">subject_area_id</text>
<text text-anchor="start" x="20" y="-133.3" font-family="Arial" font-size="14.00">general_field_id</text>
<polygon fill="black" stroke="black" points="17,-191.5 17,-191.5 126,-191.5 126,-191.5 17,-191.5"/>
<polygon fill="none" stroke="black" points="16.5,-127 16.5,-212 125.5,-212 125.5,-127 16.5,-127"/>
</g>
<!-- asjc_general_fields -->
<g id="node4" class="node"><title>asjc_general_fields</title>
<polygon fill="#d3d3d3" stroke="none" points="142,-55 0,-55 0,-0 142,-0 142,-55"/>
<text text-anchor="start" x="3" y="-41.3" font-family="Arial" font-weight="bold" font-size="14.00">asjc_general_fields</text>
<text text-anchor="start" x="53" y="-21.3" font-family="Arial" font-size="14.00">id</text>
<text text-anchor="start" x="53" y="-6.3" font-family="Arial" font-size="14.00">name</text>
<polygon fill="black" stroke="black" points="0,-34.5 0,-34.5 142,-34.5 142,-34.5 0,-34.5"/>
<polygon fill="none" stroke="black" points="0,-0 0,-55 142,-55 142,-0 0,-0"/>
</g>
<!-- asjcs&#45;&gt;asjc_general_fields -->
<g id="edge1" class="edge"><title>asjcs&#45;&gt;asjc_general_fields</title>
<path fill="none" stroke="black" d="M71,-126.874C71,-103.661 71,-75.4365 71,-55.1831"/>
<text text-anchor="middle" x="66.5" y="-58.9831" font-family="Arial" font-size="14.00">1</text>
<text text-anchor="middle" x="54.5" y="-115.674" font-family="Arial" font-size="14.00">1…N</text>
</g>
<!-- asjc_subject_areas -->
<g id="node5" class="node"><title>asjc_subject_areas</title>
<polygon fill="#d3d3d3" stroke="none" points="302,-55 160,-55 160,-0 302,-0 302,-55"/>
<text text-anchor="start" x="163" y="-41.3" font-family="Arial" font-weight="bold" font-size="14.00">asjc_subject_areas</text>
<text text-anchor="start" x="213" y="-21.3" font-family="Arial" font-size="14.00">id</text>
<text text-anchor="start" x="213" y="-6.3" font-family="Arial" font-size="14.00">name</text>
<polygon fill="black" stroke="black" points="160,-34.5 160,-34.5 302,-34.5 302,-34.5 160,-34.5"/>
<polygon fill="none" stroke="black" points="160,-0 160,-55 302,-55 302,-0 160,-0"/>
</g>
<!-- asjcs&#45;&gt;asjc_subject_areas -->
<g id="edge2" class="edge"><title>asjcs&#45;&gt;asjc_subject_areas</title>
<path fill="none" stroke="black" d="M118.572,-126.874C145.102,-103.661 177.358,-75.4365 200.505,-55.1831"/>
<text text-anchor="middle" x="196.005" y="-58.9831" font-family="Arial" font-size="14.00">1</text>
<text text-anchor="middle" x="102.072" y="-115.674" font-family="Arial" font-size="14.00">1…N</text>
</g>
<!-- works_asjcs -->
<g id="node3" class="node"><title>works_asjcs</title>
<polygon fill="#d3d3d3" stroke="none" points="118,-736.5 24,-736.5 24,-681.5 118,-681.5 118,-736.5"/>
<text text-anchor="start" x="27" y="-722.8" font-family="Arial" font-weight="bold" font-size="14.00">works_asjcs</text>
<text text-anchor="start" x="46.5" y="-702.8" font-family="Arial" font-size="14.00">work_id</text>
<text text-anchor="start" x="46.5" y="-687.8" font-family="Arial" font-size="14.00">asjc_id</text>
<polygon fill="black" stroke="black" points="24,-716 24,-716 118,-716 118,-716 24,-716"/>
<polygon fill="none" stroke="black" points="24,-681.5 24,-736.5 118,-736.5 118,-681.5 24,-681.5"/>
</g>
<!-- works_asjcs&#45;&gt;asjcs -->
<g id="edge13" class="edge"><title>works_asjcs&#45;&gt;asjcs</title>
<path fill="none" stroke="black" d="M71,-681.345C71,-594.284 71,-317.817 71,-212.13"/>
<text text-anchor="middle" x="66.5" y="-215.93" font-family="Arial" font-size="14.00">1</text>
<text text-anchor="middle" x="54.5" y="-670.145" font-family="Arial" font-size="14.00">0…N</text>
</g>
<!-- work_authors_rors -->
<g id="node6" class="node"><title>work_authors_rors</title>
<polygon fill="#d3d3d3" stroke="none" points="886.5,-736.5 745.5,-736.5 745.5,-681.5 886.5,-681.5 886.5,-736.5"/>
<text text-anchor="start" x="749" y="-722.8" font-family="Arial" font-weight="bold" font-size="14.00">work_authors_rors</text>
<text text-anchor="start" x="768" y="-702.8" font-family="Arial" font-size="14.00">ror_id</text>
<text text-anchor="start" x="768" y="-687.8" font-family="Arial" font-size="14.00">work_author_id</text>
<polygon fill="black" stroke="black" points="746,-716 746,-716 887,-716 887,-716 746,-716"/>
<polygon fill="none" stroke="black" points="745.5,-681.5 745.5,-736.5 886.5,-736.5 886.5,-681.5 745.5,-681.5"/>
</g>
<!-- work_authors -->
<g id="node9" class="node"><title>work_authors</title>
<polygon fill="#ffc62c" stroke="black" points="244.5,-187.5 143.5,-187.5 143.5,-151.5 244.5,-151.5 244.5,-187.5"/>
<text text-anchor="middle" x="194" y="-165.8" font-family="Arial" font-size="14.00">work_authors</text>
</g>
<!-- work_authors_rors&#45;&gt;work_authors -->
<g id="edge9" class="edge"><title>work_authors_rors&#45;&gt;work_authors</title>
<path fill="none" stroke="black" d="M820.38,-681.358C831.017,-606.494 849.645,-392.636 737,-284 580.776,-133.336 455.833,-291.807 254,-212 239.395,-206.225 224.861,-196.308 213.757,-187.616"/>
<text text-anchor="middle" x="209.257" y="-191.416" font-family="Arial" font-size="14.00">1</text>
<text text-anchor="middle" x="803.88" y="-670.158" font-family="Arial" font-size="14.00">0…N</text>
</g>
<!-- Main Crossref tables -->
<g id="node7" class="node"><title>Main Crossref tables</title>
<polygon fill="#ffc62c" stroke="black" points="549.5,-1474 402.5,-1474 402.5,-1438 549.5,-1438 549.5,-1474"/>
<text text-anchor="middle" x="476" y="-1452.3" font-family="Arial" font-size="14.00">Main Crossref tables</text>
</g>
<!-- Additional Crossref tables -->
<g id="node20" class="node"><title>Additional Crossref tables</title>
<polygon fill="#3db1c8" stroke="black" points="748,-1474 568,-1474 568,-1438 748,-1438 748,-1474"/>
<text text-anchor="middle" x="658" y="-1452.3" font-family="Arial" font-size="14.00">Additional Crossref tables</text>
</g>
<!-- Main Crossref tables&#45;&gt;Additional Crossref tables -->
<!-- works -->
<g id="node8" class="node"><title>works</title>
<polygon fill="#ffc62c" stroke="black" points="98,-1304 44,-1304 44,-1268 98,-1268 98,-1304"/>
<text text-anchor="middle" x="71" y="-1282.3" font-family="Arial" font-size="14.00">works</text>
</g>
<!-- works&#45;&gt;works_asjcs -->
<g id="edge12" class="edge"><title>works&#45;&gt;works_asjcs</title>
<path fill="none" stroke="black" d="M71,-1267.79C71,-1186.04 71,-836.725 71,-736.8"/>
<text text-anchor="middle" x="54.5" y="-740.6" font-family="Arial" font-size="14.00">0…N</text>
<text text-anchor="middle" x="66.5" y="-1256.59" font-family="Arial" font-size="14.00">1</text>
</g>
<!-- person_works -->
<g id="node14" class="node"><title>person_works</title>
<polygon fill="#a6ce39" stroke="black" points="242,-727 136,-727 136,-691 242,-691 242,-727"/>
<text text-anchor="middle" x="189" y="-705.3" font-family="Arial" font-size="14.00">person_works</text>
</g>
<!-- works&#45;&gt;person_works -->
<g id="edge11" class="edge"><title>works&#45;&gt;person_works</title>
<path fill="none" stroke="black" d="M78.775,-1267.71C90.9061,-1240.04 114.264,-1183.84 127,-1134 166.597,-979.032 183.414,-785.299 187.786,-727.218"/>
<text text-anchor="middle" x="172.286" y="-731.018" font-family="Arial" font-size="14.00">0…1</text>
<text text-anchor="middle" x="91.275" y="-1256.51" font-family="Arial" font-size="14.00">0..1</text>
</g>
<!-- open_access_journals -->
<g id="node19" class="node"><title>open_access_journals</title>
<polygon fill="#fa9a87" stroke="none" points="475.5,-1134 260.5,-1134 260.5,-284 475.5,-284 475.5,-1134"/>
<text text-anchor="start" x="289" y="-1120.8" font-family="Arial" font-weight="bold" font-size="14.00">open_access_journals</text>
<text text-anchor="start" x="264" y="-1100.8" font-family="Arial" font-size="14.00">id</text>
<text text-anchor="start" x="264" y="-1085.8" font-family="Arial" font-size="14.00">name</text>
<text text-anchor="start" x="264" y="-1070.8" font-family="Arial" font-size="14.00">url</text>
<text text-anchor="start" x="264" y="-1055.8" font-family="Arial" font-size="14.00">doaj_url</text>
<text text-anchor="start" x="264" y="-1040.8" font-family="Arial" font-size="14.00">oaj_start</text>
<text text-anchor="start" x="264" y="-1025.8" font-family="Arial" font-size="14.00">alternative_name</text>
<text text-anchor="start" x="264" y="-1010.8" font-family="Arial" font-size="14.00">issn_print</text>
<text text-anchor="start" x="264" y="-995.8" font-family="Arial" font-size="14.00">issn_eprint</text>
<text text-anchor="start" x="264" y="-980.8" font-family="Arial" font-size="14.00">keywords</text>
<text text-anchor="start" x="264" y="-965.8" font-family="Arial" font-size="14.00">languages</text>
<text text-anchor="start" x="264" y="-950.8" font-family="Arial" font-size="14.00">publisher</text>
<text text-anchor="start" x="264" y="-935.8" font-family="Arial" font-size="14.00">pubisher_country</text>
<text text-anchor="start" x="264" y="-920.8" font-family="Arial" font-size="14.00">society</text>
<text text-anchor="start" x="264" y="-905.8" font-family="Arial" font-size="14.00">society_country</text>
<text text-anchor="start" x="264" y="-890.8" font-family="Arial" font-size="14.00">license</text>
<text text-anchor="start" x="264" y="-875.8" font-family="Arial" font-size="14.00">license_attributes</text>
<text text-anchor="start" x="264" y="-860.8" font-family="Arial" font-size="14.00">license_terms_url</text>
<text text-anchor="start" x="264" y="-845.8" font-family="Arial" font-size="14.00">license_embedded</text>
<text text-anchor="start" x="264" y="-830.8" font-family="Arial" font-size="14.00">example_license_embedded_url</text>
<text text-anchor="start" x="264" y="-815.8" font-family="Arial" font-size="14.00">author_copyright</text>
<text text-anchor="start" x="264" y="-800.8" font-family="Arial" font-size="14.00">copyright_info_url</text>
<text text-anchor="start" x="264" y="-785.8" font-family="Arial" font-size="14.00">review_process</text>
<text text-anchor="start" x="264" y="-770.8" font-family="Arial" font-size="14.00">review_process_url</text>
<text text-anchor="start" x="264" y="-755.8" font-family="Arial" font-size="14.00">plagiarism_screening</text>
<text text-anchor="start" x="264" y="-740.8" font-family="Arial" font-size="14.00">plagiarism_info_url</text>
<text text-anchor="start" x="264" y="-725.8" font-family="Arial" font-size="14.00">aims_scope_url</text>
<text text-anchor="start" x="264" y="-710.8" font-family="Arial" font-size="14.00">board_url</text>
<text text-anchor="start" x="264" y="-695.8" font-family="Arial" font-size="14.00">author_instructions_url</text>
<text text-anchor="start" x="264" y="-680.8" font-family="Arial" font-size="14.00">sub_pub_weeks</text>
<text text-anchor="start" x="264" y="-665.8" font-family="Arial" font-size="14.00">apc</text>
<text text-anchor="start" x="264" y="-650.8" font-family="Arial" font-size="14.00">apc_info_url</text>
<text text-anchor="start" x="264" y="-635.8" font-family="Arial" font-size="14.00">apc_amount</text>
<text text-anchor="start" x="264" y="-620.8" font-family="Arial" font-size="14.00">apc_waiver</text>
<text text-anchor="start" x="264" y="-605.8" font-family="Arial" font-size="14.00">apc_waiver_info_url</text>
<text text-anchor="start" x="264" y="-590.8" font-family="Arial" font-size="14.00">other_fees</text>
<text text-anchor="start" x="264" y="-575.8" font-family="Arial" font-size="14.00">other_fees_info_url</text>
<text text-anchor="start" x="264" y="-560.8" font-family="Arial" font-size="14.00">preservation_services</text>
<text text-anchor="start" x="264" y="-545.8" font-family="Arial" font-size="14.00">preservation_national_library</text>
<text text-anchor="start" x="264" y="-530.8" font-family="Arial" font-size="14.00">preservation_info_url</text>
<text text-anchor="start" x="264" y="-515.8" font-family="Arial" font-size="14.00">deposit_policy_directory</text>
<text text-anchor="start" x="264" y="-500.8" font-family="Arial" font-size="14.00">deposit_policy_directory_url</text>
<text text-anchor="start" x="264" y="-485.8" font-family="Arial" font-size="14.00">persistent_article_identifiers</text>
<text text-anchor="start" x="264" y="-470.8" font-family="Arial" font-size="14.00">orcid_in_metadata</text>
<text text-anchor="start" x="264" y="-455.8" font-family="Arial" font-size="14.00">i4oc_compliance</text>
<text text-anchor="start" x="264" y="-440.8" font-family="Arial" font-size="14.00">doaj_oa_compliance</text>
<text text-anchor="start" x="264" y="-425.8" font-family="Arial" font-size="14.00">oa_statement_url</text>
<text text-anchor="start" x="264" y="-410.8" font-family="Arial" font-size="14.00">continues</text>
<text text-anchor="start" x="264" y="-395.8" font-family="Arial" font-size="14.00">continued_by</text>
<text text-anchor="start" x="264" y="-380.8" font-family="Arial" font-size="14.00">lcc_codes</text>
<text text-anchor="start" x="264" y="-365.8" font-family="Arial" font-size="14.00">subjects</text>
<text text-anchor="start" x="264" y="-350.8" font-family="Arial" font-size="14.00">doaj_Seal</text>
<text text-anchor="start" x="264" y="-335.8" font-family="Arial" font-size="14.00">added_on</text>
<text text-anchor="start" x="264" y="-320.8" font-family="Arial" font-size="14.00">last_updated</text>
<text text-anchor="start" x="264" y="-305.8" font-family="Arial" font-size="14.00">article_records_number</text>
<text text-anchor="start" x="264" y="-290.8" font-family="Arial" font-size="14.00">most_recent_addition</text>
<polygon fill="black" stroke="black" points="261,-1114 261,-1114 476,-1114 476,-1114 261,-1114"/>
<polygon fill="none" stroke="black" points="260.5,-284 260.5,-1134 475.5,-1134 475.5,-284 260.5,-284"/>
</g>
<!-- works&#45;&gt;open_access_journals -->
<g id="edge3" class="edge"><title>works&#45;&gt;open_access_journals</title>
<path fill="none" stroke="black" d="M75.1404,-1267.98C80.1352,-1250.54 90.0487,-1223.57 107,-1206 156.676,-1154.5 205.553,-1189.27 251,-1134 254.153,-1130.17 257.22,-1126.25 260.206,-1122.27"/>
<text text-anchor="middle" x="244.706" y="-1126.07" font-family="Arial" font-size="14.00">0…1</text>
<text text-anchor="middle" x="75.1404" y="-1256.78" font-family="Arial" font-size="14.00">1</text>
</g>
<!-- journals_issns -->
<g id="node23" class="node"><title>journals_issns</title>
<polygon fill="#3db1c8" stroke="none" points="602.5,-744 493.5,-744 493.5,-674 602.5,-674 602.5,-744"/>
<text text-anchor="start" x="497" y="-730.8" font-family="Arial" font-weight="bold" font-size="14.00">journals_issns</text>
<text text-anchor="start" x="518" y="-710.8" font-family="Arial" font-size="14.00">journal_id</text>
<text text-anchor="start" x="518" y="-695.8" font-family="Arial" font-size="14.00">issn</text>
<text text-anchor="start" x="518" y="-680.8" font-family="Arial" font-size="14.00">issn_type</text>
<polygon fill="black" stroke="black" points="494,-724 494,-724 603,-724 603,-724 494,-724"/>
<polygon fill="none" stroke="black" points="493.5,-674 493.5,-744 602.5,-744 602.5,-674 493.5,-674"/>
</g>
<!-- works&#45;&gt;journals_issns -->
<g id="edge8" class="edge"><title>works&#45;&gt;journals_issns</title>
<path fill="none" stroke="black" d="M73.9984,-1267.97C78.1397,-1249.74 87.4411,-1221.36 107,-1206 241.503,-1100.37 366.557,-1257.37 485,-1134 589.111,-1025.56 568.147,-824.262 554.67,-744.163"/>
<text text-anchor="middle" x="539.17" y="-747.963" font-family="Arial" font-size="14.00">0…1</text>
<text text-anchor="middle" x="69.4984" y="-1271.77" font-family="Arial" font-size="14.00">1</text>
</g>
<!-- persons -->
<g id="node13" class="node"><title>persons</title>
<polygon fill="#a6ce39" stroke="black" points="388,-45.5 320,-45.5 320,-9.5 388,-9.5 388,-45.5"/>
<text text-anchor="middle" x="354" y="-23.8" font-family="Arial" font-size="14.00">persons</text>
</g>
<!-- work_authors&#45;&gt;persons -->
<g id="edge6" class="edge"><title>work_authors&#45;&gt;persons</title>
<path fill="none" stroke="black" d="M213.619,-151.333C244.327,-124.463 303.414,-72.7632 334.22,-45.8072"/>
<text text-anchor="middle" x="318.72" y="-49.6072" font-family="Arial" font-size="14.00">0…1</text>
<text text-anchor="middle" x="209.119" y="-140.133" font-family="Arial" font-size="14.00">1</text>
</g>
<!-- work_subjects -->
<g id="node10" class="node"><title>work_subjects</title>
<polygon fill="#ffc62c" stroke="black" points="727.5,-727 620.5,-727 620.5,-691 727.5,-691 727.5,-727"/>
<text text-anchor="middle" x="674" y="-705.3" font-family="Arial" font-size="14.00">work_subjects</text>
</g>
<!-- work_subjects&#45;&gt;asjcs -->
<g id="edge14" class="edge"><title>work_subjects&#45;&gt;asjcs</title>
<path fill="none" stroke="black" d="M677.782,-690.786C690.768,-626.626 726.693,-399.188 612,-284 460.412,-131.758 334.612,-288.887 134,-212 131.187,-210.922 128.371,-209.703 125.575,-208.376"/>
<text text-anchor="middle" x="130.075" y="-212.176" font-family="Arial" font-size="14.00">1</text>
<text text-anchor="middle" x="673.282" y="-679.586" font-family="Arial" font-size="14.00">1</text>
</g>
<!-- work_funders -->
<g id="node11" class="node"><title>work_funders</title>
<polygon fill="#ffc62c" stroke="black" points="528,-1304 426,-1304 426,-1268 528,-1268 528,-1304"/>
<text text-anchor="middle" x="477" y="-1282.3" font-family="Arial" font-size="14.00">work_funders</text>
</g>
<!-- ror_funder_ids -->
<g id="node17" class="node"><title>ror_funder_ids</title>
<polygon fill="#53baa1" stroke="black" points="1015,-727 905,-727 905,-691 1015,-691 1015,-727"/>
<text text-anchor="middle" x="960" y="-705.3" font-family="Arial" font-size="14.00">ror_funder_ids</text>
</g>
<!-- work_funders&#45;&gt;ror_funder_ids -->
<g id="edge5" class="edge"><title>work_funders&#45;&gt;ror_funder_ids</title>
<path fill="none" stroke="black" d="M528.311,-1282.65C618.109,-1275.58 803.029,-1247.25 896,-1134 998.736,-1008.85 973.099,-790.299 963.064,-727.393"/>
<text text-anchor="middle" x="947.564" y="-731.193" font-family="Arial" font-size="14.00">0…1</text>
<text text-anchor="middle" x="532.811" y="-1286.45" font-family="Arial" font-size="14.00">1</text>
</g>
<!-- funder_names -->
<g id="node21" class="node"><title>funder_names</title>
<polygon fill="#3db1c8" stroke="none" points="1140.5,-751.5 1033.5,-751.5 1033.5,-666.5 1140.5,-666.5 1140.5,-751.5"/>
<text text-anchor="start" x="1037" y="-737.8" font-family="Arial" font-weight="bold" font-size="14.00">funder_names</text>
<text text-anchor="start" x="1059.5" y="-717.8" font-family="Arial" font-size="14.00">id</text>
<text text-anchor="start" x="1059.5" y="-702.8" font-family="Arial" font-size="14.00">url</text>
<text text-anchor="start" x="1059.5" y="-687.8" font-family="Arial" font-size="14.00">name</text>
<text text-anchor="start" x="1059.5" y="-672.8" font-family="Arial" font-size="14.00">replaced</text>
<polygon fill="black" stroke="black" points="1034,-731 1034,-731 1141,-731 1141,-731 1034,-731"/>
<polygon fill="none" stroke="black" points="1033.5,-666.5 1033.5,-751.5 1140.5,-751.5 1140.5,-666.5 1033.5,-666.5"/>
</g>
<!-- work_funders&#45;&gt;funder_names -->
<g id="edge4" class="edge"><title>work_funders&#45;&gt;funder_names</title>
<path fill="none" stroke="black" d="M528.198,-1278.02C651.102,-1260.21 957.566,-1209.07 1024,-1134 1120.42,-1025.05 1106.32,-835.23 1094.26,-751.595"/>
<text text-anchor="middle" x="1078.76" y="-755.395" font-family="Arial" font-size="14.00">0…1</text>
<text text-anchor="middle" x="532.698" y="-1266.82" font-family="Arial" font-size="14.00">1</text>
</g>
<!-- ORCID tables -->
<g id="node12" class="node"><title>ORCID tables</title>
<polygon fill="#a6ce39" stroke="black" points="1090,-1474 984,-1474 984,-1438 1090,-1438 1090,-1474"/>
<text text-anchor="middle" x="1037" y="-1452.3" font-family="Arial" font-size="14.00">ORCID tables</text>
</g>
<!-- ORCID tables&#45;&gt;Alexandria3k tables -->
<!-- ROR tables -->
<g id="node15" class="node"><title>ROR tables</title>
<polygon fill="#53baa1" stroke="black" points="965.5,-1474 874.5,-1474 874.5,-1438 965.5,-1438 965.5,-1474"/>
<text text-anchor="middle" x="920" y="-1452.3" font-family="Arial" font-size="14.00">ROR tables</text>
</g>
<!-- ROR tables&#45;&gt;ORCID tables -->
<!-- research_organizations -->
<g id="node16" class="node"><title>research_organizations</title>
<polygon fill="#53baa1" stroke="black" points="408,-1304 244,-1304 244,-1268 408,-1268 408,-1304"/>
<text text-anchor="middle" x="326" y="-1282.3" font-family="Arial" font-size="14.00">research_organizations</text>
</g>
<!-- research_organizations&#45;&gt;work_authors_rors -->
<g id="edge10" class="edge"><title>research_organizations&#45;&gt;work_authors_rors</title>
<path fill="none" stroke="black" d="M340.947,-1267.72C357.646,-1249.55 386.38,-1221.48 417,-1206 547.095,-1140.22 635.85,-1238.98 737,-1134 845.327,-1021.58 829.603,-811.027 820.038,-736.764"/>
<text text-anchor="middle" x="803.538" y="-740.564" font-family="Arial" font-size="14.00">0…N</text>
<text text-anchor="middle" x="336.447" y="-1256.52" font-family="Arial" font-size="14.00">1</text>
</g>
<!-- DOAJ table -->
<g id="node18" class="node"><title>DOAJ table</title>
<polygon fill="#fa9a87" stroke="black" points="856,-1474 766,-1474 766,-1438 856,-1438 856,-1474"/>
<text text-anchor="middle" x="811" y="-1452.3" font-family="Arial" font-size="14.00">DOAJ table</text>
</g>
<!-- DOAJ table&#45;&gt;ROR tables -->
<!-- Additional Crossref tables&#45;&gt;DOAJ table -->
<!-- journal_names -->
<g id="node22" class="node"><title>journal_names</title>
<polygon fill="#3db1c8" stroke="none" points="226,-1366 116,-1366 116,-1206 226,-1206 226,-1366"/>
<text text-anchor="start" x="119" y="-1352.8" font-family="Arial" font-weight="bold" font-size="14.00">journal_names</text>
<text text-anchor="start" x="120" y="-1332.8" font-family="Arial" font-size="14.00">id</text>
<text text-anchor="start" x="120" y="-1317.8" font-family="Arial" font-size="14.00">title</text>
<text text-anchor="start" x="120" y="-1302.8" font-family="Arial" font-size="14.00">crossref_id</text>
<text text-anchor="start" x="120" y="-1287.8" font-family="Arial" font-size="14.00">publisher</text>
<text text-anchor="start" x="120" y="-1272.8" font-family="Arial" font-size="14.00">issn_print</text>
<text text-anchor="start" x="120" y="-1257.8" font-family="Arial" font-size="14.00">issn_eprint</text>
<text text-anchor="start" x="120" y="-1242.8" font-family="Arial" font-size="14.00">issns_additional</text>
<text text-anchor="start" x="120" y="-1227.8" font-family="Arial" font-size="14.00">doi</text>
<text text-anchor="start" x="120" y="-1212.8" font-family="Arial" font-size="14.00">volume_info</text>
<polygon fill="black" stroke="black" points="116,-1346 116,-1346 226,-1346 226,-1346 116,-1346"/>
<polygon fill="none" stroke="black" points="116,-1206 116,-1366 226,-1366 226,-1206 116,-1206"/>
</g>
<!-- journal_names&#45;&gt;journals_issns -->
<g id="edge7" class="edge"><title>journal_names&#45;&gt;journals_issns</title>
<path fill="none" stroke="black" d="M226.386,-1212.34C229.183,-1210.08 232.057,-1207.95 235,-1206 331.39,-1142.14 408.849,-1221.01 485,-1134 583.759,-1021.16 566.081,-823.269 554.078,-744.125"/>
<text text-anchor="middle" x="570.578" y="-747.925" font-family="Arial" font-size="14.00">1…N</text>
<text text-anchor="middle" x="239.386" y="-1216.14" font-family="Arial" font-size="14.00">1..N</text>
</g>
<!-- asjc_import -->
<g id="node24" class="node"><title>asjc_import</title>
<polygon fill="#3db1c8" stroke="none" points="351,-212 263,-212 263,-127 351,-127 351,-212"/>
<text text-anchor="start" x="266" y="-198.3" font-family="Arial" font-weight="bold" font-size="14.00">asjc_import</text>
<text text-anchor="start" x="266" y="-178.3" font-family="Arial" font-size="14.00">id</text>
<text text-anchor="start" x="266" y="-163.3" font-family="Arial" font-size="14.00">code</text>
<text text-anchor="start" x="266" y="-148.3" font-family="Arial" font-size="14.00">field</text>
<text text-anchor="start" x="266" y="-133.3" font-family="Arial" font-size="14.00">subject_area</text>
<polygon fill="black" stroke="black" points="263,-191.5 263,-191.5 351,-191.5 351,-191.5 263,-191.5"/>
<polygon fill="none" stroke="black" points="263,-127 263,-212 351,-212 351,-127 263,-127"/>
</g>
</g>
</svg>
