<?xml version="1.0" encoding="UTF-8" standalone="no"?>
<!DOCTYPE svg PUBLIC "-//W3C//DTD SVG 1.1//EN"
 "http://www.w3.org/Graphics/SVG/1.1/DTD/svg11.dtd">
<!-- Generated by graphviz version 2.38.0 (20140413.2041)
 -->
<!-- Title: D Pages: 1 -->
<svg width="1382pt" height="1512pt"
 viewBox="0.00 0.00 1382.00 1512.00" xmlns="http://www.w3.org/2000/svg" xmlns:xlink="http://www.w3.org/1999/xlink">
<g id="graph0" class="graph" transform="scale(1 1) rotate(0) translate(4 1508)">
<title>D</title>
<polygon fill="white" stroke="none" points="-4,4 -4,-1508 1378,-1508 1378,4 -4,4"/>
<!-- Alexandria3k tables -->
<g id="node1" class="node"><title>Alexandria3k tables</title>
<polygon fill="#d3d3d3" stroke="black" points="1374,-1504 1234,-1504 1234,-1468 1374,-1468 1374,-1504"/>
<text text-anchor="middle" x="1304" y="-1482.3" font-family="Arial" font-size="14.00">Alexandria3k tables</text>
</g>
<!-- asjcs -->
<g id="node2" class="node"><title>asjcs</title>
<polygon fill="#d3d3d3" stroke="none" points="125.5,-242 16.5,-242 16.5,-157 125.5,-157 125.5,-242"/>
<text text-anchor="start" x="53" y="-228.3" font-family="Arial" font-weight="bold" font-size="14.00">asjcs</text>
<text text-anchor="start" x="20" y="-208.3" font-family="Arial" font-size="14.00">id</text>
<text text-anchor="start" x="20" y="-193.3" font-family="Arial" font-size="14.00">field</text>
<text text-anchor="start" x="20" y="-178.3" font-family="Arial" font-size="14.00">subject_area_id</text>
<text text-anchor="start" x="20" y="-163.3" font-family="Arial" font-size="14.00">general_field_id</text>
<polygon fill="black" stroke="black" points="17,-221.5 17,-221.5 126,-221.5 126,-221.5 17,-221.5"/>
<polygon fill="none" stroke="black" points="16.5,-157 16.5,-242 125.5,-242 125.5,-157 16.5,-157"/>
</g>
<!-- asjc_general_fields -->
<g id="node4" class="node"><title>asjc_general_fields</title>
<polygon fill="#d3d3d3" stroke="none" points="142,-70 0,-70 0,-15 142,-15 142,-70"/>
<text text-anchor="start" x="3" y="-56.3" font-family="Arial" font-weight="bold" font-size="14.00">asjc_general_fields</text>
<text text-anchor="start" x="53" y="-36.3" font-family="Arial" font-size="14.00">id</text>
<text text-anchor="start" x="53" y="-21.3" font-family="Arial" font-size="14.00">name</text>
<polygon fill="black" stroke="black" points="0,-49.5 0,-49.5 142,-49.5 142,-49.5 0,-49.5"/>
<polygon fill="none" stroke="black" points="0,-15 0,-70 142,-70 142,-15 0,-15"/>
</g>
<!-- asjcs&#45;&gt;asjc_general_fields -->
<g id="edge1" class="edge"><title>asjcs&#45;&gt;asjc_general_fields</title>
<path fill="none" stroke="black" d="M71,-156.963C71,-129.343 71,-93.8939 71,-70.0298"/>
<text text-anchor="middle" x="66.5" y="-73.8298" font-family="Arial" font-size="14.00">1</text>
<text text-anchor="middle" x="54.5" y="-145.763" font-family="Arial" font-size="14.00">1…N</text>
</g>
<!-- asjc_subject_areas -->
<g id="node5" class="node"><title>asjc_subject_areas</title>
<polygon fill="#d3d3d3" stroke="none" points="302,-70 160,-70 160,-15 302,-15 302,-70"/>
<text text-anchor="start" x="163" y="-56.3" font-family="Arial" font-weight="bold" font-size="14.00">asjc_subject_areas</text>
<text text-anchor="start" x="213" y="-36.3" font-family="Arial" font-size="14.00">id</text>
<text text-anchor="start" x="213" y="-21.3" font-family="Arial" font-size="14.00">name</text>
<polygon fill="black" stroke="black" points="160,-49.5 160,-49.5 302,-49.5 302,-49.5 160,-49.5"/>
<polygon fill="none" stroke="black" points="160,-15 160,-70 302,-70 302,-15 160,-15"/>
</g>
<!-- asjcs&#45;&gt;asjc_subject_areas -->
<g id="edge2" class="edge"><title>asjcs&#45;&gt;asjc_subject_areas</title>
<path fill="none" stroke="black" d="M113.877,-156.963C142.387,-129.343 178.98,-93.8939 203.614,-70.0298"/>
<text text-anchor="middle" x="199.114" y="-73.8298" font-family="Arial" font-size="14.00">1</text>
<text text-anchor="middle" x="97.3771" y="-145.763" font-family="Arial" font-size="14.00">1…N</text>
</g>
<!-- works_asjcs -->
<g id="node3" class="node"><title>works_asjcs</title>
<polygon fill="#d3d3d3" stroke="none" points="118,-766.5 24,-766.5 24,-711.5 118,-711.5 118,-766.5"/>
<text text-anchor="start" x="27" y="-752.8" font-family="Arial" font-weight="bold" font-size="14.00">works_asjcs</text>
<text text-anchor="start" x="46.5" y="-732.8" font-family="Arial" font-size="14.00">work_id</text>
<text text-anchor="start" x="46.5" y="-717.8" font-family="Arial" font-size="14.00">asjc_id</text>
<polygon fill="black" stroke="black" points="24,-746 24,-746 118,-746 118,-746 24,-746"/>
<polygon fill="none" stroke="black" points="24,-711.5 24,-766.5 118,-766.5 118,-711.5 24,-711.5"/>
</g>
<!-- works_asjcs&#45;&gt;asjcs -->
<g id="edge13" class="edge"><title>works_asjcs&#45;&gt;asjcs</title>
<path fill="none" stroke="black" d="M71,-711.345C71,-624.284 71,-347.817 71,-242.13"/>
<text text-anchor="middle" x="66.5" y="-245.93" font-family="Arial" font-size="14.00">1</text>
<text text-anchor="middle" x="54.5" y="-700.145" font-family="Arial" font-size="14.00">0…N</text>
</g>
<!-- work_authors_rors -->
<g id="node6" class="node"><title>work_authors_rors</title>
<polygon fill="#d3d3d3" stroke="none" points="886.5,-766.5 745.5,-766.5 745.5,-711.5 886.5,-711.5 886.5,-766.5"/>
<text text-anchor="start" x="749" y="-752.8" font-family="Arial" font-weight="bold" font-size="14.00">work_authors_rors</text>
<text text-anchor="start" x="768" y="-732.8" font-family="Arial" font-size="14.00">ror_id</text>
<text text-anchor="start" x="768" y="-717.8" font-family="Arial" font-size="14.00">work_author_id</text>
<polygon fill="black" stroke="black" points="746,-746 746,-746 887,-746 887,-746 746,-746"/>
<polygon fill="none" stroke="black" points="745.5,-711.5 745.5,-766.5 886.5,-766.5 886.5,-711.5 745.5,-711.5"/>
</g>
<!-- work_authors -->
<g id="node9" class="node"><title>work_authors</title>
<polygon fill="#ffc62c" stroke="black" points="244.5,-217.5 143.5,-217.5 143.5,-181.5 244.5,-181.5 244.5,-217.5"/>
<text text-anchor="middle" x="194" y="-195.8" font-family="Arial" font-size="14.00">work_authors</text>
</g>
<!-- work_authors_rors&#45;&gt;work_authors -->
<g id="edge9" class="edge"><title>work_authors_rors&#45;&gt;work_authors</title>
<path fill="none" stroke="black" d="M820.38,-711.358C831.017,-636.494 849.645,-422.636 737,-314 580.776,-163.336 455.833,-321.807 254,-242 239.395,-236.225 224.861,-226.308 213.757,-217.616"/>
<text text-anchor="middle" x="209.257" y="-221.416" font-family="Arial" font-size="14.00">1</text>
<text text-anchor="middle" x="803.88" y="-700.158" font-family="Arial" font-size="14.00">0…N</text>
</g>
<!-- Main Crossref tables -->
<g id="node7" class="node"><title>Main Crossref tables</title>
<polygon fill="#ffc62c" stroke="black" points="549.5,-1504 402.5,-1504 402.5,-1468 549.5,-1468 549.5,-1504"/>
<text text-anchor="middle" x="476" y="-1482.3" font-family="Arial" font-size="14.00">Main Crossref tables</text>
</g>
<!-- Additional Crossref tables -->
<g id="node23" class="node"><title>Additional Crossref tables</title>
<polygon fill="#3db1c8" stroke="black" points="748,-1504 568,-1504 568,-1468 748,-1468 748,-1504"/>
<text text-anchor="middle" x="658" y="-1482.3" font-family="Arial" font-size="14.00">Additional Crossref tables</text>
</g>
<!-- Main Crossref tables&#45;&gt;Additional Crossref tables -->
<!-- works -->
<g id="node8" class="node"><title>works</title>
<polygon fill="#ffc62c" stroke="black" points="98,-1334 44,-1334 44,-1298 98,-1298 98,-1334"/>
<text text-anchor="middle" x="71" y="-1312.3" font-family="Arial" font-size="14.00">works</text>
</g>
<!-- works&#45;&gt;works_asjcs -->
<g id="edge12" class="edge"><title>works&#45;&gt;works_asjcs</title>
<path fill="none" stroke="black" d="M71,-1297.79C71,-1216.04 71,-866.725 71,-766.8"/>
<text text-anchor="middle" x="54.5" y="-770.6" font-family="Arial" font-size="14.00">0…N</text>
<text text-anchor="middle" x="66.5" y="-1286.59" font-family="Arial" font-size="14.00">1</text>
</g>
<!-- person_works -->
<g id="node14" class="node"><title>person_works</title>
<polygon fill="#a6ce39" stroke="black" points="242,-757 136,-757 136,-721 242,-721 242,-757"/>
<text text-anchor="middle" x="189" y="-735.3" font-family="Arial" font-size="14.00">person_works</text>
</g>
<!-- works&#45;&gt;person_works -->
<g id="edge11" class="edge"><title>works&#45;&gt;person_works</title>
<path fill="none" stroke="black" d="M78.775,-1297.71C90.9061,-1270.04 114.264,-1213.84 127,-1164 166.597,-1009.03 183.414,-815.299 187.786,-757.218"/>
<text text-anchor="middle" x="172.286" y="-761.018" font-family="Arial" font-size="14.00">0…1</text>
<text text-anchor="middle" x="91.275" y="-1286.51" font-family="Arial" font-size="14.00">0..1</text>
</g>
<!-- open_access_journals -->
<g id="node22" class="node"><title>open_access_journals</title>
<polygon fill="#fa9a87" stroke="none" points="475.5,-1164 260.5,-1164 260.5,-314 475.5,-314 475.5,-1164"/>
<text text-anchor="start" x="289" y="-1150.8" font-family="Arial" font-weight="bold" font-size="14.00">open_access_journals</text>
<text text-anchor="start" x="264" y="-1130.8" font-family="Arial" font-size="14.00">id</text>
<text text-anchor="start" x="264" y="-1115.8" font-family="Arial" font-size="14.00">name</text>
<text text-anchor="start" x="264" y="-1100.8" font-family="Arial" font-size="14.00">url</text>
<text text-anchor="start" x="264" y="-1085.8" font-family="Arial" font-size="14.00">doaj_url</text>
<text text-anchor="start" x="264" y="-1070.8" font-family="Arial" font-size="14.00">oaj_start</text>
<text text-anchor="start" x="264" y="-1055.8" font-family="Arial" font-size="14.00">alternative_name</text>
<text text-anchor="start" x="264" y="-1040.8" font-family="Arial" font-size="14.00">issn_print</text>
<text text-anchor="start" x="264" y="-1025.8" font-family="Arial" font-size="14.00">issn_eprint</text>
<text text-anchor="start" x="264" y="-1010.8" font-family="Arial" font-size="14.00">keywords</text>
<text text-anchor="start" x="264" y="-995.8" font-family="Arial" font-size="14.00">languages</text>
<text text-anchor="start" x="264" y="-980.8" font-family="Arial" font-size="14.00">publisher</text>
<text text-anchor="start" x="264" y="-965.8" font-family="Arial" font-size="14.00">pubisher_country</text>
<text text-anchor="start" x="264" y="-950.8" font-family="Arial" font-size="14.00">society</text>
<text text-anchor="start" x="264" y="-935.8" font-family="Arial" font-size="14.00">society_country</text>
<text text-anchor="start" x="264" y="-920.8" font-family="Arial" font-size="14.00">license</text>
<text text-anchor="start" x="264" y="-905.8" font-family="Arial" font-size="14.00">license_attributes</text>
<text text-anchor="start" x="264" y="-890.8" font-family="Arial" font-size="14.00">license_terms_url</text>
<text text-anchor="start" x="264" y="-875.8" font-family="Arial" font-size="14.00">license_embedded</text>
<text text-anchor="start" x="264" y="-860.8" font-family="Arial" font-size="14.00">example_license_embedded_url</text>
<text text-anchor="start" x="264" y="-845.8" font-family="Arial" font-size="14.00">author_copyright</text>
<text text-anchor="start" x="264" y="-830.8" font-family="Arial" font-size="14.00">copyright_info_url</text>
<text text-anchor="start" x="264" y="-815.8" font-family="Arial" font-size="14.00">review_process</text>
<text text-anchor="start" x="264" y="-800.8" font-family="Arial" font-size="14.00">review_process_url</text>
<text text-anchor="start" x="264" y="-785.8" font-family="Arial" font-size="14.00">plagiarism_screening</text>
<text text-anchor="start" x="264" y="-770.8" font-family="Arial" font-size="14.00">plagiarism_info_url</text>
<text text-anchor="start" x="264" y="-755.8" font-family="Arial" font-size="14.00">aims_scope_url</text>
<text text-anchor="start" x="264" y="-740.8" font-family="Arial" font-size="14.00">board_url</text>
<text text-anchor="start" x="264" y="-725.8" font-family="Arial" font-size="14.00">author_instructions_url</text>
<text text-anchor="start" x="264" y="-710.8" font-family="Arial" font-size="14.00">sub_pub_weeks</text>
<text text-anchor="start" x="264" y="-695.8" font-family="Arial" font-size="14.00">apc</text>
<text text-anchor="start" x="264" y="-680.8" font-family="Arial" font-size="14.00">apc_info_url</text>
<text text-anchor="start" x="264" y="-665.8" font-family="Arial" font-size="14.00">apc_amount</text>
<text text-anchor="start" x="264" y="-650.8" font-family="Arial" font-size="14.00">apc_waiver</text>
<text text-anchor="start" x="264" y="-635.8" font-family="Arial" font-size="14.00">apc_waiver_info_url</text>
<text text-anchor="start" x="264" y="-620.8" font-family="Arial" font-size="14.00">other_fees</text>
<text text-anchor="start" x="264" y="-605.8" font-family="Arial" font-size="14.00">other_fees_info_url</text>
<text text-anchor="start" x="264" y="-590.8" font-family="Arial" font-size="14.00">preservation_services</text>
<text text-anchor="start" x="264" y="-575.8" font-family="Arial" font-size="14.00">preservation_national_library</text>
<text text-anchor="start" x="264" y="-560.8" font-family="Arial" font-size="14.00">preservation_info_url</text>
<text text-anchor="start" x="264" y="-545.8" font-family="Arial" font-size="14.00">deposit_policy_directory</text>
<text text-anchor="start" x="264" y="-530.8" font-family="Arial" font-size="14.00">deposit_policy_directory_url</text>
<text text-anchor="start" x="264" y="-515.8" font-family="Arial" font-size="14.00">persistent_article_identifiers</text>
<text text-anchor="start" x="264" y="-500.8" font-family="Arial" font-size="14.00">orcid_in_metadata</text>
<text text-anchor="start" x="264" y="-485.8" font-family="Arial" font-size="14.00">i4oc_compliance</text>
<text text-anchor="start" x="264" y="-470.8" font-family="Arial" font-size="14.00">doaj_oa_compliance</text>
<text text-anchor="start" x="264" y="-455.8" font-family="Arial" font-size="14.00">oa_statement_url</text>
<text text-anchor="start" x="264" y="-440.8" font-family="Arial" font-size="14.00">continues</text>
<text text-anchor="start" x="264" y="-425.8" font-family="Arial" font-size="14.00">continued_by</text>
<text text-anchor="start" x="264" y="-410.8" font-family="Arial" font-size="14.00">lcc_codes</text>
<text text-anchor="start" x="264" y="-395.8" font-family="Arial" font-size="14.00">subjects</text>
<text text-anchor="start" x="264" y="-380.8" font-family="Arial" font-size="14.00">doaj_Seal</text>
<text text-anchor="start" x="264" y="-365.8" font-family="Arial" font-size="14.00">added_on</text>
<text text-anchor="start" x="264" y="-350.8" font-family="Arial" font-size="14.00">last_updated</text>
<text text-anchor="start" x="264" y="-335.8" font-family="Arial" font-size="14.00">article_records_number</text>
<text text-anchor="start" x="264" y="-320.8" font-family="Arial" font-size="14.00">most_recent_addition</text>
<polygon fill="black" stroke="black" points="261,-1144 261,-1144 476,-1144 476,-1144 261,-1144"/>
<polygon fill="none" stroke="black" points="260.5,-314 260.5,-1164 475.5,-1164 475.5,-314 260.5,-314"/>
</g>
<!-- works&#45;&gt;open_access_journals -->
<g id="edge3" class="edge"><title>works&#45;&gt;open_access_journals</title>
<path fill="none" stroke="black" d="M75.1404,-1297.98C80.1352,-1280.54 90.0487,-1253.57 107,-1236 156.676,-1184.5 205.553,-1219.27 251,-1164 254.153,-1160.17 257.22,-1156.25 260.206,-1152.27"/>
<text text-anchor="middle" x="244.706" y="-1156.07" font-family="Arial" font-size="14.00">0…1</text>
<text text-anchor="middle" x="75.1404" y="-1286.78" font-family="Arial" font-size="14.00">1</text>
</g>
<!-- journals_issns -->
<g id="node26" class="node"><title>journals_issns</title>
<polygon fill="#3db1c8" stroke="none" points="602.5,-774 493.5,-774 493.5,-704 602.5,-704 602.5,-774"/>
<text text-anchor="start" x="497" y="-760.8" font-family="Arial" font-weight="bold" font-size="14.00">journals_issns</text>
<text text-anchor="start" x="518" y="-740.8" font-family="Arial" font-size="14.00">journal_id</text>
<text text-anchor="start" x="518" y="-725.8" font-family="Arial" font-size="14.00">issn</text>
<text text-anchor="start" x="518" y="-710.8" font-family="Arial" font-size="14.00">issn_type</text>
<polygon fill="black" stroke="black" points="494,-754 494,-754 603,-754 603,-754 494,-754"/>
<polygon fill="none" stroke="black" points="493.5,-704 493.5,-774 602.5,-774 602.5,-704 493.5,-704"/>
</g>
<!-- works&#45;&gt;journals_issns -->
<g id="edge8" class="edge"><title>works&#45;&gt;journals_issns</title>
<path fill="none" stroke="black" d="M73.9984,-1297.97C78.1397,-1279.74 87.4411,-1251.36 107,-1236 241.503,-1130.37 366.557,-1287.37 485,-1164 589.111,-1055.56 568.147,-854.262 554.67,-774.163"/>
<text text-anchor="middle" x="539.17" y="-777.963" font-family="Arial" font-size="14.00">0…1</text>
<text text-anchor="middle" x="69.4984" y="-1301.77" font-family="Arial" font-size="14.00">1</text>
</g>
<!-- persons -->
<g id="node13" class="node"><title>persons</title>
<polygon fill="#a6ce39" stroke="black" points="388,-60.5 320,-60.5 320,-24.5 388,-24.5 388,-60.5"/>
<text text-anchor="middle" x="354" y="-38.8" font-family="Arial" font-size="14.00">persons</text>
</g>
<!-- work_authors&#45;&gt;persons -->
<g id="edge6" class="edge"><title>work_authors&#45;&gt;persons</title>
<path fill="none" stroke="black" d="M211.734,-181.32C242.489,-151.526 305.376,-90.6046 336.186,-60.7569"/>
<text text-anchor="middle" x="320.686" y="-64.5569" font-family="Arial" font-size="14.00">0…1</text>
<text text-anchor="middle" x="207.234" y="-170.12" font-family="Arial" font-size="14.00">1</text>
</g>
<!-- work_subjects -->
<g id="node10" class="node"><title>work_subjects</title>
<polygon fill="#ffc62c" stroke="black" points="727.5,-757 620.5,-757 620.5,-721 727.5,-721 727.5,-757"/>
<text text-anchor="middle" x="674" y="-735.3" font-family="Arial" font-size="14.00">work_subjects</text>
</g>
<!-- work_subjects&#45;&gt;asjcs -->
<g id="edge14" class="edge"><title>work_subjects&#45;&gt;asjcs</title>
<path fill="none" stroke="black" d="M677.782,-720.786C690.768,-656.626 726.693,-429.188 612,-314 460.412,-161.758 334.612,-318.887 134,-242 131.187,-240.922 128.371,-239.703 125.575,-238.376"/>
<text text-anchor="middle" x="130.075" y="-242.176" font-family="Arial" font-size="14.00">1</text>
<text text-anchor="middle" x="673.282" y="-709.586" font-family="Arial" font-size="14.00">1</text>
</g>
<!-- work_funders -->
<g id="node11" class="node"><title>work_funders</title>
<polygon fill="#ffc62c" stroke="black" points="528,-1334 426,-1334 426,-1298 528,-1298 528,-1334"/>
<text text-anchor="middle" x="477" y="-1312.3" font-family="Arial" font-size="14.00">work_funders</text>
</g>
<!-- ror_funder_ids -->
<g id="node17" class="node"><title>ror_funder_ids</title>
<polygon fill="#53baa1" stroke="black" points="1015,-757 905,-757 905,-721 1015,-721 1015,-757"/>
<text text-anchor="middle" x="960" y="-735.3" font-family="Arial" font-size="14.00">ror_funder_ids</text>
</g>
<!-- work_funders&#45;&gt;ror_funder_ids -->
<g id="edge5" class="edge"><title>work_funders&#45;&gt;ror_funder_ids</title>
<path fill="none" stroke="black" d="M528.311,-1312.65C618.109,-1305.58 803.029,-1277.25 896,-1164 998.736,-1038.85 973.099,-820.299 963.064,-757.393"/>
<text text-anchor="middle" x="947.564" y="-761.193" font-family="Arial" font-size="14.00">0…1</text>
<text text-anchor="middle" x="532.811" y="-1316.45" font-family="Arial" font-size="14.00">1</text>
</g>
<!-- funder_names -->
<g id="node24" class="node"><title>funder_names</title>
<polygon fill="#3db1c8" stroke="none" points="1140.5,-781.5 1033.5,-781.5 1033.5,-696.5 1140.5,-696.5 1140.5,-781.5"/>
<text text-anchor="start" x="1037" y="-767.8" font-family="Arial" font-weight="bold" font-size="14.00">funder_names</text>
<text text-anchor="start" x="1059.5" y="-747.8" font-family="Arial" font-size="14.00">id</text>
<text text-anchor="start" x="1059.5" y="-732.8" font-family="Arial" font-size="14.00">url</text>
<text text-anchor="start" x="1059.5" y="-717.8" font-family="Arial" font-size="14.00">name</text>
<text text-anchor="start" x="1059.5" y="-702.8" font-family="Arial" font-size="14.00">replaced</text>
<polygon fill="black" stroke="black" points="1034,-761 1034,-761 1141,-761 1141,-761 1034,-761"/>
<polygon fill="none" stroke="black" points="1033.5,-696.5 1033.5,-781.5 1140.5,-781.5 1140.5,-696.5 1033.5,-696.5"/>
</g>
<!-- work_funders&#45;&gt;funder_names -->
<g id="edge4" class="edge"><title>work_funders&#45;&gt;funder_names</title>
<path fill="none" stroke="black" d="M528.198,-1308.02C651.102,-1290.21 957.566,-1239.07 1024,-1164 1120.42,-1055.05 1106.32,-865.23 1094.26,-781.595"/>
<text text-anchor="middle" x="1078.76" y="-785.395" font-family="Arial" font-size="14.00">0…1</text>
<text text-anchor="middle" x="532.698" y="-1296.82" font-family="Arial" font-size="14.00">1</text>
</g>
<!-- ORCID tables -->
<g id="node12" class="node"><title>ORCID tables</title>
<polygon fill="#a6ce39" stroke="black" points="1090,-1504 984,-1504 984,-1468 1090,-1468 1090,-1504"/>
<text text-anchor="middle" x="1037" y="-1482.3" font-family="Arial" font-size="14.00">ORCID tables</text>
</g>
<!-- USPTO tables -->
<g id="node18" class="node"><title>USPTO tables</title>
<polygon fill="#9fd6ff" stroke="black" points="1216,-1504 1108,-1504 1108,-1468 1216,-1468 1216,-1504"/>
<text text-anchor="middle" x="1162" y="-1482.3" font-family="Arial" font-size="14.00">USPTO tables</text>
</g>
<!-- ORCID tables&#45;&gt;USPTO tables -->
<!-- ROR tables -->
<g id="node15" class="node"><title>ROR tables</title>
<polygon fill="#53baa1" stroke="black" points="965.5,-1504 874.5,-1504 874.5,-1468 965.5,-1468 965.5,-1504"/>
<text text-anchor="middle" x="920" y="-1482.3" font-family="Arial" font-size="14.00">ROR tables</text>
</g>
<!-- ROR tables&#45;&gt;ORCID tables -->
<!-- research_organizations -->
<g id="node16" class="node"><title>research_organizations</title>
<polygon fill="#53baa1" stroke="black" points="408,-1334 244,-1334 244,-1298 408,-1298 408,-1334"/>
<text text-anchor="middle" x="326" y="-1312.3" font-family="Arial" font-size="14.00">research_organizations</text>
</g>
<!-- research_organizations&#45;&gt;work_authors_rors -->
<g id="edge10" class="edge"><title>research_organizations&#45;&gt;work_authors_rors</title>
<path fill="none" stroke="black" d="M340.947,-1297.72C357.646,-1279.55 386.38,-1251.48 417,-1236 547.095,-1170.22 635.85,-1268.98 737,-1164 845.327,-1051.58 829.603,-841.027 820.038,-766.764"/>
<text text-anchor="middle" x="803.538" y="-770.564" font-family="Arial" font-size="14.00">0…N</text>
<text text-anchor="middle" x="336.447" y="-1286.52" font-family="Arial" font-size="14.00">1</text>
</g>
<!-- USPTO tables&#45;&gt;Alexandria3k tables -->
<!-- us_patents -->
<g id="node19" class="node"><title>us_patents</title>
<polygon fill="#9fd6ff" stroke="black" points="349,-217.5 263,-217.5 263,-181.5 349,-181.5 349,-217.5"/>
<text text-anchor="middle" x="306" y="-195.8" font-family="Arial" font-size="14.00">us_patents</text>
</g>
<!-- icpr_classifications -->
<g id="node20" class="node"><title>icpr_classifications</title>
<polygon fill="#9fd6ff" stroke="black" points="504.5,-217.5 367.5,-217.5 367.5,-181.5 504.5,-181.5 504.5,-217.5"/>
<text text-anchor="middle" x="436" y="-195.8" font-family="Arial" font-size="14.00">icpr_classifications</text>
</g>
<!-- DOAJ table -->
<g id="node21" class="node"><title>DOAJ table</title>
<polygon fill="#fa9a87" stroke="black" points="856,-1504 766,-1504 766,-1468 856,-1468 856,-1504"/>
<text text-anchor="middle" x="811" y="-1482.3" font-family="Arial" font-size="14.00">DOAJ table</text>
</g>
<!-- DOAJ table&#45;&gt;ROR tables -->
<!-- Additional Crossref tables&#45;&gt;DOAJ table -->
<!-- journal_names -->
<g id="node25" class="node"><title>journal_names</title>
<polygon fill="#3db1c8" stroke="none" points="226,-1396 116,-1396 116,-1236 226,-1236 226,-1396"/>
<text text-anchor="start" x="119" y="-1382.8" font-family="Arial" font-weight="bold" font-size="14.00">journal_names</text>
<text text-anchor="start" x="120" y="-1362.8" font-family="Arial" font-size="14.00">id</text>
<text text-anchor="start" x="120" y="-1347.8" font-family="Arial" font-size="14.00">title</text>
<text text-anchor="start" x="120" y="-1332.8" font-family="Arial" font-size="14.00">crossref_id</text>
<text text-anchor="start" x="120" y="-1317.8" font-family="Arial" font-size="14.00">publisher</text>
<text text-anchor="start" x="120" y="-1302.8" font-family="Arial" font-size="14.00">issn_print</text>
<text text-anchor="start" x="120" y="-1287.8" font-family="Arial" font-size="14.00">issn_eprint</text>
<text text-anchor="start" x="120" y="-1272.8" font-family="Arial" font-size="14.00">issns_additional</text>
<text text-anchor="start" x="120" y="-1257.8" font-family="Arial" font-size="14.00">doi</text>
<text text-anchor="start" x="120" y="-1242.8" font-family="Arial" font-size="14.00">volume_info</text>
<polygon fill="black" stroke="black" points="116,-1376 116,-1376 226,-1376 226,-1376 116,-1376"/>
<polygon fill="none" stroke="black" points="116,-1236 116,-1396 226,-1396 226,-1236 116,-1236"/>
</g>
<!-- journal_names&#45;&gt;journals_issns -->
<g id="edge7" class="edge"><title>journal_names&#45;&gt;journals_issns</title>
<path fill="none" stroke="black" d="M226.386,-1242.34C229.183,-1240.08 232.057,-1237.95 235,-1236 331.39,-1172.14 408.849,-1251.01 485,-1164 583.759,-1051.16 566.081,-853.269 554.078,-774.125"/>
<text text-anchor="middle" x="570.578" y="-777.925" font-family="Arial" font-size="14.00">1…N</text>
<text text-anchor="middle" x="239.386" y="-1246.14" font-family="Arial" font-size="14.00">1..N</text>
</g>
<!-- asjc_import -->
<g id="node27" class="node"><title>asjc_import</title>
<polygon fill="#3db1c8" stroke="none" points="494,-85 406,-85 406,-0 494,-0 494,-85"/>
<text text-anchor="start" x="409" y="-71.3" font-family="Arial" font-weight="bold" font-size="14.00">asjc_import</text>
<text text-anchor="start" x="409" y="-51.3" font-family="Arial" font-size="14.00">id</text>
<text text-anchor="start" x="409" y="-36.3" font-family="Arial" font-size="14.00">code</text>
<text text-anchor="start" x="409" y="-21.3" font-family="Arial" font-size="14.00">field</text>
<text text-anchor="start" x="409" y="-6.3" font-family="Arial" font-size="14.00">subject_area</text>
<polygon fill="black" stroke="black" points="406,-64.5 406,-64.5 494,-64.5 494,-64.5 406,-64.5"/>
<polygon fill="none" stroke="black" points="406,-0 406,-85 494,-85 494,-0 406,-0"/>
</g>
</g>
</svg>
