<?xml version="1.0" encoding="UTF-8" standalone="no"?>
<!DOCTYPE svg PUBLIC "-//W3C//DTD SVG 1.1//EN"
 "http://www.w3.org/Graphics/SVG/1.1/DTD/svg11.dtd">
<!-- Generated by graphviz version 2.38.0 (20140413.2041)
 -->
<!-- Title: D Pages: 1 -->
<svg width="1256pt" height="1452pt"
 viewBox="0.00 0.00 1256.00 1452.00" xmlns="http://www.w3.org/2000/svg" xmlns:xlink="http://www.w3.org/1999/xlink">
<g id="graph0" class="graph" transform="scale(1 1) rotate(0) translate(4 1448)">
<title>D</title>
<polygon fill="white" stroke="none" points="-4,4 -4,-1448 1252,-1448 1252,4 -4,4"/>
<!-- Alexandria3k tables -->
<g id="node1" class="node"><title>Alexandria3k tables</title>
<polygon fill="#d3d3d3" stroke="black" points="1248,-1444 1108,-1444 1108,-1408 1248,-1408 1248,-1444"/>
<text text-anchor="middle" x="1178" y="-1422.3" font-family="Arial" font-size="14.00">Alexandria3k tables</text>
</g>
<!-- asjcs -->
<g id="node2" class="node"><title>asjcs</title>
<polygon fill="#d3d3d3" stroke="none" points="125.5,-212 16.5,-212 16.5,-127 125.5,-127 125.5,-212"/>
<text text-anchor="start" x="53" y="-198.3" font-family="Arial" font-weight="bold" font-size="14.00">asjcs</text>
<text text-anchor="start" x="20" y="-178.3" font-family="Arial" font-size="14.00">id</text>
<text text-anchor="start" x="20" y="-163.3" font-family="Arial" font-size="14.00">field</text>
<text text-anchor="start" x="20" y="-148.3" font-family="Arial" font-size="14.00">subject_area_id</text>
<text text-anchor="start" x="20" y="-133.3" font-family="Arial" font-size="14.00">general_field_id</text>
<polygon fill="black" stroke="black" points="17,-191.5 17,-191.5 126,-191.5 126,-191.5 17,-191.5"/>
<polygon fill="none" stroke="black" points="16.5,-127 16.5,-212 125.5,-212 125.5,-127 16.5,-127"/>
</g>
<!-- asjc_general_fields -->
<g id="node4" class="node"><title>asjc_general_fields</title>
<polygon fill="#d3d3d3" stroke="none" points="142,-55 0,-55 0,-0 142,-0 142,-55"/>
<text text-anchor="start" x="3" y="-41.3" font-family="Arial" font-weight="bold" font-size="14.00">asjc_general_fields</text>
<text text-anchor="start" x="53" y="-21.3" font-family="Arial" font-size="14.00">id</text>
<text text-anchor="start" x="53" y="-6.3" font-family="Arial" font-size="14.00">name</text>
<polygon fill="black" stroke="black" points="0,-34.5 0,-34.5 142,-34.5 142,-34.5 0,-34.5"/>
<polygon fill="none" stroke="black" points="0,-0 0,-55 142,-55 142,-0 0,-0"/>
</g>
<!-- asjcs&#45;&gt;asjc_general_fields -->
<g id="edge1" class="edge"><title>asjcs&#45;&gt;asjc_general_fields</title>
<path fill="none" stroke="black" d="M71,-126.874C71,-103.661 71,-75.4365 71,-55.1831"/>
<text text-anchor="middle" x="66.5" y="-58.9831" font-family="Arial" font-size="14.00">1</text>
<text text-anchor="middle" x="54.5" y="-115.674" font-family="Arial" font-size="14.00">1…N</text>
</g>
<!-- asjc_subject_areas -->
<g id="node5" class="node"><title>asjc_subject_areas</title>
<polygon fill="#d3d3d3" stroke="none" points="302,-55 160,-55 160,-0 302,-0 302,-55"/>
<text text-anchor="start" x="163" y="-41.3" font-family="Arial" font-weight="bold" font-size="14.00">asjc_subject_areas</text>
<text text-anchor="start" x="213" y="-21.3" font-family="Arial" font-size="14.00">id</text>
<text text-anchor="start" x="213" y="-6.3" font-family="Arial" font-size="14.00">name</text>
<polygon fill="black" stroke="black" points="160,-34.5 160,-34.5 302,-34.5 302,-34.5 160,-34.5"/>
<polygon fill="none" stroke="black" points="160,-0 160,-55 302,-55 302,-0 160,-0"/>
</g>
<!-- asjcs&#45;&gt;asjc_subject_areas -->
<g id="edge2" class="edge"><title>asjcs&#45;&gt;asjc_subject_areas</title>
<path fill="none" stroke="black" d="M118.572,-126.874C145.102,-103.661 177.358,-75.4365 200.505,-55.1831"/>
<text text-anchor="middle" x="196.005" y="-58.9831" font-family="Arial" font-size="14.00">1</text>
<text text-anchor="middle" x="102.072" y="-115.674" font-family="Arial" font-size="14.00">1…N</text>
</g>
<!-- works_asjcs -->
<g id="node3" class="node"><title>works_asjcs</title>
<polygon fill="#d3d3d3" stroke="none" points="118,-729 24,-729 24,-674 118,-674 118,-729"/>
<text text-anchor="start" x="27" y="-715.3" font-family="Arial" font-weight="bold" font-size="14.00">works_asjcs</text>
<text text-anchor="start" x="46.5" y="-695.3" font-family="Arial" font-size="14.00">work_id</text>
<text text-anchor="start" x="46.5" y="-680.3" font-family="Arial" font-size="14.00">asjc_id</text>
<polygon fill="black" stroke="black" points="24,-708.5 24,-708.5 118,-708.5 118,-708.5 24,-708.5"/>
<polygon fill="none" stroke="black" points="24,-674 24,-729 118,-729 118,-674 24,-674"/>
</g>
<!-- works_asjcs&#45;&gt;asjcs -->
<g id="edge13" class="edge"><title>works_asjcs&#45;&gt;asjcs</title>
<path fill="none" stroke="black" d="M71,-673.854C71,-587.79 71,-316.787 71,-212.225"/>
<text text-anchor="middle" x="66.5" y="-216.025" font-family="Arial" font-size="14.00">1</text>
<text text-anchor="middle" x="54.5" y="-662.654" font-family="Arial" font-size="14.00">0…N</text>
</g>
<!-- work_authors_rors -->
<g id="node6" class="node"><title>work_authors_rors</title>
<polygon fill="#d3d3d3" stroke="none" points="886.5,-729 745.5,-729 745.5,-674 886.5,-674 886.5,-729"/>
<text text-anchor="start" x="749" y="-715.3" font-family="Arial" font-weight="bold" font-size="14.00">work_authors_rors</text>
<text text-anchor="start" x="768" y="-695.3" font-family="Arial" font-size="14.00">ror_id</text>
<text text-anchor="start" x="768" y="-680.3" font-family="Arial" font-size="14.00">work_author_id</text>
<polygon fill="black" stroke="black" points="746,-708.5 746,-708.5 887,-708.5 887,-708.5 746,-708.5"/>
<polygon fill="none" stroke="black" points="745.5,-674 745.5,-729 886.5,-729 886.5,-674 745.5,-674"/>
</g>
<!-- work_authors -->
<g id="node9" class="node"><title>work_authors</title>
<polygon fill="#ffc62c" stroke="black" points="244.5,-187.5 143.5,-187.5 143.5,-151.5 244.5,-151.5 244.5,-187.5"/>
<text text-anchor="middle" x="194" y="-165.8" font-family="Arial" font-size="14.00">work_authors</text>
</g>
<!-- work_authors_rors&#45;&gt;work_authors -->
<g id="edge9" class="edge"><title>work_authors_rors&#45;&gt;work_authors</title>
<path fill="none" stroke="black" d="M819.986,-673.851C829.33,-600.421 844.364,-393.381 737,-284 668.44,-214.152 366.466,-183.67 244.931,-174.074"/>
<text text-anchor="middle" x="249.431" y="-177.874" font-family="Arial" font-size="14.00">1</text>
<text text-anchor="middle" x="803.486" y="-662.651" font-family="Arial" font-size="14.00">0…N</text>
</g>
<!-- Main Crossref tables -->
<g id="node7" class="node"><title>Main Crossref tables</title>
<polygon fill="#ffc62c" stroke="black" points="549.5,-1444 402.5,-1444 402.5,-1408 549.5,-1408 549.5,-1444"/>
<text text-anchor="middle" x="476" y="-1422.3" font-family="Arial" font-size="14.00">Main Crossref tables</text>
</g>
<!-- Additional Crossref tables -->
<g id="node20" class="node"><title>Additional Crossref tables</title>
<polygon fill="#3db1c8" stroke="black" points="748,-1444 568,-1444 568,-1408 748,-1408 748,-1444"/>
<text text-anchor="middle" x="658" y="-1422.3" font-family="Arial" font-size="14.00">Additional Crossref tables</text>
</g>
<!-- Main Crossref tables&#45;&gt;Additional Crossref tables -->
<!-- works -->
<g id="node8" class="node"><title>works</title>
<polygon fill="#ffc62c" stroke="black" points="98,-1281.5 44,-1281.5 44,-1245.5 98,-1245.5 98,-1281.5"/>
<text text-anchor="middle" x="71" y="-1259.8" font-family="Arial" font-size="14.00">works</text>
</g>
<!-- works&#45;&gt;works_asjcs -->
<g id="edge12" class="edge"><title>works&#45;&gt;works_asjcs</title>
<path fill="none" stroke="black" d="M71,-1245.43C71,-1165.42 71,-827.22 71,-729.217"/>
<text text-anchor="middle" x="54.5" y="-733.017" font-family="Arial" font-size="14.00">0…N</text>
<text text-anchor="middle" x="66.5" y="-1234.23" font-family="Arial" font-size="14.00">1</text>
</g>
<!-- person_works -->
<g id="node14" class="node"><title>person_works</title>
<polygon fill="#a6ce39" stroke="black" points="242,-719.5 136,-719.5 136,-683.5 242,-683.5 242,-719.5"/>
<text text-anchor="middle" x="189" y="-697.8" font-family="Arial" font-size="14.00">person_works</text>
</g>
<!-- works&#45;&gt;person_works -->
<g id="edge11" class="edge"><title>works&#45;&gt;person_works</title>
<path fill="none" stroke="black" d="M79.1968,-1245.25C91.464,-1218.72 114.491,-1166.04 127,-1119 167.301,-967.455 183.594,-777.458 187.818,-719.84"/>
<text text-anchor="middle" x="172.318" y="-723.64" font-family="Arial" font-size="14.00">0…1</text>
<text text-anchor="middle" x="91.6968" y="-1234.05" font-family="Arial" font-size="14.00">0..1</text>
</g>
<!-- open_access_journals -->
<g id="node19" class="node"><title>open_access_journals</title>
<polygon fill="#fa9a87" stroke="none" points="475.5,-1119 260.5,-1119 260.5,-284 475.5,-284 475.5,-1119"/>
<text text-anchor="start" x="289" y="-1105.3" font-family="Arial" font-weight="bold" font-size="14.00">open_access_journals</text>
<text text-anchor="start" x="264" y="-1085.3" font-family="Arial" font-size="14.00">name</text>
<text text-anchor="start" x="264" y="-1070.3" font-family="Arial" font-size="14.00">url</text>
<text text-anchor="start" x="264" y="-1055.3" font-family="Arial" font-size="14.00">doaj_ur</text>
<text text-anchor="start" x="264" y="-1040.3" font-family="Arial" font-size="14.00">oaj_start</text>
<text text-anchor="start" x="264" y="-1025.3" font-family="Arial" font-size="14.00">alternative_name</text>
<text text-anchor="start" x="264" y="-1010.3" font-family="Arial" font-size="14.00">issn_print</text>
<text text-anchor="start" x="264" y="-995.3" font-family="Arial" font-size="14.00">issn_eprint</text>
<text text-anchor="start" x="264" y="-980.3" font-family="Arial" font-size="14.00">keywords</text>
<text text-anchor="start" x="264" y="-965.3" font-family="Arial" font-size="14.00">languages</text>
<text text-anchor="start" x="264" y="-950.3" font-family="Arial" font-size="14.00">publisher</text>
<text text-anchor="start" x="264" y="-935.3" font-family="Arial" font-size="14.00">pubisher_country</text>
<text text-anchor="start" x="264" y="-920.3" font-family="Arial" font-size="14.00">society</text>
<text text-anchor="start" x="264" y="-905.3" font-family="Arial" font-size="14.00">society_country</text>
<text text-anchor="start" x="264" y="-890.3" font-family="Arial" font-size="14.00">license</text>
<text text-anchor="start" x="264" y="-875.3" font-family="Arial" font-size="14.00">license_attributes</text>
<text text-anchor="start" x="264" y="-860.3" font-family="Arial" font-size="14.00">license_terms_url</text>
<text text-anchor="start" x="264" y="-845.3" font-family="Arial" font-size="14.00">license_embedded</text>
<text text-anchor="start" x="264" y="-830.3" font-family="Arial" font-size="14.00">example_license_embedded_url</text>
<text text-anchor="start" x="264" y="-815.3" font-family="Arial" font-size="14.00">author_copyright</text>
<text text-anchor="start" x="264" y="-800.3" font-family="Arial" font-size="14.00">copyright_info_url</text>
<text text-anchor="start" x="264" y="-785.3" font-family="Arial" font-size="14.00">review_process</text>
<text text-anchor="start" x="264" y="-770.3" font-family="Arial" font-size="14.00">review_process_url</text>
<text text-anchor="start" x="264" y="-755.3" font-family="Arial" font-size="14.00">plagiarism_screening</text>
<text text-anchor="start" x="264" y="-740.3" font-family="Arial" font-size="14.00">plagiarism_info_url</text>
<text text-anchor="start" x="264" y="-725.3" font-family="Arial" font-size="14.00">aims_scope_url</text>
<text text-anchor="start" x="264" y="-710.3" font-family="Arial" font-size="14.00">board_url</text>
<text text-anchor="start" x="264" y="-695.3" font-family="Arial" font-size="14.00">author_instructions_url</text>
<text text-anchor="start" x="264" y="-680.3" font-family="Arial" font-size="14.00">sub_pub_weeks</text>
<text text-anchor="start" x="264" y="-665.3" font-family="Arial" font-size="14.00">apc</text>
<text text-anchor="start" x="264" y="-650.3" font-family="Arial" font-size="14.00">apc_info_url</text>
<text text-anchor="start" x="264" y="-635.3" font-family="Arial" font-size="14.00">apc_amount</text>
<text text-anchor="start" x="264" y="-620.3" font-family="Arial" font-size="14.00">apc_waiver</text>
<text text-anchor="start" x="264" y="-605.3" font-family="Arial" font-size="14.00">apc_waiver_info_url</text>
<text text-anchor="start" x="264" y="-590.3" font-family="Arial" font-size="14.00">other_fees</text>
<text text-anchor="start" x="264" y="-575.3" font-family="Arial" font-size="14.00">other_fees_info_url</text>
<text text-anchor="start" x="264" y="-560.3" font-family="Arial" font-size="14.00">preservation_services</text>
<text text-anchor="start" x="264" y="-545.3" font-family="Arial" font-size="14.00">preservation_national_library</text>
<text text-anchor="start" x="264" y="-530.3" font-family="Arial" font-size="14.00">preservation_info_url</text>
<text text-anchor="start" x="264" y="-515.3" font-family="Arial" font-size="14.00">deposit_policy_directory</text>
<text text-anchor="start" x="264" y="-500.3" font-family="Arial" font-size="14.00">deposit_policy_directory_url</text>
<text text-anchor="start" x="264" y="-485.3" font-family="Arial" font-size="14.00">persistent_article_identifiers</text>
<text text-anchor="start" x="264" y="-470.3" font-family="Arial" font-size="14.00">orcid_in_metadata</text>
<text text-anchor="start" x="264" y="-455.3" font-family="Arial" font-size="14.00">i4oc_compliance</text>
<text text-anchor="start" x="264" y="-440.3" font-family="Arial" font-size="14.00">doaj_oa_compliance</text>
<text text-anchor="start" x="264" y="-425.3" font-family="Arial" font-size="14.00">oa_statement_url</text>
<text text-anchor="start" x="264" y="-410.3" font-family="Arial" font-size="14.00">continues</text>
<text text-anchor="start" x="264" y="-395.3" font-family="Arial" font-size="14.00">continued_by</text>
<text text-anchor="start" x="264" y="-380.3" font-family="Arial" font-size="14.00">lcc_codes</text>
<text text-anchor="start" x="264" y="-365.3" font-family="Arial" font-size="14.00">subjects</text>
<text text-anchor="start" x="264" y="-350.3" font-family="Arial" font-size="14.00">doaj_Seal</text>
<text text-anchor="start" x="264" y="-335.3" font-family="Arial" font-size="14.00">added_on</text>
<text text-anchor="start" x="264" y="-320.3" font-family="Arial" font-size="14.00">last_updated</text>
<text text-anchor="start" x="264" y="-305.3" font-family="Arial" font-size="14.00">article_records_number</text>
<text text-anchor="start" x="264" y="-290.3" font-family="Arial" font-size="14.00">most_recent_addition</text>
<polygon fill="black" stroke="black" points="261,-1098.5 261,-1098.5 476,-1098.5 476,-1098.5 261,-1098.5"/>
<polygon fill="none" stroke="black" points="260.5,-284 260.5,-1119 475.5,-1119 475.5,-284 260.5,-284"/>
</g>
<!-- works&#45;&gt;open_access_journals -->
<g id="edge3" class="edge"><title>works&#45;&gt;open_access_journals</title>
<path fill="none" stroke="black" d="M76.1604,-1245.3C81.6382,-1229.51 91.6481,-1206.31 107,-1191 157.667,-1140.47 205.425,-1174.16 251,-1119 254.229,-1115.09 257.369,-1111.1 260.423,-1107.03"/>
<text text-anchor="middle" x="244.923" y="-1110.83" font-family="Arial" font-size="14.00">0…1</text>
<text text-anchor="middle" x="76.1604" y="-1234.1" font-family="Arial" font-size="14.00">1</text>
</g>
<!-- journals_issns -->
<g id="node23" class="node"><title>journals_issns</title>
<polygon fill="#3db1c8" stroke="none" points="602.5,-736.5 493.5,-736.5 493.5,-666.5 602.5,-666.5 602.5,-736.5"/>
<text text-anchor="start" x="497" y="-723.3" font-family="Arial" font-weight="bold" font-size="14.00">journals_issns</text>
<text text-anchor="start" x="518" y="-703.3" font-family="Arial" font-size="14.00">journal_id</text>
<text text-anchor="start" x="518" y="-688.3" font-family="Arial" font-size="14.00">issn</text>
<text text-anchor="start" x="518" y="-673.3" font-family="Arial" font-size="14.00">issn_type</text>
<polygon fill="black" stroke="black" points="494,-716.5 494,-716.5 603,-716.5 603,-716.5 494,-716.5"/>
<polygon fill="none" stroke="black" points="493.5,-666.5 493.5,-736.5 602.5,-736.5 602.5,-666.5 493.5,-666.5"/>
</g>
<!-- works&#45;&gt;journals_issns -->
<g id="edge8" class="edge"><title>works&#45;&gt;journals_issns</title>
<path fill="none" stroke="black" d="M74.9906,-1245.22C79.7441,-1228.67 89.359,-1204.31 107,-1191 243.53,-1088.01 366.396,-1242.21 485,-1119 587.196,-1012.83 567.544,-815.758 554.545,-736.658"/>
<text text-anchor="middle" x="539.045" y="-740.458" font-family="Arial" font-size="14.00">0…1</text>
<text text-anchor="middle" x="74.9906" y="-1234.02" font-family="Arial" font-size="14.00">1</text>
</g>
<!-- persons -->
<g id="node13" class="node"><title>persons</title>
<polygon fill="#a6ce39" stroke="black" points="388,-45.5 320,-45.5 320,-9.5 388,-9.5 388,-45.5"/>
<text text-anchor="middle" x="354" y="-23.8" font-family="Arial" font-size="14.00">persons</text>
</g>
<!-- work_authors&#45;&gt;persons -->
<g id="edge6" class="edge"><title>work_authors&#45;&gt;persons</title>
<path fill="none" stroke="black" d="M213.619,-151.333C244.327,-124.463 303.414,-72.7632 334.22,-45.8072"/>
<text text-anchor="middle" x="318.72" y="-49.6072" font-family="Arial" font-size="14.00">0…1</text>
<text text-anchor="middle" x="209.119" y="-140.133" font-family="Arial" font-size="14.00">1</text>
</g>
<!-- work_subjects -->
<g id="node10" class="node"><title>work_subjects</title>
<polygon fill="#ffc62c" stroke="black" points="727.5,-719.5 620.5,-719.5 620.5,-683.5 727.5,-683.5 727.5,-719.5"/>
<text text-anchor="middle" x="674" y="-697.8" font-family="Arial" font-size="14.00">work_subjects</text>
</g>
<!-- work_subjects&#45;&gt;asjcs -->
<g id="edge14" class="edge"><title>work_subjects&#45;&gt;asjcs</title>
<path fill="none" stroke="black" d="M677.75,-683.149C690.386,-619.513 724.595,-396.789 612,-284 460.216,-131.953 334.612,-288.887 134,-212 131.187,-210.922 128.371,-209.703 125.575,-208.376"/>
<text text-anchor="middle" x="130.075" y="-212.176" font-family="Arial" font-size="14.00">1</text>
<text text-anchor="middle" x="673.25" y="-671.949" font-family="Arial" font-size="14.00">1</text>
</g>
<!-- work_funders -->
<g id="node11" class="node"><title>work_funders</title>
<polygon fill="#ffc62c" stroke="black" points="528,-1281.5 426,-1281.5 426,-1245.5 528,-1245.5 528,-1281.5"/>
<text text-anchor="middle" x="477" y="-1259.8" font-family="Arial" font-size="14.00">work_funders</text>
</g>
<!-- ror_funder_ids -->
<g id="node17" class="node"><title>ror_funder_ids</title>
<polygon fill="#53baa1" stroke="black" points="1015,-719.5 905,-719.5 905,-683.5 1015,-683.5 1015,-719.5"/>
<text text-anchor="middle" x="960" y="-697.8" font-family="Arial" font-size="14.00">ror_funder_ids</text>
</g>
<!-- work_funders&#45;&gt;ror_funder_ids -->
<g id="edge5" class="edge"><title>work_funders&#45;&gt;ror_funder_ids</title>
<path fill="none" stroke="black" d="M528.205,-1261.1C617.837,-1255.69 802.506,-1230.76 896,-1119 998.099,-996.957 972.907,-781.647 963.02,-719.646"/>
<text text-anchor="middle" x="947.52" y="-723.446" font-family="Arial" font-size="14.00">0…1</text>
<text text-anchor="middle" x="532.705" y="-1264.9" font-family="Arial" font-size="14.00">1</text>
</g>
<!-- funder_names -->
<g id="node21" class="node"><title>funder_names</title>
<polygon fill="#3db1c8" stroke="none" points="1140.5,-736.5 1033.5,-736.5 1033.5,-666.5 1140.5,-666.5 1140.5,-736.5"/>
<text text-anchor="start" x="1037" y="-723.3" font-family="Arial" font-weight="bold" font-size="14.00">funder_names</text>
<text text-anchor="start" x="1059.5" y="-703.3" font-family="Arial" font-size="14.00">url</text>
<text text-anchor="start" x="1059.5" y="-688.3" font-family="Arial" font-size="14.00">name</text>
<text text-anchor="start" x="1059.5" y="-673.3" font-family="Arial" font-size="14.00">replaced</text>
<polygon fill="black" stroke="black" points="1034,-716.5 1034,-716.5 1141,-716.5 1141,-716.5 1034,-716.5"/>
<polygon fill="none" stroke="black" points="1033.5,-666.5 1033.5,-736.5 1140.5,-736.5 1140.5,-666.5 1033.5,-666.5"/>
</g>
<!-- work_funders&#45;&gt;funder_names -->
<g id="edge4" class="edge"><title>work_funders&#45;&gt;funder_names</title>
<path fill="none" stroke="black" d="M528.154,-1256.24C650.96,-1240.15 957.22,-1193.3 1024,-1119 1122.26,-1009.68 1105.06,-815.266 1093.13,-736.775"/>
<text text-anchor="middle" x="1077.63" y="-740.575" font-family="Arial" font-size="14.00">0…1</text>
<text text-anchor="middle" x="532.654" y="-1245.04" font-family="Arial" font-size="14.00">1</text>
</g>
<!-- ORCID tables -->
<g id="node12" class="node"><title>ORCID tables</title>
<polygon fill="#a6ce39" stroke="black" points="1090,-1444 984,-1444 984,-1408 1090,-1408 1090,-1444"/>
<text text-anchor="middle" x="1037" y="-1422.3" font-family="Arial" font-size="14.00">ORCID tables</text>
</g>
<!-- ORCID tables&#45;&gt;Alexandria3k tables -->
<!-- ROR tables -->
<g id="node15" class="node"><title>ROR tables</title>
<polygon fill="#53baa1" stroke="black" points="965.5,-1444 874.5,-1444 874.5,-1408 965.5,-1408 965.5,-1444"/>
<text text-anchor="middle" x="920" y="-1422.3" font-family="Arial" font-size="14.00">ROR tables</text>
</g>
<!-- ROR tables&#45;&gt;ORCID tables -->
<!-- research_organizations -->
<g id="node16" class="node"><title>research_organizations</title>
<polygon fill="#53baa1" stroke="black" points="408,-1281.5 244,-1281.5 244,-1245.5 408,-1245.5 408,-1281.5"/>
<text text-anchor="middle" x="326" y="-1259.8" font-family="Arial" font-size="14.00">research_organizations</text>
</g>
<!-- research_organizations&#45;&gt;work_authors_rors -->
<g id="edge10" class="edge"><title>research_organizations&#45;&gt;work_authors_rors</title>
<path fill="none" stroke="black" d="M342.866,-1245.39C360.031,-1228.97 388.146,-1204.71 417,-1191 548.666,-1128.43 635.68,-1223.81 737,-1119 843.527,-1008.8 829.017,-802.275 819.898,-729.064"/>
<text text-anchor="middle" x="803.398" y="-732.864" font-family="Arial" font-size="14.00">0…N</text>
<text text-anchor="middle" x="338.366" y="-1234.19" font-family="Arial" font-size="14.00">1</text>
</g>
<!-- DOAJ table -->
<g id="node18" class="node"><title>DOAJ table</title>
<polygon fill="#fa9a87" stroke="black" points="856,-1444 766,-1444 766,-1408 856,-1408 856,-1444"/>
<text text-anchor="middle" x="811" y="-1422.3" font-family="Arial" font-size="14.00">DOAJ table</text>
</g>
<!-- DOAJ table&#45;&gt;ROR tables -->
<!-- Additional Crossref tables&#45;&gt;DOAJ table -->
<!-- journal_names -->
<g id="node22" class="node"><title>journal_names</title>
<polygon fill="#3db1c8" stroke="none" points="226,-1336 116,-1336 116,-1191 226,-1191 226,-1336"/>
<text text-anchor="start" x="119" y="-1322.3" font-family="Arial" font-weight="bold" font-size="14.00">journal_names</text>
<text text-anchor="start" x="120" y="-1302.3" font-family="Arial" font-size="14.00">title</text>
<text text-anchor="start" x="120" y="-1287.3" font-family="Arial" font-size="14.00">id</text>
<text text-anchor="start" x="120" y="-1272.3" font-family="Arial" font-size="14.00">publisher</text>
<text text-anchor="start" x="120" y="-1257.3" font-family="Arial" font-size="14.00">issn_print</text>
<text text-anchor="start" x="120" y="-1242.3" font-family="Arial" font-size="14.00">issn_eprint</text>
<text text-anchor="start" x="120" y="-1227.3" font-family="Arial" font-size="14.00">issns_additional</text>
<text text-anchor="start" x="120" y="-1212.3" font-family="Arial" font-size="14.00">doi</text>
<text text-anchor="start" x="120" y="-1197.3" font-family="Arial" font-size="14.00">volume_info</text>
<polygon fill="black" stroke="black" points="116,-1315.5 116,-1315.5 226,-1315.5 226,-1315.5 116,-1315.5"/>
<polygon fill="none" stroke="black" points="116,-1191 116,-1336 226,-1336 226,-1191 116,-1191"/>
</g>
<!-- journal_names&#45;&gt;journals_issns -->
<g id="edge7" class="edge"><title>journal_names&#45;&gt;journals_issns</title>
<path fill="none" stroke="black" d="M226.288,-1197.07C229.129,-1194.9 232.037,-1192.86 235,-1191 332.932,-1129.53 408.735,-1205.91 485,-1119 581.954,-1008.51 565.498,-814.765 553.951,-736.614"/>
<text text-anchor="middle" x="570.451" y="-740.414" font-family="Arial" font-size="14.00">1…N</text>
<text text-anchor="middle" x="239.288" y="-1200.87" font-family="Arial" font-size="14.00">1..N</text>
</g>
</g>
</svg>
