<?xml version="1.0" encoding="UTF-8" standalone="no"?>
<!DOCTYPE svg PUBLIC "-//W3C//DTD SVG 1.1//EN"
 "http://www.w3.org/Graphics/SVG/1.1/DTD/svg11.dtd">
<!-- Generated by graphviz version 2.43.0 (0)
 -->
<!-- Title: D Pages: 1 -->
<svg width="957pt" height="325pt"
 viewBox="0.00 0.00 957.00 325.00" xmlns="http://www.w3.org/2000/svg" xmlns:xlink="http://www.w3.org/1999/xlink">
<g id="graph0" class="graph" transform="scale(1 1) rotate(0) translate(4 321)">
<title>D</title>
<polygon fill="white" stroke="transparent" points="-4,4 -4,-321 953,-321 953,4 -4,4"/>
<!-- research_organizations -->
<g id="node1" class="node">
<title>research_organizations</title>
<polygon fill="#53baa1" stroke="transparent" points="517,-317 359,-317 359,-202 517,-202 517,-317"/>
<text text-anchor="start" x="362" y="-303.3" font-family="Arial" font-weight="bold" font-size="14.00">research_organizations</text>
<text text-anchor="start" x="397" y="-283.3" font-family="Arial" font-size="14.00">id</text>
<text text-anchor="start" x="397" y="-268.3" font-family="Arial" font-size="14.00">ror_path</text>
<text text-anchor="start" x="397" y="-253.3" font-family="Arial" font-size="14.00">name</text>
<text text-anchor="start" x="397" y="-238.3" font-family="Arial" font-size="14.00">status</text>
<text text-anchor="start" x="397" y="-223.3" font-family="Arial" font-size="14.00">established</text>
<text text-anchor="start" x="397" y="-208.3" font-family="Arial" font-size="14.00">country_code</text>
<polygon fill="black" stroke="black" points="359,-296.5 359,-296.5 517,-296.5 517,-296.5 359,-296.5"/>
<polygon fill="none" stroke="black" points="359,-202 359,-317 517,-317 517,-202 359,-202"/>
</g>
<!-- ror_types -->
<g id="node2" class="node">
<title>ror_types</title>
<polygon fill="#53baa1" stroke="transparent" points="68,-100 0,-100 0,-30 68,-30 68,-100"/>
<text text-anchor="start" x="3" y="-86.8" font-family="Arial" font-weight="bold" font-size="14.00">ror_types</text>
<text text-anchor="start" x="16.5" y="-66.8" font-family="Arial" font-size="14.00">id</text>
<text text-anchor="start" x="16.5" y="-51.8" font-family="Arial" font-size="14.00">ror_id</text>
<text text-anchor="start" x="16.5" y="-36.8" font-family="Arial" font-size="14.00">type</text>
<polygon fill="black" stroke="black" points="0,-80 0,-80 68,-80 68,-80 0,-80"/>
<polygon fill="none" stroke="black" points="0,-30 0,-100 68,-100 68,-30 0,-30"/>
</g>
<!-- research_organizations&#45;&gt;ror_types -->
<g id="edge1" class="edge">
<title>research_organizations&#45;&gt;ror_types</title>
<path fill="none" stroke="black" d="M358.87,-245.32C280.68,-229.07 160.92,-195.21 77,-130 66.75,-122.03 58.09,-110.92 51.29,-100.18"/>
<text text-anchor="middle" x="35.29" y="-103.98" font-family="Arial" font-size="14.00">1…N</text>
<text text-anchor="middle" x="354.87" y="-249.12" font-family="Arial" font-size="14.00">1</text>
</g>
<!-- ror_links -->
<g id="node3" class="node">
<title>ror_links</title>
<polygon fill="#53baa1" stroke="transparent" points="150,-100 86,-100 86,-30 150,-30 150,-100"/>
<text text-anchor="start" x="89" y="-86.8" font-family="Arial" font-weight="bold" font-size="14.00">ror_links</text>
<text text-anchor="start" x="100.5" y="-66.8" font-family="Arial" font-size="14.00">id</text>
<text text-anchor="start" x="100.5" y="-51.8" font-family="Arial" font-size="14.00">ror_id</text>
<text text-anchor="start" x="100.5" y="-36.8" font-family="Arial" font-size="14.00">link</text>
<polygon fill="black" stroke="black" points="86,-80 86,-80 150,-80 150,-80 86,-80"/>
<polygon fill="none" stroke="black" points="86,-30 86,-100 150,-100 150,-30 86,-30"/>
</g>
<!-- research_organizations&#45;&gt;ror_links -->
<g id="edge2" class="edge">
<title>research_organizations&#45;&gt;ror_links</title>
<path fill="none" stroke="black" d="M358.71,-235.51C298.8,-215.14 217.22,-180.69 159,-130 149.45,-121.68 141.29,-110.6 134.83,-100"/>
<text text-anchor="middle" x="118.83" y="-103.8" font-family="Arial" font-size="14.00">0…N</text>
<text text-anchor="middle" x="354.71" y="-224.31" font-family="Arial" font-size="14.00">1</text>
</g>
<!-- ror_aliases -->
<g id="node4" class="node">
<title>ror_aliases</title>
<polygon fill="#53baa1" stroke="transparent" points="246,-100 168,-100 168,-30 246,-30 246,-100"/>
<text text-anchor="start" x="171" y="-86.8" font-family="Arial" font-weight="bold" font-size="14.00">ror_aliases</text>
<text text-anchor="start" x="189.5" y="-66.8" font-family="Arial" font-size="14.00">id</text>
<text text-anchor="start" x="189.5" y="-51.8" font-family="Arial" font-size="14.00">ror_id</text>
<text text-anchor="start" x="189.5" y="-36.8" font-family="Arial" font-size="14.00">alias</text>
<polygon fill="black" stroke="black" points="168,-80 168,-80 246,-80 246,-80 168,-80"/>
<polygon fill="none" stroke="black" points="168,-30 168,-100 246,-100 246,-30 168,-30"/>
</g>
<!-- research_organizations&#45;&gt;ror_aliases -->
<g id="edge3" class="edge">
<title>research_organizations&#45;&gt;ror_aliases</title>
<path fill="none" stroke="black" d="M358.62,-210.69C324.8,-188.38 286.08,-160.12 255,-130 245.82,-121.11 237.04,-110.34 229.56,-100.2"/>
<text text-anchor="middle" x="213.56" y="-104" font-family="Arial" font-size="14.00">0…N</text>
<text text-anchor="middle" x="354.62" y="-199.49" font-family="Arial" font-size="14.00">1</text>
</g>
<!-- ror_acronyms -->
<g id="node5" class="node">
<title>ror_acronyms</title>
<polygon fill="#53baa1" stroke="transparent" points="361.5,-100 264.5,-100 264.5,-30 361.5,-30 361.5,-100"/>
<text text-anchor="start" x="268" y="-86.8" font-family="Arial" font-weight="bold" font-size="14.00">ror_acronyms</text>
<text text-anchor="start" x="287" y="-66.8" font-family="Arial" font-size="14.00">id</text>
<text text-anchor="start" x="287" y="-51.8" font-family="Arial" font-size="14.00">ror_id</text>
<text text-anchor="start" x="287" y="-36.8" font-family="Arial" font-size="14.00">acronym</text>
<polygon fill="black" stroke="black" points="265,-80 265,-80 362,-80 362,-80 265,-80"/>
<polygon fill="none" stroke="black" points="264.5,-30 264.5,-100 361.5,-100 361.5,-30 264.5,-30"/>
</g>
<!-- research_organizations&#45;&gt;ror_acronyms -->
<g id="edge4" class="edge">
<title>research_organizations&#45;&gt;ror_acronyms</title>
<path fill="none" stroke="black" d="M401.17,-201.78C379.71,-168.74 353.36,-128.16 335.09,-100.01"/>
<text text-anchor="middle" x="319.09" y="-103.81" font-family="Arial" font-size="14.00">0…N</text>
<text text-anchor="middle" x="397.17" y="-190.58" font-family="Arial" font-size="14.00">1</text>
</g>
<!-- ror_relationships -->
<g id="node6" class="node">
<title>ror_relationships</title>
<polygon fill="#53baa1" stroke="transparent" points="496.5,-107.5 379.5,-107.5 379.5,-22.5 496.5,-22.5 496.5,-107.5"/>
<text text-anchor="start" x="383" y="-93.8" font-family="Arial" font-weight="bold" font-size="14.00">ror_relationships</text>
<text text-anchor="start" x="413" y="-73.8" font-family="Arial" font-size="14.00">id</text>
<text text-anchor="start" x="413" y="-58.8" font-family="Arial" font-size="14.00">ror_id</text>
<text text-anchor="start" x="413" y="-43.8" font-family="Arial" font-size="14.00">type</text>
<text text-anchor="start" x="413" y="-28.8" font-family="Arial" font-size="14.00">ror_path</text>
<polygon fill="black" stroke="black" points="380,-87 380,-87 497,-87 497,-87 380,-87"/>
<polygon fill="none" stroke="black" points="379.5,-22.5 379.5,-107.5 496.5,-107.5 496.5,-22.5 379.5,-22.5"/>
</g>
<!-- research_organizations&#45;&gt;ror_relationships -->
<g id="edge5" class="edge">
<title>research_organizations&#45;&gt;ror_relationships</title>
<path fill="none" stroke="black" d="M438,-201.78C438,-171.62 438,-135.18 438,-107.65"/>
<text text-anchor="middle" x="422" y="-111.45" font-family="Arial" font-size="14.00">0…N</text>
<text text-anchor="middle" x="434" y="-190.58" font-family="Arial" font-size="14.00">1</text>
</g>
<!-- ror_addresses -->
<g id="node7" class="node">
<title>ror_addresses</title>
<polygon fill="#53baa1" stroke="transparent" points="615,-130 515,-130 515,0 615,0 615,-130"/>
<text text-anchor="start" x="518" y="-116.8" font-family="Arial" font-weight="bold" font-size="14.00">ror_addresses</text>
<text text-anchor="start" x="537.5" y="-96.8" font-family="Arial" font-size="14.00">id</text>
<text text-anchor="start" x="537.5" y="-81.8" font-family="Arial" font-size="14.00">ror_id</text>
<text text-anchor="start" x="537.5" y="-66.8" font-family="Arial" font-size="14.00">lat</text>
<text text-anchor="start" x="537.5" y="-51.8" font-family="Arial" font-size="14.00">lng</text>
<text text-anchor="start" x="537.5" y="-36.8" font-family="Arial" font-size="14.00">city</text>
<text text-anchor="start" x="537.5" y="-21.8" font-family="Arial" font-size="14.00">state</text>
<text text-anchor="start" x="537.5" y="-6.8" font-family="Arial" font-size="14.00">postcode</text>
<polygon fill="black" stroke="black" points="515,-110 515,-110 615,-110 615,-110 515,-110"/>
<polygon fill="none" stroke="black" points="515,0 515,-130 615,-130 615,0 515,0"/>
</g>
<!-- research_organizations&#45;&gt;ror_addresses -->
<g id="edge6" class="edge">
<title>research_organizations&#45;&gt;ror_addresses</title>
<path fill="none" stroke="black" d="M475.42,-201.78C490.27,-179.27 507.43,-153.27 522.73,-130.07"/>
<text text-anchor="middle" x="506.73" y="-133.87" font-family="Arial" font-size="14.00">0…N</text>
<text text-anchor="middle" x="471.42" y="-190.58" font-family="Arial" font-size="14.00">1</text>
</g>
<!-- ror_funder_ids -->
<g id="node8" class="node">
<title>ror_funder_ids</title>
<polygon fill="#53baa1" stroke="transparent" points="735,-100 633,-100 633,-30 735,-30 735,-100"/>
<text text-anchor="start" x="636" y="-86.8" font-family="Arial" font-weight="bold" font-size="14.00">ror_funder_ids</text>
<text text-anchor="start" x="655.5" y="-66.8" font-family="Arial" font-size="14.00">id</text>
<text text-anchor="start" x="655.5" y="-51.8" font-family="Arial" font-size="14.00">ror_id</text>
<text text-anchor="start" x="655.5" y="-36.8" font-family="Arial" font-size="14.00">funder_id</text>
<polygon fill="black" stroke="black" points="633,-80 633,-80 735,-80 735,-80 633,-80"/>
<polygon fill="none" stroke="black" points="633,-30 633,-100 735,-100 735,-30 633,-30"/>
</g>
<!-- research_organizations&#45;&gt;ror_funder_ids -->
<g id="edge7" class="edge">
<title>research_organizations&#45;&gt;ror_funder_ids</title>
<path fill="none" stroke="black" d="M517.19,-209.2C551.29,-186.62 590.84,-158.56 624,-130 634.5,-120.95 645.12,-110.25 654.44,-100.22"/>
<text text-anchor="middle" x="638.44" y="-104.02" font-family="Arial" font-size="14.00">0…N</text>
<text text-anchor="middle" x="521.19" y="-213" font-family="Arial" font-size="14.00">1</text>
</g>
<!-- ror_wikidata_ids -->
<g id="node9" class="node">
<title>ror_wikidata_ids</title>
<polygon fill="#53baa1" stroke="transparent" points="867,-100 753,-100 753,-30 867,-30 867,-100"/>
<text text-anchor="start" x="756" y="-86.8" font-family="Arial" font-weight="bold" font-size="14.00">ror_wikidata_ids</text>
<text text-anchor="start" x="776.5" y="-66.8" font-family="Arial" font-size="14.00">id</text>
<text text-anchor="start" x="776.5" y="-51.8" font-family="Arial" font-size="14.00">ror_id</text>
<text text-anchor="start" x="776.5" y="-36.8" font-family="Arial" font-size="14.00">wikidata_id</text>
<polygon fill="black" stroke="black" points="753,-80 753,-80 867,-80 867,-80 753,-80"/>
<polygon fill="none" stroke="black" points="753,-30 753,-100 867,-100 867,-30 753,-30"/>
</g>
<!-- research_organizations&#45;&gt;ror_wikidata_ids -->
<g id="edge8" class="edge">
<title>research_organizations&#45;&gt;ror_wikidata_ids</title>
<path fill="none" stroke="black" d="M517.12,-234.39C581.38,-212.73 672.73,-177.08 744,-130 756.65,-121.64 769,-110.67 779.53,-100.18"/>
<text text-anchor="middle" x="763.53" y="-103.98" font-family="Arial" font-size="14.00">0…N</text>
<text text-anchor="middle" x="521.12" y="-238.19" font-family="Arial" font-size="14.00">1</text>
</g>
<!-- ror_isnis -->
<g id="node10" class="node">
<title>ror_isnis</title>
<polygon fill="#53baa1" stroke="transparent" points="949,-100 885,-100 885,-30 949,-30 949,-100"/>
<text text-anchor="start" x="888" y="-86.8" font-family="Arial" font-weight="bold" font-size="14.00">ror_isnis</text>
<text text-anchor="start" x="899.5" y="-66.8" font-family="Arial" font-size="14.00">id</text>
<text text-anchor="start" x="899.5" y="-51.8" font-family="Arial" font-size="14.00">ror_id</text>
<text text-anchor="start" x="899.5" y="-36.8" font-family="Arial" font-size="14.00">isni</text>
<polygon fill="black" stroke="black" points="885,-80 885,-80 949,-80 949,-80 885,-80"/>
<polygon fill="none" stroke="black" points="885,-30 885,-100 949,-100 949,-30 885,-30"/>
</g>
<!-- research_organizations&#45;&gt;ror_isnis -->
<g id="edge9" class="edge">
<title>research_organizations&#45;&gt;ror_isnis</title>
<path fill="none" stroke="black" d="M517.41,-252C611.35,-240.78 768.52,-210.56 876,-130 886.35,-122.24 894.78,-111.05 901.25,-100.18"/>
<text text-anchor="middle" x="885.25" y="-103.98" font-family="Arial" font-size="14.00">0…N</text>
<text text-anchor="middle" x="521.41" y="-255.8" font-family="Arial" font-size="14.00">1</text>
</g>
</g>
</svg>
