<?xml version="1.0" encoding="UTF-8" standalone="no"?>
<!DOCTYPE svg PUBLIC "-//W3C//DTD SVG 1.1//EN"
 "http://www.w3.org/Graphics/SVG/1.1/DTD/svg11.dtd">
<!-- Generated by graphviz version 2.38.0 (20140413.2041)
 -->
<!-- Title: D Pages: 1 -->
<svg width="1027pt" height="325pt"
 viewBox="0.00 0.00 1026.50 325.00" xmlns="http://www.w3.org/2000/svg" xmlns:xlink="http://www.w3.org/1999/xlink">
<g id="graph0" class="graph" transform="scale(1 1) rotate(0) translate(4 321)">
<title>D</title>
<polygon fill="white" stroke="none" points="-4,4 -4,-321 1022.5,-321 1022.5,4 -4,4"/>
<!-- research_organizations -->
<g id="node1" class="node"><title>research_organizations</title>
<polygon fill="#53baa1" stroke="none" points="557,-317 385,-317 385,-202 557,-202 557,-317"/>
<text text-anchor="start" x="388" y="-303.3" font-family="Arial" font-weight="bold" font-size="14.00">research_organizations</text>
<text text-anchor="start" x="427.5" y="-283.3" font-family="Arial" font-size="14.00">id</text>
<text text-anchor="start" x="427.5" y="-268.3" font-family="Arial" font-size="14.00">ror_path</text>
<text text-anchor="start" x="427.5" y="-253.3" font-family="Arial" font-size="14.00">name</text>
<text text-anchor="start" x="427.5" y="-238.3" font-family="Arial" font-size="14.00">status</text>
<text text-anchor="start" x="427.5" y="-223.3" font-family="Arial" font-size="14.00">established</text>
<text text-anchor="start" x="427.5" y="-208.3" font-family="Arial" font-size="14.00">country_code</text>
<polygon fill="black" stroke="black" points="385,-296.5 385,-296.5 557,-296.5 557,-296.5 385,-296.5"/>
<polygon fill="none" stroke="black" points="385,-202 385,-317 557,-317 557,-202 385,-202"/>
</g>
<!-- ror_types -->
<g id="node2" class="node"><title>ror_types</title>
<polygon fill="#53baa1" stroke="none" points="74,-100 0,-100 0,-30 74,-30 74,-100"/>
<text text-anchor="start" x="3" y="-86.8" font-family="Arial" font-weight="bold" font-size="14.00">ror_types</text>
<text text-anchor="start" x="18.5" y="-66.8" font-family="Arial" font-size="14.00">id</text>
<text text-anchor="start" x="18.5" y="-51.8" font-family="Arial" font-size="14.00">ror_id</text>
<text text-anchor="start" x="18.5" y="-36.8" font-family="Arial" font-size="14.00">type</text>
<polygon fill="black" stroke="black" points="0,-80 0,-80 74,-80 74,-80 0,-80"/>
<polygon fill="none" stroke="black" points="0,-30 0,-100 74,-100 74,-30 0,-30"/>
</g>
<!-- research_organizations&#45;&gt;ror_types -->
<g id="edge1" class="edge"><title>research_organizations&#45;&gt;ror_types</title>
<path fill="none" stroke="black" d="M384.863,-245.835C301.172,-230.093 173.776,-196.703 83,-130 72.3042,-122.141 63.1096,-111.049 55.8142,-100.302"/>
<text text-anchor="middle" x="39.3142" y="-104.102" font-family="Arial" font-size="14.00">1…N</text>
<text text-anchor="middle" x="380.363" y="-249.635" font-family="Arial" font-size="14.00">1</text>
</g>
<!-- ror_links -->
<g id="node3" class="node"><title>ror_links</title>
<polygon fill="#53baa1" stroke="none" points="161.5,-100 92.5,-100 92.5,-30 161.5,-30 161.5,-100"/>
<text text-anchor="start" x="96" y="-86.8" font-family="Arial" font-weight="bold" font-size="14.00">ror_links</text>
<text text-anchor="start" x="109" y="-66.8" font-family="Arial" font-size="14.00">id</text>
<text text-anchor="start" x="109" y="-51.8" font-family="Arial" font-size="14.00">ror_id</text>
<text text-anchor="start" x="109" y="-36.8" font-family="Arial" font-size="14.00">link</text>
<polygon fill="black" stroke="black" points="93,-80 93,-80 162,-80 162,-80 93,-80"/>
<polygon fill="none" stroke="black" points="92.5,-30 92.5,-100 161.5,-100 161.5,-30 92.5,-30"/>
</g>
<!-- research_organizations&#45;&gt;ror_links -->
<g id="edge2" class="edge"><title>research_organizations&#45;&gt;ror_links</title>
<path fill="none" stroke="black" d="M384.767,-236.189C320.393,-216.304 233.034,-182.166 170,-130 160.1,-121.807 151.578,-110.758 144.793,-100.149"/>
<text text-anchor="middle" x="128.293" y="-103.949" font-family="Arial" font-size="14.00">0…N</text>
<text text-anchor="middle" x="380.267" y="-224.989" font-family="Arial" font-size="14.00">1</text>
</g>
<!-- ror_aliases -->
<g id="node4" class="node"><title>ror_aliases</title>
<polygon fill="#53baa1" stroke="none" points="264.5,-100 179.5,-100 179.5,-30 264.5,-30 264.5,-100"/>
<text text-anchor="start" x="183" y="-86.8" font-family="Arial" font-weight="bold" font-size="14.00">ror_aliases</text>
<text text-anchor="start" x="204" y="-66.8" font-family="Arial" font-size="14.00">id</text>
<text text-anchor="start" x="204" y="-51.8" font-family="Arial" font-size="14.00">ror_id</text>
<text text-anchor="start" x="204" y="-36.8" font-family="Arial" font-size="14.00">alias</text>
<polygon fill="black" stroke="black" points="180,-80 180,-80 265,-80 265,-80 180,-80"/>
<polygon fill="none" stroke="black" points="179.5,-30 179.5,-100 264.5,-100 264.5,-30 179.5,-30"/>
</g>
<!-- research_organizations&#45;&gt;ror_aliases -->
<g id="edge3" class="edge"><title>research_organizations&#45;&gt;ror_aliases</title>
<path fill="none" stroke="black" d="M384.916,-210.421C348.814,-188.269 307.526,-160.199 274,-130 264.214,-121.185 254.745,-110.44 246.631,-100.291"/>
<text text-anchor="middle" x="230.131" y="-104.091" font-family="Arial" font-size="14.00">0…N</text>
<text text-anchor="middle" x="380.416" y="-199.221" font-family="Arial" font-size="14.00">1</text>
</g>
<!-- ror_acronyms -->
<g id="node5" class="node"><title>ror_acronyms</title>
<polygon fill="#53baa1" stroke="none" points="389,-100 283,-100 283,-30 389,-30 389,-100"/>
<text text-anchor="start" x="286" y="-86.8" font-family="Arial" font-weight="bold" font-size="14.00">ror_acronyms</text>
<text text-anchor="start" x="308.5" y="-66.8" font-family="Arial" font-size="14.00">id</text>
<text text-anchor="start" x="308.5" y="-51.8" font-family="Arial" font-size="14.00">ror_id</text>
<text text-anchor="start" x="308.5" y="-36.8" font-family="Arial" font-size="14.00">acronym</text>
<polygon fill="black" stroke="black" points="283,-80 283,-80 389,-80 389,-80 283,-80"/>
<polygon fill="none" stroke="black" points="283,-30 283,-100 389,-100 389,-30 283,-30"/>
</g>
<!-- research_organizations&#45;&gt;ror_acronyms -->
<g id="edge4" class="edge"><title>research_organizations&#45;&gt;ror_acronyms</title>
<path fill="none" stroke="black" d="M431.226,-201.785C408.048,-168.735 379.592,-128.159 359.854,-100.013"/>
<text text-anchor="middle" x="343.354" y="-103.813" font-family="Arial" font-size="14.00">0…N</text>
<text text-anchor="middle" x="426.726" y="-190.585" font-family="Arial" font-size="14.00">1</text>
</g>
<!-- ror_relationships -->
<g id="node6" class="node"><title>ror_relationships</title>
<polygon fill="#53baa1" stroke="none" points="534.5,-107.5 407.5,-107.5 407.5,-22.5 534.5,-22.5 534.5,-107.5"/>
<text text-anchor="start" x="411" y="-93.8" font-family="Arial" font-weight="bold" font-size="14.00">ror_relationships</text>
<text text-anchor="start" x="445" y="-73.8" font-family="Arial" font-size="14.00">id</text>
<text text-anchor="start" x="445" y="-58.8" font-family="Arial" font-size="14.00">ror_id</text>
<text text-anchor="start" x="445" y="-43.8" font-family="Arial" font-size="14.00">type</text>
<text text-anchor="start" x="445" y="-28.8" font-family="Arial" font-size="14.00">ror_path</text>
<polygon fill="black" stroke="black" points="408,-87 408,-87 535,-87 535,-87 408,-87"/>
<polygon fill="none" stroke="black" points="407.5,-22.5 407.5,-107.5 534.5,-107.5 534.5,-22.5 407.5,-22.5"/>
</g>
<!-- research_organizations&#45;&gt;ror_relationships -->
<g id="edge5" class="edge"><title>research_organizations&#45;&gt;ror_relationships</title>
<path fill="none" stroke="black" d="M471,-201.785C471,-171.619 471,-135.182 471,-107.651"/>
<text text-anchor="middle" x="454.5" y="-111.451" font-family="Arial" font-size="14.00">0…N</text>
<text text-anchor="middle" x="466.5" y="-190.585" font-family="Arial" font-size="14.00">1</text>
</g>
<!-- ror_addresses -->
<g id="node7" class="node"><title>ror_addresses</title>
<polygon fill="#53baa1" stroke="none" points="661.5,-130 552.5,-130 552.5,-0 661.5,-0 661.5,-130"/>
<text text-anchor="start" x="556" y="-116.8" font-family="Arial" font-weight="bold" font-size="14.00">ror_addresses</text>
<text text-anchor="start" x="577" y="-96.8" font-family="Arial" font-size="14.00">id</text>
<text text-anchor="start" x="577" y="-81.8" font-family="Arial" font-size="14.00">ror_id</text>
<text text-anchor="start" x="577" y="-66.8" font-family="Arial" font-size="14.00">lat</text>
<text text-anchor="start" x="577" y="-51.8" font-family="Arial" font-size="14.00">lng</text>
<text text-anchor="start" x="577" y="-36.8" font-family="Arial" font-size="14.00">city</text>
<text text-anchor="start" x="577" y="-21.8" font-family="Arial" font-size="14.00">state</text>
<text text-anchor="start" x="577" y="-6.8" font-family="Arial" font-size="14.00">postcode</text>
<polygon fill="black" stroke="black" points="553,-110 553,-110 662,-110 662,-110 553,-110"/>
<polygon fill="none" stroke="black" points="552.5,-0 552.5,-130 661.5,-130 661.5,-0 552.5,-0"/>
</g>
<!-- research_organizations&#45;&gt;ror_addresses -->
<g id="edge6" class="edge"><title>research_organizations&#45;&gt;ror_addresses</title>
<path fill="none" stroke="black" d="M511.069,-201.785C526.975,-179.271 545.348,-153.265 561.732,-130.075"/>
<text text-anchor="middle" x="545.232" y="-133.875" font-family="Arial" font-size="14.00">0…N</text>
<text text-anchor="middle" x="506.569" y="-190.585" font-family="Arial" font-size="14.00">1</text>
</g>
<!-- ror_funder_ids -->
<g id="node8" class="node"><title>ror_funder_ids</title>
<polygon fill="#53baa1" stroke="none" points="790.5,-100 679.5,-100 679.5,-30 790.5,-30 790.5,-100"/>
<text text-anchor="start" x="683" y="-86.8" font-family="Arial" font-weight="bold" font-size="14.00">ror_funder_ids</text>
<text text-anchor="start" x="705" y="-66.8" font-family="Arial" font-size="14.00">id</text>
<text text-anchor="start" x="705" y="-51.8" font-family="Arial" font-size="14.00">ror_id</text>
<text text-anchor="start" x="705" y="-36.8" font-family="Arial" font-size="14.00">funder_id</text>
<polygon fill="black" stroke="black" points="680,-80 680,-80 791,-80 791,-80 680,-80"/>
<polygon fill="none" stroke="black" points="679.5,-30 679.5,-100 790.5,-100 790.5,-30 679.5,-30"/>
</g>
<!-- research_organizations&#45;&gt;ror_funder_ids -->
<g id="edge7" class="edge"><title>research_organizations&#45;&gt;ror_funder_ids</title>
<path fill="none" stroke="black" d="M557.461,-208.581C593.752,-186.215 635.649,-158.484 671,-130 682.135,-121.028 693.44,-110.348 703.388,-100.307"/>
<text text-anchor="middle" x="686.888" y="-104.107" font-family="Arial" font-size="14.00">0…N</text>
<text text-anchor="middle" x="561.961" y="-212.381" font-family="Arial" font-size="14.00">1</text>
</g>
<!-- ror_wikidata_ids -->
<g id="node9" class="node"><title>ror_wikidata_ids</title>
<polygon fill="#53baa1" stroke="none" points="931,-100 809,-100 809,-30 931,-30 931,-100"/>
<text text-anchor="start" x="812" y="-86.8" font-family="Arial" font-weight="bold" font-size="14.00">ror_wikidata_ids</text>
<text text-anchor="start" x="835" y="-66.8" font-family="Arial" font-size="14.00">id</text>
<text text-anchor="start" x="835" y="-51.8" font-family="Arial" font-size="14.00">ror_id</text>
<text text-anchor="start" x="835" y="-36.8" font-family="Arial" font-size="14.00">wikidata_id</text>
<polygon fill="black" stroke="black" points="809,-80 809,-80 931,-80 931,-80 809,-80"/>
<polygon fill="none" stroke="black" points="809,-30 809,-100 931,-100 931,-30 809,-30"/>
</g>
<!-- research_organizations&#45;&gt;ror_wikidata_ids -->
<g id="edge8" class="edge"><title>research_organizations&#45;&gt;ror_wikidata_ids</title>
<path fill="none" stroke="black" d="M557.164,-234.456C626.012,-213.036 723.331,-177.695 800,-130 813.283,-121.737 826.347,-110.793 837.526,-100.296"/>
<text text-anchor="middle" x="821.026" y="-104.096" font-family="Arial" font-size="14.00">0…N</text>
<text text-anchor="middle" x="561.664" y="-238.256" font-family="Arial" font-size="14.00">1</text>
</g>
<!-- ror_isnis -->
<g id="node10" class="node"><title>ror_isnis</title>
<polygon fill="#53baa1" stroke="none" points="1018.5,-100 949.5,-100 949.5,-30 1018.5,-30 1018.5,-100"/>
<text text-anchor="start" x="953" y="-86.8" font-family="Arial" font-weight="bold" font-size="14.00">ror_isnis</text>
<text text-anchor="start" x="966" y="-66.8" font-family="Arial" font-size="14.00">id</text>
<text text-anchor="start" x="966" y="-51.8" font-family="Arial" font-size="14.00">ror_id</text>
<text text-anchor="start" x="966" y="-36.8" font-family="Arial" font-size="14.00">isni</text>
<polygon fill="black" stroke="black" points="950,-80 950,-80 1019,-80 1019,-80 950,-80"/>
<polygon fill="none" stroke="black" points="949.5,-30 949.5,-100 1018.5,-100 1018.5,-30 949.5,-30"/>
</g>
<!-- research_organizations&#45;&gt;ror_isnis -->
<g id="edge9" class="edge"><title>research_organizations&#45;&gt;ror_isnis</title>
<path fill="none" stroke="black" d="M557.282,-252.612C657.554,-242.012 824.054,-212.42 940,-130 950.77,-122.344 959.742,-111.171 966.715,-100.295"/>
<text text-anchor="middle" x="950.215" y="-104.095" font-family="Arial" font-size="14.00">0…N</text>
<text text-anchor="middle" x="561.782" y="-256.412" font-family="Arial" font-size="14.00">1</text>
</g>
</g>
</svg>
