<?xml version="1.0" encoding="UTF-8" standalone="no"?>
<!DOCTYPE svg PUBLIC "-//W3C//DTD SVG 1.1//EN"
 "http://www.w3.org/Graphics/SVG/1.1/DTD/svg11.dtd">
<!-- Generated by graphviz version 2.43.0 (0)
 -->
<!-- Title: D Pages: 1 -->
<svg width="957pt" height="340pt"
 viewBox="0.00 0.00 957.00 340.00" xmlns="http://www.w3.org/2000/svg" xmlns:xlink="http://www.w3.org/1999/xlink">
<g id="graph0" class="graph" transform="scale(1 1) rotate(0) translate(4 336)">
<title>D</title>
<polygon fill="white" stroke="transparent" points="-4,4 -4,-336 953,-336 953,4 -4,4"/>
<!-- research_organizations -->
<g id="node1" class="node">
<title>research_organizations</title>
<polygon fill="#53baa1" stroke="transparent" points="517,-332 359,-332 359,-202 517,-202 517,-332"/>
<text text-anchor="start" x="362" y="-318.8" font-family="Arial" font-weight="bold" font-size="14.00">research_organizations</text>
<text text-anchor="start" x="397" y="-298.8" font-family="Arial" font-size="14.00">id</text>
<text text-anchor="start" x="397" y="-283.8" font-family="Arial" font-size="14.00">ror_path</text>
<text text-anchor="start" x="397" y="-268.8" font-family="Arial" font-size="14.00">name</text>
<text text-anchor="start" x="397" y="-253.8" font-family="Arial" font-size="14.00">status</text>
<text text-anchor="start" x="397" y="-238.8" font-family="Arial" font-size="14.00">established</text>
<text text-anchor="start" x="397" y="-223.8" font-family="Arial" font-size="14.00">country_code</text>
<text text-anchor="start" x="397" y="-208.8" font-family="Arial" font-size="14.00">grid</text>
<polygon fill="black" stroke="black" points="359,-312 359,-312 517,-312 517,-312 359,-312"/>
<polygon fill="none" stroke="black" points="359,-202 359,-332 517,-332 517,-202 359,-202"/>
</g>
<!-- ror_types -->
<g id="node2" class="node">
<title>ror_types</title>
<polygon fill="#53baa1" stroke="transparent" points="68,-100 0,-100 0,-30 68,-30 68,-100"/>
<text text-anchor="start" x="3" y="-86.8" font-family="Arial" font-weight="bold" font-size="14.00">ror_types</text>
<text text-anchor="start" x="16.5" y="-66.8" font-family="Arial" font-size="14.00">id</text>
<text text-anchor="start" x="16.5" y="-51.8" font-family="Arial" font-size="14.00">ror_id</text>
<text text-anchor="start" x="16.5" y="-36.8" font-family="Arial" font-size="14.00">type</text>
<polygon fill="black" stroke="black" points="0,-80 0,-80 68,-80 68,-80 0,-80"/>
<polygon fill="none" stroke="black" points="0,-30 0,-100 68,-100 68,-30 0,-30"/>
</g>
<!-- research_organizations&#45;&gt;ror_types -->
<g id="edge1" class="edge">
<title>research_organizations&#45;&gt;ror_types</title>
<path fill="none" stroke="black" d="M358.85,-250.95C280.65,-232.9 160.88,-196.42 77,-130 66.82,-121.94 58.18,-110.8 51.38,-100.07"/>
<text text-anchor="middle" x="35.38" y="-103.87" font-family="Arial" font-size="14.00">1…N</text>
<text text-anchor="middle" x="354.85" y="-254.75" font-family="Arial" font-size="14.00">1</text>
</g>
<!-- ror_links -->
<g id="node3" class="node">
<title>ror_links</title>
<polygon fill="#53baa1" stroke="transparent" points="150,-100 86,-100 86,-30 150,-30 150,-100"/>
<text text-anchor="start" x="89" y="-86.8" font-family="Arial" font-weight="bold" font-size="14.00">ror_links</text>
<text text-anchor="start" x="100.5" y="-66.8" font-family="Arial" font-size="14.00">id</text>
<text text-anchor="start" x="100.5" y="-51.8" font-family="Arial" font-size="14.00">ror_id</text>
<text text-anchor="start" x="100.5" y="-36.8" font-family="Arial" font-size="14.00">link</text>
<polygon fill="black" stroke="black" points="86,-80 86,-80 150,-80 150,-80 86,-80"/>
<polygon fill="none" stroke="black" points="86,-30 86,-100 150,-100 150,-30 86,-30"/>
</g>
<!-- research_organizations&#45;&gt;ror_links -->
<g id="edge2" class="edge">
<title>research_organizations&#45;&gt;ror_links</title>
<path fill="none" stroke="black" d="M358.74,-240.65C298.84,-218.55 217.26,-181.86 159,-130 149.64,-121.67 141.58,-110.7 135.14,-100.21"/>
<text text-anchor="middle" x="119.14" y="-104.01" font-family="Arial" font-size="14.00">0…N</text>
<text text-anchor="middle" x="354.74" y="-229.45" font-family="Arial" font-size="14.00">1</text>
</g>
<!-- ror_aliases -->
<g id="node4" class="node">
<title>ror_aliases</title>
<polygon fill="#53baa1" stroke="transparent" points="246,-100 168,-100 168,-30 246,-30 246,-100"/>
<text text-anchor="start" x="171" y="-86.8" font-family="Arial" font-weight="bold" font-size="14.00">ror_aliases</text>
<text text-anchor="start" x="189.5" y="-66.8" font-family="Arial" font-size="14.00">id</text>
<text text-anchor="start" x="189.5" y="-51.8" font-family="Arial" font-size="14.00">ror_id</text>
<text text-anchor="start" x="189.5" y="-36.8" font-family="Arial" font-size="14.00">alias</text>
<polygon fill="black" stroke="black" points="168,-80 168,-80 246,-80 246,-80 168,-80"/>
<polygon fill="none" stroke="black" points="168,-30 168,-100 246,-100 246,-30 168,-30"/>
</g>
<!-- research_organizations&#45;&gt;ror_aliases -->
<g id="edge3" class="edge">
<title>research_organizations&#45;&gt;ror_aliases</title>
<path fill="none" stroke="black" d="M358.8,-214.69C325.02,-190.95 286.28,-161.14 255,-130 245.94,-120.98 237.2,-110.18 229.71,-100.04"/>
<text text-anchor="middle" x="213.71" y="-103.84" font-family="Arial" font-size="14.00">0…N</text>
<text text-anchor="middle" x="354.8" y="-203.49" font-family="Arial" font-size="14.00">1</text>
</g>
<!-- ror_acronyms -->
<g id="node5" class="node">
<title>ror_acronyms</title>
<polygon fill="#53baa1" stroke="transparent" points="361.5,-100 264.5,-100 264.5,-30 361.5,-30 361.5,-100"/>
<text text-anchor="start" x="268" y="-86.8" font-family="Arial" font-weight="bold" font-size="14.00">ror_acronyms</text>
<text text-anchor="start" x="287" y="-66.8" font-family="Arial" font-size="14.00">id</text>
<text text-anchor="start" x="287" y="-51.8" font-family="Arial" font-size="14.00">ror_id</text>
<text text-anchor="start" x="287" y="-36.8" font-family="Arial" font-size="14.00">acronym</text>
<polygon fill="black" stroke="black" points="265,-80 265,-80 362,-80 362,-80 265,-80"/>
<polygon fill="none" stroke="black" points="264.5,-30 264.5,-100 361.5,-100 361.5,-30 264.5,-30"/>
</g>
<!-- research_organizations&#45;&gt;ror_acronyms -->
<g id="edge4" class="edge">
<title>research_organizations&#45;&gt;ror_acronyms</title>
<path fill="none" stroke="black" d="M397.93,-201.89C376.8,-168.07 351.71,-127.94 334.31,-100.09"/>
<text text-anchor="middle" x="318.31" y="-103.89" font-family="Arial" font-size="14.00">0…N</text>
<text text-anchor="middle" x="393.93" y="-190.69" font-family="Arial" font-size="14.00">1</text>
</g>
<!-- ror_relationships -->
<g id="node6" class="node">
<title>ror_relationships</title>
<polygon fill="#53baa1" stroke="transparent" points="496.5,-107.5 379.5,-107.5 379.5,-22.5 496.5,-22.5 496.5,-107.5"/>
<text text-anchor="start" x="383" y="-93.8" font-family="Arial" font-weight="bold" font-size="14.00">ror_relationships</text>
<text text-anchor="start" x="413" y="-73.8" font-family="Arial" font-size="14.00">id</text>
<text text-anchor="start" x="413" y="-58.8" font-family="Arial" font-size="14.00">ror_id</text>
<text text-anchor="start" x="413" y="-43.8" font-family="Arial" font-size="14.00">type</text>
<text text-anchor="start" x="413" y="-28.8" font-family="Arial" font-size="14.00">ror_path</text>
<polygon fill="black" stroke="black" points="380,-87 380,-87 497,-87 497,-87 380,-87"/>
<polygon fill="none" stroke="black" points="379.5,-22.5 379.5,-107.5 496.5,-107.5 496.5,-22.5 379.5,-22.5"/>
</g>
<!-- research_organizations&#45;&gt;ror_relationships -->
<g id="edge5" class="edge">
<title>research_organizations&#45;&gt;ror_relationships</title>
<path fill="none" stroke="black" d="M438,-201.89C438,-171.04 438,-134.94 438,-107.7"/>
<text text-anchor="middle" x="422" y="-111.5" font-family="Arial" font-size="14.00">0…N</text>
<text text-anchor="middle" x="434" y="-190.69" font-family="Arial" font-size="14.00">1</text>
</g>
<!-- ror_addresses -->
<g id="node7" class="node">
<title>ror_addresses</title>
<polygon fill="#53baa1" stroke="transparent" points="615,-130 515,-130 515,0 615,0 615,-130"/>
<text text-anchor="start" x="518" y="-116.8" font-family="Arial" font-weight="bold" font-size="14.00">ror_addresses</text>
<text text-anchor="start" x="537.5" y="-96.8" font-family="Arial" font-size="14.00">id</text>
<text text-anchor="start" x="537.5" y="-81.8" font-family="Arial" font-size="14.00">ror_id</text>
<text text-anchor="start" x="537.5" y="-66.8" font-family="Arial" font-size="14.00">lat</text>
<text text-anchor="start" x="537.5" y="-51.8" font-family="Arial" font-size="14.00">lng</text>
<text text-anchor="start" x="537.5" y="-36.8" font-family="Arial" font-size="14.00">city</text>
<text text-anchor="start" x="537.5" y="-21.8" font-family="Arial" font-size="14.00">state</text>
<text text-anchor="start" x="537.5" y="-6.8" font-family="Arial" font-size="14.00">postcode</text>
<polygon fill="black" stroke="black" points="515,-110 515,-110 615,-110 615,-110 515,-110"/>
<polygon fill="none" stroke="black" points="515,0 515,-130 615,-130 615,0 515,0"/>
</g>
<!-- research_organizations&#45;&gt;ror_addresses -->
<g id="edge6" class="edge">
<title>research_organizations&#45;&gt;ror_addresses</title>
<path fill="none" stroke="black" d="M478.71,-201.89C493.29,-178.93 509.72,-153.05 524.31,-130.09"/>
<text text-anchor="middle" x="508.31" y="-133.89" font-family="Arial" font-size="14.00">0…N</text>
<text text-anchor="middle" x="474.71" y="-190.69" font-family="Arial" font-size="14.00">1</text>
</g>
<!-- ror_funder_ids -->
<g id="node8" class="node">
<title>ror_funder_ids</title>
<polygon fill="#53baa1" stroke="transparent" points="735,-100 633,-100 633,-30 735,-30 735,-100"/>
<text text-anchor="start" x="636" y="-86.8" font-family="Arial" font-weight="bold" font-size="14.00">ror_funder_ids</text>
<text text-anchor="start" x="655.5" y="-66.8" font-family="Arial" font-size="14.00">id</text>
<text text-anchor="start" x="655.5" y="-51.8" font-family="Arial" font-size="14.00">ror_id</text>
<text text-anchor="start" x="655.5" y="-36.8" font-family="Arial" font-size="14.00">funder_id</text>
<polygon fill="black" stroke="black" points="633,-80 633,-80 735,-80 735,-80 633,-80"/>
<polygon fill="none" stroke="black" points="633,-30 633,-100 735,-100 735,-30 633,-30"/>
</g>
<!-- research_organizations&#45;&gt;ror_funder_ids -->
<g id="edge7" class="edge">
<title>research_organizations&#45;&gt;ror_funder_ids</title>
<path fill="none" stroke="black" d="M517.42,-212.86C551.36,-188.91 590.75,-159.43 624,-130 634.38,-120.81 644.96,-110.07 654.29,-100.04"/>
<text text-anchor="middle" x="638.29" y="-103.84" font-family="Arial" font-size="14.00">0…N</text>
<text text-anchor="middle" x="521.42" y="-216.66" font-family="Arial" font-size="14.00">1</text>
</g>
<!-- ror_wikidata_ids -->
<g id="node9" class="node">
<title>ror_wikidata_ids</title>
<polygon fill="#53baa1" stroke="transparent" points="867,-100 753,-100 753,-30 867,-30 867,-100"/>
<text text-anchor="start" x="756" y="-86.8" font-family="Arial" font-weight="bold" font-size="14.00">ror_wikidata_ids</text>
<text text-anchor="start" x="776.5" y="-66.8" font-family="Arial" font-size="14.00">id</text>
<text text-anchor="start" x="776.5" y="-51.8" font-family="Arial" font-size="14.00">ror_id</text>
<text text-anchor="start" x="776.5" y="-36.8" font-family="Arial" font-size="14.00">wikidata_id</text>
<polygon fill="black" stroke="black" points="753,-80 753,-80 867,-80 867,-80 753,-80"/>
<polygon fill="none" stroke="black" points="753,-30 753,-100 867,-100 867,-30 753,-30"/>
</g>
<!-- research_organizations&#45;&gt;ror_wikidata_ids -->
<g id="edge8" class="edge">
<title>research_organizations&#45;&gt;ror_wikidata_ids</title>
<path fill="none" stroke="black" d="M517.04,-239.64C581.26,-216.22 672.58,-178.25 744,-130 756.56,-121.51 768.89,-110.51 779.43,-100.03"/>
<text text-anchor="middle" x="763.43" y="-103.83" font-family="Arial" font-size="14.00">0…N</text>
<text text-anchor="middle" x="521.04" y="-243.44" font-family="Arial" font-size="14.00">1</text>
</g>
<!-- ror_isnis -->
<g id="node10" class="node">
<title>ror_isnis</title>
<polygon fill="#53baa1" stroke="transparent" points="949,-100 885,-100 885,-30 949,-30 949,-100"/>
<text text-anchor="start" x="888" y="-86.8" font-family="Arial" font-weight="bold" font-size="14.00">ror_isnis</text>
<text text-anchor="start" x="899.5" y="-66.8" font-family="Arial" font-size="14.00">id</text>
<text text-anchor="start" x="899.5" y="-51.8" font-family="Arial" font-size="14.00">ror_id</text>
<text text-anchor="start" x="899.5" y="-36.8" font-family="Arial" font-size="14.00">isni</text>
<polygon fill="black" stroke="black" points="885,-80 885,-80 949,-80 949,-80 885,-80"/>
<polygon fill="none" stroke="black" points="885,-30 885,-100 949,-100 949,-30 885,-30"/>
</g>
<!-- research_organizations&#45;&gt;ror_isnis -->
<g id="edge9" class="edge">
<title>research_organizations&#45;&gt;ror_isnis</title>
<path fill="none" stroke="black" d="M517.04,-257.98C610.97,-244.99 768.49,-211.91 876,-130 886.29,-122.16 894.71,-110.95 901.18,-100.09"/>
<text text-anchor="middle" x="885.18" y="-103.89" font-family="Arial" font-size="14.00">0…N</text>
<text text-anchor="middle" x="521.04" y="-261.78" font-family="Arial" font-size="14.00">1</text>
</g>
</g>
</svg>
