<?xml version="1.0" encoding="UTF-8" standalone="no"?>
<!DOCTYPE svg PUBLIC "-//W3C//DTD SVG 1.1//EN"
 "http://www.w3.org/Graphics/SVG/1.1/DTD/svg11.dtd">
<!-- Generated by graphviz version 9.0.0 (20230911.1827)
 -->
<!-- Title: D Pages: 1 -->
<svg width="1814pt" height="1297pt"
 viewBox="0.00 0.00 1813.75 1297.00" xmlns="http://www.w3.org/2000/svg" xmlns:xlink="http://www.w3.org/1999/xlink">
<g id="graph0" class="graph" transform="scale(1 1) rotate(0) translate(4 1293)">
<title>D</title>
<polygon fill="white" stroke="none" points="-4,4 -4,-1293 1809.75,-1293 1809.75,4 -4,4"/>
<!-- us_patents -->
<g id="node1" class="node">
<title>us_patents</title>
<polygon fill="#9fd6ff" stroke="none" points="1053.12,-1289 820.62,-1289 820.62,-570.25 1053.12,-570.25 1053.12,-1289"/>
<text text-anchor="start" x="901.25" y="-1273.7" font-family="Arial" font-weight="bold" font-size="14.00">us_patents</text>
<text text-anchor="start" x="823.62" y="-1252.95" font-family="Arial" font-size="14.00">id</text>
<text text-anchor="start" x="823.62" y="-1237.2" font-family="Arial" font-size="14.00">container_id</text>
<text text-anchor="start" x="823.62" y="-1221.45" font-family="Arial" font-size="14.00">language</text>
<text text-anchor="start" x="823.62" y="-1205.7" font-family="Arial" font-size="14.00">status</text>
<text text-anchor="start" x="823.62" y="-1189.95" font-family="Arial" font-size="14.00">country</text>
<text text-anchor="start" x="823.62" y="-1174.2" font-family="Arial" font-size="14.00">filename</text>
<text text-anchor="start" x="823.62" y="-1158.45" font-family="Arial" font-size="14.00">date_produced</text>
<text text-anchor="start" x="823.62" y="-1142.7" font-family="Arial" font-size="14.00">date_published</text>
<text text-anchor="start" x="823.62" y="-1126.95" font-family="Arial" font-size="14.00">publication_reference_doc_number</text>
<text text-anchor="start" x="823.62" y="-1111.2" font-family="Arial" font-size="14.00">publication_reference_kind</text>
<text text-anchor="start" x="823.62" y="-1095.45" font-family="Arial" font-size="14.00">publication_reference_name</text>
<text text-anchor="start" x="823.62" y="-1079.7" font-family="Arial" font-size="14.00">type</text>
<text text-anchor="start" x="823.62" y="-1063.95" font-family="Arial" font-size="14.00">application_reference_doc_number</text>
<text text-anchor="start" x="823.62" y="-1048.2" font-family="Arial" font-size="14.00">application_reference_kind</text>
<text text-anchor="start" x="823.62" y="-1032.45" font-family="Arial" font-size="14.00">application_reference_name</text>
<text text-anchor="start" x="823.62" y="-1016.7" font-family="Arial" font-size="14.00">application_reference_date</text>
<text text-anchor="start" x="823.62" y="-1000.95" font-family="Arial" font-size="14.00">locarno_edition</text>
<text text-anchor="start" x="823.62" y="-985.2" font-family="Arial" font-size="14.00">locarno_main_classification</text>
<text text-anchor="start" x="823.62" y="-969.45" font-family="Arial" font-size="14.00">locarno_further_classification</text>
<text text-anchor="start" x="823.62" y="-953.7" font-family="Arial" font-size="14.00">locarno_text</text>
<text text-anchor="start" x="823.62" y="-937.95" font-family="Arial" font-size="14.00">national_edition</text>
<text text-anchor="start" x="823.62" y="-922.2" font-family="Arial" font-size="14.00">national_main_classification</text>
<text text-anchor="start" x="823.62" y="-906.45" font-family="Arial" font-size="14.00">national_further_classification</text>
<text text-anchor="start" x="823.62" y="-890.7" font-family="Arial" font-size="14.00">national_additional_info</text>
<text text-anchor="start" x="823.62" y="-874.95" font-family="Arial" font-size="14.00">national_linked_indexing_code_group</text>
<text text-anchor="start" x="823.62" y="-859.2" font-family="Arial" font-size="14.00">national_unlinked_indexing_code</text>
<text text-anchor="start" x="823.62" y="-843.45" font-family="Arial" font-size="14.00">national_text</text>
<text text-anchor="start" x="823.62" y="-827.7" font-family="Arial" font-size="14.00">series_code</text>
<text text-anchor="start" x="823.62" y="-811.95" font-family="Arial" font-size="14.00">invention_title</text>
<text text-anchor="start" x="823.62" y="-796.2" font-family="Arial" font-size="14.00">botanic_name</text>
<text text-anchor="start" x="823.62" y="-780.45" font-family="Arial" font-size="14.00">botanic_variety</text>
<text text-anchor="start" x="823.62" y="-764.7" font-family="Arial" font-size="14.00">claims_number</text>
<text text-anchor="start" x="823.62" y="-748.95" font-family="Arial" font-size="14.00">exemplary_claim</text>
<text text-anchor="start" x="823.62" y="-733.2" font-family="Arial" font-size="14.00">figures_number</text>
<text text-anchor="start" x="823.62" y="-717.45" font-family="Arial" font-size="14.00">drawings_number</text>
<text text-anchor="start" x="823.62" y="-701.7" font-family="Arial" font-size="14.00">primary_examiner_firstname</text>
<text text-anchor="start" x="823.62" y="-685.95" font-family="Arial" font-size="14.00">primary_examiner_lastname</text>
<text text-anchor="start" x="823.62" y="-670.2" font-family="Arial" font-size="14.00">assistant_examiner_firstname</text>
<text text-anchor="start" x="823.62" y="-654.45" font-family="Arial" font-size="14.00">assistant_examiner_lastname</text>
<text text-anchor="start" x="823.62" y="-638.7" font-family="Arial" font-size="14.00">authorized_officer_firstname</text>
<text text-anchor="start" x="823.62" y="-622.95" font-family="Arial" font-size="14.00">authorized_officer_lastname</text>
<text text-anchor="start" x="823.62" y="-607.2" font-family="Arial" font-size="14.00">hague_reg_num</text>
<text text-anchor="start" x="823.62" y="-591.45" font-family="Arial" font-size="14.00">cpa_flag</text>
<text text-anchor="start" x="823.62" y="-575.7" font-family="Arial" font-size="14.00">rule47_flag</text>
<polygon fill="black" stroke="black" points="820.62,-1268.25 820.62,-1268.25 1053.12,-1268.25 1053.12,-1268.25 820.62,-1268.25"/>
<polygon fill="none" stroke="black" points="820.62,-570.25 820.62,-1289 1053.12,-1289 1053.12,-570.25 820.62,-570.25"/>
</g>
<!-- usp_inventors -->
<g id="node2" class="node">
<title>usp_inventors</title>
<polygon fill="#9fd6ff" stroke="none" points="123.75,-451 0,-451 0,-47.25 123.75,-47.25 123.75,-451"/>
<text text-anchor="start" x="15.75" y="-435.7" font-family="Arial" font-weight="bold" font-size="14.00">usp_inventors</text>
<text text-anchor="start" x="3" y="-414.95" font-family="Arial" font-size="14.00">patent_id</text>
<text text-anchor="start" x="3" y="-399.2" font-family="Arial" font-size="14.00">container_id</text>
<text text-anchor="start" x="3" y="-383.45" font-family="Arial" font-size="14.00">sequence</text>
<text text-anchor="start" x="3" y="-367.7" font-family="Arial" font-size="14.00">name</text>
<text text-anchor="start" x="3" y="-351.95" font-family="Arial" font-size="14.00">first_name</text>
<text text-anchor="start" x="3" y="-336.2" font-family="Arial" font-size="14.00">middle_name</text>
<text text-anchor="start" x="3" y="-320.45" font-family="Arial" font-size="14.00">last_name</text>
<text text-anchor="start" x="3" y="-304.7" font-family="Arial" font-size="14.00">org_name</text>
<text text-anchor="start" x="3" y="-288.95" font-family="Arial" font-size="14.00">suffix</text>
<text text-anchor="start" x="3" y="-273.2" font-family="Arial" font-size="14.00">iid</text>
<text text-anchor="start" x="3" y="-257.45" font-family="Arial" font-size="14.00">role</text>
<text text-anchor="start" x="3" y="-241.7" font-family="Arial" font-size="14.00">department</text>
<text text-anchor="start" x="3" y="-225.95" font-family="Arial" font-size="14.00">synonym</text>
<text text-anchor="start" x="3" y="-210.2" font-family="Arial" font-size="14.00">registered_number</text>
<text text-anchor="start" x="3" y="-194.45" font-family="Arial" font-size="14.00">email</text>
<text text-anchor="start" x="3" y="-178.7" font-family="Arial" font-size="14.00">url</text>
<text text-anchor="start" x="3" y="-162.95" font-family="Arial" font-size="14.00">text</text>
<text text-anchor="start" x="3" y="-147.2" font-family="Arial" font-size="14.00">city</text>
<text text-anchor="start" x="3" y="-131.45" font-family="Arial" font-size="14.00">state</text>
<text text-anchor="start" x="3" y="-115.7" font-family="Arial" font-size="14.00">country</text>
<text text-anchor="start" x="3" y="-99.95" font-family="Arial" font-size="14.00">postcode</text>
<text text-anchor="start" x="3" y="-84.2" font-family="Arial" font-size="14.00">designation</text>
<text text-anchor="start" x="3" y="-68.45" font-family="Arial" font-size="14.00">designated_country</text>
<text text-anchor="start" x="3" y="-52.7" font-family="Arial" font-size="14.00">designated_region</text>
<polygon fill="black" stroke="black" points="0,-430.25 0,-430.25 123.75,-430.25 123.75,-430.25 0,-430.25"/>
<polygon fill="none" stroke="black" points="0,-47.25 0,-451 123.75,-451 123.75,-47.25 0,-47.25"/>
</g>
<!-- us_patents&#45;&gt;usp_inventors -->
<g id="edge1" class="edge">
<title>us_patents&#45;&gt;usp_inventors</title>
<path fill="none" stroke="black" d="M820.98,-898.17C645.68,-846.09 314.34,-723.1 132.88,-498.25 121.34,-483.95 111.68,-467.87 103.58,-450.95"/>
<text text-anchor="middle" x="119.33" y="-453.4" font-family="Arial" font-size="14.00">1…N</text>
<text text-anchor="middle" x="817.23" y="-900.62" font-family="Arial" font-size="14.00">1</text>
</g>
<!-- usp_applicants -->
<g id="node3" class="node">
<title>usp_applicants</title>
<polygon fill="#9fd6ff" stroke="none" points="321.5,-498.25 142.25,-498.25 142.25,0 321.5,0 321.5,-498.25"/>
<text text-anchor="start" x="182.75" y="-482.95" font-family="Arial" font-weight="bold" font-size="14.00">usp_applicants</text>
<text text-anchor="start" x="145.25" y="-462.2" font-family="Arial" font-size="14.00">patent_id</text>
<text text-anchor="start" x="145.25" y="-446.45" font-family="Arial" font-size="14.00">container_id</text>
<text text-anchor="start" x="145.25" y="-430.7" font-family="Arial" font-size="14.00">sequence</text>
<text text-anchor="start" x="145.25" y="-414.95" font-family="Arial" font-size="14.00">name</text>
<text text-anchor="start" x="145.25" y="-399.2" font-family="Arial" font-size="14.00">first_name</text>
<text text-anchor="start" x="145.25" y="-383.45" font-family="Arial" font-size="14.00">middle_name</text>
<text text-anchor="start" x="145.25" y="-367.7" font-family="Arial" font-size="14.00">last_name</text>
<text text-anchor="start" x="145.25" y="-351.95" font-family="Arial" font-size="14.00">org_name</text>
<text text-anchor="start" x="145.25" y="-336.2" font-family="Arial" font-size="14.00">suffix</text>
<text text-anchor="start" x="145.25" y="-320.45" font-family="Arial" font-size="14.00">iid</text>
<text text-anchor="start" x="145.25" y="-304.7" font-family="Arial" font-size="14.00">role</text>
<text text-anchor="start" x="145.25" y="-288.95" font-family="Arial" font-size="14.00">department</text>
<text text-anchor="start" x="145.25" y="-273.2" font-family="Arial" font-size="14.00">synonym</text>
<text text-anchor="start" x="145.25" y="-257.45" font-family="Arial" font-size="14.00">registered_number</text>
<text text-anchor="start" x="145.25" y="-241.7" font-family="Arial" font-size="14.00">email</text>
<text text-anchor="start" x="145.25" y="-225.95" font-family="Arial" font-size="14.00">url</text>
<text text-anchor="start" x="145.25" y="-210.2" font-family="Arial" font-size="14.00">text</text>
<text text-anchor="start" x="145.25" y="-194.45" font-family="Arial" font-size="14.00">city</text>
<text text-anchor="start" x="145.25" y="-178.7" font-family="Arial" font-size="14.00">state</text>
<text text-anchor="start" x="145.25" y="-162.95" font-family="Arial" font-size="14.00">country</text>
<text text-anchor="start" x="145.25" y="-147.2" font-family="Arial" font-size="14.00">postcode</text>
<text text-anchor="start" x="145.25" y="-131.45" font-family="Arial" font-size="14.00">app_type</text>
<text text-anchor="start" x="145.25" y="-115.7" font-family="Arial" font-size="14.00">applicant_authority_category</text>
<text text-anchor="start" x="145.25" y="-99.95" font-family="Arial" font-size="14.00">designation</text>
<text text-anchor="start" x="145.25" y="-84.2" font-family="Arial" font-size="14.00">residence</text>
<text text-anchor="start" x="145.25" y="-68.45" font-family="Arial" font-size="14.00">us_rights</text>
<text text-anchor="start" x="145.25" y="-52.7" font-family="Arial" font-size="14.00">designated_country</text>
<text text-anchor="start" x="145.25" y="-36.95" font-family="Arial" font-size="14.00">designated_region</text>
<text text-anchor="start" x="145.25" y="-21.2" font-family="Arial" font-size="14.00">designated_country_inventor</text>
<text text-anchor="start" x="145.25" y="-5.45" font-family="Arial" font-size="14.00">designated_region_inventor</text>
<polygon fill="black" stroke="black" points="142.25,-477.5 142.25,-477.5 321.5,-477.5 321.5,-477.5 142.25,-477.5"/>
<polygon fill="none" stroke="black" points="142.25,0 142.25,-498.25 321.5,-498.25 321.5,0 142.25,0"/>
</g>
<!-- us_patents&#45;&gt;usp_applicants -->
<g id="edge2" class="edge">
<title>us_patents&#45;&gt;usp_applicants</title>
<path fill="none" stroke="black" d="M820.89,-872.53C686.28,-802.12 465.59,-669.54 330.88,-498.25 327.65,-494.15 324.52,-489.93 321.47,-485.61"/>
<text text-anchor="middle" x="337.22" y="-488.06" font-family="Arial" font-size="14.00">1…N</text>
<text text-anchor="middle" x="817.14" y="-874.98" font-family="Arial" font-size="14.00">1</text>
</g>
<!-- usp_icpr_classifications -->
<g id="node4" class="node">
<title>usp_icpr_classifications</title>
<polygon fill="#9fd6ff" stroke="none" points="502.25,-380.12 339.5,-380.12 339.5,-118.12 502.25,-118.12 502.25,-380.12"/>
<text text-anchor="start" x="342.5" y="-364.82" font-family="Arial" font-weight="bold" font-size="14.00">usp_icpr_classifications</text>
<text text-anchor="start" x="369.12" y="-344.07" font-family="Arial" font-size="14.00">patent_id</text>
<text text-anchor="start" x="369.12" y="-328.32" font-family="Arial" font-size="14.00">container_id</text>
<text text-anchor="start" x="369.12" y="-312.57" font-family="Arial" font-size="14.00">ipc_date</text>
<text text-anchor="start" x="369.12" y="-296.82" font-family="Arial" font-size="14.00">class_level</text>
<text text-anchor="start" x="369.12" y="-281.07" font-family="Arial" font-size="14.00">section</text>
<text text-anchor="start" x="369.12" y="-265.32" font-family="Arial" font-size="14.00">class</text>
<text text-anchor="start" x="369.12" y="-249.57" font-family="Arial" font-size="14.00">subclass</text>
<text text-anchor="start" x="369.12" y="-233.82" font-family="Arial" font-size="14.00">main_group</text>
<text text-anchor="start" x="369.12" y="-218.07" font-family="Arial" font-size="14.00">subgroup</text>
<text text-anchor="start" x="369.12" y="-202.32" font-family="Arial" font-size="14.00">symbol_position</text>
<text text-anchor="start" x="369.12" y="-186.57" font-family="Arial" font-size="14.00">class_value</text>
<text text-anchor="start" x="369.12" y="-170.82" font-family="Arial" font-size="14.00">action_date</text>
<text text-anchor="start" x="369.12" y="-155.07" font-family="Arial" font-size="14.00">generating_office</text>
<text text-anchor="start" x="369.12" y="-139.32" font-family="Arial" font-size="14.00">class_status</text>
<text text-anchor="start" x="369.12" y="-123.58" font-family="Arial" font-size="14.00">class_source</text>
<polygon fill="black" stroke="black" points="339.5,-359.38 339.5,-359.38 502.25,-359.38 502.25,-359.38 339.5,-359.38"/>
<polygon fill="none" stroke="black" points="339.5,-118.12 339.5,-380.12 502.25,-380.12 502.25,-118.12 339.5,-118.12"/>
</g>
<!-- us_patents&#45;&gt;usp_icpr_classifications -->
<g id="edge3" class="edge">
<title>us_patents&#45;&gt;usp_icpr_classifications</title>
<path fill="none" stroke="black" d="M820.67,-836.11C726.08,-755.53 594.91,-631.07 510.88,-498.25 488.09,-462.24 469.98,-419.64 456.16,-380"/>
<text text-anchor="middle" x="440.41" y="-382.45" font-family="Arial" font-size="14.00">0…N</text>
<text text-anchor="middle" x="816.92" y="-838.56" font-family="Arial" font-size="14.00">1</text>
</g>
<!-- usp_cpc_classifications -->
<g id="node5" class="node">
<title>usp_cpc_classifications</title>
<polygon fill="#9fd6ff" stroke="none" points="695.62,-403.75 520.12,-403.75 520.12,-94.5 695.62,-94.5 695.62,-403.75"/>
<text text-anchor="start" x="530.25" y="-388.45" font-family="Arial" font-weight="bold" font-size="14.00">usp_cpc_classifications</text>
<text text-anchor="start" x="523.12" y="-367.7" font-family="Arial" font-size="14.00">patent_id</text>
<text text-anchor="start" x="523.12" y="-351.95" font-family="Arial" font-size="14.00">container_id</text>
<text text-anchor="start" x="523.12" y="-336.2" font-family="Arial" font-size="14.00">type</text>
<text text-anchor="start" x="523.12" y="-320.45" font-family="Arial" font-size="14.00">cpc_version_indicator</text>
<text text-anchor="start" x="523.12" y="-304.7" font-family="Arial" font-size="14.00">section</text>
<text text-anchor="start" x="523.12" y="-288.95" font-family="Arial" font-size="14.00">class</text>
<text text-anchor="start" x="523.12" y="-273.2" font-family="Arial" font-size="14.00">sub_class</text>
<text text-anchor="start" x="523.12" y="-257.45" font-family="Arial" font-size="14.00">main_group</text>
<text text-anchor="start" x="523.12" y="-241.7" font-family="Arial" font-size="14.00">sub_group</text>
<text text-anchor="start" x="523.12" y="-225.95" font-family="Arial" font-size="14.00">symbol_position</text>
<text text-anchor="start" x="523.12" y="-210.2" font-family="Arial" font-size="14.00">class_value</text>
<text text-anchor="start" x="523.12" y="-194.45" font-family="Arial" font-size="14.00">action_date</text>
<text text-anchor="start" x="523.12" y="-178.7" font-family="Arial" font-size="14.00">generating_office</text>
<text text-anchor="start" x="523.12" y="-162.95" font-family="Arial" font-size="14.00">class_status</text>
<text text-anchor="start" x="523.12" y="-147.2" font-family="Arial" font-size="14.00">class_data_source</text>
<text text-anchor="start" x="523.12" y="-131.45" font-family="Arial" font-size="14.00">scheme_origination_code</text>
<text text-anchor="start" x="523.12" y="-115.7" font-family="Arial" font-size="14.00">combination_group_number</text>
<text text-anchor="start" x="523.12" y="-99.95" font-family="Arial" font-size="14.00">combination_rank_number</text>
<polygon fill="black" stroke="black" points="520.12,-383 520.12,-383 695.62,-383 695.62,-383 520.12,-383"/>
<polygon fill="none" stroke="black" points="520.12,-94.5 520.12,-403.75 695.62,-403.75 695.62,-94.5 520.12,-94.5"/>
</g>
<!-- us_patents&#45;&gt;usp_cpc_classifications -->
<g id="edge4" class="edge">
<title>us_patents&#45;&gt;usp_cpc_classifications</title>
<path fill="none" stroke="black" d="M820.66,-726.64C781.55,-655.45 738.97,-574.23 703.88,-498.25 689.93,-468.06 676.24,-435.22 663.75,-403.62"/>
<text text-anchor="middle" x="648" y="-406.07" font-family="Arial" font-size="14.00">0…N</text>
<text text-anchor="middle" x="816.91" y="-729.09" font-family="Arial" font-size="14.00">1</text>
</g>
<!-- usp_related_documents -->
<g id="node6" class="node">
<title>usp_related_documents</title>
<polygon fill="#9fd6ff" stroke="none" points="926.38,-490.38 713.38,-490.38 713.38,-7.88 926.38,-7.88 926.38,-490.38"/>
<text text-anchor="start" x="741.88" y="-475.07" font-family="Arial" font-weight="bold" font-size="14.00">usp_related_documents</text>
<text text-anchor="start" x="716.38" y="-454.32" font-family="Arial" font-size="14.00">patent_id</text>
<text text-anchor="start" x="716.38" y="-438.57" font-family="Arial" font-size="14.00">container_id</text>
<text text-anchor="start" x="716.38" y="-422.82" font-family="Arial" font-size="14.00">relation</text>
<text text-anchor="start" x="716.38" y="-407.07" font-family="Arial" font-size="14.00">parent_doc_number</text>
<text text-anchor="start" x="716.38" y="-391.32" font-family="Arial" font-size="14.00">parent_doc_kind</text>
<text text-anchor="start" x="716.38" y="-375.57" font-family="Arial" font-size="14.00">parent_doc_name</text>
<text text-anchor="start" x="716.38" y="-359.82" font-family="Arial" font-size="14.00">parent_doc_date</text>
<text text-anchor="start" x="716.38" y="-344.07" font-family="Arial" font-size="14.00">status</text>
<text text-anchor="start" x="716.38" y="-328.32" font-family="Arial" font-size="14.00">parent_grant_doc_number</text>
<text text-anchor="start" x="716.38" y="-312.57" font-family="Arial" font-size="14.00">parent_pct_doc_number</text>
<text text-anchor="start" x="716.38" y="-296.82" font-family="Arial" font-size="14.00">parent_filing_date</text>
<text text-anchor="start" x="716.38" y="-281.07" font-family="Arial" font-size="14.00">child_doc_number</text>
<text text-anchor="start" x="716.38" y="-265.32" font-family="Arial" font-size="14.00">child_doc_kind</text>
<text text-anchor="start" x="716.38" y="-249.57" font-family="Arial" font-size="14.00">child_doc_name</text>
<text text-anchor="start" x="716.38" y="-233.82" font-family="Arial" font-size="14.00">child_doc_date</text>
<text text-anchor="start" x="716.38" y="-218.07" font-family="Arial" font-size="14.00">child_filing_date</text>
<text text-anchor="start" x="716.38" y="-202.32" font-family="Arial" font-size="14.00">document_number</text>
<text text-anchor="start" x="716.38" y="-186.57" font-family="Arial" font-size="14.00">document_kind</text>
<text text-anchor="start" x="716.38" y="-170.82" font-family="Arial" font-size="14.00">document_name</text>
<text text-anchor="start" x="716.38" y="-155.07" font-family="Arial" font-size="14.00">document_date</text>
<text text-anchor="start" x="716.38" y="-139.32" font-family="Arial" font-size="14.00">provisional_application_status</text>
<text text-anchor="start" x="716.38" y="-123.58" font-family="Arial" font-size="14.00">corrected_document_doc_number</text>
<text text-anchor="start" x="716.38" y="-107.83" font-family="Arial" font-size="14.00">corrected_document_kind</text>
<text text-anchor="start" x="716.38" y="-92.08" font-family="Arial" font-size="14.00">corrected_document_name</text>
<text text-anchor="start" x="716.38" y="-76.33" font-family="Arial" font-size="14.00">corrected_document_date</text>
<text text-anchor="start" x="716.38" y="-60.58" font-family="Arial" font-size="14.00">type_of_correction</text>
<text text-anchor="start" x="716.38" y="-44.83" font-family="Arial" font-size="14.00">gazette_number</text>
<text text-anchor="start" x="716.38" y="-29.07" font-family="Arial" font-size="14.00">gazette_date</text>
<text text-anchor="start" x="716.38" y="-13.32" font-family="Arial" font-size="14.00">correction_text</text>
<polygon fill="black" stroke="black" points="713.38,-469.62 713.38,-469.62 926.38,-469.62 926.38,-469.62 713.38,-469.62"/>
<polygon fill="none" stroke="black" points="713.38,-7.88 713.38,-490.38 926.38,-490.38 926.38,-7.88 713.38,-7.88"/>
</g>
<!-- us_patents&#45;&gt;usp_related_documents -->
<g id="edge5" class="edge">
<title>us_patents&#45;&gt;usp_related_documents</title>
<path fill="none" stroke="black" d="M875.12,-570.5C870.42,-543.26 865.75,-516.19 861.24,-489.98"/>
<text text-anchor="middle" x="876.99" y="-492.43" font-family="Arial" font-size="14.00">0…N</text>
<text text-anchor="middle" x="871.37" y="-557.2" font-family="Arial" font-size="14.00">1</text>
</g>
<!-- usp_field_of_classification -->
<g id="node7" class="node">
<title>usp_field_of_classification</title>
<polygon fill="#9fd6ff" stroke="none" points="1165.5,-356.5 944.25,-356.5 944.25,-141.75 1165.5,-141.75 1165.5,-356.5"/>
<text text-anchor="start" x="968.62" y="-341.2" font-family="Arial" font-weight="bold" font-size="14.00">usp_field_of_classification</text>
<text text-anchor="start" x="947.25" y="-320.45" font-family="Arial" font-size="14.00">patent_id</text>
<text text-anchor="start" x="947.25" y="-304.7" font-family="Arial" font-size="14.00">container_id</text>
<text text-anchor="start" x="947.25" y="-288.95" font-family="Arial" font-size="14.00">ipcr_classification</text>
<text text-anchor="start" x="947.25" y="-273.2" font-family="Arial" font-size="14.00">cpc_classification_text</text>
<text text-anchor="start" x="947.25" y="-257.45" font-family="Arial" font-size="14.00">cpc_classification_combination_text</text>
<text text-anchor="start" x="947.25" y="-241.7" font-family="Arial" font-size="14.00">national_edition</text>
<text text-anchor="start" x="947.25" y="-225.95" font-family="Arial" font-size="14.00">national_main</text>
<text text-anchor="start" x="947.25" y="-210.2" font-family="Arial" font-size="14.00">national_further</text>
<text text-anchor="start" x="947.25" y="-194.45" font-family="Arial" font-size="14.00">national_additional_info</text>
<text text-anchor="start" x="947.25" y="-178.7" font-family="Arial" font-size="14.00">national_linked_code_group</text>
<text text-anchor="start" x="947.25" y="-162.95" font-family="Arial" font-size="14.00">national_unlinked_code</text>
<text text-anchor="start" x="947.25" y="-147.2" font-family="Arial" font-size="14.00">national_text</text>
<polygon fill="black" stroke="black" points="944.25,-335.75 944.25,-335.75 1165.5,-335.75 1165.5,-335.75 944.25,-335.75"/>
<polygon fill="none" stroke="black" points="944.25,-141.75 944.25,-356.5 1165.5,-356.5 1165.5,-141.75 944.25,-141.75"/>
</g>
<!-- us_patents&#45;&gt;usp_field_of_classification -->
<g id="edge6" class="edge">
<title>us_patents&#45;&gt;usp_field_of_classification</title>
<path fill="none" stroke="black" d="M999.16,-570.5C1012.79,-492.13 1026.18,-415.11 1036.42,-356.24"/>
<text text-anchor="middle" x="1020.67" y="-358.69" font-family="Arial" font-size="14.00">0…N</text>
<text text-anchor="middle" x="995.41" y="-557.2" font-family="Arial" font-size="14.00">1</text>
</g>
<!-- usp_agents -->
<g id="node8" class="node">
<title>usp_agents</title>
<polygon fill="#9fd6ff" stroke="none" points="1303.88,-435.25 1183.88,-435.25 1183.88,-63 1303.88,-63 1303.88,-435.25"/>
<text text-anchor="start" x="1206.38" y="-419.95" font-family="Arial" font-weight="bold" font-size="14.00">usp_agents</text>
<text text-anchor="start" x="1186.88" y="-399.2" font-family="Arial" font-size="14.00">patent_id</text>
<text text-anchor="start" x="1186.88" y="-383.45" font-family="Arial" font-size="14.00">container_id</text>
<text text-anchor="start" x="1186.88" y="-367.7" font-family="Arial" font-size="14.00">sequence</text>
<text text-anchor="start" x="1186.88" y="-351.95" font-family="Arial" font-size="14.00">name</text>
<text text-anchor="start" x="1186.88" y="-336.2" font-family="Arial" font-size="14.00">first_name</text>
<text text-anchor="start" x="1186.88" y="-320.45" font-family="Arial" font-size="14.00">middle_name</text>
<text text-anchor="start" x="1186.88" y="-304.7" font-family="Arial" font-size="14.00">last_name</text>
<text text-anchor="start" x="1186.88" y="-288.95" font-family="Arial" font-size="14.00">org_name</text>
<text text-anchor="start" x="1186.88" y="-273.2" font-family="Arial" font-size="14.00">suffix</text>
<text text-anchor="start" x="1186.88" y="-257.45" font-family="Arial" font-size="14.00">iid</text>
<text text-anchor="start" x="1186.88" y="-241.7" font-family="Arial" font-size="14.00">role</text>
<text text-anchor="start" x="1186.88" y="-225.95" font-family="Arial" font-size="14.00">department</text>
<text text-anchor="start" x="1186.88" y="-210.2" font-family="Arial" font-size="14.00">synonym</text>
<text text-anchor="start" x="1186.88" y="-194.45" font-family="Arial" font-size="14.00">registered_number</text>
<text text-anchor="start" x="1186.88" y="-178.7" font-family="Arial" font-size="14.00">email</text>
<text text-anchor="start" x="1186.88" y="-162.95" font-family="Arial" font-size="14.00">url</text>
<text text-anchor="start" x="1186.88" y="-147.2" font-family="Arial" font-size="14.00">text</text>
<text text-anchor="start" x="1186.88" y="-131.45" font-family="Arial" font-size="14.00">city</text>
<text text-anchor="start" x="1186.88" y="-115.7" font-family="Arial" font-size="14.00">state</text>
<text text-anchor="start" x="1186.88" y="-99.95" font-family="Arial" font-size="14.00">country</text>
<text text-anchor="start" x="1186.88" y="-84.2" font-family="Arial" font-size="14.00">postcode</text>
<text text-anchor="start" x="1186.88" y="-68.45" font-family="Arial" font-size="14.00">rep_type</text>
<polygon fill="black" stroke="black" points="1183.88,-414.5 1183.88,-414.5 1303.88,-414.5 1303.88,-414.5 1183.88,-414.5"/>
<polygon fill="none" stroke="black" points="1183.88,-63 1183.88,-435.25 1303.88,-435.25 1303.88,-63 1183.88,-63"/>
</g>
<!-- us_patents&#45;&gt;usp_agents -->
<g id="edge7" class="edge">
<title>us_patents&#45;&gt;usp_agents</title>
<path fill="none" stroke="black" d="M1053.1,-741.08C1095.46,-667.3 1141.18,-580.64 1174.88,-498.25 1183.13,-478.07 1190.74,-456.59 1197.65,-435.01"/>
<text text-anchor="middle" x="1181.9" y="-437.46" font-family="Arial" font-size="14.00">0…N</text>
<text text-anchor="middle" x="1056.85" y="-743.53" font-family="Arial" font-size="14.00">1</text>
</g>
<!-- usp_assignees -->
<g id="node9" class="node">
<title>usp_assignees</title>
<polygon fill="#9fd6ff" stroke="none" points="1441.88,-419.5 1321.88,-419.5 1321.88,-78.75 1441.88,-78.75 1441.88,-419.5"/>
<text text-anchor="start" x="1333.5" y="-404.2" font-family="Arial" font-weight="bold" font-size="14.00">usp_assignees</text>
<text text-anchor="start" x="1324.88" y="-383.45" font-family="Arial" font-size="14.00">patent_id</text>
<text text-anchor="start" x="1324.88" y="-367.7" font-family="Arial" font-size="14.00">container_id</text>
<text text-anchor="start" x="1324.88" y="-351.95" font-family="Arial" font-size="14.00">name</text>
<text text-anchor="start" x="1324.88" y="-336.2" font-family="Arial" font-size="14.00">first_name</text>
<text text-anchor="start" x="1324.88" y="-320.45" font-family="Arial" font-size="14.00">middle_name</text>
<text text-anchor="start" x="1324.88" y="-304.7" font-family="Arial" font-size="14.00">last_name</text>
<text text-anchor="start" x="1324.88" y="-288.95" font-family="Arial" font-size="14.00">org_name</text>
<text text-anchor="start" x="1324.88" y="-273.2" font-family="Arial" font-size="14.00">suffix</text>
<text text-anchor="start" x="1324.88" y="-257.45" font-family="Arial" font-size="14.00">iid</text>
<text text-anchor="start" x="1324.88" y="-241.7" font-family="Arial" font-size="14.00">role</text>
<text text-anchor="start" x="1324.88" y="-225.95" font-family="Arial" font-size="14.00">department</text>
<text text-anchor="start" x="1324.88" y="-210.2" font-family="Arial" font-size="14.00">synonym</text>
<text text-anchor="start" x="1324.88" y="-194.45" font-family="Arial" font-size="14.00">registered_number</text>
<text text-anchor="start" x="1324.88" y="-178.7" font-family="Arial" font-size="14.00">email</text>
<text text-anchor="start" x="1324.88" y="-162.95" font-family="Arial" font-size="14.00">url</text>
<text text-anchor="start" x="1324.88" y="-147.2" font-family="Arial" font-size="14.00">text</text>
<text text-anchor="start" x="1324.88" y="-131.45" font-family="Arial" font-size="14.00">city</text>
<text text-anchor="start" x="1324.88" y="-115.7" font-family="Arial" font-size="14.00">state</text>
<text text-anchor="start" x="1324.88" y="-99.95" font-family="Arial" font-size="14.00">country</text>
<text text-anchor="start" x="1324.88" y="-84.2" font-family="Arial" font-size="14.00">postcode</text>
<polygon fill="black" stroke="black" points="1321.88,-398.75 1321.88,-398.75 1441.88,-398.75 1441.88,-398.75 1321.88,-398.75"/>
<polygon fill="none" stroke="black" points="1321.88,-78.75 1321.88,-419.5 1441.88,-419.5 1441.88,-78.75 1321.88,-78.75"/>
</g>
<!-- us_patents&#45;&gt;usp_assignees -->
<g id="edge8" class="edge">
<title>us_patents&#45;&gt;usp_assignees</title>
<path fill="none" stroke="black" d="M1053.05,-823.65C1136.47,-742.36 1245.64,-622.91 1312.88,-498.25 1326.09,-473.75 1336.96,-446.5 1345.84,-419.28"/>
<text text-anchor="middle" x="1330.09" y="-421.73" font-family="Arial" font-size="14.00">0…N</text>
<text text-anchor="middle" x="1056.8" y="-826.1" font-family="Arial" font-size="14.00">1</text>
</g>
<!-- usp_citations -->
<g id="node10" class="node">
<title>usp_citations</title>
<polygon fill="#9fd6ff" stroke="none" points="1603.5,-427.38 1460.25,-427.38 1460.25,-70.88 1603.5,-70.88 1603.5,-427.38"/>
<text text-anchor="start" x="1488.38" y="-412.07" font-family="Arial" font-weight="bold" font-size="14.00">usp_citations</text>
<text text-anchor="start" x="1463.25" y="-391.32" font-family="Arial" font-size="14.00">patent_id</text>
<text text-anchor="start" x="1463.25" y="-375.57" font-family="Arial" font-size="14.00">container_id</text>
<text text-anchor="start" x="1463.25" y="-359.82" font-family="Arial" font-size="14.00">patcit_num</text>
<text text-anchor="start" x="1463.25" y="-344.07" font-family="Arial" font-size="14.00">nplcit_num</text>
<text text-anchor="start" x="1463.25" y="-328.32" font-family="Arial" font-size="14.00">nplcit_othercit</text>
<text text-anchor="start" x="1463.25" y="-312.57" font-family="Arial" font-size="14.00">patcit_doc_number</text>
<text text-anchor="start" x="1463.25" y="-296.82" font-family="Arial" font-size="14.00">patcit_country</text>
<text text-anchor="start" x="1463.25" y="-281.07" font-family="Arial" font-size="14.00">patcit_kind</text>
<text text-anchor="start" x="1463.25" y="-265.32" font-family="Arial" font-size="14.00">patcit_date</text>
<text text-anchor="start" x="1463.25" y="-249.57" font-family="Arial" font-size="14.00">patcit_rel_passage</text>
<text text-anchor="start" x="1463.25" y="-233.82" font-family="Arial" font-size="14.00">patcit_rel_category</text>
<text text-anchor="start" x="1463.25" y="-218.07" font-family="Arial" font-size="14.00">patcit_rel_claims</text>
<text text-anchor="start" x="1463.25" y="-202.32" font-family="Arial" font-size="14.00">category</text>
<text text-anchor="start" x="1463.25" y="-186.57" font-family="Arial" font-size="14.00">ipc_class_edition</text>
<text text-anchor="start" x="1463.25" y="-170.82" font-family="Arial" font-size="14.00">ipc_class_main</text>
<text text-anchor="start" x="1463.25" y="-155.07" font-family="Arial" font-size="14.00">ipc_class_further</text>
<text text-anchor="start" x="1463.25" y="-139.32" font-family="Arial" font-size="14.00">cpc_class_text</text>
<text text-anchor="start" x="1463.25" y="-123.58" font-family="Arial" font-size="14.00">national_class_country</text>
<text text-anchor="start" x="1463.25" y="-107.83" font-family="Arial" font-size="14.00">national_class_edition</text>
<text text-anchor="start" x="1463.25" y="-92.08" font-family="Arial" font-size="14.00">national_class_main</text>
<text text-anchor="start" x="1463.25" y="-76.33" font-family="Arial" font-size="14.00">national_class_further</text>
<polygon fill="black" stroke="black" points="1460.25,-406.62 1460.25,-406.62 1603.5,-406.62 1603.5,-406.62 1460.25,-406.62"/>
<polygon fill="none" stroke="black" points="1460.25,-70.88 1460.25,-427.38 1603.5,-427.38 1603.5,-70.88 1460.25,-70.88"/>
</g>
<!-- us_patents&#45;&gt;usp_citations -->
<g id="edge9" class="edge">
<title>us_patents&#45;&gt;usp_citations</title>
<path fill="none" stroke="black" d="M1053.05,-859.11C1169.39,-783.88 1345.82,-653.59 1450.88,-498.25 1465.54,-476.57 1477.7,-452.05 1487.76,-427.07"/>
<text text-anchor="middle" x="1472.01" y="-429.52" font-family="Arial" font-size="14.00">0…N</text>
<text text-anchor="middle" x="1056.8" y="-861.56" font-family="Arial" font-size="14.00">1</text>
</g>
<!-- usp_patent_family -->
<g id="node11" class="node">
<title>usp_patent_family</title>
<polygon fill="#9fd6ff" stroke="none" points="1805.75,-364.38 1622,-364.38 1622,-133.88 1805.75,-133.88 1805.75,-364.38"/>
<text text-anchor="start" x="1654.25" y="-349.07" font-family="Arial" font-weight="bold" font-size="14.00">usp_patent_family</text>
<text text-anchor="start" x="1625" y="-328.32" font-family="Arial" font-size="14.00">patent_id</text>
<text text-anchor="start" x="1625" y="-312.57" font-family="Arial" font-size="14.00">container_id</text>
<text text-anchor="start" x="1625" y="-296.82" font-family="Arial" font-size="14.00">priority_app_doc_number</text>
<text text-anchor="start" x="1625" y="-281.07" font-family="Arial" font-size="14.00">priority_app_country</text>
<text text-anchor="start" x="1625" y="-265.32" font-family="Arial" font-size="14.00">priority_app_kind</text>
<text text-anchor="start" x="1625" y="-249.57" font-family="Arial" font-size="14.00">priority_app_name</text>
<text text-anchor="start" x="1625" y="-233.82" font-family="Arial" font-size="14.00">priority_app_date</text>
<text text-anchor="start" x="1625" y="-218.07" font-family="Arial" font-size="14.00">family_member_doc_number</text>
<text text-anchor="start" x="1625" y="-202.32" font-family="Arial" font-size="14.00">family_member_country</text>
<text text-anchor="start" x="1625" y="-186.57" font-family="Arial" font-size="14.00">family_member_kind</text>
<text text-anchor="start" x="1625" y="-170.82" font-family="Arial" font-size="14.00">family_member_name</text>
<text text-anchor="start" x="1625" y="-155.07" font-family="Arial" font-size="14.00">family_member_date</text>
<text text-anchor="start" x="1625" y="-139.32" font-family="Arial" font-size="14.00">text</text>
<polygon fill="black" stroke="black" points="1622,-343.62 1622,-343.62 1805.75,-343.62 1805.75,-343.62 1622,-343.62"/>
<polygon fill="none" stroke="black" points="1622,-133.88 1622,-364.38 1805.75,-364.38 1805.75,-133.88 1622,-133.88"/>
</g>
<!-- us_patents&#45;&gt;usp_patent_family -->
<g id="edge10" class="edge">
<title>us_patents&#45;&gt;usp_patent_family</title>
<path fill="none" stroke="black" d="M1053.11,-881.52C1201.61,-815.97 1457.92,-684.01 1612.88,-498.25 1645.05,-459.68 1668.05,-409.49 1683.9,-364.35"/>
<text text-anchor="middle" x="1668.15" y="-366.8" font-family="Arial" font-size="14.00">0…N</text>
<text text-anchor="middle" x="1056.86" y="-883.97" font-family="Arial" font-size="14.00">1</text>
</g>
</g>
</svg>
