<?xml version="1.0" encoding="UTF-8" standalone="no"?>
<!DOCTYPE svg PUBLIC "-//W3C//DTD SVG 1.1//EN"
 "http://www.w3.org/Graphics/SVG/1.1/DTD/svg11.dtd">
<!-- Generated by graphviz version 2.43.0 (0)
 -->
<!-- Title: D Pages: 1 -->
<svg width="1821pt" height="1240pt"
 viewBox="0.00 0.00 1821.00 1240.00" xmlns="http://www.w3.org/2000/svg" xmlns:xlink="http://www.w3.org/1999/xlink">
<g id="graph0" class="graph" transform="scale(1 1) rotate(0) translate(4 1236)">
<title>D</title>
<polygon fill="white" stroke="transparent" points="-4,4 -4,-1236 1817,-1236 1817,4 -4,4"/>
<!-- us_patents -->
<g id="node1" class="node">
<title>us_patents</title>
<polygon fill="#9fd6ff" stroke="transparent" points="1057.5,-1232 824.5,-1232 824.5,-547 1057.5,-547 1057.5,-1232"/>
<text text-anchor="start" x="905.5" y="-1218.3" font-family="Arial" font-weight="bold" font-size="14.00" fill="#000000">us_patents</text>
<text text-anchor="start" x="828" y="-1198.3" font-family="Arial" font-size="14.00" fill="#000000">id</text>
<text text-anchor="start" x="828" y="-1183.3" font-family="Arial" font-size="14.00" fill="#000000">container_id</text>
<text text-anchor="start" x="828" y="-1168.3" font-family="Arial" font-size="14.00" fill="#000000">language</text>
<text text-anchor="start" x="828" y="-1153.3" font-family="Arial" font-size="14.00" fill="#000000">status</text>
<text text-anchor="start" x="828" y="-1138.3" font-family="Arial" font-size="14.00" fill="#000000">country</text>
<text text-anchor="start" x="828" y="-1123.3" font-family="Arial" font-size="14.00" fill="#000000">filename</text>
<text text-anchor="start" x="828" y="-1108.3" font-family="Arial" font-size="14.00" fill="#000000">date_produced</text>
<text text-anchor="start" x="828" y="-1093.3" font-family="Arial" font-size="14.00" fill="#000000">date_published</text>
<text text-anchor="start" x="828" y="-1078.3" font-family="Arial" font-size="14.00" fill="#000000">publication_reference_doc_number</text>
<text text-anchor="start" x="828" y="-1063.3" font-family="Arial" font-size="14.00" fill="#000000">publication_reference_kind</text>
<text text-anchor="start" x="828" y="-1048.3" font-family="Arial" font-size="14.00" fill="#000000">publication_reference_name</text>
<text text-anchor="start" x="828" y="-1033.3" font-family="Arial" font-size="14.00" fill="#000000">type</text>
<text text-anchor="start" x="828" y="-1018.3" font-family="Arial" font-size="14.00" fill="#000000">application_reference_doc_number</text>
<text text-anchor="start" x="828" y="-1003.3" font-family="Arial" font-size="14.00" fill="#000000">application_reference_kind</text>
<text text-anchor="start" x="828" y="-988.3" font-family="Arial" font-size="14.00" fill="#000000">application_reference_name</text>
<text text-anchor="start" x="828" y="-973.3" font-family="Arial" font-size="14.00" fill="#000000">application_reference_date</text>
<text text-anchor="start" x="828" y="-958.3" font-family="Arial" font-size="14.00" fill="#000000">locarno_edition</text>
<text text-anchor="start" x="828" y="-943.3" font-family="Arial" font-size="14.00" fill="#000000">locarno_main_classification</text>
<text text-anchor="start" x="828" y="-928.3" font-family="Arial" font-size="14.00" fill="#000000">locarno_further_classification</text>
<text text-anchor="start" x="828" y="-913.3" font-family="Arial" font-size="14.00" fill="#000000">locarno_text</text>
<text text-anchor="start" x="828" y="-898.3" font-family="Arial" font-size="14.00" fill="#000000">national_edition</text>
<text text-anchor="start" x="828" y="-883.3" font-family="Arial" font-size="14.00" fill="#000000">national_main_classification</text>
<text text-anchor="start" x="828" y="-868.3" font-family="Arial" font-size="14.00" fill="#000000">national_further_classification</text>
<text text-anchor="start" x="828" y="-853.3" font-family="Arial" font-size="14.00" fill="#000000">national_additional_info</text>
<text text-anchor="start" x="828" y="-838.3" font-family="Arial" font-size="14.00" fill="#000000">national_linked_indexing_code_group</text>
<text text-anchor="start" x="828" y="-823.3" font-family="Arial" font-size="14.00" fill="#000000">national_unlinked_indexing_code</text>
<text text-anchor="start" x="828" y="-808.3" font-family="Arial" font-size="14.00" fill="#000000">national_text</text>
<text text-anchor="start" x="828" y="-793.3" font-family="Arial" font-size="14.00" fill="#000000">series_code</text>
<text text-anchor="start" x="828" y="-778.3" font-family="Arial" font-size="14.00" fill="#000000">invention_title</text>
<text text-anchor="start" x="828" y="-763.3" font-family="Arial" font-size="14.00" fill="#000000">botanic_name</text>
<text text-anchor="start" x="828" y="-748.3" font-family="Arial" font-size="14.00" fill="#000000">botanic_variety</text>
<text text-anchor="start" x="828" y="-733.3" font-family="Arial" font-size="14.00" fill="#000000">claims_number</text>
<text text-anchor="start" x="828" y="-718.3" font-family="Arial" font-size="14.00" fill="#000000">exemplary_claim</text>
<text text-anchor="start" x="828" y="-703.3" font-family="Arial" font-size="14.00" fill="#000000">figures_number</text>
<text text-anchor="start" x="828" y="-688.3" font-family="Arial" font-size="14.00" fill="#000000">drawings_number</text>
<text text-anchor="start" x="828" y="-673.3" font-family="Arial" font-size="14.00" fill="#000000">primary_examiner_firstname</text>
<text text-anchor="start" x="828" y="-658.3" font-family="Arial" font-size="14.00" fill="#000000">primary_examiner_lastname</text>
<text text-anchor="start" x="828" y="-643.3" font-family="Arial" font-size="14.00" fill="#000000">assistant_examiner_firstname</text>
<text text-anchor="start" x="828" y="-628.3" font-family="Arial" font-size="14.00" fill="#000000">assistant_examiner_lastname</text>
<text text-anchor="start" x="828" y="-613.3" font-family="Arial" font-size="14.00" fill="#000000">authorized_officer_firstname</text>
<text text-anchor="start" x="828" y="-598.3" font-family="Arial" font-size="14.00" fill="#000000">authorized_officer_lastname</text>
<text text-anchor="start" x="828" y="-583.3" font-family="Arial" font-size="14.00" fill="#000000">hague_reg_num</text>
<text text-anchor="start" x="828" y="-568.3" font-family="Arial" font-size="14.00" fill="#000000">cpa_flag</text>
<text text-anchor="start" x="828" y="-553.3" font-family="Arial" font-size="14.00" fill="#000000">rule47_flag</text>
<polygon fill="black" stroke="black" points="825,-1211.5 825,-1211.5 1058,-1211.5 1058,-1211.5 825,-1211.5"/>
<polygon fill="none" stroke="black" points="824.5,-547 824.5,-1232 1057.5,-1232 1057.5,-547 824.5,-547"/>
</g>
<!-- usp_inventors -->
<g id="node2" class="node">
<title>usp_inventors</title>
<polygon fill="#9fd6ff" stroke="transparent" points="124,-430 0,-430 0,-45 124,-45 124,-430"/>
<text text-anchor="start" x="15.5" y="-416.3" font-family="Arial" font-weight="bold" font-size="14.00" fill="#000000">usp_inventors</text>
<text text-anchor="start" x="3" y="-396.3" font-family="Arial" font-size="14.00" fill="#000000">patent_id</text>
<text text-anchor="start" x="3" y="-381.3" font-family="Arial" font-size="14.00" fill="#000000">container_id</text>
<text text-anchor="start" x="3" y="-366.3" font-family="Arial" font-size="14.00" fill="#000000">sequence</text>
<text text-anchor="start" x="3" y="-351.3" font-family="Arial" font-size="14.00" fill="#000000">name</text>
<text text-anchor="start" x="3" y="-336.3" font-family="Arial" font-size="14.00" fill="#000000">first_name</text>
<text text-anchor="start" x="3" y="-321.3" font-family="Arial" font-size="14.00" fill="#000000">middle_name</text>
<text text-anchor="start" x="3" y="-306.3" font-family="Arial" font-size="14.00" fill="#000000">last_name</text>
<text text-anchor="start" x="3" y="-291.3" font-family="Arial" font-size="14.00" fill="#000000">org_name</text>
<text text-anchor="start" x="3" y="-276.3" font-family="Arial" font-size="14.00" fill="#000000">suffix</text>
<text text-anchor="start" x="3" y="-261.3" font-family="Arial" font-size="14.00" fill="#000000">iid</text>
<text text-anchor="start" x="3" y="-246.3" font-family="Arial" font-size="14.00" fill="#000000">role</text>
<text text-anchor="start" x="3" y="-231.3" font-family="Arial" font-size="14.00" fill="#000000">department</text>
<text text-anchor="start" x="3" y="-216.3" font-family="Arial" font-size="14.00" fill="#000000">synonym</text>
<text text-anchor="start" x="3" y="-201.3" font-family="Arial" font-size="14.00" fill="#000000">registered_number</text>
<text text-anchor="start" x="3" y="-186.3" font-family="Arial" font-size="14.00" fill="#000000">email</text>
<text text-anchor="start" x="3" y="-171.3" font-family="Arial" font-size="14.00" fill="#000000">url</text>
<text text-anchor="start" x="3" y="-156.3" font-family="Arial" font-size="14.00" fill="#000000">text</text>
<text text-anchor="start" x="3" y="-141.3" font-family="Arial" font-size="14.00" fill="#000000">city</text>
<text text-anchor="start" x="3" y="-126.3" font-family="Arial" font-size="14.00" fill="#000000">state</text>
<text text-anchor="start" x="3" y="-111.3" font-family="Arial" font-size="14.00" fill="#000000">country</text>
<text text-anchor="start" x="3" y="-96.3" font-family="Arial" font-size="14.00" fill="#000000">postcode</text>
<text text-anchor="start" x="3" y="-81.3" font-family="Arial" font-size="14.00" fill="#000000">designation</text>
<text text-anchor="start" x="3" y="-66.3" font-family="Arial" font-size="14.00" fill="#000000">designated_country</text>
<text text-anchor="start" x="3" y="-51.3" font-family="Arial" font-size="14.00" fill="#000000">designated_region</text>
<polygon fill="black" stroke="black" points="0,-409.5 0,-409.5 124,-409.5 124,-409.5 0,-409.5"/>
<polygon fill="none" stroke="black" points="0,-45 0,-430 124,-430 124,-45 0,-45"/>
</g>
<!-- us_patents&#45;&gt;usp_inventors -->
<g id="edge1" class="edge">
<title>us_patents&#45;&gt;usp_inventors</title>
<path fill="none" stroke="black" d="M824.24,-860.25C648.44,-811.69 316.85,-695.63 133,-475 121.75,-461.5 112.28,-446.25 104.31,-430.17"/>
<text text-anchor="middle" x="88.31" y="-433.97" font-family="Arial" font-size="14.00">1…N</text>
<text text-anchor="middle" x="820.24" y="-864.05" font-family="Arial" font-size="14.00">1</text>
</g>
<!-- usp_applicants -->
<g id="node3" class="node">
<title>usp_applicants</title>
<polygon fill="#9fd6ff" stroke="transparent" points="322,-475 142,-475 142,0 322,0 322,-475"/>
<text text-anchor="start" x="182.5" y="-461.3" font-family="Arial" font-weight="bold" font-size="14.00" fill="#000000">usp_applicants</text>
<text text-anchor="start" x="145" y="-441.3" font-family="Arial" font-size="14.00" fill="#000000">patent_id</text>
<text text-anchor="start" x="145" y="-426.3" font-family="Arial" font-size="14.00" fill="#000000">container_id</text>
<text text-anchor="start" x="145" y="-411.3" font-family="Arial" font-size="14.00" fill="#000000">sequence</text>
<text text-anchor="start" x="145" y="-396.3" font-family="Arial" font-size="14.00" fill="#000000">name</text>
<text text-anchor="start" x="145" y="-381.3" font-family="Arial" font-size="14.00" fill="#000000">first_name</text>
<text text-anchor="start" x="145" y="-366.3" font-family="Arial" font-size="14.00" fill="#000000">middle_name</text>
<text text-anchor="start" x="145" y="-351.3" font-family="Arial" font-size="14.00" fill="#000000">last_name</text>
<text text-anchor="start" x="145" y="-336.3" font-family="Arial" font-size="14.00" fill="#000000">org_name</text>
<text text-anchor="start" x="145" y="-321.3" font-family="Arial" font-size="14.00" fill="#000000">suffix</text>
<text text-anchor="start" x="145" y="-306.3" font-family="Arial" font-size="14.00" fill="#000000">iid</text>
<text text-anchor="start" x="145" y="-291.3" font-family="Arial" font-size="14.00" fill="#000000">role</text>
<text text-anchor="start" x="145" y="-276.3" font-family="Arial" font-size="14.00" fill="#000000">department</text>
<text text-anchor="start" x="145" y="-261.3" font-family="Arial" font-size="14.00" fill="#000000">synonym</text>
<text text-anchor="start" x="145" y="-246.3" font-family="Arial" font-size="14.00" fill="#000000">registered_number</text>
<text text-anchor="start" x="145" y="-231.3" font-family="Arial" font-size="14.00" fill="#000000">email</text>
<text text-anchor="start" x="145" y="-216.3" font-family="Arial" font-size="14.00" fill="#000000">url</text>
<text text-anchor="start" x="145" y="-201.3" font-family="Arial" font-size="14.00" fill="#000000">text</text>
<text text-anchor="start" x="145" y="-186.3" font-family="Arial" font-size="14.00" fill="#000000">city</text>
<text text-anchor="start" x="145" y="-171.3" font-family="Arial" font-size="14.00" fill="#000000">state</text>
<text text-anchor="start" x="145" y="-156.3" font-family="Arial" font-size="14.00" fill="#000000">country</text>
<text text-anchor="start" x="145" y="-141.3" font-family="Arial" font-size="14.00" fill="#000000">postcode</text>
<text text-anchor="start" x="145" y="-126.3" font-family="Arial" font-size="14.00" fill="#000000">app_type</text>
<text text-anchor="start" x="145" y="-111.3" font-family="Arial" font-size="14.00" fill="#000000">applicant_authority_category</text>
<text text-anchor="start" x="145" y="-96.3" font-family="Arial" font-size="14.00" fill="#000000">designation</text>
<text text-anchor="start" x="145" y="-81.3" font-family="Arial" font-size="14.00" fill="#000000">residence</text>
<text text-anchor="start" x="145" y="-66.3" font-family="Arial" font-size="14.00" fill="#000000">us_rights</text>
<text text-anchor="start" x="145" y="-51.3" font-family="Arial" font-size="14.00" fill="#000000">designated_country</text>
<text text-anchor="start" x="145" y="-36.3" font-family="Arial" font-size="14.00" fill="#000000">designated_region</text>
<text text-anchor="start" x="145" y="-21.3" font-family="Arial" font-size="14.00" fill="#000000">designated_country_inventor</text>
<text text-anchor="start" x="145" y="-6.3" font-family="Arial" font-size="14.00" fill="#000000">designated_region_inventor</text>
<polygon fill="black" stroke="black" points="142,-454.5 142,-454.5 322,-454.5 322,-454.5 142,-454.5"/>
<polygon fill="none" stroke="black" points="142,0 142,-475 322,-475 322,0 142,0"/>
</g>
<!-- us_patents&#45;&gt;usp_applicants -->
<g id="edge2" class="edge">
<title>us_patents&#45;&gt;usp_applicants</title>
<path fill="none" stroke="black" d="M824.37,-835.37C689.25,-768.57 467.72,-642.09 331,-475 327.97,-471.3 325.02,-467.49 322.15,-463.59"/>
<text text-anchor="middle" x="338.15" y="-467.39" font-family="Arial" font-size="14.00">1…N</text>
<text text-anchor="middle" x="820.37" y="-839.17" font-family="Arial" font-size="14.00">1</text>
</g>
<!-- usp_icpr_classifications -->
<g id="node4" class="node">
<title>usp_icpr_classifications</title>
<polygon fill="#9fd6ff" stroke="transparent" points="503.5,-362.5 340.5,-362.5 340.5,-112.5 503.5,-112.5 503.5,-362.5"/>
<text text-anchor="start" x="344" y="-349.3" font-family="Arial" font-weight="bold" font-size="14.00" fill="#000000">usp_icpr_classifications</text>
<text text-anchor="start" x="370.5" y="-329.3" font-family="Arial" font-size="14.00" fill="#000000">patent_id</text>
<text text-anchor="start" x="370.5" y="-314.3" font-family="Arial" font-size="14.00" fill="#000000">container_id</text>
<text text-anchor="start" x="370.5" y="-299.3" font-family="Arial" font-size="14.00" fill="#000000">ipc_date</text>
<text text-anchor="start" x="370.5" y="-284.3" font-family="Arial" font-size="14.00" fill="#000000">class_level</text>
<text text-anchor="start" x="370.5" y="-269.3" font-family="Arial" font-size="14.00" fill="#000000">section</text>
<text text-anchor="start" x="370.5" y="-254.3" font-family="Arial" font-size="14.00" fill="#000000">class</text>
<text text-anchor="start" x="370.5" y="-239.3" font-family="Arial" font-size="14.00" fill="#000000">subclass</text>
<text text-anchor="start" x="370.5" y="-224.3" font-family="Arial" font-size="14.00" fill="#000000">main_group</text>
<text text-anchor="start" x="370.5" y="-209.3" font-family="Arial" font-size="14.00" fill="#000000">subgroup</text>
<text text-anchor="start" x="370.5" y="-194.3" font-family="Arial" font-size="14.00" fill="#000000">symbol_position</text>
<text text-anchor="start" x="370.5" y="-179.3" font-family="Arial" font-size="14.00" fill="#000000">class_value</text>
<text text-anchor="start" x="370.5" y="-164.3" font-family="Arial" font-size="14.00" fill="#000000">action_date</text>
<text text-anchor="start" x="370.5" y="-149.3" font-family="Arial" font-size="14.00" fill="#000000">generating_office</text>
<text text-anchor="start" x="370.5" y="-134.3" font-family="Arial" font-size="14.00" fill="#000000">class_status</text>
<text text-anchor="start" x="370.5" y="-119.3" font-family="Arial" font-size="14.00" fill="#000000">class_source</text>
<polygon fill="black" stroke="black" points="341,-342.5 341,-342.5 504,-342.5 504,-342.5 341,-342.5"/>
<polygon fill="none" stroke="black" points="340.5,-112.5 340.5,-362.5 503.5,-362.5 503.5,-112.5 340.5,-112.5"/>
</g>
<!-- us_patents&#45;&gt;usp_icpr_classifications -->
<g id="edge3" class="edge">
<title>us_patents&#45;&gt;usp_icpr_classifications</title>
<path fill="none" stroke="black" d="M824.22,-799.83C729.49,-722.77 598.15,-603.56 513,-475 490.41,-440.89 472.22,-400.35 458.22,-362.56"/>
<text text-anchor="middle" x="442.22" y="-366.36" font-family="Arial" font-size="14.00">0…N</text>
<text text-anchor="middle" x="820.22" y="-803.63" font-family="Arial" font-size="14.00">1</text>
</g>
<!-- usp_cpc_classifications -->
<g id="node5" class="node">
<title>usp_cpc_classifications</title>
<polygon fill="#9fd6ff" stroke="transparent" points="698,-385 522,-385 522,-90 698,-90 698,-385"/>
<text text-anchor="start" x="532" y="-371.3" font-family="Arial" font-weight="bold" font-size="14.00" fill="#000000">usp_cpc_classifications</text>
<text text-anchor="start" x="525" y="-351.3" font-family="Arial" font-size="14.00" fill="#000000">patent_id</text>
<text text-anchor="start" x="525" y="-336.3" font-family="Arial" font-size="14.00" fill="#000000">container_id</text>
<text text-anchor="start" x="525" y="-321.3" font-family="Arial" font-size="14.00" fill="#000000">type</text>
<text text-anchor="start" x="525" y="-306.3" font-family="Arial" font-size="14.00" fill="#000000">cpc_version_indicator</text>
<text text-anchor="start" x="525" y="-291.3" font-family="Arial" font-size="14.00" fill="#000000">section</text>
<text text-anchor="start" x="525" y="-276.3" font-family="Arial" font-size="14.00" fill="#000000">class</text>
<text text-anchor="start" x="525" y="-261.3" font-family="Arial" font-size="14.00" fill="#000000">sub_class</text>
<text text-anchor="start" x="525" y="-246.3" font-family="Arial" font-size="14.00" fill="#000000">main_group</text>
<text text-anchor="start" x="525" y="-231.3" font-family="Arial" font-size="14.00" fill="#000000">sub_group</text>
<text text-anchor="start" x="525" y="-216.3" font-family="Arial" font-size="14.00" fill="#000000">symbol_position</text>
<text text-anchor="start" x="525" y="-201.3" font-family="Arial" font-size="14.00" fill="#000000">class_value</text>
<text text-anchor="start" x="525" y="-186.3" font-family="Arial" font-size="14.00" fill="#000000">action_date</text>
<text text-anchor="start" x="525" y="-171.3" font-family="Arial" font-size="14.00" fill="#000000">generating_office</text>
<text text-anchor="start" x="525" y="-156.3" font-family="Arial" font-size="14.00" fill="#000000">class_status</text>
<text text-anchor="start" x="525" y="-141.3" font-family="Arial" font-size="14.00" fill="#000000">class_data_source</text>
<text text-anchor="start" x="525" y="-126.3" font-family="Arial" font-size="14.00" fill="#000000">scheme_origination_code</text>
<text text-anchor="start" x="525" y="-111.3" font-family="Arial" font-size="14.00" fill="#000000">combination_group_number</text>
<text text-anchor="start" x="525" y="-96.3" font-family="Arial" font-size="14.00" fill="#000000">combination_rank_number</text>
<polygon fill="black" stroke="black" points="522,-364.5 522,-364.5 698,-364.5 698,-364.5 522,-364.5"/>
<polygon fill="none" stroke="black" points="522,-90 522,-385 698,-385 698,-90 522,-90"/>
</g>
<!-- us_patents&#45;&gt;usp_cpc_classifications -->
<g id="edge4" class="edge">
<title>us_patents&#45;&gt;usp_cpc_classifications</title>
<path fill="none" stroke="black" d="M824.42,-694.27C785.21,-625.95 742.45,-547.99 707,-475 693.09,-446.36 679.36,-415.19 666.8,-385.17"/>
<text text-anchor="middle" x="650.8" y="-388.97" font-family="Arial" font-size="14.00">0…N</text>
<text text-anchor="middle" x="820.42" y="-698.07" font-family="Arial" font-size="14.00">1</text>
</g>
<!-- usp_related_documents -->
<g id="node6" class="node">
<title>usp_related_documents</title>
<polygon fill="#9fd6ff" stroke="transparent" points="930,-467.5 716,-467.5 716,-7.5 930,-7.5 930,-467.5"/>
<text text-anchor="start" x="744.5" y="-454.3" font-family="Arial" font-weight="bold" font-size="14.00" fill="#000000">usp_related_documents</text>
<text text-anchor="start" x="719" y="-434.3" font-family="Arial" font-size="14.00" fill="#000000">patent_id</text>
<text text-anchor="start" x="719" y="-419.3" font-family="Arial" font-size="14.00" fill="#000000">container_id</text>
<text text-anchor="start" x="719" y="-404.3" font-family="Arial" font-size="14.00" fill="#000000">relation</text>
<text text-anchor="start" x="719" y="-389.3" font-family="Arial" font-size="14.00" fill="#000000">parent_doc_number</text>
<text text-anchor="start" x="719" y="-374.3" font-family="Arial" font-size="14.00" fill="#000000">parent_doc_kind</text>
<text text-anchor="start" x="719" y="-359.3" font-family="Arial" font-size="14.00" fill="#000000">parent_doc_name</text>
<text text-anchor="start" x="719" y="-344.3" font-family="Arial" font-size="14.00" fill="#000000">parent_doc_date</text>
<text text-anchor="start" x="719" y="-329.3" font-family="Arial" font-size="14.00" fill="#000000">status</text>
<text text-anchor="start" x="719" y="-314.3" font-family="Arial" font-size="14.00" fill="#000000">parent_grant_doc_number</text>
<text text-anchor="start" x="719" y="-299.3" font-family="Arial" font-size="14.00" fill="#000000">parent_pct_doc_number</text>
<text text-anchor="start" x="719" y="-284.3" font-family="Arial" font-size="14.00" fill="#000000">parent_filing_date</text>
<text text-anchor="start" x="719" y="-269.3" font-family="Arial" font-size="14.00" fill="#000000">child_doc_number</text>
<text text-anchor="start" x="719" y="-254.3" font-family="Arial" font-size="14.00" fill="#000000">child_doc_kind</text>
<text text-anchor="start" x="719" y="-239.3" font-family="Arial" font-size="14.00" fill="#000000">child_doc_name</text>
<text text-anchor="start" x="719" y="-224.3" font-family="Arial" font-size="14.00" fill="#000000">child_doc_date</text>
<text text-anchor="start" x="719" y="-209.3" font-family="Arial" font-size="14.00" fill="#000000">child_filing_date</text>
<text text-anchor="start" x="719" y="-194.3" font-family="Arial" font-size="14.00" fill="#000000">document_number</text>
<text text-anchor="start" x="719" y="-179.3" font-family="Arial" font-size="14.00" fill="#000000">document_kind</text>
<text text-anchor="start" x="719" y="-164.3" font-family="Arial" font-size="14.00" fill="#000000">document_name</text>
<text text-anchor="start" x="719" y="-149.3" font-family="Arial" font-size="14.00" fill="#000000">document_date</text>
<text text-anchor="start" x="719" y="-134.3" font-family="Arial" font-size="14.00" fill="#000000">provisional_application_status</text>
<text text-anchor="start" x="719" y="-119.3" font-family="Arial" font-size="14.00" fill="#000000">corrected_document_doc_number</text>
<text text-anchor="start" x="719" y="-104.3" font-family="Arial" font-size="14.00" fill="#000000">corrected_document_kind</text>
<text text-anchor="start" x="719" y="-89.3" font-family="Arial" font-size="14.00" fill="#000000">corrected_document_name</text>
<text text-anchor="start" x="719" y="-74.3" font-family="Arial" font-size="14.00" fill="#000000">corrected_document_date</text>
<text text-anchor="start" x="719" y="-59.3" font-family="Arial" font-size="14.00" fill="#000000">type_of_correction</text>
<text text-anchor="start" x="719" y="-44.3" font-family="Arial" font-size="14.00" fill="#000000">gazette_number</text>
<text text-anchor="start" x="719" y="-29.3" font-family="Arial" font-size="14.00" fill="#000000">gazette_date</text>
<text text-anchor="start" x="719" y="-14.3" font-family="Arial" font-size="14.00" fill="#000000">correction_text</text>
<polygon fill="black" stroke="black" points="716,-447.5 716,-447.5 930,-447.5 930,-447.5 716,-447.5"/>
<polygon fill="none" stroke="black" points="716,-7.5 716,-467.5 930,-467.5 930,-7.5 716,-7.5"/>
</g>
<!-- us_patents&#45;&gt;usp_related_documents -->
<g id="edge5" class="edge">
<title>us_patents&#45;&gt;usp_related_documents</title>
<path fill="none" stroke="black" d="M878.98,-546.84C874.11,-520.05 869.28,-493.41 864.6,-467.66"/>
<text text-anchor="middle" x="848.6" y="-471.46" font-family="Arial" font-size="14.00">0…N</text>
<text text-anchor="middle" x="874.98" y="-535.64" font-family="Arial" font-size="14.00">1</text>
</g>
<!-- usp_field_of_classification -->
<g id="node7" class="node">
<title>usp_field_of_classification</title>
<polygon fill="#9fd6ff" stroke="transparent" points="1170,-340 948,-340 948,-135 1170,-135 1170,-340"/>
<text text-anchor="start" x="972.5" y="-326.3" font-family="Arial" font-weight="bold" font-size="14.00" fill="#000000">usp_field_of_classification</text>
<text text-anchor="start" x="951" y="-306.3" font-family="Arial" font-size="14.00" fill="#000000">patent_id</text>
<text text-anchor="start" x="951" y="-291.3" font-family="Arial" font-size="14.00" fill="#000000">container_id</text>
<text text-anchor="start" x="951" y="-276.3" font-family="Arial" font-size="14.00" fill="#000000">ipcr_classification</text>
<text text-anchor="start" x="951" y="-261.3" font-family="Arial" font-size="14.00" fill="#000000">cpc_classification_text</text>
<text text-anchor="start" x="951" y="-246.3" font-family="Arial" font-size="14.00" fill="#000000">cpc_classification_combination_text</text>
<text text-anchor="start" x="951" y="-231.3" font-family="Arial" font-size="14.00" fill="#000000">national_edition</text>
<text text-anchor="start" x="951" y="-216.3" font-family="Arial" font-size="14.00" fill="#000000">national_main</text>
<text text-anchor="start" x="951" y="-201.3" font-family="Arial" font-size="14.00" fill="#000000">national_further</text>
<text text-anchor="start" x="951" y="-186.3" font-family="Arial" font-size="14.00" fill="#000000">national_additional_info</text>
<text text-anchor="start" x="951" y="-171.3" font-family="Arial" font-size="14.00" fill="#000000">national_linked_code_group</text>
<text text-anchor="start" x="951" y="-156.3" font-family="Arial" font-size="14.00" fill="#000000">national_unlinked_code</text>
<text text-anchor="start" x="951" y="-141.3" font-family="Arial" font-size="14.00" fill="#000000">national_text</text>
<polygon fill="black" stroke="black" points="948,-319.5 948,-319.5 1170,-319.5 1170,-319.5 948,-319.5"/>
<polygon fill="none" stroke="black" points="948,-135 948,-340 1170,-340 1170,-135 948,-135"/>
</g>
<!-- us_patents&#45;&gt;usp_field_of_classification -->
<g id="edge6" class="edge">
<title>us_patents&#45;&gt;usp_field_of_classification</title>
<path fill="none" stroke="black" d="M1003.02,-546.84C1016.75,-471.22 1030.26,-396.8 1040.57,-340.02"/>
<text text-anchor="middle" x="1024.57" y="-343.82" font-family="Arial" font-size="14.00">0…N</text>
<text text-anchor="middle" x="999.02" y="-535.64" font-family="Arial" font-size="14.00">1</text>
</g>
<!-- usp_agents -->
<g id="node8" class="node">
<title>usp_agents</title>
<polygon fill="#9fd6ff" stroke="transparent" points="1309.5,-415 1188.5,-415 1188.5,-60 1309.5,-60 1309.5,-415"/>
<text text-anchor="start" x="1211.5" y="-401.3" font-family="Arial" font-weight="bold" font-size="14.00" fill="#000000">usp_agents</text>
<text text-anchor="start" x="1192" y="-381.3" font-family="Arial" font-size="14.00" fill="#000000">patent_id</text>
<text text-anchor="start" x="1192" y="-366.3" font-family="Arial" font-size="14.00" fill="#000000">container_id</text>
<text text-anchor="start" x="1192" y="-351.3" font-family="Arial" font-size="14.00" fill="#000000">sequence</text>
<text text-anchor="start" x="1192" y="-336.3" font-family="Arial" font-size="14.00" fill="#000000">name</text>
<text text-anchor="start" x="1192" y="-321.3" font-family="Arial" font-size="14.00" fill="#000000">first_name</text>
<text text-anchor="start" x="1192" y="-306.3" font-family="Arial" font-size="14.00" fill="#000000">middle_name</text>
<text text-anchor="start" x="1192" y="-291.3" font-family="Arial" font-size="14.00" fill="#000000">last_name</text>
<text text-anchor="start" x="1192" y="-276.3" font-family="Arial" font-size="14.00" fill="#000000">org_name</text>
<text text-anchor="start" x="1192" y="-261.3" font-family="Arial" font-size="14.00" fill="#000000">suffix</text>
<text text-anchor="start" x="1192" y="-246.3" font-family="Arial" font-size="14.00" fill="#000000">iid</text>
<text text-anchor="start" x="1192" y="-231.3" font-family="Arial" font-size="14.00" fill="#000000">role</text>
<text text-anchor="start" x="1192" y="-216.3" font-family="Arial" font-size="14.00" fill="#000000">department</text>
<text text-anchor="start" x="1192" y="-201.3" font-family="Arial" font-size="14.00" fill="#000000">synonym</text>
<text text-anchor="start" x="1192" y="-186.3" font-family="Arial" font-size="14.00" fill="#000000">registered_number</text>
<text text-anchor="start" x="1192" y="-171.3" font-family="Arial" font-size="14.00" fill="#000000">email</text>
<text text-anchor="start" x="1192" y="-156.3" font-family="Arial" font-size="14.00" fill="#000000">url</text>
<text text-anchor="start" x="1192" y="-141.3" font-family="Arial" font-size="14.00" fill="#000000">text</text>
<text text-anchor="start" x="1192" y="-126.3" font-family="Arial" font-size="14.00" fill="#000000">city</text>
<text text-anchor="start" x="1192" y="-111.3" font-family="Arial" font-size="14.00" fill="#000000">state</text>
<text text-anchor="start" x="1192" y="-96.3" font-family="Arial" font-size="14.00" fill="#000000">country</text>
<text text-anchor="start" x="1192" y="-81.3" font-family="Arial" font-size="14.00" fill="#000000">postcode</text>
<text text-anchor="start" x="1192" y="-66.3" font-family="Arial" font-size="14.00" fill="#000000">rep_type</text>
<polygon fill="black" stroke="black" points="1189,-394.5 1189,-394.5 1310,-394.5 1310,-394.5 1189,-394.5"/>
<polygon fill="none" stroke="black" points="1188.5,-60 1188.5,-415 1309.5,-415 1309.5,-60 1188.5,-60"/>
</g>
<!-- us_patents&#45;&gt;usp_agents -->
<g id="edge7" class="edge">
<title>us_patents&#45;&gt;usp_agents</title>
<path fill="none" stroke="black" d="M1057.63,-707.25C1099.74,-636.66 1145.18,-553.89 1179,-475 1187.18,-455.91 1194.78,-435.57 1201.71,-415.13"/>
<text text-anchor="middle" x="1185.71" y="-418.93" font-family="Arial" font-size="14.00">0…N</text>
<text text-anchor="middle" x="1061.63" y="-711.05" font-family="Arial" font-size="14.00">1</text>
</g>
<!-- usp_assignees -->
<g id="node9" class="node">
<title>usp_assignees</title>
<polygon fill="#9fd6ff" stroke="transparent" points="1448.5,-400 1327.5,-400 1327.5,-75 1448.5,-75 1448.5,-400"/>
<text text-anchor="start" x="1340" y="-386.3" font-family="Arial" font-weight="bold" font-size="14.00" fill="#000000">usp_assignees</text>
<text text-anchor="start" x="1331" y="-366.3" font-family="Arial" font-size="14.00" fill="#000000">patent_id</text>
<text text-anchor="start" x="1331" y="-351.3" font-family="Arial" font-size="14.00" fill="#000000">container_id</text>
<text text-anchor="start" x="1331" y="-336.3" font-family="Arial" font-size="14.00" fill="#000000">name</text>
<text text-anchor="start" x="1331" y="-321.3" font-family="Arial" font-size="14.00" fill="#000000">first_name</text>
<text text-anchor="start" x="1331" y="-306.3" font-family="Arial" font-size="14.00" fill="#000000">middle_name</text>
<text text-anchor="start" x="1331" y="-291.3" font-family="Arial" font-size="14.00" fill="#000000">last_name</text>
<text text-anchor="start" x="1331" y="-276.3" font-family="Arial" font-size="14.00" fill="#000000">org_name</text>
<text text-anchor="start" x="1331" y="-261.3" font-family="Arial" font-size="14.00" fill="#000000">suffix</text>
<text text-anchor="start" x="1331" y="-246.3" font-family="Arial" font-size="14.00" fill="#000000">iid</text>
<text text-anchor="start" x="1331" y="-231.3" font-family="Arial" font-size="14.00" fill="#000000">role</text>
<text text-anchor="start" x="1331" y="-216.3" font-family="Arial" font-size="14.00" fill="#000000">department</text>
<text text-anchor="start" x="1331" y="-201.3" font-family="Arial" font-size="14.00" fill="#000000">synonym</text>
<text text-anchor="start" x="1331" y="-186.3" font-family="Arial" font-size="14.00" fill="#000000">registered_number</text>
<text text-anchor="start" x="1331" y="-171.3" font-family="Arial" font-size="14.00" fill="#000000">email</text>
<text text-anchor="start" x="1331" y="-156.3" font-family="Arial" font-size="14.00" fill="#000000">url</text>
<text text-anchor="start" x="1331" y="-141.3" font-family="Arial" font-size="14.00" fill="#000000">text</text>
<text text-anchor="start" x="1331" y="-126.3" font-family="Arial" font-size="14.00" fill="#000000">city</text>
<text text-anchor="start" x="1331" y="-111.3" font-family="Arial" font-size="14.00" fill="#000000">state</text>
<text text-anchor="start" x="1331" y="-96.3" font-family="Arial" font-size="14.00" fill="#000000">country</text>
<text text-anchor="start" x="1331" y="-81.3" font-family="Arial" font-size="14.00" fill="#000000">postcode</text>
<polygon fill="black" stroke="black" points="1328,-379.5 1328,-379.5 1449,-379.5 1449,-379.5 1328,-379.5"/>
<polygon fill="none" stroke="black" points="1327.5,-75 1327.5,-400 1448.5,-400 1448.5,-75 1327.5,-75"/>
</g>
<!-- us_patents&#45;&gt;usp_assignees -->
<g id="edge8" class="edge">
<title>us_patents&#45;&gt;usp_assignees</title>
<path fill="none" stroke="black" d="M1057.52,-788.38C1141.26,-710.65 1250.95,-596.02 1319,-475 1332,-451.89 1342.75,-426.1 1351.57,-400.28"/>
<text text-anchor="middle" x="1335.57" y="-404.08" font-family="Arial" font-size="14.00">0…N</text>
<text text-anchor="middle" x="1061.52" y="-792.18" font-family="Arial" font-size="14.00">1</text>
</g>
<!-- usp_citations -->
<g id="node10" class="node">
<title>usp_citations</title>
<polygon fill="#9fd6ff" stroke="transparent" points="1611,-407.5 1467,-407.5 1467,-67.5 1611,-67.5 1611,-407.5"/>
<text text-anchor="start" x="1495" y="-394.3" font-family="Arial" font-weight="bold" font-size="14.00" fill="#000000">usp_citations</text>
<text text-anchor="start" x="1470" y="-374.3" font-family="Arial" font-size="14.00" fill="#000000">patent_id</text>
<text text-anchor="start" x="1470" y="-359.3" font-family="Arial" font-size="14.00" fill="#000000">container_id</text>
<text text-anchor="start" x="1470" y="-344.3" font-family="Arial" font-size="14.00" fill="#000000">patcit_num</text>
<text text-anchor="start" x="1470" y="-329.3" font-family="Arial" font-size="14.00" fill="#000000">nplcit_num</text>
<text text-anchor="start" x="1470" y="-314.3" font-family="Arial" font-size="14.00" fill="#000000">nplcit_othercit</text>
<text text-anchor="start" x="1470" y="-299.3" font-family="Arial" font-size="14.00" fill="#000000">patcit_doc_number</text>
<text text-anchor="start" x="1470" y="-284.3" font-family="Arial" font-size="14.00" fill="#000000">patcit_country</text>
<text text-anchor="start" x="1470" y="-269.3" font-family="Arial" font-size="14.00" fill="#000000">patcit_kind</text>
<text text-anchor="start" x="1470" y="-254.3" font-family="Arial" font-size="14.00" fill="#000000">patcit_date</text>
<text text-anchor="start" x="1470" y="-239.3" font-family="Arial" font-size="14.00" fill="#000000">patcit_rel_passage</text>
<text text-anchor="start" x="1470" y="-224.3" font-family="Arial" font-size="14.00" fill="#000000">patcit_rel_category</text>
<text text-anchor="start" x="1470" y="-209.3" font-family="Arial" font-size="14.00" fill="#000000">patcit_rel_claims</text>
<text text-anchor="start" x="1470" y="-194.3" font-family="Arial" font-size="14.00" fill="#000000">category</text>
<text text-anchor="start" x="1470" y="-179.3" font-family="Arial" font-size="14.00" fill="#000000">ipc_class_edition</text>
<text text-anchor="start" x="1470" y="-164.3" font-family="Arial" font-size="14.00" fill="#000000">ipc_class_main</text>
<text text-anchor="start" x="1470" y="-149.3" font-family="Arial" font-size="14.00" fill="#000000">ipc_class_further</text>
<text text-anchor="start" x="1470" y="-134.3" font-family="Arial" font-size="14.00" fill="#000000">cpc_class_text</text>
<text text-anchor="start" x="1470" y="-119.3" font-family="Arial" font-size="14.00" fill="#000000">national_class_country</text>
<text text-anchor="start" x="1470" y="-104.3" font-family="Arial" font-size="14.00" fill="#000000">national_class_edition</text>
<text text-anchor="start" x="1470" y="-89.3" font-family="Arial" font-size="14.00" fill="#000000">national_class_main</text>
<text text-anchor="start" x="1470" y="-74.3" font-family="Arial" font-size="14.00" fill="#000000">national_class_further</text>
<polygon fill="black" stroke="black" points="1467,-387.5 1467,-387.5 1611,-387.5 1611,-387.5 1467,-387.5"/>
<polygon fill="none" stroke="black" points="1467,-67.5 1467,-407.5 1611,-407.5 1611,-67.5 1467,-67.5"/>
</g>
<!-- us_patents&#45;&gt;usp_citations -->
<g id="edge9" class="edge">
<title>us_patents&#45;&gt;usp_citations</title>
<path fill="none" stroke="black" d="M1057.76,-822.46C1174.49,-750.87 1351.53,-626.34 1458,-475 1472.36,-454.59 1484.35,-431.42 1494.32,-407.75"/>
<text text-anchor="middle" x="1478.32" y="-411.55" font-family="Arial" font-size="14.00">0…N</text>
<text text-anchor="middle" x="1061.76" y="-826.26" font-family="Arial" font-size="14.00">1</text>
</g>
<!-- usp_patent_family -->
<g id="node11" class="node">
<title>usp_patent_family</title>
<polygon fill="#9fd6ff" stroke="transparent" points="1813,-347.5 1629,-347.5 1629,-127.5 1813,-127.5 1813,-347.5"/>
<text text-anchor="start" x="1661" y="-334.3" font-family="Arial" font-weight="bold" font-size="14.00" fill="#000000">usp_patent_family</text>
<text text-anchor="start" x="1632" y="-314.3" font-family="Arial" font-size="14.00" fill="#000000">patent_id</text>
<text text-anchor="start" x="1632" y="-299.3" font-family="Arial" font-size="14.00" fill="#000000">container_id</text>
<text text-anchor="start" x="1632" y="-284.3" font-family="Arial" font-size="14.00" fill="#000000">priority_app_doc_number</text>
<text text-anchor="start" x="1632" y="-269.3" font-family="Arial" font-size="14.00" fill="#000000">priority_app_country</text>
<text text-anchor="start" x="1632" y="-254.3" font-family="Arial" font-size="14.00" fill="#000000">priority_app_kind</text>
<text text-anchor="start" x="1632" y="-239.3" font-family="Arial" font-size="14.00" fill="#000000">priority_app_name</text>
<text text-anchor="start" x="1632" y="-224.3" font-family="Arial" font-size="14.00" fill="#000000">priority_app_date</text>
<text text-anchor="start" x="1632" y="-209.3" font-family="Arial" font-size="14.00" fill="#000000">family_member_doc_number</text>
<text text-anchor="start" x="1632" y="-194.3" font-family="Arial" font-size="14.00" fill="#000000">family_member_country</text>
<text text-anchor="start" x="1632" y="-179.3" font-family="Arial" font-size="14.00" fill="#000000">family_member_kind</text>
<text text-anchor="start" x="1632" y="-164.3" font-family="Arial" font-size="14.00" fill="#000000">family_member_name</text>
<text text-anchor="start" x="1632" y="-149.3" font-family="Arial" font-size="14.00" fill="#000000">family_member_date</text>
<text text-anchor="start" x="1632" y="-134.3" font-family="Arial" font-size="14.00" fill="#000000">text</text>
<polygon fill="black" stroke="black" points="1629,-327.5 1629,-327.5 1813,-327.5 1813,-327.5 1629,-327.5"/>
<polygon fill="none" stroke="black" points="1629,-127.5 1629,-347.5 1813,-347.5 1813,-127.5 1629,-127.5"/>
</g>
<!-- us_patents&#45;&gt;usp_patent_family -->
<g id="edge10" class="edge">
<title>us_patents&#45;&gt;usp_patent_family</title>
<path fill="none" stroke="black" d="M1057.62,-844.01C1206.34,-781.97 1463.01,-656.28 1620,-475 1651.57,-438.55 1674.47,-390.76 1690.41,-347.69"/>
<text text-anchor="middle" x="1674.41" y="-351.49" font-family="Arial" font-size="14.00">0…N</text>
<text text-anchor="middle" x="1061.62" y="-847.81" font-family="Arial" font-size="14.00">1</text>
</g>
</g>
</svg>
