<?xml version="1.0" encoding="UTF-8" standalone="no"?>
<!DOCTYPE svg PUBLIC "-//W3C//DTD SVG 1.1//EN"
 "http://www.w3.org/Graphics/SVG/1.1/DTD/svg11.dtd">
<!-- Generated by graphviz version 2.38.0 (20140413.2041)
 -->
<!-- Title: D Pages: 1 -->
<svg width="203pt" height="820pt"
 viewBox="0.00 0.00 203.00 820.00" xmlns="http://www.w3.org/2000/svg" xmlns:xlink="http://www.w3.org/1999/xlink">
<g id="graph0" class="graph" transform="scale(1 1) rotate(0) translate(4 816)">
<title>D</title>
<polygon fill="white" stroke="none" points="-4,4 -4,-816 199,-816 199,4 -4,4"/>
<!-- us_patents -->
<g id="node1" class="node"><title>us_patents</title>
<polygon fill="#9fd6ff" stroke="none" points="195,-812 0,-812 0,-337 195,-337 195,-812"/>
<text text-anchor="start" x="59" y="-798.3" font-family="Arial" font-weight="bold" font-size="14.00">us_patents</text>
<text text-anchor="start" x="3.5" y="-778.3" font-family="Arial" font-size="14.00">id</text>
<text text-anchor="start" x="3.5" y="-763.3" font-family="Arial" font-size="14.00">container_id</text>
<text text-anchor="start" x="3.5" y="-748.3" font-family="Arial" font-size="14.00">language</text>
<text text-anchor="start" x="3.5" y="-733.3" font-family="Arial" font-size="14.00">status</text>
<text text-anchor="start" x="3.5" y="-718.3" font-family="Arial" font-size="14.00">country</text>
<text text-anchor="start" x="3.5" y="-703.3" font-family="Arial" font-size="14.00">filename</text>
<text text-anchor="start" x="3.5" y="-688.3" font-family="Arial" font-size="14.00">date_produced</text>
<text text-anchor="start" x="3.5" y="-673.3" font-family="Arial" font-size="14.00">date_published</text>
<text text-anchor="start" x="3.5" y="-658.3" font-family="Arial" font-size="14.00">type</text>
<text text-anchor="start" x="3.5" y="-643.3" font-family="Arial" font-size="14.00">series_code</text>
<text text-anchor="start" x="3.5" y="-628.3" font-family="Arial" font-size="14.00">invention_title</text>
<text text-anchor="start" x="3.5" y="-613.3" font-family="Arial" font-size="14.00">botanic_name</text>
<text text-anchor="start" x="3.5" y="-598.3" font-family="Arial" font-size="14.00">botanic_variety</text>
<text text-anchor="start" x="3.5" y="-583.3" font-family="Arial" font-size="14.00">claims_number</text>
<text text-anchor="start" x="3.5" y="-568.3" font-family="Arial" font-size="14.00">figures_number</text>
<text text-anchor="start" x="3.5" y="-553.3" font-family="Arial" font-size="14.00">drawings_number</text>
<text text-anchor="start" x="3.5" y="-538.3" font-family="Arial" font-size="14.00">microform_number</text>
<text text-anchor="start" x="3.5" y="-523.3" font-family="Arial" font-size="14.00">primary_examiner_firstname</text>
<text text-anchor="start" x="3.5" y="-508.3" font-family="Arial" font-size="14.00">primary_examiner_lastname</text>
<text text-anchor="start" x="3.5" y="-493.3" font-family="Arial" font-size="14.00">assistant_examiner_firstname</text>
<text text-anchor="start" x="3.5" y="-478.3" font-family="Arial" font-size="14.00">assistant_examiner_lastname</text>
<text text-anchor="start" x="3.5" y="-463.3" font-family="Arial" font-size="14.00">authorized_officer_firstname</text>
<text text-anchor="start" x="3.5" y="-448.3" font-family="Arial" font-size="14.00">authorized_officer_lastname</text>
<text text-anchor="start" x="3.5" y="-433.3" font-family="Arial" font-size="14.00">hague_filing_date</text>
<text text-anchor="start" x="3.5" y="-418.3" font-family="Arial" font-size="14.00">hague_reg_pub_date</text>
<text text-anchor="start" x="3.5" y="-403.3" font-family="Arial" font-size="14.00">hague_reg_date</text>
<text text-anchor="start" x="3.5" y="-388.3" font-family="Arial" font-size="14.00">hague_reg_num</text>
<text text-anchor="start" x="3.5" y="-373.3" font-family="Arial" font-size="14.00">sir_flag</text>
<text text-anchor="start" x="3.5" y="-358.3" font-family="Arial" font-size="14.00">cpa_flag</text>
<text text-anchor="start" x="3.5" y="-343.3" font-family="Arial" font-size="14.00">rule47_flag</text>
<polygon fill="black" stroke="black" points="0.5,-791.5 0.5,-791.5 195.5,-791.5 195.5,-791.5 0.5,-791.5"/>
<polygon fill="none" stroke="black" points="0,-337 0,-812 195,-812 195,-337 0,-337"/>
</g>
<!-- icpr_classifications -->
<g id="node2" class="node"><title>icpr_classifications</title>
<polygon fill="#9fd6ff" stroke="none" points="168.5,-265 26.5,-265 26.5,-0 168.5,-0 168.5,-265"/>
<text text-anchor="start" x="29.5" y="-251.3" font-family="Arial" font-weight="bold" font-size="14.00">icpr_classifications</text>
<text text-anchor="start" x="41.5" y="-231.3" font-family="Arial" font-size="14.00">id</text>
<text text-anchor="start" x="41.5" y="-216.3" font-family="Arial" font-size="14.00">container_id</text>
<text text-anchor="start" x="41.5" y="-201.3" font-family="Arial" font-size="14.00">patent_id</text>
<text text-anchor="start" x="41.5" y="-186.3" font-family="Arial" font-size="14.00">ipc_date</text>
<text text-anchor="start" x="41.5" y="-171.3" font-family="Arial" font-size="14.00">class_level</text>
<text text-anchor="start" x="41.5" y="-156.3" font-family="Arial" font-size="14.00">section</text>
<text text-anchor="start" x="41.5" y="-141.3" font-family="Arial" font-size="14.00">class</text>
<text text-anchor="start" x="41.5" y="-126.3" font-family="Arial" font-size="14.00">subclass</text>
<text text-anchor="start" x="41.5" y="-111.3" font-family="Arial" font-size="14.00">main_group</text>
<text text-anchor="start" x="41.5" y="-96.3" font-family="Arial" font-size="14.00">subgroup</text>
<text text-anchor="start" x="41.5" y="-81.3" font-family="Arial" font-size="14.00">symbol_position</text>
<text text-anchor="start" x="41.5" y="-66.3" font-family="Arial" font-size="14.00">class_value</text>
<text text-anchor="start" x="41.5" y="-51.3" font-family="Arial" font-size="14.00">action_date</text>
<text text-anchor="start" x="41.5" y="-36.3" font-family="Arial" font-size="14.00">generating_office</text>
<text text-anchor="start" x="41.5" y="-21.3" font-family="Arial" font-size="14.00">class_status</text>
<text text-anchor="start" x="41.5" y="-6.3" font-family="Arial" font-size="14.00">class_source</text>
<polygon fill="black" stroke="black" points="26.5,-244.5 26.5,-244.5 168.5,-244.5 168.5,-244.5 26.5,-244.5"/>
<polygon fill="none" stroke="black" points="26.5,-0 26.5,-265 168.5,-265 168.5,-0 26.5,-0"/>
</g>
<!-- us_patents&#45;&gt;icpr_classifications -->
<g id="edge1" class="edge"><title>us_patents&#45;&gt;icpr_classifications</title>
<path fill="none" stroke="black" d="M97.5,-336.757C97.5,-312.144 97.5,-287.813 97.5,-265.005"/>
<text text-anchor="middle" x="81" y="-268.805" font-family="Arial" font-size="14.00">1…N</text>
<text text-anchor="middle" x="81" y="-325.557" font-family="Arial" font-size="14.00">1…N</text>
</g>
</g>
</svg>
