<?xml version="1.0" encoding="UTF-8" standalone="no"?>
<!DOCTYPE svg PUBLIC "-//W3C//DTD SVG 1.1//EN"
 "http://www.w3.org/Graphics/SVG/1.1/DTD/svg11.dtd">
<!-- Generated by graphviz version 2.38.0 (20140413.2041)
 -->
<!-- Title: D Pages: 1 -->
<svg width="898pt" height="917pt"
 viewBox="0.00 0.00 898.00 917.00" xmlns="http://www.w3.org/2000/svg" xmlns:xlink="http://www.w3.org/1999/xlink">
<g id="graph0" class="graph" transform="scale(1 1) rotate(0) translate(4 913)">
<title>D</title>
<polygon fill="white" stroke="none" points="-4,4 -4,-913 894,-913 894,4 -4,4"/>
<!-- works -->
<g id="node1" class="node"><title>works</title>
<polygon fill="#ffc62c" stroke="none" points="549,-909 415,-909 415,-584 549,-584 549,-909"/>
<text text-anchor="start" x="460.5" y="-895.3" font-family="Arial" font-weight="bold" font-size="14.00">works</text>
<text text-anchor="start" x="418" y="-875.3" font-family="Arial" font-size="14.00">id</text>
<text text-anchor="start" x="418" y="-860.3" font-family="Arial" font-size="14.00">container_id</text>
<text text-anchor="start" x="418" y="-845.3" font-family="Arial" font-size="14.00">doi</text>
<text text-anchor="start" x="418" y="-830.3" font-family="Arial" font-size="14.00">title</text>
<text text-anchor="start" x="418" y="-815.3" font-family="Arial" font-size="14.00">published_year</text>
<text text-anchor="start" x="418" y="-800.3" font-family="Arial" font-size="14.00">published_month</text>
<text text-anchor="start" x="418" y="-785.3" font-family="Arial" font-size="14.00">published_day</text>
<text text-anchor="start" x="418" y="-770.3" font-family="Arial" font-size="14.00">short_container_title</text>
<text text-anchor="start" x="418" y="-755.3" font-family="Arial" font-size="14.00">container_title</text>
<text text-anchor="start" x="418" y="-740.3" font-family="Arial" font-size="14.00">publisher</text>
<text text-anchor="start" x="418" y="-725.3" font-family="Arial" font-size="14.00">abstract</text>
<text text-anchor="start" x="418" y="-710.3" font-family="Arial" font-size="14.00">type</text>
<text text-anchor="start" x="418" y="-695.3" font-family="Arial" font-size="14.00">subtype</text>
<text text-anchor="start" x="418" y="-680.3" font-family="Arial" font-size="14.00">page</text>
<text text-anchor="start" x="418" y="-665.3" font-family="Arial" font-size="14.00">volume</text>
<text text-anchor="start" x="418" y="-650.3" font-family="Arial" font-size="14.00">article_number</text>
<text text-anchor="start" x="418" y="-635.3" font-family="Arial" font-size="14.00">journal_issue</text>
<text text-anchor="start" x="418" y="-620.3" font-family="Arial" font-size="14.00">issn_print</text>
<text text-anchor="start" x="418" y="-605.3" font-family="Arial" font-size="14.00">issn_electronic</text>
<text text-anchor="start" x="418" y="-590.3" font-family="Arial" font-size="14.00">update_count</text>
<polygon fill="black" stroke="black" points="415,-888.5 415,-888.5 549,-888.5 549,-888.5 415,-888.5"/>
<polygon fill="none" stroke="black" points="415,-584 415,-909 549,-909 549,-584 415,-584"/>
</g>
<!-- work_authors -->
<g id="node2" class="node"><title>work_authors</title>
<polygon fill="#ffc62c" stroke="none" points="131,-422 1,-422 1,-232 131,-232 131,-422"/>
<text text-anchor="start" x="17.5" y="-408.8" font-family="Arial" font-weight="bold" font-size="14.00">work_authors</text>
<text text-anchor="start" x="4" y="-388.8" font-family="Arial" font-size="14.00">id</text>
<text text-anchor="start" x="4" y="-373.8" font-family="Arial" font-size="14.00">container_id</text>
<text text-anchor="start" x="4" y="-358.8" font-family="Arial" font-size="14.00">work_id</text>
<text text-anchor="start" x="4" y="-343.8" font-family="Arial" font-size="14.00">orcid</text>
<text text-anchor="start" x="4" y="-328.8" font-family="Arial" font-size="14.00">suffix</text>
<text text-anchor="start" x="4" y="-313.8" font-family="Arial" font-size="14.00">given</text>
<text text-anchor="start" x="4" y="-298.8" font-family="Arial" font-size="14.00">family</text>
<text text-anchor="start" x="4" y="-283.8" font-family="Arial" font-size="14.00">name</text>
<text text-anchor="start" x="4" y="-268.8" font-family="Arial" font-size="14.00">authenticated_orcid</text>
<text text-anchor="start" x="4" y="-253.8" font-family="Arial" font-size="14.00">prefix</text>
<text text-anchor="start" x="4" y="-238.8" font-family="Arial" font-size="14.00">sequence</text>
<polygon fill="black" stroke="black" points="1,-402 1,-402 131,-402 131,-402 1,-402"/>
<polygon fill="none" stroke="black" points="1,-232 1,-422 131,-422 131,-232 1,-232"/>
</g>
<!-- works&#45;&gt;work_authors -->
<g id="edge1" class="edge"><title>works&#45;&gt;work_authors</title>
<path fill="none" stroke="black" d="M414.691,-714.729C338.575,-676.857 215.445,-605.859 140,-512 118.968,-485.835 103.223,-452.91 91.7875,-422.17"/>
<text text-anchor="middle" x="75.2875" y="-425.97" font-family="Arial" font-size="14.00">1…N</text>
<text text-anchor="middle" x="410.191" y="-718.529" font-family="Arial" font-size="14.00">1</text>
</g>
<!-- work_references -->
<g id="node4" class="node"><title>work_references</title>
<polygon fill="#ffc62c" stroke="none" points="285,-512 149,-512 149,-142 285,-142 285,-512"/>
<text text-anchor="start" x="158" y="-498.8" font-family="Arial" font-weight="bold" font-size="14.00">work_references</text>
<text text-anchor="start" x="152" y="-478.8" font-family="Arial" font-size="14.00">work_id</text>
<text text-anchor="start" x="152" y="-463.8" font-family="Arial" font-size="14.00">container_id</text>
<text text-anchor="start" x="152" y="-448.8" font-family="Arial" font-size="14.00">issn</text>
<text text-anchor="start" x="152" y="-433.8" font-family="Arial" font-size="14.00">standards_body</text>
<text text-anchor="start" x="152" y="-418.8" font-family="Arial" font-size="14.00">issue</text>
<text text-anchor="start" x="152" y="-403.8" font-family="Arial" font-size="14.00">key</text>
<text text-anchor="start" x="152" y="-388.8" font-family="Arial" font-size="14.00">series_title</text>
<text text-anchor="start" x="152" y="-373.8" font-family="Arial" font-size="14.00">isbn_type</text>
<text text-anchor="start" x="152" y="-358.8" font-family="Arial" font-size="14.00">doi_asserted_by</text>
<text text-anchor="start" x="152" y="-343.8" font-family="Arial" font-size="14.00">first_page</text>
<text text-anchor="start" x="152" y="-328.8" font-family="Arial" font-size="14.00">isbn</text>
<text text-anchor="start" x="152" y="-313.8" font-family="Arial" font-size="14.00">doi</text>
<text text-anchor="start" x="152" y="-298.8" font-family="Arial" font-size="14.00">component</text>
<text text-anchor="start" x="152" y="-283.8" font-family="Arial" font-size="14.00">article_title</text>
<text text-anchor="start" x="152" y="-268.8" font-family="Arial" font-size="14.00">volume_title</text>
<text text-anchor="start" x="152" y="-253.8" font-family="Arial" font-size="14.00">volume</text>
<text text-anchor="start" x="152" y="-238.8" font-family="Arial" font-size="14.00">author</text>
<text text-anchor="start" x="152" y="-223.8" font-family="Arial" font-size="14.00">standard_designator</text>
<text text-anchor="start" x="152" y="-208.8" font-family="Arial" font-size="14.00">year</text>
<text text-anchor="start" x="152" y="-193.8" font-family="Arial" font-size="14.00">unstructured</text>
<text text-anchor="start" x="152" y="-178.8" font-family="Arial" font-size="14.00">edition</text>
<text text-anchor="start" x="152" y="-163.8" font-family="Arial" font-size="14.00">journal_title</text>
<text text-anchor="start" x="152" y="-148.8" font-family="Arial" font-size="14.00">issn_type</text>
<polygon fill="black" stroke="black" points="149,-492 149,-492 285,-492 285,-492 149,-492"/>
<polygon fill="none" stroke="black" points="149,-142 149,-512 285,-512 285,-142 149,-142"/>
</g>
<!-- works&#45;&gt;work_references -->
<g id="edge3" class="edge"><title>works&#45;&gt;work_references</title>
<path fill="none" stroke="black" d="M414.913,-673.221C376.188,-628.98 328.484,-569.908 294,-512 290.988,-506.942 288.036,-501.744 285.151,-496.448"/>
<text text-anchor="middle" x="301.651" y="-500.248" font-family="Arial" font-size="14.00">0…N</text>
<text text-anchor="middle" x="410.413" y="-677.021" font-family="Arial" font-size="14.00">1</text>
</g>
<!-- work_updates -->
<g id="node5" class="node"><title>work_updates</title>
<polygon fill="#ffc62c" stroke="none" points="409,-377 303,-377 303,-277 409,-277 409,-377"/>
<text text-anchor="start" x="306" y="-363.8" font-family="Arial" font-weight="bold" font-size="14.00">work_updates</text>
<text text-anchor="start" x="317" y="-343.8" font-family="Arial" font-size="14.00">work_id</text>
<text text-anchor="start" x="317" y="-328.8" font-family="Arial" font-size="14.00">container_id</text>
<text text-anchor="start" x="317" y="-313.8" font-family="Arial" font-size="14.00">label</text>
<text text-anchor="start" x="317" y="-298.8" font-family="Arial" font-size="14.00">doi</text>
<text text-anchor="start" x="317" y="-283.8" font-family="Arial" font-size="14.00">timestamp</text>
<polygon fill="black" stroke="black" points="303,-357 303,-357 409,-357 409,-357 303,-357"/>
<polygon fill="none" stroke="black" points="303,-277 303,-377 409,-377 409,-277 303,-277"/>
</g>
<!-- works&#45;&gt;work_updates -->
<g id="edge4" class="edge"><title>works&#45;&gt;work_updates</title>
<path fill="none" stroke="black" d="M433.195,-583.785C410.908,-509.938 386.122,-427.808 370.795,-377.021"/>
<text text-anchor="middle" x="354.295" y="-380.821" font-family="Arial" font-size="14.00">0…N</text>
<text text-anchor="middle" x="428.695" y="-572.585" font-family="Arial" font-size="14.00">1</text>
</g>
<!-- work_subjects -->
<g id="node6" class="node"><title>work_subjects</title>
<polygon fill="#ffc62c" stroke="none" points="536.5,-362 427.5,-362 427.5,-292 536.5,-292 536.5,-362"/>
<text text-anchor="start" x="431" y="-348.8" font-family="Arial" font-weight="bold" font-size="14.00">work_subjects</text>
<text text-anchor="start" x="443.5" y="-328.8" font-family="Arial" font-size="14.00">work_id</text>
<text text-anchor="start" x="443.5" y="-313.8" font-family="Arial" font-size="14.00">container_id</text>
<text text-anchor="start" x="443.5" y="-298.8" font-family="Arial" font-size="14.00">name</text>
<polygon fill="black" stroke="black" points="428,-342 428,-342 537,-342 537,-342 428,-342"/>
<polygon fill="none" stroke="black" points="427.5,-292 427.5,-362 536.5,-362 536.5,-292 427.5,-292"/>
</g>
<!-- works&#45;&gt;work_subjects -->
<g id="edge5" class="edge"><title>works&#45;&gt;work_subjects</title>
<path fill="none" stroke="black" d="M482,-583.785C482,-502.141 482,-410.371 482,-362.029"/>
<text text-anchor="middle" x="465.5" y="-365.829" font-family="Arial" font-size="14.00">0…N</text>
<text text-anchor="middle" x="477.5" y="-572.585" font-family="Arial" font-size="14.00">1</text>
</g>
<!-- work_funders -->
<g id="node7" class="node"><title>work_funders</title>
<polygon fill="#ffc62c" stroke="none" points="657.5,-377 554.5,-377 554.5,-277 657.5,-277 657.5,-377"/>
<text text-anchor="start" x="558" y="-363.8" font-family="Arial" font-weight="bold" font-size="14.00">work_funders</text>
<text text-anchor="start" x="567.5" y="-343.8" font-family="Arial" font-size="14.00">id</text>
<text text-anchor="start" x="567.5" y="-328.8" font-family="Arial" font-size="14.00">container_id</text>
<text text-anchor="start" x="567.5" y="-313.8" font-family="Arial" font-size="14.00">work_id</text>
<text text-anchor="start" x="567.5" y="-298.8" font-family="Arial" font-size="14.00">doi</text>
<text text-anchor="start" x="567.5" y="-283.8" font-family="Arial" font-size="14.00">name</text>
<polygon fill="black" stroke="black" points="555,-357 555,-357 658,-357 658,-357 555,-357"/>
<polygon fill="none" stroke="black" points="554.5,-277 554.5,-377 657.5,-377 657.5,-277 554.5,-277"/>
</g>
<!-- works&#45;&gt;work_funders -->
<g id="edge6" class="edge"><title>works&#45;&gt;work_funders</title>
<path fill="none" stroke="black" d="M530.03,-583.785C551.963,-509.938 576.356,-427.808 591.44,-377.021"/>
<text text-anchor="middle" x="574.94" y="-380.821" font-family="Arial" font-size="14.00">0…N</text>
<text text-anchor="middle" x="525.53" y="-572.585" font-family="Arial" font-size="14.00">1</text>
</g>
<!-- work_licenses -->
<g id="node8" class="node"><title>work_licenses</title>
<polygon fill="#ffc62c" stroke="none" points="784,-377 676,-377 676,-277 784,-277 784,-377"/>
<text text-anchor="start" x="679.5" y="-363.8" font-family="Arial" font-weight="bold" font-size="14.00">work_licenses</text>
<text text-anchor="start" x="679" y="-343.8" font-family="Arial" font-size="14.00">work_id</text>
<text text-anchor="start" x="679" y="-328.8" font-family="Arial" font-size="14.00">container_id</text>
<text text-anchor="start" x="679" y="-313.8" font-family="Arial" font-size="14.00">url</text>
<text text-anchor="start" x="679" y="-298.8" font-family="Arial" font-size="14.00">start_timestamp</text>
<text text-anchor="start" x="679" y="-283.8" font-family="Arial" font-size="14.00">delay_in_days</text>
<polygon fill="black" stroke="black" points="676,-357 676,-357 784,-357 784,-357 676,-357"/>
<polygon fill="none" stroke="black" points="676,-277 676,-377 784,-377 784,-277 676,-277"/>
</g>
<!-- works&#45;&gt;work_licenses -->
<g id="edge7" class="edge"><title>works&#45;&gt;work_licenses</title>
<path fill="none" stroke="black" d="M549.131,-674.114C587.747,-630.07 634.83,-570.893 667,-512 690.551,-468.885 707.682,-415.342 718.083,-377.152"/>
<text text-anchor="middle" x="701.583" y="-380.952" font-family="Arial" font-size="14.00">0…N</text>
<text text-anchor="middle" x="553.631" y="-677.914" font-family="Arial" font-size="14.00">1</text>
</g>
<!-- work_links -->
<g id="node9" class="node"><title>work_links</title>
<polygon fill="#ffc62c" stroke="none" points="890,-369.5 802,-369.5 802,-284.5 890,-284.5 890,-369.5"/>
<text text-anchor="start" x="808" y="-355.8" font-family="Arial" font-weight="bold" font-size="14.00">work_links</text>
<text text-anchor="start" x="805" y="-335.8" font-family="Arial" font-size="14.00">work_id</text>
<text text-anchor="start" x="805" y="-320.8" font-family="Arial" font-size="14.00">container_id</text>
<text text-anchor="start" x="805" y="-305.8" font-family="Arial" font-size="14.00">url</text>
<text text-anchor="start" x="805" y="-290.8" font-family="Arial" font-size="14.00">content_type</text>
<polygon fill="black" stroke="black" points="802,-349 802,-349 890,-349 890,-349 802,-349"/>
<polygon fill="none" stroke="black" points="802,-284.5 802,-369.5 890,-369.5 890,-284.5 802,-284.5"/>
</g>
<!-- works&#45;&gt;work_links -->
<g id="edge8" class="edge"><title>works&#45;&gt;work_links</title>
<path fill="none" stroke="black" d="M549.276,-712.026C620.191,-673.351 730.148,-603.161 793,-512 822.72,-468.894 835.931,-409.182 841.698,-369.614"/>
<text text-anchor="middle" x="825.198" y="-373.414" font-family="Arial" font-size="14.00">0…N</text>
<text text-anchor="middle" x="553.776" y="-715.826" font-family="Arial" font-size="14.00">1</text>
</g>
<!-- author_affiliations -->
<g id="node3" class="node"><title>author_affiliations</title>
<polygon fill="#ffc62c" stroke="none" points="132,-70 0,-70 0,-0 132,-0 132,-70"/>
<text text-anchor="start" x="3" y="-56.8" font-family="Arial" font-weight="bold" font-size="14.00">author_affiliations</text>
<text text-anchor="start" x="27" y="-36.8" font-family="Arial" font-size="14.00">author_id</text>
<text text-anchor="start" x="27" y="-21.8" font-family="Arial" font-size="14.00">container_id</text>
<text text-anchor="start" x="27" y="-6.8" font-family="Arial" font-size="14.00">name</text>
<polygon fill="black" stroke="black" points="0,-50 0,-50 132,-50 132,-50 0,-50"/>
<polygon fill="none" stroke="black" points="0,-0 0,-70 132,-70 132,-0 0,-0"/>
</g>
<!-- work_authors&#45;&gt;author_affiliations -->
<g id="edge2" class="edge"><title>work_authors&#45;&gt;author_affiliations</title>
<path fill="none" stroke="black" d="M66,-231.845C66,-176.441 66,-109.696 66,-70.1697"/>
<text text-anchor="middle" x="49.5" y="-73.9697" font-family="Arial" font-size="14.00">1…N</text>
<text text-anchor="middle" x="61.5" y="-220.645" font-family="Arial" font-size="14.00">1</text>
</g>
<!-- funder_awards -->
<g id="node10" class="node"><title>funder_awards</title>
<polygon fill="#ffc62c" stroke="none" points="662,-70 550,-70 550,-0 662,-0 662,-70"/>
<text text-anchor="start" x="553" y="-56.8" font-family="Arial" font-weight="bold" font-size="14.00">funder_awards</text>
<text text-anchor="start" x="567" y="-36.8" font-family="Arial" font-size="14.00">funder_id</text>
<text text-anchor="start" x="567" y="-21.8" font-family="Arial" font-size="14.00">container_id</text>
<text text-anchor="start" x="567" y="-6.8" font-family="Arial" font-size="14.00">name</text>
<polygon fill="black" stroke="black" points="550,-50 550,-50 662,-50 662,-50 550,-50"/>
<polygon fill="none" stroke="black" points="550,-0 550,-70 662,-70 662,-0 550,-0"/>
</g>
<!-- work_funders&#45;&gt;funder_awards -->
<g id="edge9" class="edge"><title>work_funders&#45;&gt;funder_awards</title>
<path fill="none" stroke="black" d="M606,-276.805C606,-218.145 606,-121.62 606,-70.4079"/>
<text text-anchor="middle" x="589.5" y="-74.2079" font-family="Arial" font-size="14.00">0…N</text>
<text text-anchor="middle" x="601.5" y="-265.605" font-family="Arial" font-size="14.00">1</text>
</g>
</g>
</svg>
