<?xml version="1.0" encoding="UTF-8" standalone="no"?>
<!DOCTYPE svg PUBLIC "-//W3C//DTD SVG 1.1//EN"
 "http://www.w3.org/Graphics/SVG/1.1/DTD/svg11.dtd">
<!-- Generated by graphviz version 2.38.0 (20140413.2041)
 -->
<!-- Title: D Pages: 1 -->
<svg width="1027pt" height="310pt"
 viewBox="0.00 0.00 1026.50 310.00" xmlns="http://www.w3.org/2000/svg" xmlns:xlink="http://www.w3.org/1999/xlink">
<g id="graph0" class="graph" transform="scale(1 1) rotate(0) translate(4 306)">
<title>D</title>
<polygon fill="white" stroke="none" points="-4,4 -4,-306 1022.5,-306 1022.5,4 -4,4"/>
<!-- research_organizations -->
<g id="node1" class="node"><title>research_organizations</title>
<polygon fill="#53baa1" stroke="none" points="557,-302 385,-302 385,-187 557,-187 557,-302"/>
<text text-anchor="start" x="388" y="-288.3" font-family="Arial" font-weight="bold" font-size="14.00">research_organizations</text>
<text text-anchor="start" x="427.5" y="-268.3" font-family="Arial" font-size="14.00">id</text>
<text text-anchor="start" x="427.5" y="-253.3" font-family="Arial" font-size="14.00">ror_path</text>
<text text-anchor="start" x="427.5" y="-238.3" font-family="Arial" font-size="14.00">name</text>
<text text-anchor="start" x="427.5" y="-223.3" font-family="Arial" font-size="14.00">status</text>
<text text-anchor="start" x="427.5" y="-208.3" font-family="Arial" font-size="14.00">established</text>
<text text-anchor="start" x="427.5" y="-193.3" font-family="Arial" font-size="14.00">country_code</text>
<polygon fill="black" stroke="black" points="385,-281.5 385,-281.5 557,-281.5 557,-281.5 385,-281.5"/>
<polygon fill="none" stroke="black" points="385,-187 385,-302 557,-302 557,-187 385,-187"/>
</g>
<!-- ror_types -->
<g id="node2" class="node"><title>ror_types</title>
<polygon fill="#53baa1" stroke="none" points="74,-85 0,-85 0,-30 74,-30 74,-85"/>
<text text-anchor="start" x="3" y="-71.3" font-family="Arial" font-weight="bold" font-size="14.00">ror_types</text>
<text text-anchor="start" x="18.5" y="-51.3" font-family="Arial" font-size="14.00">ror_id</text>
<text text-anchor="start" x="18.5" y="-36.3" font-family="Arial" font-size="14.00">type</text>
<polygon fill="black" stroke="black" points="0,-64.5 0,-64.5 74,-64.5 74,-64.5 0,-64.5"/>
<polygon fill="none" stroke="black" points="0,-30 0,-85 74,-85 74,-30 0,-30"/>
</g>
<!-- research_organizations&#45;&gt;ror_types -->
<g id="edge1" class="edge"><title>research_organizations&#45;&gt;ror_types</title>
<path fill="none" stroke="black" d="M384.927,-229.483C301.865,-212.782 175.447,-178.743 83,-115 71.6493,-107.174 61.6251,-95.769 53.8556,-85.2521"/>
<text text-anchor="middle" x="37.3556" y="-89.0521" font-family="Arial" font-size="14.00">1…N</text>
<text text-anchor="middle" x="380.427" y="-233.283" font-family="Arial" font-size="14.00">1</text>
</g>
<!-- ror_links -->
<g id="node3" class="node"><title>ror_links</title>
<polygon fill="#53baa1" stroke="none" points="161.5,-85 92.5,-85 92.5,-30 161.5,-30 161.5,-85"/>
<text text-anchor="start" x="96" y="-71.3" font-family="Arial" font-weight="bold" font-size="14.00">ror_links</text>
<text text-anchor="start" x="109" y="-51.3" font-family="Arial" font-size="14.00">ror_id</text>
<text text-anchor="start" x="109" y="-36.3" font-family="Arial" font-size="14.00">link</text>
<polygon fill="black" stroke="black" points="93,-64.5 93,-64.5 162,-64.5 162,-64.5 93,-64.5"/>
<polygon fill="none" stroke="black" points="92.5,-30 92.5,-85 161.5,-85 161.5,-30 92.5,-30"/>
</g>
<!-- research_organizations&#45;&gt;ror_links -->
<g id="edge2" class="edge"><title>research_organizations&#45;&gt;ror_links</title>
<path fill="none" stroke="black" d="M384.967,-219.896C321.109,-199.42 234.319,-165.112 170,-115 159.498,-106.818 150.204,-95.4838 142.968,-85.1133"/>
<text text-anchor="middle" x="126.468" y="-88.9133" font-family="Arial" font-size="14.00">0…N</text>
<text text-anchor="middle" x="380.467" y="-208.696" font-family="Arial" font-size="14.00">1</text>
</g>
<!-- ror_aliases -->
<g id="node4" class="node"><title>ror_aliases</title>
<polygon fill="#53baa1" stroke="none" points="264.5,-85 179.5,-85 179.5,-30 264.5,-30 264.5,-85"/>
<text text-anchor="start" x="183" y="-71.3" font-family="Arial" font-weight="bold" font-size="14.00">ror_aliases</text>
<text text-anchor="start" x="204" y="-51.3" font-family="Arial" font-size="14.00">ror_id</text>
<text text-anchor="start" x="204" y="-36.3" font-family="Arial" font-size="14.00">alias</text>
<polygon fill="black" stroke="black" points="180,-64.5 180,-64.5 265,-64.5 265,-64.5 180,-64.5"/>
<polygon fill="none" stroke="black" points="179.5,-30 179.5,-85 264.5,-85 264.5,-30 179.5,-30"/>
</g>
<!-- research_organizations&#45;&gt;ror_aliases -->
<g id="edge3" class="edge"><title>research_organizations&#45;&gt;ror_aliases</title>
<path fill="none" stroke="black" d="M384.825,-193.799C349.104,-171.573 308.129,-143.888 274,-115 263.418,-106.043 252.851,-95.0386 244.035,-85.1289"/>
<text text-anchor="middle" x="227.535" y="-88.9289" font-family="Arial" font-size="14.00">0…N</text>
<text text-anchor="middle" x="380.325" y="-182.599" font-family="Arial" font-size="14.00">1</text>
</g>
<!-- ror_acronyms -->
<g id="node5" class="node"><title>ror_acronyms</title>
<polygon fill="#53baa1" stroke="none" points="389,-85 283,-85 283,-30 389,-30 389,-85"/>
<text text-anchor="start" x="286" y="-71.3" font-family="Arial" font-weight="bold" font-size="14.00">ror_acronyms</text>
<text text-anchor="start" x="308.5" y="-51.3" font-family="Arial" font-size="14.00">ror_id</text>
<text text-anchor="start" x="308.5" y="-36.3" font-family="Arial" font-size="14.00">acronym</text>
<polygon fill="black" stroke="black" points="283,-64.5 283,-64.5 389,-64.5 389,-64.5 283,-64.5"/>
<polygon fill="none" stroke="black" points="283,-30 283,-85 389,-85 389,-30 283,-30"/>
</g>
<!-- research_organizations&#45;&gt;ror_acronyms -->
<g id="edge4" class="edge"><title>research_organizations&#45;&gt;ror_acronyms</title>
<path fill="none" stroke="black" d="M429.762,-186.989C405.026,-153.092 374.716,-111.556 355.38,-85.0583"/>
<text text-anchor="middle" x="338.88" y="-88.8583" font-family="Arial" font-size="14.00">0…N</text>
<text text-anchor="middle" x="425.262" y="-175.789" font-family="Arial" font-size="14.00">1</text>
</g>
<!-- ror_relationships -->
<g id="node6" class="node"><title>ror_relationships</title>
<polygon fill="#53baa1" stroke="none" points="534.5,-92.5 407.5,-92.5 407.5,-22.5 534.5,-22.5 534.5,-92.5"/>
<text text-anchor="start" x="411" y="-79.3" font-family="Arial" font-weight="bold" font-size="14.00">ror_relationships</text>
<text text-anchor="start" x="445" y="-59.3" font-family="Arial" font-size="14.00">ror_id</text>
<text text-anchor="start" x="445" y="-44.3" font-family="Arial" font-size="14.00">type</text>
<text text-anchor="start" x="445" y="-29.3" font-family="Arial" font-size="14.00">ror_path</text>
<polygon fill="black" stroke="black" points="408,-72.5 408,-72.5 535,-72.5 535,-72.5 408,-72.5"/>
<polygon fill="none" stroke="black" points="407.5,-22.5 407.5,-92.5 534.5,-92.5 534.5,-22.5 407.5,-22.5"/>
</g>
<!-- research_organizations&#45;&gt;ror_relationships -->
<g id="edge5" class="edge"><title>research_organizations&#45;&gt;ror_relationships</title>
<path fill="none" stroke="black" d="M471,-186.989C471,-156.173 471,-119.045 471,-92.6407"/>
<text text-anchor="middle" x="454.5" y="-96.4407" font-family="Arial" font-size="14.00">0…N</text>
<text text-anchor="middle" x="466.5" y="-175.789" font-family="Arial" font-size="14.00">1</text>
</g>
<!-- ror_addresses -->
<g id="node7" class="node"><title>ror_addresses</title>
<polygon fill="#53baa1" stroke="none" points="661.5,-115 552.5,-115 552.5,-0 661.5,-0 661.5,-115"/>
<text text-anchor="start" x="556" y="-101.3" font-family="Arial" font-weight="bold" font-size="14.00">ror_addresses</text>
<text text-anchor="start" x="577" y="-81.3" font-family="Arial" font-size="14.00">ror_id</text>
<text text-anchor="start" x="577" y="-66.3" font-family="Arial" font-size="14.00">lat</text>
<text text-anchor="start" x="577" y="-51.3" font-family="Arial" font-size="14.00">lng</text>
<text text-anchor="start" x="577" y="-36.3" font-family="Arial" font-size="14.00">city</text>
<text text-anchor="start" x="577" y="-21.3" font-family="Arial" font-size="14.00">state</text>
<text text-anchor="start" x="577" y="-6.3" font-family="Arial" font-size="14.00">postcode</text>
<polygon fill="black" stroke="black" points="553,-94.5 553,-94.5 662,-94.5 662,-94.5 553,-94.5"/>
<polygon fill="none" stroke="black" points="552.5,-0 552.5,-115 661.5,-115 661.5,-0 552.5,-0"/>
</g>
<!-- research_organizations&#45;&gt;ror_addresses -->
<g id="edge6" class="edge"><title>research_organizations&#45;&gt;ror_addresses</title>
<path fill="none" stroke="black" d="M512.543,-186.989C529.26,-164.249 548.504,-138.072 565.242,-115.303"/>
<text text-anchor="middle" x="548.742" y="-119.103" font-family="Arial" font-size="14.00">0…N</text>
<text text-anchor="middle" x="508.043" y="-175.789" font-family="Arial" font-size="14.00">1</text>
</g>
<!-- ror_funder_ids -->
<g id="node8" class="node"><title>ror_funder_ids</title>
<polygon fill="#53baa1" stroke="none" points="790.5,-85 679.5,-85 679.5,-30 790.5,-30 790.5,-85"/>
<text text-anchor="start" x="683" y="-71.3" font-family="Arial" font-weight="bold" font-size="14.00">ror_funder_ids</text>
<text text-anchor="start" x="705" y="-51.3" font-family="Arial" font-size="14.00">ror_id</text>
<text text-anchor="start" x="705" y="-36.3" font-family="Arial" font-size="14.00">funder_id</text>
<polygon fill="black" stroke="black" points="680,-64.5 680,-64.5 791,-64.5 791,-64.5 680,-64.5"/>
<polygon fill="none" stroke="black" points="679.5,-30 679.5,-85 790.5,-85 790.5,-30 679.5,-30"/>
</g>
<!-- research_organizations&#45;&gt;ror_funder_ids -->
<g id="edge7" class="edge"><title>research_organizations&#45;&gt;ror_funder_ids</title>
<path fill="none" stroke="black" d="M557.107,-192.187C593.143,-169.695 634.946,-142.247 671,-115 683.179,-105.796 695.918,-94.8518 706.795,-85.058"/>
<text text-anchor="middle" x="690.295" y="-88.858" font-family="Arial" font-size="14.00">0…N</text>
<text text-anchor="middle" x="561.607" y="-195.987" font-family="Arial" font-size="14.00">1</text>
</g>
<!-- ror_wikidata_ids -->
<g id="node9" class="node"><title>ror_wikidata_ids</title>
<polygon fill="#53baa1" stroke="none" points="931,-85 809,-85 809,-30 931,-30 931,-85"/>
<text text-anchor="start" x="812" y="-71.3" font-family="Arial" font-weight="bold" font-size="14.00">ror_wikidata_ids</text>
<text text-anchor="start" x="835" y="-51.3" font-family="Arial" font-size="14.00">ror_id</text>
<text text-anchor="start" x="835" y="-36.3" font-family="Arial" font-size="14.00">wikidata_id</text>
<polygon fill="black" stroke="black" points="809,-64.5 809,-64.5 931,-64.5 931,-64.5 809,-64.5"/>
<polygon fill="none" stroke="black" points="809,-30 809,-85 931,-85 931,-30 809,-30"/>
</g>
<!-- research_organizations&#45;&gt;ror_wikidata_ids -->
<g id="edge8" class="edge"><title>research_organizations&#45;&gt;ror_wikidata_ids</title>
<path fill="none" stroke="black" d="M557.087,-217.94C625.454,-195.77 722.164,-160.159 800,-115 814.454,-106.614 829.054,-95.3677 841.154,-85.1172"/>
<text text-anchor="middle" x="824.654" y="-88.9172" font-family="Arial" font-size="14.00">0…N</text>
<text text-anchor="middle" x="561.587" y="-221.74" font-family="Arial" font-size="14.00">1</text>
</g>
<!-- ror_isnis -->
<g id="node10" class="node"><title>ror_isnis</title>
<polygon fill="#53baa1" stroke="none" points="1018.5,-85 949.5,-85 949.5,-30 1018.5,-30 1018.5,-85"/>
<text text-anchor="start" x="953" y="-71.3" font-family="Arial" font-weight="bold" font-size="14.00">ror_isnis</text>
<text text-anchor="start" x="966" y="-51.3" font-family="Arial" font-size="14.00">ror_id</text>
<text text-anchor="start" x="966" y="-36.3" font-family="Arial" font-size="14.00">isni</text>
<polygon fill="black" stroke="black" points="950,-64.5 950,-64.5 1019,-64.5 1019,-64.5 950,-64.5"/>
<polygon fill="none" stroke="black" points="949.5,-30 949.5,-85 1018.5,-85 1018.5,-30 949.5,-30"/>
</g>
<!-- research_organizations&#45;&gt;ror_isnis -->
<g id="edge9" class="edge"><title>research_organizations&#45;&gt;ror_isnis</title>
<path fill="none" stroke="black" d="M557.33,-236.288C656.9,-224.452 822.01,-193.708 940,-115 951.377,-107.411 961.101,-95.9119 968.491,-85.2644"/>
<text text-anchor="middle" x="951.991" y="-89.0644" font-family="Arial" font-size="14.00">0…N</text>
<text text-anchor="middle" x="561.83" y="-240.088" font-family="Arial" font-size="14.00">1</text>
</g>
</g>
</svg>
